<svg xmlns="http://www.w3.org/2000/svg" width="527" height="269" fill="none"><rect width="527" height="362" fill="#fff" rx="12"/><path fill="#343A40" d="M31.49 45.3c-1.44 0-2.673-.313-3.7-.94-1.027-.633-1.817-1.513-2.37-2.64-.547-1.127-.82-2.433-.82-3.92s.273-2.793.82-3.92c.553-1.127 1.343-2.003 2.37-2.63 1.027-.633 2.26-.95 3.7-.95 1.66 0 3.043.417 4.15 1.25 1.107.827 1.883 1.943 2.33 3.35l-2.43.67c-.28-.94-.757-1.673-1.43-2.2-.673-.533-1.547-.8-2.62-.8-.967 0-1.773.217-2.42.65-.64.433-1.123 1.043-1.45 1.83-.32.78-.483 1.697-.49 2.75 0 1.053.16 1.973.48 2.76.327.78.813 1.387 1.46 1.82.647.433 1.453.65 2.42.65 1.073 0 1.947-.267 2.62-.8s1.15-1.267 1.43-2.2l2.43.67c-.447 1.407-1.223 2.527-2.33 3.36-1.107.827-2.49 1.24-4.15 1.24Zm13.866 0c-1.054 0-1.937-.25-2.65-.75-.714-.5-1.25-1.18-1.61-2.04-.36-.867-.54-1.837-.54-2.91 0-1.087.18-2.06.54-2.92.36-.86.886-1.537 1.58-2.03.7-.5 1.563-.75 2.59-.75 1.02 0 1.903.25 2.65.75.753.493 1.336 1.17 1.75 2.03.413.853.62 1.827.62 2.92 0 1.08-.204 2.05-.61 2.91-.407.86-.98 1.54-1.72 2.04s-1.607.75-2.6.75Zm-5.21 4.5V34.2h2.13v7.58h.3v8.02h-2.43Zm4.84-6.66c.626 0 1.143-.157 1.55-.47.406-.313.706-.737.9-1.27.2-.54.3-1.14.3-1.8 0-.653-.1-1.247-.3-1.78-.2-.54-.51-.967-.93-1.28-.42-.32-.954-.48-1.6-.48-.614 0-1.114.15-1.5.45-.387.293-.674.707-.86 1.24-.18.527-.27 1.143-.27 1.85 0 .7.09 1.317.27 1.85.186.533.476.95.87 1.25.4.293.923.44 1.57.44ZM57.4 45.3c-1.093 0-2.053-.237-2.88-.71a5.056 5.056 0 0 1-1.94-1.97c-.46-.84-.69-1.807-.69-2.9 0-1.18.227-2.203.68-3.07.453-.873 1.083-1.55 1.89-2.03.806-.48 1.74-.72 2.8-.72 1.12 0 2.07.263 2.85.79.787.52 1.37 1.257 1.75 2.21.38.953.523 2.077.43 3.37H59.9v-.88c-.007-1.173-.213-2.03-.62-2.57-.407-.54-1.047-.81-1.92-.81-.987 0-1.72.307-2.2.92-.48.607-.72 1.497-.72 2.67 0 1.093.24 1.94.72 2.54.48.6 1.18.9 2.1.9.593 0 1.103-.13 1.53-.39.433-.267.767-.65 1-1.15l2.38.72c-.413.973-1.053 1.73-1.92 2.27-.86.54-1.81.81-2.85.81Zm-3.72-5.03v-1.82h7.43v1.82h-7.43ZM63.72 47.4v-4.29c.587 0 1.003-.2 1.25-.6.247-.4.443-1.093.59-2.08.093-.587.17-1.207.23-1.86s.11-1.343.15-2.07c.047-.727.087-1.493.12-2.3h8.04v8.91h1.09v4.29h-2.28V45h-6.92v2.4h-2.27Zm3.23-4.29h4.75v-7.02h-3.53a78.272 78.272 0 0 1-.16 2.47c-.033.413-.07.81-.11 1.19-.033.373-.073.72-.12 1.04a9.178 9.178 0 0 1-.27 1.38 2.19 2.19 0 0 1-.56.94ZM77.177 45V34.2h2.41v4.26h4.85V34.2h2.41V45h-2.41v-4.28h-4.85V45h-2.41Zm21.821-10.8V45h-2.31v-7.05L91.548 45h-1.93V34.2h2.31v6.87l5.16-6.87h1.91Zm7.798-1.22c-.553 0-1.06-.137-1.52-.41a3.137 3.137 0 0 1-1.1-1.09c-.273-.46-.41-.97-.41-1.53h1.88c0 .32.11.593.33.82.227.22.5.33.82.33.32 0 .59-.11.81-.33.227-.227.34-.5.34-.82h1.88c0 .56-.136 1.07-.41 1.53a3.13 3.13 0 0 1-1.1 1.09c-.46.273-.966.41-1.52.41Zm4.37 1.22V45h-2.31v-7.05l-5.14 7.05h-1.93V34.2h2.31v6.87l5.16-6.87h1.91Zm6.792 10.8V34.2h9.38V45h-2.41v-8.54h-4.56V45h-2.41Zm17.378.3c-1.053 0-1.937-.25-2.65-.75-.713-.5-1.25-1.18-1.61-2.04-.36-.867-.54-1.837-.54-2.91 0-1.087.18-2.06.54-2.92.36-.86.887-1.537 1.58-2.03.7-.5 1.563-.75 2.59-.75 1.02 0 1.903.25 2.65.75.753.493 1.337 1.17 1.75 2.03.413.853.62 1.827.62 2.92 0 1.08-.203 2.05-.61 2.91-.407.86-.98 1.54-1.72 2.04s-1.607.75-2.6.75Zm-5.21 4.5V34.2h2.13v7.58h.3v8.02h-2.43Zm4.84-6.66c.627 0 1.143-.157 1.55-.47.407-.313.707-.737.9-1.27.2-.54.3-1.14.3-1.8 0-.653-.1-1.247-.3-1.78-.2-.54-.51-.967-.93-1.28-.42-.32-.953-.48-1.6-.48-.613 0-1.113.15-1.5.45-.387.293-.673.707-.86 1.24-.18.527-.27 1.143-.27 1.85 0 .7.09 1.317.27 1.85.187.533.477.95.87 1.25.4.293.923.44 1.57.44Zm12.274 2.16c-1.08 0-2.023-.243-2.83-.73a5.021 5.021 0 0 1-1.88-2.01c-.44-.86-.66-1.847-.66-2.96 0-1.133.227-2.127.68-2.98a5.023 5.023 0 0 1 1.89-2c.807-.48 1.74-.72 2.8-.72 1.087 0 2.034.243 2.84.73a4.992 4.992 0 0 1 1.88 2.02c.447.853.67 1.837.67 2.95 0 1.12-.226 2.11-.68 2.97a5.008 5.008 0 0 1-1.88 2.01c-.806.48-1.75.72-2.83.72Zm0-2.26c.96 0 1.674-.32 2.14-.96.467-.64.7-1.467.7-2.48 0-1.047-.236-1.88-.71-2.5-.473-.627-1.183-.94-2.13-.94-.646 0-1.18.147-1.6.44-.413.287-.72.69-.92 1.21-.2.513-.3 1.11-.3 1.79 0 1.047.237 1.883.71 2.51.48.62 1.184.93 2.11.93Zm16.634 4.23V45h-9.06V34.2h2.41v8.54h4.56V34.2h2.41v8.66h2.09v4.41h-2.41Zm8.916-1.97c-1.093 0-2.053-.237-2.88-.71a5.062 5.062 0 0 1-1.94-1.97c-.46-.84-.69-1.807-.69-2.9 0-1.18.227-2.203.68-3.07.454-.873 1.084-1.55 1.89-2.03.807-.48 1.74-.72 2.8-.72 1.12 0 2.07.263 2.85.79.787.52 1.37 1.257 1.75 2.21.38.953.524 2.077.43 3.37h-2.39v-.88c-.006-1.173-.213-2.03-.62-2.57-.406-.54-1.046-.81-1.92-.81-.986 0-1.72.307-2.2.92-.48.607-.72 1.497-.72 2.67 0 1.093.24 1.94.72 2.54.48.6 1.18.9 2.1.9.594 0 1.104-.13 1.53-.39.434-.267.767-.65 1-1.15l2.38.72c-.413.973-1.053 1.73-1.92 2.27-.86.54-1.81.81-2.85.81Zm-3.72-5.03v-1.82h7.43v1.82h-7.43ZM179.892 45V34.2h2.41v4.26h4.85V34.2h2.41V45h-2.41v-4.28h-4.85V45h-2.41Zm15.171 0v-8.66h-3.61V34.2h9.63v2.14h-3.61V45h-2.41Zm16.609.3c-1.113 0-2.063-.247-2.85-.74a4.925 4.925 0 0 1-1.81-2.04c-.413-.86-.623-1.833-.63-2.92.007-1.107.223-2.087.65-2.94a4.905 4.905 0 0 1 1.84-2.02c.793-.493 1.737-.74 2.83-.74 1.227 0 2.263.31 3.11.93.853.613 1.41 1.453 1.67 2.52l-2.4.65c-.187-.58-.497-1.03-.93-1.35a2.394 2.394 0 0 0-1.48-.49c-.627 0-1.143.15-1.55.45-.407.293-.707.7-.9 1.22-.193.52-.29 1.11-.29 1.77 0 1.027.23 1.857.69 2.49.46.633 1.143.95 2.05.95.64 0 1.143-.147 1.51-.44.373-.293.653-.717.84-1.27l2.46.55c-.333 1.1-.917 1.947-1.75 2.54-.833.587-1.853.88-3.06.88Zm6.794-.3V34.2h2.41v4.26h4.85V34.2h2.41V45h-2.41v-4.28h-4.85V45h-2.41Zm21.821-10.8V45h-2.31v-7.05l-5.14 7.05h-1.93V34.2h2.31v6.87l5.16-6.87h1.91Zm1.608 10.8 3.96-5.4-3.72-5.4h2.64l3.51 5.23V34.2h2.14v5.23l3.51-5.23h2.63l-3.72 5.4 3.96 5.4h-2.78l-3.6-5.23V45h-2.14v-5.23l-3.61 5.23h-2.78Zm21.032.3c-1.093 0-2.053-.237-2.88-.71a5.062 5.062 0 0 1-1.94-1.97c-.46-.84-.69-1.807-.69-2.9 0-1.18.227-2.203.68-3.07.454-.873 1.084-1.55 1.89-2.03.807-.48 1.74-.72 2.8-.72 1.12 0 2.07.263 2.85.79.787.52 1.37 1.257 1.75 2.21.38.953.524 2.077.43 3.37h-2.39v-.88c-.006-1.173-.213-2.03-.62-2.57-.406-.54-1.046-.81-1.92-.81-.986 0-1.72.307-2.2.92-.48.607-.72 1.497-.72 2.67 0 1.093.24 1.94.72 2.54.48.6 1.18.9 2.1.9.594 0 1.104-.13 1.53-.39.434-.267.767-.65 1-1.15l2.38.72c-.413.973-1.053 1.73-1.92 2.27-.86.54-1.81.81-2.85.81Zm-3.72-5.03v-1.82h7.43v1.82h-7.43ZM270.028 45V34.2h2.41v4.26h4.85V34.2h2.41V45h-2.41v-4.28h-4.85V45h-2.41Zm21.822-10.8V45h-2.31v-7.05L284.4 45h-1.93V34.2h2.31v6.87l5.16-6.87h1.91Zm9.268 10.8v-3.6h-1.93c-.247 0-.557-.007-.93-.02a8.049 8.049 0 0 1-1.03-.1c-.834-.153-1.524-.517-2.07-1.09-.547-.58-.82-1.367-.82-2.36 0-.973.26-1.757.78-2.35.52-.593 1.196-.973 2.03-1.14a5.652 5.652 0 0 1 1.07-.12c.373-.013.683-.02.93-.02h4.38V45h-2.41Zm-7.06 0 2.58-4.13h2.51l-2.56 4.13h-2.53Zm4.88-5.49h2.18v-3.42h-2.18c-.127 0-.28.007-.46.02-.18.013-.36.043-.54.09-.194.06-.377.163-.55.31a1.76 1.76 0 0 0-.43.55c-.114.22-.17.47-.17.75 0 .42.12.77.36 1.05.246.273.533.457.86.55.16.04.323.067.49.08.173.013.32.02.44.02ZM30.17 72.3c-1.08 0-2.023-.243-2.83-.73a5.015 5.015 0 0 1-1.88-2.01c-.44-.86-.66-1.847-.66-2.96 0-1.133.227-2.127.68-2.98a5.014 5.014 0 0 1 1.89-2c.807-.48 1.74-.72 2.8-.72 1.087 0 2.033.243 2.84.73a4.998 4.998 0 0 1 1.88 2.02c.447.853.67 1.837.67 2.95 0 1.12-.227 2.11-.68 2.97A5.015 5.015 0 0 1 33 71.58c-.807.48-1.75.72-2.83.72Zm0-2.26c.96 0 1.673-.32 2.14-.96.467-.64.7-1.467.7-2.48 0-1.047-.237-1.88-.71-2.5-.473-.627-1.183-.94-2.13-.94-.647 0-1.18.147-1.6.44-.413.287-.72.69-.92 1.21-.2.513-.3 1.11-.3 1.79 0 1.047.237 1.883.71 2.51.48.62 1.183.93 2.11.93ZM40.258 72v-8.66h-3.61V61.2h9.63v2.14h-3.61V72h-2.41Zm20.96 2.27V72h-9.06V61.2h2.41v8.54h4.56V61.2h2.41v8.66h2.09v4.41h-2.41Zm8.916-1.97c-1.093 0-2.053-.237-2.88-.71a5.056 5.056 0 0 1-1.94-1.97c-.46-.84-.69-1.807-.69-2.9 0-1.18.227-2.203.68-3.07.454-.873 1.084-1.55 1.89-2.03.807-.48 1.74-.72 2.8-.72 1.12 0 2.07.263 2.85.79.787.52 1.37 1.257 1.75 2.21.38.953.524 2.077.43 3.37h-2.39v-.88c-.006-1.173-.213-2.03-.62-2.57-.406-.54-1.046-.81-1.92-.81-.986 0-1.72.307-2.2.92-.48.607-.72 1.497-.72 2.67 0 1.093.24 1.94.72 2.54.48.6 1.18.9 2.1.9.594 0 1.104-.13 1.53-.39.434-.267.767-.65 1-1.15l2.38.72c-.413.973-1.053 1.73-1.92 2.27-.86.54-1.81.81-2.85.81Zm-3.72-5.03v-1.82h7.43v1.82h-7.43ZM77.236 72V61.2h2.41v4.26h4.85V61.2h2.41V72h-2.41v-4.28h-4.85V72h-2.41Zm12.45 0-.01-10.8h2.41v3.6h1.21c.3 0 .637.007 1.01.02.38.013.698.043.95.09.608.133 1.124.347 1.55.64.434.293.764.677.99 1.15.227.473.34 1.043.34 1.71 0 .953-.246 1.717-.74 2.29-.493.567-1.183.953-2.07 1.16-.26.06-.582.1-.97.12-.386.013-.73.02-1.03.02h-3.64Zm2.4-1.89h1.45c.147 0 .31-.007.49-.02.18-.013.35-.043.51-.09.3-.08.567-.26.8-.54.234-.287.35-.637.35-1.05 0-.433-.116-.79-.35-1.07a1.618 1.618 0 0 0-.86-.55 3.002 3.002 0 0 0-.49-.08 5.45 5.45 0 0 0-.45-.02h-1.45v3.42Zm7.18 1.89V61.2h2.411V72h-2.41Zm13.06.3c-1.027 0-1.963-.217-2.81-.65-.847-.433-1.513-1.027-2-1.78l1.9-1.27c.387.46.817.817 1.29 1.07.473.247 1 .37 1.58.37.607 0 1.083-.133 1.43-.4a1.28 1.28 0 0 0 .52-1.07c0-.393-.117-.67-.35-.83-.233-.167-.54-.267-.92-.3-.38-.033-.787-.05-1.22-.05h-.8v-1.91h.79c.607 0 1.113-.07 1.52-.21.413-.14.62-.45.62-.93 0-.433-.16-.74-.48-.92a2.181 2.181 0 0 0-1.12-.28c-.52 0-1.033.11-1.54.33-.507.22-.96.487-1.36.8l-1.36-1.64c.6-.533 1.27-.953 2.01-1.26.74-.313 1.53-.47 2.37-.47.693 0 1.34.12 1.94.36.607.24 1.093.6 1.46 1.08.373.48.56 1.073.56 1.78 0 .507-.11.983-.33 1.43-.213.447-.557.87-1.03 1.27l-.03-.78a2.723 2.723 0 0 1 1.52 1.6c.14.367.21.757.21 1.17 0 .753-.2 1.39-.6 1.91-.4.52-.933.913-1.6 1.18-.66.267-1.383.4-2.17.4Zm9.59 0c-.78 0-1.44-.147-1.98-.44-.54-.3-.95-.697-1.23-1.19a3.31 3.31 0 0 1-.41-1.63c0-.52.087-.987.26-1.4.173-.42.44-.78.8-1.08.36-.307.827-.557 1.4-.75.433-.14.94-.267 1.52-.38a35.55 35.55 0 0 1 1.9-.31c.687-.1 1.403-.207 2.15-.32l-.86.49c.007-.747-.16-1.297-.5-1.65-.34-.353-.913-.53-1.72-.53-.487 0-.957.113-1.41.34-.453.227-.77.617-.95 1.17l-2.2-.69a4.088 4.088 0 0 1 1.52-2.2c.753-.553 1.767-.83 3.04-.83.96 0 1.803.157 2.53.47a3.142 3.142 0 0 1 1.63 1.54c.193.38.31.77.35 1.17.04.393.06.823.06 1.29V72h-2.11v-2.34l.35.38c-.487.78-1.057 1.353-1.71 1.72-.647.36-1.457.54-2.43.54Zm.48-1.92c.547 0 1.013-.097 1.4-.29a2.73 2.73 0 0 0 .92-.71c.233-.28.39-.543.47-.79.127-.307.197-.657.21-1.05.02-.4.03-.723.03-.97l.74.22c-.727.113-1.35.213-1.87.3s-.967.17-1.34.25a8.571 8.571 0 0 0-.99.25c-.28.1-.517.217-.71.35a1.558 1.558 0 0 0-.45.46 1.2 1.2 0 0 0-.15.61c0 .267.067.503.2.71.133.2.327.36.58.48.26.12.58.18.96.18Zm16.937 1.92c-1.093 0-2.053-.237-2.88-.71a5.062 5.062 0 0 1-1.94-1.97c-.46-.84-.69-1.807-.69-2.9 0-1.18.227-2.203.68-3.07.454-.873 1.084-1.55 1.89-2.03.807-.48 1.74-.72 2.8-.72 1.12 0 2.07.263 2.85.79.787.52 1.37 1.257 1.75 2.21.38.953.524 2.077.43 3.37h-2.39v-.88c-.006-1.173-.213-2.03-.62-2.57-.406-.54-1.046-.81-1.92-.81-.986 0-1.72.307-2.2.92-.48.607-.72 1.497-.72 2.67 0 1.093.24 1.94.72 2.54.48.6 1.18.9 2.1.9.594 0 1.104-.13 1.53-.39.434-.267.767-.65 1-1.15l2.38.72c-.413.973-1.053 1.73-1.92 2.27-.86.54-1.81.81-2.85.81Zm-3.72-5.03v-1.82h7.43v1.82h-7.43Zm10.042 7.13v-4.29c.586 0 1.003-.2 1.25-.6.246-.4.443-1.093.59-2.08a28.6 28.6 0 0 0 .23-1.86c.06-.653.11-1.343.15-2.07.046-.727.086-1.493.12-2.3h8.04v8.91h1.09v4.29h-2.28V72h-6.92v2.4h-2.27Zm3.23-4.29h4.75v-7.02h-3.53a86.1 86.1 0 0 1-.16 2.47c-.034.413-.07.81-.11 1.19-.034.373-.074.72-.12 1.04a9.358 9.358 0 0 1-.27 1.38 2.2 2.2 0 0 1-.56.94Zm19.605-8.91V72h-2.31v-7.05L161.04 72h-1.93V61.2h2.31v6.87l5.16-6.87h1.91Zm2.788 10.8V61.2h2.41v4.26h4.85V61.2h2.41V72h-2.41v-4.28h-4.85V72h-2.41ZM193.1 61.2V72h-2.31v-7.05L185.65 72h-1.93V61.2h2.31v6.87l5.16-6.87h1.91Zm11.848 13.07V72h-9.06V61.2h2.41v8.54h4.56V61.2h2.41v8.66h2.09v4.41h-2.41Zm5.427 2.53 2.08-5.71.04 1.68-4.71-11.57h2.51l3.34 8.56h-.64l3.25-8.56h2.41l-6.02 15.6h-2.26ZM227.61 72V59.86h-4.66V57.6h11.73v2.26h-4.66V72h-2.41Zm8.669 0V57.6h5.95c.14 0 .32.007.54.02.22.007.423.027.61.06.833.127 1.52.403 2.06.83.547.427.95.967 1.21 1.62.267.647.4 1.367.4 2.16 0 .787-.133 1.507-.4 2.16a3.887 3.887 0 0 1-1.22 1.61c-.54.427-1.223.703-2.05.83a7.51 7.51 0 0 1-.62.06c-.22.013-.397.02-.53.02h-3.54V72h-2.41Zm2.41-7.28h3.44c.133 0 .283-.007.45-.02.167-.013.32-.04.46-.08.4-.1.713-.277.94-.53a2.14 2.14 0 0 0 .49-.86c.1-.32.15-.633.15-.94 0-.307-.05-.62-.15-.94a2.133 2.133 0 0 0-.49-.87c-.227-.253-.54-.43-.94-.53a1.956 1.956 0 0 0-.46-.07 5.726 5.726 0 0 0-.45-.02h-3.44v4.86ZM250.952 72l1.9-3.88-4.97-10.52h2.72l3.51 7.98 3.62-7.98h2.57l-6.78 14.4h-2.57Z"/><path fill="#868E96" d="m25.432 106.994.006-.804 3.906-3.528c.336-.304.558-.592.666-.864.112-.276.168-.564.168-.864a1.882 1.882 0 0 0-.93-1.65 1.805 1.805 0 0 0-.954-.258c-.368 0-.696.088-.984.264a1.965 1.965 0 0 0-.684.696 1.826 1.826 0 0 0-.24.942h-.9a2.7 2.7 0 0 1 .372-1.41 2.659 2.659 0 0 1 1.008-.978c.424-.24.904-.36 1.44-.36a2.7 2.7 0 0 1 1.41.372c.42.244.75.576.99.996a2.7 2.7 0 0 1 .366 1.392c0 .36-.044.678-.132.954a2.37 2.37 0 0 1-.402.762c-.18.232-.41.472-.69.72l-3.468 3.132-.138-.36h4.83v.846h-5.64Zm9.904.186a2.82 2.82 0 0 1-1.44-.372 2.768 2.768 0 0 1-1.008-1.008 2.82 2.82 0 0 1-.372-1.44V101a2.787 2.787 0 0 1 1.38-2.448 2.82 2.82 0 0 1 1.44-.372c.532 0 1.01.124 1.434.372a2.74 2.74 0 0 1 1.014 1.014c.248.424.372.902.372 1.434v3.36a2.82 2.82 0 0 1-.372 1.44 2.787 2.787 0 0 1-2.448 1.38Zm0-.852c.356 0 .68-.086.972-.258.292-.176.524-.41.696-.702.172-.292.258-.614.258-.966v-3.444c0-.356-.086-.68-.258-.972a1.935 1.935 0 0 0-.696-.696 1.847 1.847 0 0 0-.972-.264c-.356 0-.68.088-.972.264a1.935 1.935 0 0 0-.696.696 1.88 1.88 0 0 0-.258.972v3.444c0 .352.086.674.258.966.172.292.404.526.696.702.292.172.616.258.972.258ZM29.744 136.75v-7.656l-1.626.978v-.99l1.626-.972h.894v8.64h-.894Zm5.72.18c-.448 0-.862-.092-1.242-.276a2.87 2.87 0 0 1-.972-.762 2.969 2.969 0 0 1-.576-1.116l.846-.228c.076.312.214.582.414.81.2.224.434.398.702.522.272.124.556.186.852.186.384 0 .728-.092 1.032-.276.308-.188.552-.436.732-.744.18-.308.27-.646.27-1.014 0-.38-.094-.722-.282-1.026a2.103 2.103 0 0 0-.744-.732 1.962 1.962 0 0 0-1.008-.27c-.408 0-.76.09-1.056.27a2.138 2.138 0 0 0-.708.666l-.804-.336.264-4.494h4.614v.846h-4.224l.438-.414-.234 3.834-.222-.294c.248-.284.548-.506.9-.666.352-.16.722-.24 1.11-.24.532 0 1.012.128 1.44.384a2.819 2.819 0 0 1 1.398 2.472c0 .528-.134 1.012-.402 1.452a3.085 3.085 0 0 1-1.068 1.05 2.823 2.823 0 0 1-1.47.396ZM29.346 166.5v-7.656l-1.626.978v-.99l1.626-.972h.894v8.64h-.894Zm5.99.18a2.82 2.82 0 0 1-1.44-.372 2.768 2.768 0 0 1-1.008-1.008 2.82 2.82 0 0 1-.372-1.44v-3.36a2.787 2.787 0 0 1 1.38-2.448 2.82 2.82 0 0 1 1.44-.372c.532 0 1.01.124 1.434.372a2.74 2.74 0 0 1 1.014 1.014c.248.424.372.902.372 1.434v3.36a2.82 2.82 0 0 1-.372 1.44 2.787 2.787 0 0 1-2.448 1.38Zm0-.852c.356 0 .68-.086.972-.258.292-.176.524-.41.696-.702.172-.292.258-.614.258-.966v-3.444c0-.356-.086-.68-.258-.972a1.935 1.935 0 0 0-.696-.696 1.847 1.847 0 0 0-.972-.264c-.356 0-.68.088-.972.264a1.935 1.935 0 0 0-.696.696 1.88 1.88 0 0 0-.258.972v3.444c0 .352.086.674.258.966.172.292.404.526.696.702.292.172.616.258.972.258ZM35.464 196.43c-.448 0-.862-.092-1.242-.276a2.87 2.87 0 0 1-.972-.762 2.969 2.969 0 0 1-.576-1.116l.846-.228c.076.312.214.582.414.81.2.224.434.398.702.522.272.124.556.186.852.186.384 0 .728-.092 1.032-.276.308-.188.552-.436.732-.744.18-.308.27-.646.27-1.014 0-.38-.094-.722-.282-1.026a2.103 2.103 0 0 0-.744-.732 1.962 1.962 0 0 0-1.008-.27c-.408 0-.76.09-1.056.27a2.138 2.138 0 0 0-.708.666l-.804-.336.264-4.494h4.614v.846h-4.224l.438-.414-.234 3.834-.222-.294c.248-.284.548-.506.9-.666.352-.16.722-.24 1.11-.24.532 0 1.012.128 1.44.384a2.819 2.819 0 0 1 1.398 2.472c0 .528-.134 1.012-.402 1.452a3.085 3.085 0 0 1-1.068 1.05 2.823 2.823 0 0 1-1.47.396ZM35.336 226.18a2.82 2.82 0 0 1-1.44-.372 2.768 2.768 0 0 1-1.008-1.008 2.82 2.82 0 0 1-.372-1.44V220a2.787 2.787 0 0 1 1.38-2.448 2.82 2.82 0 0 1 1.44-.372c.532 0 1.01.124 1.434.372a2.74 2.74 0 0 1 1.014 1.014c.248.424.372.902.372 1.434v3.36a2.82 2.82 0 0 1-.372 1.44 2.787 2.787 0 0 1-2.448 1.38Zm0-.852c.356 0 .68-.086.972-.258.292-.176.524-.41.696-.702.172-.292.258-.614.258-.966v-3.444c0-.356-.086-.68-.258-.972a1.935 1.935 0 0 0-.696-.696 1.847 1.847 0 0 0-.972-.264c-.356 0-.68.088-.972.264a1.935 1.935 0 0 0-.696.696 1.88 1.88 0 0 0-.258.972v3.444c0 .352.086.674.258.966.172.292.404.526.696.702.292.172.616.258.972.258ZM73.336 129v-7.656l-1.626.978v-.99l1.626-.972h.894V129h-.894Zm5.72.18c-.448 0-.862-.092-1.242-.276a2.87 2.87 0 0 1-.972-.762 2.969 2.969 0 0 1-.576-1.116l.846-.228c.076.312.214.582.414.81.2.224.434.398.702.522.272.124.556.186.852.186.384 0 .728-.092 1.032-.276.308-.188.552-.436.732-.744.18-.308.27-.646.27-1.014 0-.38-.094-.722-.282-1.026a2.103 2.103 0 0 0-.744-.732 1.962 1.962 0 0 0-1.008-.27c-.408 0-.76.09-1.056.27a2.138 2.138 0 0 0-.708.666l-.804-.336.264-4.494h4.614v.846h-4.224l.438-.414-.234 3.834-.222-.294c.248-.284.548-.506.9-.666.352-.16.722-.24 1.11-.24.532 0 1.012.128 1.44.384a2.819 2.819 0 0 1 1.398 2.472c0 .528-.134 1.012-.402 1.452a3.085 3.085 0 0 1-1.068 1.05 2.823 2.823 0 0 1-1.47.396Zm5.216-.18-.6-.6 8.058-8.04.6.594L84.272 129Zm6.258.18a2.11 2.11 0 0 1-1.086-.288 2.275 2.275 0 0 1-.78-.78 2.088 2.088 0 0 1-.294-1.092c0-.392.1-.752.3-1.08.2-.328.464-.59.792-.786a2.045 2.045 0 0 1 1.068-.294c.396 0 .758.098 1.086.294.328.192.588.452.78.78.196.324.294.686.294 1.086s-.098.764-.294 1.092a2.208 2.208 0 0 1-.78.78 2.11 2.11 0 0 1-1.086.288Zm0-.798a1.3 1.3 0 0 0 .678-.186 1.43 1.43 0 0 0 .498-.492c.124-.208.186-.436.186-.684a1.28 1.28 0 0 0-.186-.678 1.414 1.414 0 0 0-.498-.498 1.3 1.3 0 0 0-.678-.186c-.248 0-.476.062-.684.186-.204.124-.37.29-.498.498a1.28 1.28 0 0 0-.186.678c0 .248.062.476.186.684.128.204.294.368.498.492.208.124.436.186.684.186Zm-5.058-3.882a2.11 2.11 0 0 1-1.086-.288 2.258 2.258 0 0 1-.786-.78 2.122 2.122 0 0 1-.288-1.092c0-.392.1-.752.3-1.08.2-.328.464-.59.792-.786a2.045 2.045 0 0 1 1.068-.294c.396 0 .756.098 1.08.294.328.192.59.452.786.78.196.324.294.686.294 1.086s-.098.764-.294 1.092a2.258 2.258 0 0 1-.786.78 2.079 2.079 0 0 1-1.08.288Zm0-.798c.248 0 .474-.062.678-.186a1.43 1.43 0 0 0 .498-.492c.124-.208.186-.436.186-.684a1.28 1.28 0 0 0-.186-.678 1.414 1.414 0 0 0-.498-.498 1.28 1.28 0 0 0-.678-.186c-.248 0-.476.062-.684.186a1.43 1.43 0 0 0-.492.498 1.28 1.28 0 0 0-.186.678c0 .248.062.476.186.684.124.204.288.368.492.492.208.124.436.186.684.186Z"/><path stroke="#F1F3F5" d="M50 104.5h444M50 135.5h444M50 166.5h444M50 197.5h444M50 228.5h444"/><rect width="32" height="93" x="66.398" y="136" fill="#4DABF7" rx="2"/><path fill="#868E96" d="M77.275 246.18a2.82 2.82 0 0 1-1.44-.372 2.768 2.768 0 0 1-1.008-1.008 2.82 2.82 0 0 1-.372-1.44V240a2.787 2.787 0 0 1 1.38-2.448 2.82 2.82 0 0 1 1.44-.372c.532 0 1.01.124 1.434.372a2.74 2.74 0 0 1 1.014 1.014c.248.424.372.902.372 1.434v3.36a2.82 2.82 0 0 1-.372 1.44 2.787 2.787 0 0 1-2.448 1.38Zm0-.852c.356 0 .68-.086.972-.258.292-.176.524-.41.696-.702.172-.292.258-.614.258-.966v-3.444c0-.356-.086-.68-.258-.972a1.935 1.935 0 0 0-.696-.696 1.847 1.847 0 0 0-.972-.264c-.356 0-.68.088-.972.264a1.935 1.935 0 0 0-.696.696 1.88 1.88 0 0 0-.258.972v3.444c0 .352.086.674.258.966.172.292.404.526.696.702.292.172.616.258.972.258Zm6.787-2.73v-.756h3.6v.756h-3.6ZM58.618 262v-7.656l-1.627.978v-.99l1.627-.972h.893V262h-.894Zm5.99.18a2.82 2.82 0 0 1-1.44-.372 2.768 2.768 0 0 1-1.009-1.008 2.82 2.82 0 0 1-.372-1.44V256a2.787 2.787 0 0 1 1.38-2.448 2.82 2.82 0 0 1 1.44-.372c.532 0 1.01.124 1.434.372a2.74 2.74 0 0 1 1.014 1.014c.248.424.372.902.372 1.434v3.36a2.82 2.82 0 0 1-.372 1.44 2.787 2.787 0 0 1-2.448 1.38Zm0-.852c.355 0 .68-.086.971-.258.292-.176.524-.41.696-.702.172-.292.258-.614.258-.966v-3.444c0-.356-.086-.68-.258-.972a1.935 1.935 0 0 0-.696-.696 1.847 1.847 0 0 0-.972-.264c-.356 0-.68.088-.972.264a1.935 1.935 0 0 0-.696.696 1.88 1.88 0 0 0-.258.972v3.444c0 .352.086.674.258.966.172.292.404.526.696.702.292.172.616.258.972.258Zm7.323.852a2.82 2.82 0 0 1-1.44-.372 2.768 2.768 0 0 1-1.007-1.008 2.82 2.82 0 0 1-.372-1.44V256a2.787 2.787 0 0 1 1.38-2.448 2.82 2.82 0 0 1 1.44-.372c.531 0 1.01.124 1.433.372a2.74 2.74 0 0 1 1.014 1.014c.248.424.372.902.372 1.434v3.36a2.82 2.82 0 0 1-.372 1.44 2.787 2.787 0 0 1-2.448 1.38Zm0-.852c.356 0 .68-.086.972-.258.292-.176.524-.41.697-.702.172-.292.258-.614.258-.966v-3.444c0-.356-.087-.68-.258-.972a1.935 1.935 0 0 0-.697-.696 1.847 1.847 0 0 0-.972-.264c-.355 0-.68.088-.971.264a1.935 1.935 0 0 0-.697.696 1.88 1.88 0 0 0-.258.972v3.444c0 .352.087.674.258.966.172.292.404.526.697.702.291.172.616.258.972.258Zm6.263.672v-5.664h-2.298v-.816h5.478v.816h-2.298V262h-.882Zm4.33 0-.012-6.48h.888v2.442h1.128c.188 0 .372.004.552.012.18.008.342.024.486.048.32.064.604.172.852.324.248.152.444.362.588.63.144.264.216.598.216 1.002 0 .556-.144.994-.432 1.314-.288.32-.65.528-1.086.624-.164.036-.342.06-.534.072-.192.008-.38.012-.564.012h-2.082Zm.876-.756h1.17c.132 0 .282-.004.45-.012a2 2 0 0 0 .444-.066c.216-.06.41-.18.582-.36.176-.184.264-.46.264-.828 0-.364-.084-.638-.252-.822a1.213 1.213 0 0 0-.672-.372 2.578 2.578 0 0 0-.408-.054 7.155 7.155 0 0 0-.408-.012H83.4v2.526Zm4.596.756v-6.48h.882V262h-.882Zm5.249.18c-.652 0-1.204-.146-1.656-.438a2.791 2.791 0 0 1-1.032-1.206c-.232-.516-.352-1.108-.36-1.776.008-.68.132-1.276.372-1.788.24-.516.586-.916 1.038-1.2.452-.288 1-.432 1.644-.432.656 0 1.226.16 1.71.48.488.32.822.758 1.002 1.314l-.864.276a1.825 1.825 0 0 0-.726-.9 2.004 2.004 0 0 0-1.128-.324c-.476 0-.87.11-1.182.33a1.92 1.92 0 0 0-.696.906c-.152.388-.23.834-.234 1.338.008.776.188 1.4.54 1.872.352.468.876.702 1.572.702.44 0 .814-.1 1.122-.3.312-.204.548-.5.708-.888l.888.264c-.24.576-.592 1.016-1.056 1.32-.464.3-1.018.45-1.662.45Zm3.89-.18v-1.026h1.026V262h-1.026Zm8.257 0h-1.08v-5.76h-2.532v-.936h6.144v.936h-2.532V262Zm-3.612-8.568h6.144v.936h-6.144v-.936ZM162.683 164.18c-.54 0-1.018-.108-1.434-.324a2.44 2.44 0 0 1-.972-.906c-.232-.392-.348-.85-.348-1.374 0-.536.13-1.012.39-1.428.26-.42.656-.738 1.188-.954l-.012.348a1.949 1.949 0 0 1-1.014-.804 2.29 2.29 0 0 1-.348-1.236c0-.48.11-.892.33-1.236.22-.348.52-.616.9-.804a2.965 2.965 0 0 1 1.32-.282c.496 0 .936.094 1.32.282.384.188.686.456.906.804.22.344.33.756.33 1.236 0 .452-.112.862-.336 1.23-.22.368-.558.638-1.014.81l-.03-.348c.532.212.93.528 1.194.948.268.42.402.898.402 1.434 0 .524-.118.982-.354 1.374a2.43 2.43 0 0 1-.978.906c-.416.216-.896.324-1.44.324Zm0-.846c.544 0 .986-.15 1.326-.45.34-.304.51-.74.51-1.308 0-.576-.168-1.012-.504-1.308-.336-.3-.78-.45-1.332-.45s-.994.15-1.326.45c-.332.296-.498.732-.498 1.308 0 .568.168 1.004.504 1.308.336.3.776.45 1.32.45Zm0-4.368c.48 0 .87-.122 1.17-.366.3-.248.45-.614.45-1.098 0-.484-.15-.846-.45-1.086-.3-.244-.69-.366-1.17-.366s-.87.122-1.17.366c-.296.24-.444.602-.444 1.086 0 .484.148.85.444 1.098.3.244.69.366 1.17.366Zm4.495 5.034v-1.026h1.026V164h-1.026Zm5.201.174c-.428 0-.822-.076-1.182-.228a2.67 2.67 0 0 1-.93-.648 2.61 2.61 0 0 1-.57-1.014l.84-.252c.144.428.38.752.708.972.332.22.706.326 1.122.318.384-.008.714-.094.99-.258a1.63 1.63 0 0 0 .642-.684c.148-.292.222-.63.222-1.014 0-.588-.172-1.06-.516-1.416-.34-.36-.79-.54-1.35-.54-.156 0-.32.022-.492.066-.172.04-.332.098-.48.174l-.444-.702 3.36-3.102.144.36h-4.404v-.846h4.992v.858l-2.928 2.796-.012-.348c.6-.076 1.128-.008 1.584.204.456.212.812.536 1.068.972.26.432.39.94.39 1.524 0 .552-.12 1.04-.36 1.464-.236.42-.562.75-.978.99a2.819 2.819 0 0 1-1.416.354Zm7.131.006a2.82 2.82 0 0 1-1.44-.372 2.768 2.768 0 0 1-1.008-1.008 2.82 2.82 0 0 1-.372-1.44V158a2.787 2.787 0 0 1 1.38-2.448 2.82 2.82 0 0 1 1.44-.372c.532 0 1.01.124 1.434.372a2.74 2.74 0 0 1 1.014 1.014c.248.424.372.902.372 1.434v3.36a2.82 2.82 0 0 1-.372 1.44 2.787 2.787 0 0 1-2.448 1.38Zm0-.852c.356 0 .68-.086.972-.258.292-.176.524-.41.696-.702.172-.292.258-.614.258-.966v-3.444c0-.356-.086-.68-.258-.972a1.935 1.935 0 0 0-.696-.696 1.847 1.847 0 0 0-.972-.264c-.356 0-.68.088-.972.264a1.935 1.935 0 0 0-.696.696 1.88 1.88 0 0 0-.258.972v3.444c0 .352.086.674.258.966.172.292.404.526.696.702.292.172.616.258.972.258Zm5.344.672-.6-.6 8.058-8.04.6.594-8.058 8.046Zm6.258.18a2.11 2.11 0 0 1-1.086-.288 2.275 2.275 0 0 1-.78-.78 2.088 2.088 0 0 1-.294-1.092c0-.392.1-.752.3-1.08.2-.328.464-.59.792-.786a2.045 2.045 0 0 1 1.068-.294c.396 0 .758.098 1.086.294.328.192.588.452.78.78.196.324.294.686.294 1.086s-.098.764-.294 1.092a2.208 2.208 0 0 1-.78.78 2.11 2.11 0 0 1-1.086.288Zm0-.798a1.3 1.3 0 0 0 .678-.186 1.43 1.43 0 0 0 .498-.492c.124-.208.186-.436.186-.684a1.28 1.28 0 0 0-.186-.678 1.414 1.414 0 0 0-.498-.498 1.3 1.3 0 0 0-.678-.186c-.248 0-.476.062-.684.186-.204.124-.37.29-.498.498a1.28 1.28 0 0 0-.186.678c0 .248.062.476.186.684.128.204.294.368.498.492.208.124.436.186.684.186Zm-5.058-3.882a2.11 2.11 0 0 1-1.086-.288 2.258 2.258 0 0 1-.786-.78 2.122 2.122 0 0 1-.288-1.092c0-.392.1-.752.3-1.08.2-.328.464-.59.792-.786a2.045 2.045 0 0 1 1.068-.294c.396 0 .756.098 1.08.294.328.192.59.452.786.78.196.324.294.686.294 1.086s-.098.764-.294 1.092a2.258 2.258 0 0 1-.786.78 2.079 2.079 0 0 1-1.08.288Zm0-.798c.248 0 .474-.062.678-.186a1.43 1.43 0 0 0 .498-.492c.124-.208.186-.436.186-.684a1.28 1.28 0 0 0-.186-.678 1.414 1.414 0 0 0-.498-.498 1.28 1.28 0 0 0-.678-.186c-.248 0-.476.062-.684.186a1.43 1.43 0 0 0-.492.498 1.28 1.28 0 0 0-.186.678c0 .248.062.476.186.684.124.204.288.368.492.492.208.124.436.186.684.186Z"/><rect width="32" height="58" x="160.6" y="171" fill="#4DABF7" rx="2"/><path fill="#868E96" d="M152.573 246v-7.656l-1.626.978v-.99l1.626-.972h.894V246h-.894Zm5.989.18a2.82 2.82 0 0 1-1.44-.372 2.768 2.768 0 0 1-1.008-1.008 2.82 2.82 0 0 1-.372-1.44V240a2.787 2.787 0 0 1 1.38-2.448 2.82 2.82 0 0 1 1.44-.372c.532 0 1.01.124 1.434.372a2.74 2.74 0 0 1 1.014 1.014c.248.424.372.902.372 1.434v3.36a2.82 2.82 0 0 1-.372 1.44 2.787 2.787 0 0 1-2.448 1.38Zm0-.852c.356 0 .68-.086.972-.258.292-.176.524-.41.696-.702.172-.292.258-.614.258-.966v-3.444c0-.356-.086-.68-.258-.972a1.935 1.935 0 0 0-.696-.696 1.847 1.847 0 0 0-.972-.264c-.356 0-.68.088-.972.264a1.935 1.935 0 0 0-.696.696 1.88 1.88 0 0 0-.258.972v3.444c0 .352.086.674.258.966.172.292.404.526.696.702.292.172.616.258.972.258Zm7.325.852a2.82 2.82 0 0 1-1.44-.372 2.768 2.768 0 0 1-1.008-1.008 2.82 2.82 0 0 1-.372-1.44V240a2.787 2.787 0 0 1 1.38-2.448 2.82 2.82 0 0 1 1.44-.372c.532 0 1.01.124 1.434.372a2.74 2.74 0 0 1 1.014 1.014c.248.424.372.902.372 1.434v3.36a2.82 2.82 0 0 1-.372 1.44 2.787 2.787 0 0 1-2.448 1.38Zm0-.852c.356 0 .68-.086.972-.258.292-.176.524-.41.696-.702.172-.292.258-.614.258-.966v-3.444c0-.356-.086-.68-.258-.972a1.935 1.935 0 0 0-.696-.696 1.847 1.847 0 0 0-.972-.264c-.356 0-.68.088-.972.264a1.935 1.935 0 0 0-.696.696 1.88 1.88 0 0 0-.258.972v3.444c0 .352.086.674.258.966.172.292.404.526.696.702.292.172.616.258.972.258Zm6.262.672v-5.664h-2.298v-.816h5.478v.816h-2.298V246h-.882Zm4.33 0-.012-6.48h.888v2.442h1.128c.188 0 .372.004.552.012.18.008.342.024.486.048.32.064.604.172.852.324.248.152.444.362.588.63.144.264.216.598.216 1.002 0 .556-.144.994-.432 1.314-.288.32-.65.528-1.086.624-.164.036-.342.06-.534.072-.192.008-.38.012-.564.012h-2.082Zm.876-.756h1.17c.132 0 .282-.004.45-.012a2 2 0 0 0 .444-.066c.216-.06.41-.18.582-.36.176-.184.264-.46.264-.828 0-.364-.084-.638-.252-.822a1.213 1.213 0 0 0-.672-.372 2.578 2.578 0 0 0-.408-.054 7.155 7.155 0 0 0-.408-.012h-1.17v2.526Zm4.596.756v-6.48h.882V246h-.882Zm5.249.18c-.652 0-1.204-.146-1.656-.438a2.791 2.791 0 0 1-1.032-1.206c-.232-.516-.352-1.108-.36-1.776.008-.68.132-1.276.372-1.788.24-.516.586-.916 1.038-1.2.452-.288 1-.432 1.644-.432.656 0 1.226.16 1.71.48.488.32.822.758 1.002 1.314l-.864.276a1.825 1.825 0 0 0-.726-.9 2.004 2.004 0 0 0-1.128-.324c-.476 0-.87.11-1.182.33a1.92 1.92 0 0 0-.696.906c-.152.388-.23.834-.234 1.338.008.776.188 1.4.54 1.872.352.468.876.702 1.572.702.44 0 .814-.1 1.122-.3.312-.204.548-.5.708-.888l.888.264c-.24.576-.592 1.016-1.056 1.32-.464.3-1.018.45-1.662.45Zm3.89-.18v-1.026h1.026V246h-1.026Zm5.161-3.402v-.756h3.6v.756h-3.6ZM155.801 262v-7.656l-1.626.978v-.99l1.626-.972h.894V262h-.894Zm5.99.18a2.82 2.82 0 0 1-1.44-.372 2.768 2.768 0 0 1-1.008-1.008 2.82 2.82 0 0 1-.372-1.44V256a2.787 2.787 0 0 1 1.38-2.448 2.82 2.82 0 0 1 1.44-.372c.532 0 1.01.124 1.434.372a2.74 2.74 0 0 1 1.014 1.014c.248.424.372.902.372 1.434v3.36a2.82 2.82 0 0 1-.372 1.44 2.787 2.787 0 0 1-2.448 1.38Zm0-.852c.356 0 .68-.086.972-.258.292-.176.524-.41.696-.702.172-.292.258-.614.258-.966v-3.444c0-.356-.086-.68-.258-.972a1.935 1.935 0 0 0-.696-.696 1.847 1.847 0 0 0-.972-.264c-.356 0-.68.088-.972.264a1.935 1.935 0 0 0-.696.696 1.88 1.88 0 0 0-.258.972v3.444c0 .352.086.674.258.966.172.292.404.526.696.702.292.172.616.258.972.258Zm4.498.672v-6.48h.786l2.526 5.304 2.532-5.304h.78V262h-.852v-4.596L169.883 262h-.558l-2.178-4.596V262h-.858Zm7.703 0v-.774c.24.044.422.034.546-.03a.61.61 0 0 0 .282-.336c.06-.16.11-.358.15-.594.064-.392.122-.824.174-1.296.052-.472.098-.992.138-1.56.044-.572.088-1.202.132-1.89h4.404V262h-.876v-5.634h-2.712a64.899 64.899 0 0 1-.21 2.478c-.036.384-.076.738-.12 1.062-.044.324-.09.604-.138.84-.072.356-.168.64-.288.852a.844.844 0 0 1-.522.42c-.232.068-.552.062-.96-.018Zm7.496 0v-6.48h.882v2.814h3.654v-2.814h.882V262h-.882v-2.82h-3.654V262h-.882Zm7.264 0v-1.026h1.026V262h-1.026Zm8.257 0h-1.08v-5.76h-2.532v-.936h6.144v.936h-2.532V262Zm-3.612-8.568h6.144v.936h-6.144v-.936ZM262.284 141v-7.656l-1.626.978v-.99l1.626-.972h.894V141h-.894Zm5.491.174c-.428 0-.822-.076-1.182-.228a2.67 2.67 0 0 1-.93-.648 2.61 2.61 0 0 1-.57-1.014l.84-.252c.144.428.38.752.708.972.332.22.706.326 1.122.318.384-.008.714-.094.99-.258a1.63 1.63 0 0 0 .642-.684c.148-.292.222-.63.222-1.014 0-.588-.172-1.06-.516-1.416-.34-.36-.79-.54-1.35-.54-.156 0-.32.022-.492.066-.172.04-.332.098-.48.174l-.444-.702 3.36-3.102.144.36h-4.404v-.846h4.992v.858l-2.928 2.796-.012-.348c.6-.076 1.128-.008 1.584.204.456.212.812.536 1.068.972.26.432.39.94.39 1.524 0 .552-.12 1.04-.36 1.464-.236.42-.562.75-.978.99a2.819 2.819 0 0 1-1.416.354Zm5.151-.174-.6-.6 8.058-8.04.6.594-8.058 8.046Zm6.258.18a2.11 2.11 0 0 1-1.086-.288 2.275 2.275 0 0 1-.78-.78 2.088 2.088 0 0 1-.294-1.092c0-.392.1-.752.3-1.08.2-.328.464-.59.792-.786a2.045 2.045 0 0 1 1.068-.294c.396 0 .758.098 1.086.294.328.192.588.452.78.78.196.324.294.686.294 1.086s-.098.764-.294 1.092a2.208 2.208 0 0 1-.78.78 2.11 2.11 0 0 1-1.086.288Zm0-.798a1.3 1.3 0 0 0 .678-.186 1.43 1.43 0 0 0 .498-.492c.124-.208.186-.436.186-.684a1.28 1.28 0 0 0-.186-.678 1.414 1.414 0 0 0-.498-.498 1.3 1.3 0 0 0-.678-.186c-.248 0-.476.062-.684.186-.204.124-.37.29-.498.498a1.28 1.28 0 0 0-.186.678c0 .248.062.476.186.684.128.204.294.368.498.492.208.124.436.186.684.186Zm-5.058-3.882a2.11 2.11 0 0 1-1.086-.288 2.258 2.258 0 0 1-.786-.78 2.122 2.122 0 0 1-.288-1.092c0-.392.1-.752.3-1.08.2-.328.464-.59.792-.786a2.045 2.045 0 0 1 1.068-.294c.396 0 .756.098 1.08.294.328.192.59.452.786.78.196.324.294.686.294 1.086s-.098.764-.294 1.092a2.258 2.258 0 0 1-.786.78 2.079 2.079 0 0 1-1.08.288Zm0-.798c.248 0 .474-.062.678-.186a1.43 1.43 0 0 0 .498-.492c.124-.208.186-.436.186-.684a1.28 1.28 0 0 0-.186-.678 1.414 1.414 0 0 0-.498-.498 1.28 1.28 0 0 0-.678-.186c-.248 0-.476.062-.684.186a1.43 1.43 0 0 0-.492.498 1.28 1.28 0 0 0-.186.678c0 .248.062.476.186.684.124.204.288.368.492.492.208.124.436.186.684.186Z"/><rect width="32" height="81" x="255" y="148" fill="#4DABF7" rx="2"/><path fill="#868E96" d="M249.756 246v-7.656l-1.626.978v-.99l1.626-.972h.894V246h-.894Zm5.99.18a2.82 2.82 0 0 1-1.44-.372 2.768 2.768 0 0 1-1.008-1.008 2.82 2.82 0 0 1-.372-1.44V240a2.787 2.787 0 0 1 1.38-2.448 2.82 2.82 0 0 1 1.44-.372c.532 0 1.01.124 1.434.372a2.74 2.74 0 0 1 1.014 1.014c.248.424.372.902.372 1.434v3.36a2.82 2.82 0 0 1-.372 1.44 2.787 2.787 0 0 1-2.448 1.38Zm0-.852c.356 0 .68-.086.972-.258.292-.176.524-.41.696-.702.172-.292.258-.614.258-.966v-3.444c0-.356-.086-.68-.258-.972a1.935 1.935 0 0 0-.696-.696 1.847 1.847 0 0 0-.972-.264c-.356 0-.68.088-.972.264a1.935 1.935 0 0 0-.696.696 1.88 1.88 0 0 0-.258.972v3.444c0 .352.086.674.258.966.172.292.404.526.696.702.292.172.616.258.972.258Zm4.498.672v-6.48h.786l2.526 5.304 2.532-5.304h.78V246h-.852v-4.596L263.838 246h-.558l-2.178-4.596V246h-.858Zm7.703 0v-.774c.24.044.422.034.546-.03a.61.61 0 0 0 .282-.336c.06-.16.11-.358.15-.594.064-.392.122-.824.174-1.296.052-.472.098-.992.138-1.56.044-.572.088-1.202.132-1.89h4.404V246h-.876v-5.634h-2.712a64.899 64.899 0 0 1-.21 2.478c-.036.384-.076.738-.12 1.062-.044.324-.09.604-.138.84-.072.356-.168.64-.288.852a.844.844 0 0 1-.522.42c-.232.068-.552.062-.96-.018Zm7.496 0v-6.48h.882v2.814h3.654v-2.814h.882V246h-.882v-2.82h-3.654V246h-.882Zm7.264 0v-1.026h1.026V246h-1.026Zm5.161-3.402v-.756h3.6v.756h-3.6ZM246.539 262v-7.656l-1.626.978v-.99l1.626-.972h.894V262h-.894Zm5.99.18a2.82 2.82 0 0 1-1.44-.372 2.768 2.768 0 0 1-1.008-1.008 2.82 2.82 0 0 1-.372-1.44V256a2.787 2.787 0 0 1 1.38-2.448 2.82 2.82 0 0 1 1.44-.372c.532 0 1.01.124 1.434.372a2.74 2.74 0 0 1 1.014 1.014c.248.424.372.902.372 1.434v3.36a2.82 2.82 0 0 1-.372 1.44 2.787 2.787 0 0 1-2.448 1.38Zm0-.852c.356 0 .68-.086.972-.258.292-.176.524-.41.696-.702.172-.292.258-.614.258-.966v-3.444c0-.356-.086-.68-.258-.972a1.935 1.935 0 0 0-.696-.696 1.847 1.847 0 0 0-.972-.264c-.356 0-.68.088-.972.264a1.935 1.935 0 0 0-.696.696 1.88 1.88 0 0 0-.258.972v3.444c0 .352.086.674.258.966.172.292.404.526.696.702.292.172.616.258.972.258Zm7.324.852a2.82 2.82 0 0 1-1.44-.372 2.768 2.768 0 0 1-1.008-1.008 2.82 2.82 0 0 1-.372-1.44V256a2.787 2.787 0 0 1 1.38-2.448 2.82 2.82 0 0 1 1.44-.372c.532 0 1.01.124 1.434.372a2.74 2.74 0 0 1 1.014 1.014c.248.424.372.902.372 1.434v3.36a2.82 2.82 0 0 1-.372 1.44 2.787 2.787 0 0 1-2.448 1.38Zm0-.852c.356 0 .68-.086.972-.258.292-.176.524-.41.696-.702.172-.292.258-.614.258-.966v-3.444c0-.356-.086-.68-.258-.972a1.935 1.935 0 0 0-.696-.696 1.847 1.847 0 0 0-.972-.264c-.356 0-.68.088-.972.264a1.935 1.935 0 0 0-.696.696 1.88 1.88 0 0 0-.258.972v3.444c0 .352.086.674.258.966.172.292.404.526.696.702.292.172.616.258.972.258Zm4.499.672v-6.48h.786l2.526 5.304 2.532-5.304h.78V262h-.852v-4.596L267.946 262h-.558l-2.178-4.596V262h-.858Zm7.702 0v-.774c.24.044.422.034.546-.03a.61.61 0 0 0 .282-.336c.06-.16.11-.358.15-.594.064-.392.122-.824.174-1.296.052-.472.098-.992.138-1.56.044-.572.088-1.202.132-1.89h4.404V262h-.876v-5.634h-2.712a64.899 64.899 0 0 1-.21 2.478c-.036.384-.076.738-.12 1.062-.044.324-.09.604-.138.84-.072.356-.168.64-.288.852a.844.844 0 0 1-.522.42c-.232.068-.552.062-.96-.018Zm7.497 0v-6.48h.882v2.814h3.654v-2.814h.882V262h-.882v-2.82h-3.654V262h-.882Zm7.264 0v-1.026h1.026V262h-1.026Zm8.257 0h-1.08v-5.76h-2.532v-.936h6.144v.936h-2.532V262Zm-3.612-8.568h6.144v.936h-6.144v-.936ZM347.612 101v-7.656l-1.626.978v-.99l1.626-.972h.894V101h-.894Zm5.803.18c-.54 0-1.018-.108-1.434-.324a2.44 2.44 0 0 1-.972-.906c-.232-.392-.348-.85-.348-1.374 0-.536.13-1.012.39-1.428.26-.42.656-.738 1.188-.954l-.012.348a1.949 1.949 0 0 1-1.014-.804 2.29 2.29 0 0 1-.348-1.236c0-.48.11-.892.33-1.236.22-.348.52-.616.9-.804a2.965 2.965 0 0 1 1.32-.282c.496 0 .936.094 1.32.282.384.188.686.456.906.804.22.344.33.756.33 1.236 0 .452-.112.862-.336 1.23-.22.368-.558.638-1.014.81l-.03-.348c.532.212.93.528 1.194.948.268.42.402.898.402 1.434 0 .524-.118.982-.354 1.374a2.43 2.43 0 0 1-.978.906c-.416.216-.896.324-1.44.324Zm0-.846c.544 0 .986-.15 1.326-.45.34-.304.51-.74.51-1.308 0-.576-.168-1.012-.504-1.308-.336-.3-.78-.45-1.332-.45s-.994.15-1.326.45c-.332.296-.498.732-.498 1.308 0 .568.168 1.004.504 1.308.336.3.776.45 1.32.45Zm0-4.368c.48 0 .87-.122 1.17-.366.3-.248.45-.614.45-1.098 0-.484-.15-.846-.45-1.086-.3-.244-.69-.366-1.17-.366s-.87.122-1.17.366c-.296.24-.444.602-.444 1.086 0 .484.148.85.444 1.098.3.244.69.366 1.17.366ZM357.91 101v-1.026h1.026V101h-1.026Zm5.723-8.814c.544 0 1.036.132 1.476.396.444.26.796.616 1.056 1.068.26.448.39.952.39 1.512v3a3.07 3.07 0 0 1-.39 1.548c-.26.456-.616.816-1.068 1.08-.448.26-.958.39-1.53.39-.492 0-.948-.108-1.368-.324a2.921 2.921 0 0 1-1.032-.906l.672-.558c.184.284.428.512.732.684.308.172.64.258.996.258.408 0 .768-.096 1.08-.288.316-.196.564-.452.744-.768.184-.32.276-.666.276-1.038v-1.884l.216.252a2.88 2.88 0 0 1-.99.96 2.57 2.57 0 0 1-1.344.366 2.783 2.783 0 0 1-1.446-.384 2.866 2.866 0 0 1-1.02-1.032 2.852 2.852 0 0 1-.372-1.446c0-.532.132-1.016.396-1.452a2.92 2.92 0 0 1 1.062-1.044c.444-.26.932-.39 1.464-.39Zm0 .852c-.376 0-.718.092-1.026.276a1.996 1.996 0 0 0-1.008 1.758c0 .376.09.718.27 1.026a1.996 1.996 0 0 0 1.758 1.008c.376 0 .718-.09 1.026-.27a2.04 2.04 0 0 0 .738-.738c.184-.308.276-.65.276-1.026 0-.372-.092-.712-.276-1.02a2.054 2.054 0 0 0-.732-.738 1.963 1.963 0 0 0-1.026-.276Zm7.418 8.142a2.82 2.82 0 0 1-1.44-.372 2.768 2.768 0 0 1-1.008-1.008 2.82 2.82 0 0 1-.372-1.44V95a2.787 2.787 0 0 1 1.38-2.448 2.82 2.82 0 0 1 1.44-.372c.532 0 1.01.124 1.434.372a2.74 2.74 0 0 1 1.014 1.014c.248.424.372.902.372 1.434v3.36a2.82 2.82 0 0 1-.372 1.44 2.787 2.787 0 0 1-2.448 1.38Zm0-.852c.356 0 .68-.086.972-.258.292-.176.524-.41.696-.702.172-.292.258-.614.258-.966v-3.444c0-.356-.086-.68-.258-.972a1.935 1.935 0 0 0-.696-.696 1.847 1.847 0 0 0-.972-.264c-.356 0-.68.088-.972.264a1.935 1.935 0 0 0-.696.696 1.88 1.88 0 0 0-.258.972v3.444c0 .352.086.674.258.966.172.292.404.526.696.702.292.172.616.258.972.258Zm5.344.672-.6-.6 8.058-8.04.6.594-8.058 8.046Zm6.258.18a2.11 2.11 0 0 1-1.086-.288 2.275 2.275 0 0 1-.78-.78 2.088 2.088 0 0 1-.294-1.092c0-.392.1-.752.3-1.08.2-.328.464-.59.792-.786a2.045 2.045 0 0 1 1.068-.294c.396 0 .758.098 1.086.294.328.192.588.452.78.78.196.324.294.686.294 1.086s-.098.764-.294 1.092a2.208 2.208 0 0 1-.78.78 2.11 2.11 0 0 1-1.086.288Zm0-.798a1.3 1.3 0 0 0 .678-.186 1.43 1.43 0 0 0 .498-.492c.124-.208.186-.436.186-.684a1.28 1.28 0 0 0-.186-.678 1.414 1.414 0 0 0-.498-.498 1.3 1.3 0 0 0-.678-.186c-.248 0-.476.062-.684.186-.204.124-.37.29-.498.498a1.28 1.28 0 0 0-.186.678c0 .248.062.476.186.684.128.204.294.368.498.492.208.124.436.186.684.186Zm-5.058-3.882a2.11 2.11 0 0 1-1.086-.288 2.258 2.258 0 0 1-.786-.78 2.122 2.122 0 0 1-.288-1.092c0-.392.1-.752.3-1.08.2-.328.464-.59.792-.786a2.045 2.045 0 0 1 1.068-.294c.396 0 .756.098 1.08.294.328.192.59.452.786.78.196.324.294.686.294 1.086s-.098.764-.294 1.092a2.258 2.258 0 0 1-.786.78 2.079 2.079 0 0 1-1.08.288Zm0-.798c.248 0 .474-.062.678-.186a1.43 1.43 0 0 0 .498-.492c.124-.208.186-.436.186-.684a1.28 1.28 0 0 0-.186-.678 1.414 1.414 0 0 0-.498-.498 1.28 1.28 0 0 0-.678-.186c-.248 0-.476.062-.684.186a1.43 1.43 0 0 0-.492.498 1.28 1.28 0 0 0-.186.678c0 .248.062.476.186.684.124.204.288.368.492.492.208.124.436.186.684.186Z"/><rect width="32" height="121" x="349.398" y="108" fill="#4DABF7" rx="2"/><path fill="#868E96" d="M344.219 246v-7.656l-1.626.978v-.99l1.626-.972h.894V246h-.894Zm3.164 0v-6.48h.786l2.526 5.304 2.532-5.304h.78V246h-.852v-4.596L350.977 246h-.558l-2.178-4.596V246h-.858Zm7.703 0v-.774c.24.044.422.034.546-.03a.61.61 0 0 0 .282-.336c.06-.16.11-.358.15-.594.064-.392.122-.824.174-1.296.052-.472.098-.992.138-1.56.044-.572.088-1.202.132-1.89h4.404V246h-.876v-5.634h-2.712a64.899 64.899 0 0 1-.21 2.478c-.036.384-.076.738-.12 1.062-.044.324-.09.604-.138.84-.072.356-.168.64-.288.852a.844.844 0 0 1-.522.42c-.232.068-.552.062-.96-.018Zm10.412.18c-.596 0-1.1-.15-1.512-.45a2.822 2.822 0 0 1-.936-1.23 4.587 4.587 0 0 1-.318-1.746c0-.656.106-1.24.318-1.752.216-.516.532-.922.948-1.218.416-.296.928-.444 1.536-.444.592 0 1.1.15 1.524.45.424.3.748.708.972 1.224.228.516.342 1.096.342 1.74 0 .648-.114 1.23-.342 1.746a2.919 2.919 0 0 1-.984 1.23c-.428.3-.944.45-1.548.45Zm-2.916 2.7v-9.36h.792v4.878h.096v4.482h-.888Zm2.826-3.522c.452 0 .828-.114 1.128-.342.3-.228.524-.538.672-.93.152-.396.228-.84.228-1.332 0-.488-.074-.928-.222-1.32a2.023 2.023 0 0 0-.678-.93c-.3-.228-.682-.342-1.146-.342-.452 0-.828.11-1.128.33-.296.22-.518.526-.666.918-.148.388-.222.836-.222 1.344 0 .5.074.948.222 1.344.148.392.372.7.672.924.3.224.68.336 1.14.336Zm3.802 2.082v-2.196c.368 0 .632-.118.792-.354.16-.24.29-.622.39-1.146.068-.34.124-.706.168-1.098.044-.392.082-.84.114-1.344a83.32 83.32 0 0 0 .09-1.782h4.284v5.724h.624v2.196h-.852V246h-4.764v1.44h-.846Zm1.494-2.196h3.468v-4.968h-2.592c-.012.304-.03.626-.054.966-.02.34-.046.68-.078 1.02-.028.34-.062.66-.102.96a7.48 7.48 0 0 1-.132.78c-.06.288-.126.534-.198.738a1.2 1.2 0 0 1-.312.504Zm6.337.756v-1.026h1.026V246h-1.026Zm5.161-3.402v-.756h3.6v.756h-3.6ZM341.002 262v-7.656l-1.626.978v-.99l1.626-.972h.894V262h-.894Zm5.99.18a2.82 2.82 0 0 1-1.44-.372 2.768 2.768 0 0 1-1.008-1.008 2.82 2.82 0 0 1-.372-1.44V256a2.787 2.787 0 0 1 1.38-2.448 2.82 2.82 0 0 1 1.44-.372c.532 0 1.01.124 1.434.372a2.74 2.74 0 0 1 1.014 1.014c.248.424.372.902.372 1.434v3.36a2.82 2.82 0 0 1-.372 1.44 2.787 2.787 0 0 1-2.448 1.38Zm0-.852c.356 0 .68-.086.972-.258.292-.176.524-.41.696-.702.172-.292.258-.614.258-.966v-3.444c0-.356-.086-.68-.258-.972a1.935 1.935 0 0 0-.696-.696 1.847 1.847 0 0 0-.972-.264c-.356 0-.68.088-.972.264a1.935 1.935 0 0 0-.696.696 1.88 1.88 0 0 0-.258.972v3.444c0 .352.086.674.258.966.172.292.404.526.696.702.292.172.616.258.972.258Zm4.498.672v-6.48h.786l2.526 5.304 2.532-5.304h.78V262h-.852v-4.596L355.084 262h-.558l-2.178-4.596V262h-.858Zm7.703 0v-.774c.24.044.422.034.546-.03a.61.61 0 0 0 .282-.336c.06-.16.11-.358.15-.594.064-.392.122-.824.174-1.296.052-.472.098-.992.138-1.56.044-.572.088-1.202.132-1.89h4.404V262h-.876v-5.634h-2.712a64.899 64.899 0 0 1-.21 2.478c-.036.384-.076.738-.12 1.062-.044.324-.09.604-.138.84-.072.356-.168.64-.288.852a.844.844 0 0 1-.522.42c-.232.068-.552.062-.96-.018Zm10.412.18c-.596 0-1.1-.15-1.512-.45a2.822 2.822 0 0 1-.936-1.23 4.587 4.587 0 0 1-.318-1.746c0-.656.106-1.24.318-1.752.216-.516.532-.922.948-1.218.416-.296.928-.444 1.536-.444.592 0 1.1.15 1.524.45.424.3.748.708.972 1.224.228.516.342 1.096.342 1.74 0 .648-.114 1.23-.342 1.746a2.919 2.919 0 0 1-.984 1.23c-.428.3-.944.45-1.548.45Zm-2.916 2.7v-9.36h.792v4.878h.096v4.482h-.888Zm2.826-3.522c.452 0 .828-.114 1.128-.342.3-.228.524-.538.672-.93.152-.396.228-.84.228-1.332 0-.488-.074-.928-.222-1.32a2.023 2.023 0 0 0-.678-.93c-.3-.228-.682-.342-1.146-.342-.452 0-.828.11-1.128.33-.296.22-.518.526-.666.918-.148.388-.222.836-.222 1.344 0 .5.074.948.222 1.344.148.392.372.7.672.924.3.224.68.336 1.14.336Zm3.802 2.082v-2.196c.368 0 .632-.118.792-.354.16-.24.29-.622.39-1.146.068-.34.124-.706.168-1.098.044-.392.082-.84.114-1.344a83.32 83.32 0 0 0 .09-1.782h4.284v5.724h.624v2.196h-.852V262h-4.764v1.44h-.846Zm1.494-2.196h3.468v-4.968h-2.592c-.012.304-.03.626-.054.966-.02.34-.046.68-.078 1.02-.028.34-.062.66-.102.96a7.48 7.48 0 0 1-.132.78c-.06.288-.126.534-.198.738a1.2 1.2 0 0 1-.312.504Zm6.338.756v-1.026h1.026V262h-1.026Zm8.257 0h-1.08v-5.76h-2.532v-.936h6.144v.936h-2.532V262Zm-3.612-8.568h6.144v.936h-6.144v-.936ZM444.173 178l3.18-7.782h-4.002v-.858h4.944v.858L445.121 178h-.948Zm4.933 0v-1.026h1.026V178h-1.026Zm5.801.18c-.54 0-1.032-.13-1.476-.39a3.002 3.002 0 0 1-1.056-1.068 3 3 0 0 1-.39-1.524v-2.994c0-.58.13-1.096.39-1.548.26-.456.614-.814 1.062-1.074a2.989 2.989 0 0 1 1.536-.396c.492 0 .948.108 1.368.324.424.216.77.518 1.038.906l-.678.558a2.054 2.054 0 0 0-1.728-.948c-.404 0-.764.098-1.08.294a2.123 2.123 0 0 0-1.014 1.806v1.884l-.222-.252c.252-.396.582-.716.99-.96a2.59 2.59 0 0 1 1.344-.366 2.819 2.819 0 0 1 2.844 2.862c0 .532-.134 1.016-.402 1.452a2.984 2.984 0 0 1-1.062 1.044c-.44.26-.928.39-1.464.39Zm0-.858c.376 0 .718-.09 1.026-.27.312-.18.558-.424.738-.732.184-.308.276-.65.276-1.026s-.092-.718-.276-1.026a1.994 1.994 0 0 0-.732-.738 1.963 1.963 0 0 0-1.026-.276c-.376 0-.718.092-1.026.276a2.04 2.04 0 0 0-.738.738c-.18.308-.27.65-.27 1.026 0 .372.09.712.27 1.02a1.996 1.996 0 0 0 1.758 1.008Zm7.339.858a2.82 2.82 0 0 1-1.44-.372 2.768 2.768 0 0 1-1.008-1.008 2.82 2.82 0 0 1-.372-1.44V172a2.787 2.787 0 0 1 1.38-2.448 2.82 2.82 0 0 1 1.44-.372c.532 0 1.01.124 1.434.372a2.74 2.74 0 0 1 1.014 1.014c.248.424.372.902.372 1.434v3.36a2.82 2.82 0 0 1-.372 1.44 2.787 2.787 0 0 1-2.448 1.38Zm0-.852c.356 0 .68-.086.972-.258.292-.176.524-.41.696-.702.172-.292.258-.614.258-.966v-3.444c0-.356-.086-.68-.258-.972a1.935 1.935 0 0 0-.696-.696 1.847 1.847 0 0 0-.972-.264c-.356 0-.68.088-.972.264a1.935 1.935 0 0 0-.696.696 1.88 1.88 0 0 0-.258.972v3.444c0 .352.086.674.258.966.172.292.404.526.696.702.292.172.616.258.972.258Zm5.344.672-.6-.6 8.058-8.04.6.594L467.59 178Zm6.258.18a2.11 2.11 0 0 1-1.086-.288 2.275 2.275 0 0 1-.78-.78 2.088 2.088 0 0 1-.294-1.092c0-.392.1-.752.3-1.08.2-.328.464-.59.792-.786a2.045 2.045 0 0 1 1.068-.294c.396 0 .758.098 1.086.294.328.192.588.452.78.78.196.324.294.686.294 1.086s-.098.764-.294 1.092a2.208 2.208 0 0 1-.78.78 2.11 2.11 0 0 1-1.086.288Zm0-.798a1.3 1.3 0 0 0 .678-.186 1.43 1.43 0 0 0 .498-.492c.124-.208.186-.436.186-.684a1.28 1.28 0 0 0-.186-.678 1.414 1.414 0 0 0-.498-.498 1.3 1.3 0 0 0-.678-.186c-.248 0-.476.062-.684.186-.204.124-.37.29-.498.498a1.28 1.28 0 0 0-.186.678c0 .248.062.476.186.684.128.204.294.368.498.492.208.124.436.186.684.186Zm-5.058-3.882a2.11 2.11 0 0 1-1.086-.288 2.258 2.258 0 0 1-.786-.78 2.122 2.122 0 0 1-.288-1.092c0-.392.1-.752.3-1.08.2-.328.464-.59.792-.786a2.045 2.045 0 0 1 1.068-.294c.396 0 .756.098 1.08.294.328.192.59.452.786.78.196.324.294.686.294 1.086s-.098.764-.294 1.092a2.258 2.258 0 0 1-.786.78 2.079 2.079 0 0 1-1.08.288Zm0-.798c.248 0 .474-.062.678-.186a1.43 1.43 0 0 0 .498-.492c.124-.208.186-.436.186-.684a1.28 1.28 0 0 0-.186-.678 1.414 1.414 0 0 0-.498-.498 1.28 1.28 0 0 0-.678-.186c-.248 0-.476.062-.684.186a1.43 1.43 0 0 0-.492.498 1.28 1.28 0 0 0-.186.678c0 .248.062.476.186.684.124.204.288.368.492.492.208.124.436.186.684.186Z"/><rect width="32" height="44" x="443.799" y="185" fill="#4DABF7" rx="2"/><path fill="#868E96" d="M444.549 246.18c-.86 0-1.586-.19-2.178-.57a3.613 3.613 0 0 1-1.344-1.59c-.304-.676-.456-1.456-.456-2.34 0-.884.152-1.664.456-2.34a3.575 3.575 0 0 1 1.344-1.584c.592-.384 1.318-.576 2.178-.576 1.004 0 1.824.258 2.46.774.636.512 1.072 1.2 1.308 2.064l-.9.234c-.184-.684-.514-1.226-.99-1.626-.476-.4-1.102-.6-1.878-.6-.676 0-1.238.154-1.686.462-.448.308-.786.738-1.014 1.29-.224.548-.34 1.182-.348 1.902-.004.72.106 1.354.33 1.902.228.548.568.978 1.02 1.29.456.308 1.022.462 1.698.462.776 0 1.402-.2 1.878-.6.476-.404.806-.946.99-1.626l.9.234c-.236.864-.672 1.554-1.308 2.07-.636.512-1.456.768-2.46.768Zm5.086-.18v-6.48h2.67c.136 0 .3.008.492.024.196.016.378.046.546.09.364.096.656.292.876.588.224.296.336.652.336 1.068 0 .232-.036.44-.108.624-.068.18-.166.336-.294.468a1.202 1.202 0 0 1-.408.3c.128.024.266.08.414.168.232.136.408.32.528.552.12.228.18.506.18.834 0 .444-.106.806-.318 1.086-.212.28-.496.472-.852.576a2.59 2.59 0 0 1-.522.084 8.04 8.04 0 0 1-.522.018h-3.018Zm.888-.75h2.088c.084 0 .19-.006.318-.018.128-.016.242-.036.342-.06.236-.06.408-.18.516-.36.112-.184.168-.384.168-.6 0-.284-.084-.516-.252-.696a1.053 1.053 0 0 0-.66-.336 1.667 1.667 0 0 0-.288-.036c-.1-.004-.19-.006-.27-.006h-1.962v2.112Zm0-2.868h1.812c.104 0 .22-.006.348-.018a1.49 1.49 0 0 0 .342-.078.79.79 0 0 0 .456-.372c.1-.176.15-.368.15-.576 0-.228-.054-.428-.162-.6a.824.824 0 0 0-.474-.36 1.594 1.594 0 0 0-.468-.09 8.808 8.808 0 0 0-.312-.012h-1.692v2.106Zm5.546 3.618-.012-6.48h.888v2.442h1.128c.188 0 .372.004.552.012.18.008.342.024.486.048.32.064.604.172.852.324.248.152.444.362.588.63.144.264.216.598.216 1.002 0 .556-.144.994-.432 1.314-.288.32-.65.528-1.086.624-.164.036-.342.06-.534.072-.192.008-.38.012-.564.012h-2.082Zm.876-.756h1.17c.132 0 .282-.004.45-.012a2 2 0 0 0 .444-.066c.216-.06.41-.18.582-.36.176-.184.264-.46.264-.828 0-.364-.084-.638-.252-.822a1.213 1.213 0 0 0-.672-.372 2.578 2.578 0 0 0-.408-.054 7.155 7.155 0 0 0-.408-.012h-1.17v2.526Zm4.596.756v-6.48h.882V246h-.882Zm2.555 0v-6.48h.858v5.664h2.43v-5.664h.858v5.664h2.424v-5.664h.858V246h-7.428Zm11.853.18c-.632 0-1.18-.14-1.644-.42a2.85 2.85 0 0 1-1.074-1.182c-.256-.508-.384-1.104-.384-1.788 0-.708.126-1.32.378-1.836a2.81 2.81 0 0 1 1.062-1.194c.46-.28 1.002-.42 1.626-.42.64 0 1.186.148 1.638.444.452.292.794.712 1.026 1.26.232.548.338 1.202.318 1.962h-.9v-.312c-.016-.84-.198-1.474-.546-1.902-.344-.428-.848-.642-1.512-.642-.696 0-1.23.226-1.602.678-.368.452-.552 1.096-.552 1.932 0 .816.184 1.45.552 1.902.372.448.898.672 1.578.672.464 0 .868-.106 1.212-.318.348-.216.622-.526.822-.93l.822.318a2.94 2.94 0 0 1-1.134 1.314 3.13 3.13 0 0 1-1.686.462Zm-2.478-3.174v-.738h4.95v.738h-4.95ZM439.065 262v-7.656l-1.626.978v-.99l1.626-.972h.894V262h-.894Zm3.164 0v-6.48h.786l2.526 5.304 2.532-5.304h.78V262h-.852v-4.596L445.823 262h-.558l-2.178-4.596V262h-.858Zm7.702 0v-.774c.24.044.422.034.546-.03a.61.61 0 0 0 .282-.336c.06-.16.11-.358.15-.594.064-.392.122-.824.174-1.296.052-.472.098-.992.138-1.56.044-.572.088-1.202.132-1.89h4.404V262h-.876v-5.634h-2.712a64.899 64.899 0 0 1-.21 2.478c-.036.384-.076.738-.12 1.062-.044.324-.09.604-.138.84-.072.356-.168.64-.288.852a.844.844 0 0 1-.522.42c-.232.068-.552.062-.96-.018Zm10.413.18c-.596 0-1.1-.15-1.512-.45a2.822 2.822 0 0 1-.936-1.23 4.587 4.587 0 0 1-.318-1.746c0-.656.106-1.24.318-1.752.216-.516.532-.922.948-1.218.416-.296.928-.444 1.536-.444.592 0 1.1.15 1.524.45.424.3.748.708.972 1.224.228.516.342 1.096.342 1.74 0 .648-.114 1.23-.342 1.746a2.919 2.919 0 0 1-.984 1.23c-.428.3-.944.45-1.548.45Zm-2.916 2.7v-9.36h.792v4.878h.096v4.482h-.888Zm2.826-3.522c.452 0 .828-.114 1.128-.342.3-.228.524-.538.672-.93.152-.396.228-.84.228-1.332 0-.488-.074-.928-.222-1.32a2.023 2.023 0 0 0-.678-.93c-.3-.228-.682-.342-1.146-.342-.452 0-.828.11-1.128.33-.296.22-.518.526-.666.918-.148.388-.222.836-.222 1.344 0 .5.074.948.222 1.344.148.392.372.7.672.924.3.224.68.336 1.14.336Zm3.801 2.082v-2.196c.368 0 .632-.118.792-.354.16-.24.29-.622.39-1.146.068-.34.124-.706.168-1.098.044-.392.082-.84.114-1.344a83.32 83.32 0 0 0 .09-1.782h4.284v5.724h.624v2.196h-.852V262h-4.764v1.44h-.846Zm1.494-2.196h3.468v-4.968h-2.592c-.012.304-.03.626-.054.966-.02.34-.046.68-.078 1.02-.028.34-.062.66-.102.96a7.48 7.48 0 0 1-.132.78c-.06.288-.126.534-.198.738a1.2 1.2 0 0 1-.312.504Zm6.338.756v-1.026h1.026V262h-1.026Zm8.257 0h-1.08v-5.76h-2.532v-.936h6.144v.936h-2.532V262Zm-3.612-8.568h6.144v.936h-6.144v-.936Z"/></svg>