<svg xmlns="http://www.w3.org/2000/svg" width="421" height="128" fill="none"><g><rect width="421" height="128" fill="#fff" rx="12" shape-rendering="crispEdges"/><path fill="#343A40" d="m118 36 4.54-14.4h3.53l4.54 14.4h-2.48l-4.12-12.92h.54L120.48 36H118Zm2.53-3.12v-2.25h7.56v2.25h-7.56Zm17.587 3.42c-1.44 0-2.673-.313-3.7-.94-1.027-.633-1.817-1.513-2.37-2.64-.547-1.127-.82-2.433-.82-3.92s.273-2.793.82-3.92c.553-1.127 1.343-2.003 2.37-2.63 1.027-.633 2.26-.95 3.7-.95 1.44 0 2.673.317 3.7.95 1.033.627 1.823 1.503 2.37 2.63.553 1.127.83 2.433.83 3.92s-.277 2.793-.83 3.92c-.547 1.127-1.337 2.007-2.37 2.64-1.027.627-2.26.94-3.7.94Zm0-2.27c.967.007 1.77-.207 2.41-.64.647-.433 1.13-1.043 1.45-1.83.327-.787.49-1.707.49-2.76 0-1.053-.163-1.967-.49-2.74-.32-.78-.803-1.387-1.45-1.82-.64-.433-1.443-.657-2.41-.67-.967-.007-1.77.207-2.41.64-.64.433-1.123 1.043-1.45 1.83-.32.787-.48 1.707-.48 2.76 0 1.053.16 1.97.48 2.75.32.773.8 1.377 1.44 1.81.647.433 1.453.657 2.42.67Zm18.914-12.46-.15 1.04c-.306-.027-.55.027-.73.16a.961.961 0 0 0-.37.55c-.06.233-.07.5-.03.8h1.28v2.57h-2.47v-2.67c0-.873.207-1.533.62-1.98.414-.453 1.03-.61 1.85-.47Zm-3.35 0-.15 1.04c-.306-.027-.55.027-.73.16a.961.961 0 0 0-.37.55c-.06.233-.07.5-.03.8h1.28v2.57h-2.47v-2.67c0-.873.207-1.533.62-1.98.414-.453 1.03-.61 1.85-.47ZM160.035 36V21.6h9.3v2.26h-6.89V36h-2.41Zm12.512.3c-.78 0-1.44-.147-1.98-.44-.54-.3-.95-.697-1.23-1.19a3.31 3.31 0 0 1-.41-1.63c0-.52.087-.987.26-1.4.173-.42.44-.78.8-1.08.36-.307.827-.557 1.4-.75.433-.14.94-.267 1.52-.38a35.55 35.55 0 0 1 1.9-.31c.687-.1 1.403-.207 2.15-.32l-.86.49c.007-.747-.16-1.297-.5-1.65-.34-.353-.913-.53-1.72-.53-.487 0-.957.113-1.41.34-.453.227-.77.617-.95 1.17l-2.2-.69a4.088 4.088 0 0 1 1.52-2.2c.753-.553 1.767-.83 3.04-.83.96 0 1.803.157 2.53.47a3.142 3.142 0 0 1 1.63 1.54c.193.38.31.77.35 1.17.04.393.06.823.06 1.29V36h-2.11v-2.34l.35.38c-.487.78-1.057 1.353-1.71 1.72-.647.36-1.457.54-2.43.54Zm.48-1.92c.547 0 1.013-.097 1.4-.29a2.73 2.73 0 0 0 .92-.71c.233-.28.39-.543.47-.79.127-.307.197-.657.21-1.05.02-.4.03-.723.03-.97l.74.22c-.727.113-1.35.213-1.87.3s-.967.17-1.34.25a8.571 8.571 0 0 0-.99.25c-.28.1-.517.217-.71.35a1.558 1.558 0 0 0-.45.46 1.2 1.2 0 0 0-.15.61c0 .267.067.503.2.71.133.2.327.36.58.48.26.12.58.18.96.18Zm11.863 1.92c-1.026 0-1.963-.217-2.81-.65-.846-.433-1.513-1.027-2-1.78l1.9-1.27c.387.46.817.817 1.29 1.07.474.247 1 .37 1.58.37.607 0 1.084-.133 1.43-.4a1.28 1.28 0 0 0 .52-1.07c0-.393-.116-.67-.35-.83-.233-.167-.54-.267-.92-.3-.38-.033-.786-.05-1.22-.05h-.8v-1.91h.79c.607 0 1.114-.07 1.52-.21.414-.14.62-.45.62-.93 0-.433-.16-.74-.48-.92a2.181 2.181 0 0 0-1.12-.28c-.52 0-1.033.11-1.54.33-.506.22-.96.487-1.36.8l-1.36-1.64c.6-.533 1.27-.953 2.01-1.26.74-.313 1.53-.47 2.37-.47.694 0 1.34.12 1.94.36.607.24 1.094.6 1.46 1.08.374.48.56 1.073.56 1.78 0 .507-.11.983-.33 1.43-.213.447-.556.87-1.03 1.27l-.03-.78a2.723 2.723 0 0 1 1.52 1.6c.14.367.21.757.21 1.17 0 .753-.2 1.39-.6 1.91-.4.52-.933.913-1.6 1.18-.66.267-1.383.4-2.17.4Zm5.571-.3 4.54-14.4h3.53l4.54 14.4h-2.48l-4.12-12.92h.54L192.941 36h-2.48Zm2.53-3.12v-2.25h7.56v2.25h-7.56ZM207.589 36v-8.66h-3.61V25.2h9.63v2.14h-3.61V36h-2.41Zm12.489.3c-1.08 0-2.023-.243-2.83-.73a5.021 5.021 0 0 1-1.88-2.01c-.44-.86-.66-1.847-.66-2.96 0-1.133.227-2.127.68-2.98a5.023 5.023 0 0 1 1.89-2c.807-.48 1.74-.72 2.8-.72 1.087 0 2.034.243 2.84.73a4.992 4.992 0 0 1 1.88 2.02c.447.853.67 1.837.67 2.95 0 1.12-.226 2.11-.68 2.97a5.008 5.008 0 0 1-1.88 2.01c-.806.48-1.75.72-2.83.72Zm0-2.26c.96 0 1.674-.32 2.14-.96.467-.64.7-1.467.7-2.48 0-1.047-.236-1.88-.71-2.5-.473-.627-1.183-.94-2.13-.94-.646 0-1.18.147-1.6.44-.413.287-.72.69-.92 1.21-.2.513-.3 1.11-.3 1.79 0 1.047.237 1.883.71 2.51.48.62 1.184.93 2.11.93Zm7.573 1.96V25.2h1.98l3.87 7.46 3.88-7.46h1.97V36h-2.3v-5.95l-3.07 5.95h-.95l-3.07-5.95V36h-2.31Zm14.493 0V21.6h11.67V36h-2.41V23.86h-6.85V36h-2.41Zm19.663.3c-1.054 0-1.937-.25-2.65-.75-.714-.5-1.25-1.18-1.61-2.04-.36-.867-.54-1.837-.54-2.91 0-1.087.18-2.06.54-2.92.36-.86.886-1.537 1.58-2.03.7-.5 1.563-.75 2.59-.75 1.02 0 1.903.25 2.65.75.753.493 1.336 1.17 1.75 2.03.413.853.62 1.827.62 2.92 0 1.08-.204 2.05-.61 2.91-.407.86-.98 1.54-1.72 2.04s-1.607.75-2.6.75Zm-5.21 4.5V25.2h2.13v7.58h.3v8.02h-2.43Zm4.84-6.66c.626 0 1.143-.157 1.55-.47.406-.313.706-.737.9-1.27.2-.54.3-1.14.3-1.8 0-.653-.1-1.247-.3-1.78-.2-.54-.51-.967-.93-1.28-.42-.32-.954-.48-1.6-.48-.614 0-1.114.15-1.5.45-.387.293-.674.707-.86 1.24-.18.527-.27 1.143-.27 1.85 0 .7.09 1.317.27 1.85.186.533.476.95.87 1.25.4.293.923.44 1.57.44Zm12.274 2.16c-1.08 0-2.023-.243-2.83-.73a5.015 5.015 0 0 1-1.88-2.01c-.44-.86-.66-1.847-.66-2.96 0-1.133.227-2.127.68-2.98a5.01 5.01 0 0 1 1.89-2c.807-.48 1.74-.72 2.8-.72 1.087 0 2.033.243 2.84.73a4.998 4.998 0 0 1 1.88 2.02c.447.853.67 1.837.67 2.95 0 1.12-.227 2.11-.68 2.97a5.015 5.015 0 0 1-1.88 2.01c-.807.48-1.75.72-2.83.72Zm0-2.26c.96 0 1.673-.32 2.14-.96.467-.64.7-1.467.7-2.48 0-1.047-.237-1.88-.71-2.5-.473-.627-1.183-.94-2.13-.94-.647 0-1.18.147-1.6.44-.413.287-.72.69-.92 1.21-.2.513-.3 1.11-.3 1.79 0 1.047.237 1.883.71 2.51.48.62 1.183.93 2.11.93Zm7.573 1.96V25.2h1.98l3.87 7.46 3.88-7.46h1.97V36h-2.3v-5.95l-3.07 5.95h-.95l-3.07-5.95V36h-2.31Zm14.693-9.32.14-1.04c.307.027.55-.023.73-.15.18-.133.3-.317.36-.55.067-.24.083-.51.05-.81h-1.28v-2.57h2.47v2.67c0 .873-.207 1.533-.62 1.98-.413.447-1.03.603-1.85.47Zm3.35 0 .14-1.04c.307.027.55-.023.73-.15.18-.133.3-.317.36-.55.067-.24.083-.51.05-.81h-1.28v-2.57h2.47v2.67c0 .873-.207 1.533-.62 1.98-.413.447-1.03.603-1.85.47Z"/><path fill="#4D8C8F" d="M67.4 75.98v-2.1l6.16-5.49c.48-.427.812-.83 1-1.21.186-.38.28-.747.28-1.1 0-.48-.104-.907-.31-1.28a2.326 2.326 0 0 0-.86-.9c-.36-.22-.778-.33-1.25-.33-.5 0-.944.117-1.33.35-.38.227-.678.53-.89.91-.214.38-.314.79-.3 1.23h-2.48c0-.96.212-1.797.64-2.51a4.45 4.45 0 0 1 1.78-1.66c.76-.393 1.636-.59 2.63-.59.92 0 1.746.207 2.48.62.732.407 1.31.973 1.73 1.7.42.72.63 1.55.63 2.49 0 .687-.094 1.263-.28 1.73a4.057 4.057 0 0 1-.84 1.29c-.368.393-.824.83-1.37 1.31l-4.37 3.87-.22-.6h7.08v2.27H67.4Zm16.433.29c-.72 0-1.4-.14-2.04-.42a4.942 4.942 0 0 1-1.67-1.19 4.6 4.6 0 0 1-1.01-1.82l2.33-.63c.167.573.47 1.017.91 1.33.447.307.937.457 1.47.45.474 0 .897-.11 1.27-.33a2.4 2.4 0 0 0 .88-.89c.213-.38.32-.803.32-1.27 0-.713-.23-1.31-.69-1.79-.46-.48-1.053-.72-1.78-.72-.22 0-.436.03-.65.09-.207.06-.407.143-.6.25l-1.1-1.9 4.84-4.14.21.58h-6.85V61.6h8.83v2.28l-3.89 3.74-.02-.71c.873.06 1.617.303 2.23.73.62.427 1.094.977 1.42 1.65.334.673.5 1.41.5 2.21 0 .907-.223 1.72-.67 2.44a4.817 4.817 0 0 1-1.78 1.71c-.74.413-1.56.62-2.46.62Z"/><path fill="#868E96" d="M35.169 92.18c-.652 0-1.222-.142-1.71-.426a3.104 3.104 0 0 1-1.146-1.194l.708-.45c.236.4.53.704.882.912.352.208.756.312 1.212.312.476 0 .858-.11 1.146-.33.288-.22.432-.522.432-.906 0-.264-.062-.474-.186-.63-.12-.156-.304-.268-.552-.336a3.483 3.483 0 0 0-.918-.102h-.768v-.756h.756c.448 0 .808-.08 1.08-.24.276-.164.414-.42.414-.768 0-.368-.138-.64-.414-.816-.272-.18-.598-.27-.978-.27-.384 0-.748.08-1.092.24a2.7 2.7 0 0 0-.858.606l-.564-.594a3.231 3.231 0 0 1 1.134-.81 3.614 3.614 0 0 1 1.446-.282c.416 0 .792.074 1.128.222.34.144.608.356.804.636.2.28.3.616.3 1.008 0 .368-.09.686-.27.954-.176.268-.426.49-.75.666l-.048-.33c.28.052.512.164.696.336.184.172.32.378.408.618.088.24.132.484.132.732 0 .412-.108.768-.324 1.068a2.087 2.087 0 0 1-.87.69c-.364.16-.774.24-1.23.24Zm5.602 0c-.488 0-.898-.088-1.23-.264a1.79 1.79 0 0 1-.738-.702 1.915 1.915 0 0 1-.246-.954c0-.352.07-.652.21-.9.144-.252.338-.458.582-.618.248-.16.534-.282.858-.366.328-.08.69-.15 1.086-.21.4-.064.79-.118 1.17-.162.384-.048.72-.094 1.008-.138l-.312.192c.012-.64-.112-1.114-.372-1.422-.26-.308-.712-.462-1.356-.462-.444 0-.82.1-1.128.3-.304.2-.518.516-.642.948l-.858-.252c.148-.58.446-1.03.894-1.35.448-.32 1.03-.48 1.746-.48.592 0 1.094.112 1.506.336.416.22.71.54.882.96.08.188.132.398.156.63.024.232.036.468.036.708V92h-.786v-1.626l.228.096c-.22.556-.562.98-1.026 1.272-.464.292-1.02.438-1.668.438Zm.102-.762c.412 0 .772-.074 1.08-.222.308-.148.556-.35.744-.606.188-.26.31-.552.366-.876.048-.208.074-.436.078-.684.004-.252.006-.44.006-.564l.336.174c-.3.04-.626.08-.978.12-.348.04-.692.086-1.032.138-.336.052-.64.114-.912.186a2.473 2.473 0 0 0-.534.222 1.233 1.233 0 0 0-.426.372.998.998 0 0 0-.162.582c0 .188.046.37.138.546.096.176.248.322.456.438.212.116.492.174.84.174Zm4.706.582.006-6.48h.888v3.12l2.892-3.12h1.176l-3.036 3.24L50.937 92h-1.284l-3.18-3.12V92h-.894Zm7.813.18c-.488 0-.898-.088-1.23-.264a1.79 1.79 0 0 1-.738-.702 1.915 1.915 0 0 1-.246-.954c0-.352.07-.652.21-.9.144-.252.338-.458.582-.618.248-.16.534-.282.858-.366.328-.08.69-.15 1.086-.21.4-.064.79-.118 1.17-.162.384-.048.72-.094 1.008-.138l-.312.192c.012-.64-.112-1.114-.372-1.422-.26-.308-.712-.462-1.356-.462-.444 0-.82.1-1.128.3-.304.2-.518.516-.642.948l-.858-.252c.148-.58.446-1.03.894-1.35.448-.32 1.03-.48 1.746-.48.592 0 1.094.112 1.506.336.416.22.71.54.882.96.08.188.132.398.156.63.024.232.036.468.036.708V92h-.786v-1.626l.228.096c-.22.556-.562.98-1.026 1.272-.464.292-1.02.438-1.668.438Zm.102-.762c.412 0 .772-.074 1.08-.222.308-.148.556-.35.744-.606.188-.26.31-.552.366-.876.048-.208.074-.436.078-.684.004-.252.006-.44.006-.564l.336.174c-.3.04-.626.08-.978.12-.348.04-.692.086-1.032.138-.336.052-.64.114-.912.186a2.473 2.473 0 0 0-.534.222 1.233 1.233 0 0 0-.426.372.998.998 0 0 0-.162.582c0 .188.046.37.138.546.096.176.248.322.456.438.212.116.492.174.84.174Zm7.046.762c-.652 0-1.222-.142-1.71-.426a3.104 3.104 0 0 1-1.146-1.194l.708-.45c.236.4.53.704.882.912.352.208.756.312 1.212.312.476 0 .858-.11 1.146-.33.288-.22.432-.522.432-.906 0-.264-.062-.474-.186-.63-.12-.156-.304-.268-.552-.336a3.483 3.483 0 0 0-.918-.102h-.768v-.756h.756c.448 0 .808-.08 1.08-.24.276-.164.414-.42.414-.768 0-.368-.138-.64-.414-.816-.272-.18-.598-.27-.978-.27-.384 0-.748.08-1.092.24a2.7 2.7 0 0 0-.858.606l-.564-.594a3.231 3.231 0 0 1 1.134-.81 3.614 3.614 0 0 1 1.446-.282c.416 0 .792.074 1.128.222.34.144.608.356.804.636.2.28.3.616.3 1.008 0 .368-.09.686-.27.954-.176.268-.426.49-.75.666l-.048-.33c.28.052.512.164.696.336.184.172.32.378.408.618.088.24.132.484.132.732 0 .412-.108.768-.324 1.068a2.087 2.087 0 0 1-.87.69c-.364.16-.774.24-1.23.24Zm5.602 0c-.488 0-.898-.088-1.23-.264a1.79 1.79 0 0 1-.738-.702 1.915 1.915 0 0 1-.246-.954c0-.352.07-.652.21-.9.144-.252.338-.458.582-.618.248-.16.534-.282.858-.366.328-.08.69-.15 1.086-.21.4-.064.79-.118 1.17-.162.384-.048.72-.094 1.008-.138l-.312.192c.012-.64-.112-1.114-.372-1.422-.26-.308-.712-.462-1.356-.462-.444 0-.82.1-1.128.3-.304.2-.518.516-.642.948l-.858-.252c.148-.58.446-1.03.894-1.35.448-.32 1.03-.48 1.746-.48.592 0 1.094.112 1.506.336.416.22.71.54.882.96.08.188.132.398.156.63.024.232.036.468.036.708V92h-.786v-1.626l.228.096c-.22.556-.562.98-1.026 1.272-.464.292-1.02.438-1.668.438Zm.102-.762c.412 0 .772-.074 1.08-.222.308-.148.556-.35.744-.606.188-.26.31-.552.366-.876.048-.208.074-.436.078-.684.004-.252.006-.44.006-.564l.336.174c-.3.04-.626.08-.978.12-.348.04-.692.086-1.032.138-.336.052-.64.114-.912.186a2.473 2.473 0 0 0-.534.222 1.233 1.233 0 0 0-.426.372.998.998 0 0 0-.162.582c0 .188.046.37.138.546.096.176.248.322.456.438.212.116.492.174.84.174Zm7.108.582v-6.48h.882v2.814h3.654V85.52h.882V92h-.882v-2.82h-3.654V92h-.882Zm8.95.18c-.488 0-.898-.088-1.23-.264a1.79 1.79 0 0 1-.738-.702 1.915 1.915 0 0 1-.246-.954c0-.352.07-.652.21-.9.144-.252.338-.458.582-.618.248-.16.534-.282.858-.366.328-.08.69-.15 1.086-.21.4-.064.79-.118 1.17-.162.384-.048.72-.094 1.008-.138l-.312.192c.012-.64-.112-1.114-.372-1.422-.26-.308-.712-.462-1.356-.462-.444 0-.82.1-1.128.3-.304.2-.518.516-.642.948l-.858-.252c.148-.58.446-1.03.894-1.35.448-.32 1.03-.48 1.746-.48.592 0 1.094.112 1.506.336.416.22.71.54.882.96.08.188.132.398.156.63.024.232.036.468.036.708V92h-.786v-1.626l.228.096c-.22.556-.562.98-1.026 1.272-.464.292-1.02.438-1.668.438Zm.102-.762c.412 0 .772-.074 1.08-.222.308-.148.556-.35.744-.606.188-.26.31-.552.366-.876.048-.208.074-.436.078-.684.004-.252.006-.44.006-.564l.336.174c-.3.04-.626.08-.978.12-.348.04-.692.086-1.032.138-.336.052-.64.114-.912.186a2.473 2.473 0 0 0-.534.222 1.233 1.233 0 0 0-.426.372.998.998 0 0 0-.162.582c0 .188.046.37.138.546.096.176.248.322.456.438.212.116.492.174.84.174Zm9.802.762c-.652 0-1.204-.146-1.656-.438a2.791 2.791 0 0 1-1.032-1.206c-.232-.516-.352-1.108-.36-1.776.008-.68.132-1.276.372-1.788.24-.516.586-.916 1.038-1.2.452-.288 1-.432 1.644-.432.656 0 1.226.16 1.71.48.488.32.822.758 1.002 1.314l-.864.276a1.825 1.825 0 0 0-.726-.9 2.004 2.004 0 0 0-1.128-.324c-.476 0-.87.11-1.182.33a1.92 1.92 0 0 0-.696.906c-.152.388-.23.834-.234 1.338.008.776.188 1.4.54 1.872.352.468.876.702 1.572.702.44 0 .814-.1 1.122-.3.312-.204.548-.5.708-.888l.888.264c-.24.576-.592 1.016-1.056 1.32-.464.3-1.018.45-1.662.45Zm4.647 2.7 1.254-3.402.017 1.008-2.837-6.966h.935l2.329 5.826h-.385l2.149-5.826h.9l-3.48 9.36h-.882ZM102.25 92v-6.48h.786l2.526 5.304 2.532-5.304h.78V92h-.852v-4.596L105.845 92h-.558l-2.178-4.596V92h-.858Zm8.297 0v-6.48h.786l2.526 5.304 2.532-5.304h.78V92h-.852v-4.596L114.142 92h-.558l-2.178-4.596V92h-.858Zm9.226 2.88 1.254-3.402.018 1.008-2.838-6.966h.936l2.328 5.826h-.384l2.148-5.826h.9l-3.48 9.36h-.882ZM53.742 108v-1.674h-4.044v-.84l2.892-6.126h.99l-2.892 6.126h3.054v-2.52h.888v2.52h.942v.84h-.942V108h-.888Zm5.824.18c-.448 0-.862-.092-1.242-.276a2.87 2.87 0 0 1-.972-.762 2.969 2.969 0 0 1-.576-1.116l.846-.228c.076.312.214.582.414.81.2.224.434.398.702.522.272.124.556.186.852.186.384 0 .728-.092 1.032-.276.308-.188.552-.436.732-.744.18-.308.27-.646.27-1.014 0-.38-.094-.722-.282-1.026a2.103 2.103 0 0 0-.744-.732 1.962 1.962 0 0 0-1.008-.27c-.408 0-.76.09-1.056.27a2.138 2.138 0 0 0-.708.666l-.804-.336.264-4.494H61.9v.846h-4.224l.438-.414-.234 3.834-.222-.294c.248-.284.548-.506.9-.666.352-.16.722-.24 1.11-.24.532 0 1.012.128 1.44.384a2.819 2.819 0 0 1 1.398 2.472c0 .528-.134 1.012-.402 1.452a3.085 3.085 0 0 1-1.068 1.05 2.823 2.823 0 0 1-1.47.396Zm7.298 0c-.54 0-1.032-.13-1.476-.39a3.002 3.002 0 0 1-1.056-1.068 3 3 0 0 1-.39-1.524v-2.994c0-.58.13-1.096.39-1.548.26-.456.614-.814 1.062-1.074a2.989 2.989 0 0 1 1.536-.396c.492 0 .948.108 1.368.324.424.216.77.518 1.038.906l-.678.558a2.054 2.054 0 0 0-1.728-.948c-.404 0-.764.098-1.08.294a2.123 2.123 0 0 0-1.014 1.806v1.884l-.222-.252c.252-.396.582-.716.99-.96a2.59 2.59 0 0 1 1.344-.366 2.819 2.819 0 0 1 2.844 2.862c0 .532-.134 1.016-.402 1.452a2.984 2.984 0 0 1-1.062 1.044c-.44.26-.928.39-1.464.39Zm0-.858c.376 0 .718-.09 1.026-.27.312-.18.558-.424.738-.732.184-.308.276-.65.276-1.026s-.092-.718-.276-1.026a1.994 1.994 0 0 0-.732-.738 1.963 1.963 0 0 0-1.026-.276c-.376 0-.718.092-1.026.276a2.04 2.04 0 0 0-.738.738c-.18.308-.27.65-.27 1.026 0 .372.09.712.27 1.02a1.996 1.996 0 0 0 1.758 1.008Zm6.916.678v-6.48h.786l2.526 5.304 2.532-5.304h.78V108h-.852v-4.596L77.374 108h-.558l-2.178-4.596V108h-.858Zm7.703 0v-.774c.24.044.422.034.546-.03a.61.61 0 0 0 .282-.336c.06-.16.11-.358.15-.594.064-.392.122-.824.174-1.296.052-.472.098-.992.138-1.56.044-.572.088-1.202.132-1.89h4.404V108h-.876v-5.634H83.72a64.899 64.899 0 0 1-.21 2.478c-.036.384-.076.738-.12 1.062-.044.324-.09.604-.138.84-.072.356-.168.64-.288.852a.844.844 0 0 1-.522.42c-.232.068-.552.062-.96-.018Zm7.496 0v-6.48h.882v2.814h3.654v-2.814h.882V108h-.882v-2.82h-3.654V108h-.882Zm7.264 0v-1.026h1.026V108h-1.026Zm8.257 0h-1.08v-5.76h-2.532v-.936h6.144v.936H104.5V108Zm-3.612-8.568h6.144v.936h-6.144v-.936Z"/><path fill="#4D8C8F" d="M198.962 75.98v-2.1l6.16-5.49c.48-.427.813-.83 1-1.21.186-.38.28-.747.28-1.1 0-.48-.104-.907-.31-1.28a2.333 2.333 0 0 0-2.11-1.23c-.5 0-.944.117-1.33.35-.38.227-.677.53-.89.91a2.31 2.31 0 0 0-.3 1.23h-2.48c0-.96.213-1.797.64-2.51a4.444 4.444 0 0 1 1.78-1.66c.76-.393 1.636-.59 2.63-.59.92 0 1.746.207 2.48.62.733.407 1.31.973 1.73 1.7.42.72.63 1.55.63 2.49 0 .687-.094 1.263-.28 1.73a4.067 4.067 0 0 1-.84 1.29c-.367.393-.824.83-1.37 1.31l-4.37 3.87-.22-.6h7.08v2.27h-9.91Zm17.494.32c-1.02 0-1.92-.217-2.7-.65a4.733 4.733 0 0 1-1.83-1.83c-.434-.78-.65-1.68-.65-2.7v-4.64c0-1.02.216-1.92.65-2.7a4.664 4.664 0 0 1 1.83-1.82c.78-.44 1.68-.66 2.7-.66 1.02 0 1.916.22 2.69.66.78.433 1.39 1.04 1.83 1.82.44.78.66 1.68.66 2.7v4.64c0 1.02-.22 1.92-.66 2.7-.44.78-1.05 1.39-1.83 1.83-.774.433-1.67.65-2.69.65Zm0-2.29c.506 0 .966-.12 1.38-.36.413-.247.74-.573.98-.98.24-.413.36-.873.36-1.38V66.3c0-.513-.12-.973-.36-1.38a2.66 2.66 0 0 0-.98-.98 2.645 2.645 0 0 0-1.38-.37 2.64 2.64 0 0 0-1.38.37c-.414.24-.74.567-.98.98-.24.407-.36.867-.36 1.38v4.99c0 .507.12.967.36 1.38.24.407.566.733.98.98.413.24.873.36 1.38.36Z"/><path fill="#868E96" d="M173.491 92.18c-.652 0-1.222-.142-1.71-.426a3.104 3.104 0 0 1-1.146-1.194l.708-.45c.236.4.53.704.882.912.352.208.756.312 1.212.312.476 0 .858-.11 1.146-.33.288-.22.432-.522.432-.906 0-.264-.062-.474-.186-.63-.12-.156-.304-.268-.552-.336a3.483 3.483 0 0 0-.918-.102h-.768v-.756h.756c.448 0 .808-.08 1.08-.24.276-.164.414-.42.414-.768 0-.368-.138-.64-.414-.816-.272-.18-.598-.27-.978-.27-.384 0-.748.08-1.092.24a2.7 2.7 0 0 0-.858.606l-.564-.594a3.231 3.231 0 0 1 1.134-.81 3.614 3.614 0 0 1 1.446-.282c.416 0 .792.074 1.128.222.34.144.608.356.804.636.2.28.3.616.3 1.008 0 .368-.09.686-.27.954-.176.268-.426.49-.75.666l-.048-.33c.28.052.512.164.696.336.184.172.32.378.408.618.088.24.132.484.132.732 0 .412-.108.768-.324 1.068a2.087 2.087 0 0 1-.87.69c-.364.16-.774.24-1.23.24Zm5.602 0c-.488 0-.898-.088-1.23-.264a1.79 1.79 0 0 1-.738-.702 1.915 1.915 0 0 1-.246-.954c0-.352.07-.652.21-.9.144-.252.338-.458.582-.618.248-.16.534-.282.858-.366.328-.08.69-.15 1.086-.21.4-.064.79-.118 1.17-.162.384-.048.72-.094 1.008-.138l-.312.192c.012-.64-.112-1.114-.372-1.422-.26-.308-.712-.462-1.356-.462-.444 0-.82.1-1.128.3-.304.2-.518.516-.642.948l-.858-.252c.148-.58.446-1.03.894-1.35.448-.32 1.03-.48 1.746-.48.592 0 1.094.112 1.506.336.416.22.71.54.882.96.08.188.132.398.156.63.024.232.036.468.036.708V92h-.786v-1.626l.228.096c-.22.556-.562.98-1.026 1.272-.464.292-1.02.438-1.668.438Zm.102-.762c.412 0 .772-.074 1.08-.222.308-.148.556-.35.744-.606.188-.26.31-.552.366-.876.048-.208.074-.436.078-.684.004-.252.006-.44.006-.564l.336.174c-.3.04-.626.08-.978.12-.348.04-.692.086-1.032.138-.336.052-.64.114-.912.186a2.473 2.473 0 0 0-.534.222 1.233 1.233 0 0 0-.426.372.998.998 0 0 0-.162.582c0 .188.046.37.138.546.096.176.248.322.456.438.212.116.492.174.84.174Zm4.706.582v-6.48h2.67c.136 0 .3.008.492.024.196.016.378.046.546.09.364.096.656.292.876.588.224.296.336.652.336 1.068 0 .232-.036.44-.108.624-.068.18-.166.336-.294.468a1.202 1.202 0 0 1-.408.3c.128.024.266.08.414.168.232.136.408.32.528.552.12.228.18.506.18.834 0 .444-.106.806-.318 1.086-.212.28-.496.472-.852.576a2.59 2.59 0 0 1-.522.084 8.04 8.04 0 0 1-.522.018h-3.018Zm.888-.75h2.088c.084 0 .19-.006.318-.018.128-.016.242-.036.342-.06.236-.06.408-.18.516-.36.112-.184.168-.384.168-.6 0-.284-.084-.516-.252-.696a1.053 1.053 0 0 0-.66-.336 1.667 1.667 0 0 0-.288-.036c-.1-.004-.19-.006-.27-.006h-1.962v2.112Zm0-2.868h1.812c.104 0 .22-.006.348-.018a1.49 1.49 0 0 0 .342-.078.79.79 0 0 0 .456-.372c.1-.176.15-.368.15-.576 0-.228-.054-.428-.162-.6a.824.824 0 0 0-.474-.36 1.594 1.594 0 0 0-.468-.09 8.808 8.808 0 0 0-.312-.012h-1.692v2.106Zm8.282 3.798c-.632 0-1.18-.14-1.644-.42a2.85 2.85 0 0 1-1.074-1.182c-.256-.508-.384-1.104-.384-1.788 0-.708.126-1.32.378-1.836a2.81 2.81 0 0 1 1.062-1.194c.46-.28 1.002-.42 1.626-.42.64 0 1.186.148 1.638.444.452.292.794.712 1.026 1.26.232.548.338 1.202.318 1.962h-.9v-.312c-.016-.84-.198-1.474-.546-1.902-.344-.428-.848-.642-1.512-.642-.696 0-1.23.226-1.602.678-.368.452-.552 1.096-.552 1.932 0 .816.184 1.45.552 1.902.372.448.898.672 1.578.672.464 0 .868-.106 1.212-.318.348-.216.622-.526.822-.93l.822.318a2.94 2.94 0 0 1-1.134 1.314 3.13 3.13 0 0 1-1.686.462Zm-2.478-3.174v-.738h4.95v.738h-4.95Zm9.665 3.174c-.596 0-1.1-.15-1.512-.45a2.822 2.822 0 0 1-.936-1.23 4.587 4.587 0 0 1-.318-1.746c0-.656.106-1.24.318-1.752.216-.516.532-.922.948-1.218.416-.296.928-.444 1.536-.444.592 0 1.1.15 1.524.45.424.3.748.708.972 1.224.228.516.342 1.096.342 1.74 0 .648-.114 1.23-.342 1.746a2.919 2.919 0 0 1-.984 1.23c-.428.3-.944.45-1.548.45Zm-2.916 2.7v-9.36h.792v4.878h.096v4.482h-.888Zm2.826-3.522c.452 0 .828-.114 1.128-.342.3-.228.524-.538.672-.93.152-.396.228-.84.228-1.332 0-.488-.074-.928-.222-1.32a2.023 2.023 0 0 0-.678-.93c-.3-.228-.682-.342-1.146-.342-.452 0-.828.11-1.128.33-.296.22-.518.526-.666.918-.148.388-.222.836-.222 1.344 0 .5.074.948.222 1.344.148.392.372.7.672.924.3.224.68.336 1.14.336Zm4.276.642v-6.48h.858v5.664h2.43V85.52h.858v5.664h2.424V85.52h.858V92h-7.428Zm11.853.18c-.632 0-1.18-.14-1.644-.42a2.85 2.85 0 0 1-1.074-1.182c-.256-.508-.384-1.104-.384-1.788 0-.708.126-1.32.378-1.836a2.805 2.805 0 0 1 1.063-1.194c.46-.28 1.002-.42 1.626-.42.64 0 1.186.148 1.638.444.452.292.794.712 1.026 1.26.232.548.338 1.202.318 1.962h-.9v-.312c-.017-.84-.198-1.474-.546-1.902-.344-.428-.848-.642-1.512-.642-.696 0-1.23.226-1.603.678-.368.452-.552 1.096-.552 1.932 0 .816.184 1.45.552 1.902.373.448.899.672 1.579.672.463 0 .868-.106 1.212-.318.348-.216.622-.526.822-.93l.822.318a2.94 2.94 0 0 1-1.134 1.314 3.136 3.136 0 0 1-1.687.462Zm-2.478-3.174v-.738h4.951v.738h-4.951Zm6.75 2.994v-6.48h.882v2.814h3.654V85.52h.882V92h-.882v-2.82h-3.654V92h-.882Zm7.09 0v-6.48h.882v2.814h3.654V85.52h.882V92h-.882v-2.82h-3.654V92h-.882Zm7.102 0-.012-6.48h.888v2.442h1.128c.188 0 .372.004.552.012.18.008.342.024.486.048.32.064.604.172.852.324.248.152.444.362.588.63.144.264.216.598.216 1.002 0 .556-.144.994-.432 1.314-.288.32-.65.528-1.086.624-.164.036-.342.06-.534.072-.192.008-.38.012-.564.012h-2.082Zm.876-.756h1.17c.132 0 .282-.004.45-.012a2 2 0 0 0 .444-.066c.216-.06.41-.18.582-.36.176-.184.264-.46.264-.828 0-.364-.084-.638-.252-.822a1.213 1.213 0 0 0-.672-.372 2.578 2.578 0 0 0-.408-.054 7.155 7.155 0 0 0-.408-.012h-1.17v2.526Zm4.596.756v-6.48h.882V92h-.882Zm1.841 0 2.532-3.276-2.478-3.204h1.056l1.938 2.526 1.92-2.526h1.056l-2.478 3.204L248.158 92h-1.062l-1.974-2.598L243.136 92h-1.062Zm-85.735 16v-6.48h.882v2.814h3.654v-2.814h.882V108h-.882v-2.82h-3.654V108h-.882Zm8.949.18c-.488 0-.898-.088-1.23-.264a1.79 1.79 0 0 1-.738-.702 1.915 1.915 0 0 1-.246-.954c0-.352.07-.652.21-.9.144-.252.338-.458.582-.618.248-.16.534-.282.858-.366.328-.08.69-.15 1.086-.21.4-.064.79-.118 1.17-.162.384-.048.72-.094 1.008-.138l-.312.192c.012-.64-.112-1.114-.372-1.422-.26-.308-.712-.462-1.356-.462-.444 0-.82.1-1.128.3-.304.2-.518.516-.642.948l-.858-.252c.148-.58.446-1.03.894-1.35.448-.32 1.03-.48 1.746-.48.592 0 1.094.112 1.506.336.416.22.71.54.882.96.08.188.132.398.156.63.024.232.036.468.036.708V108h-.786v-1.626l.228.096c-.22.556-.562.98-1.026 1.272-.464.292-1.02.438-1.668.438Zm.102-.762c.412 0 .772-.074 1.08-.222.308-.148.556-.35.744-.606.188-.26.31-.552.366-.876.048-.208.074-.436.078-.684.004-.252.006-.44.006-.564l.336.174c-.3.04-.626.08-.978.12-.348.04-.692.086-1.032.138-.336.052-.64.114-.912.186a2.473 2.473 0 0 0-.534.222 1.233 1.233 0 0 0-.426.372.998.998 0 0 0-.162.582c0 .188.046.37.138.546.096.176.248.322.456.438.212.116.492.174.84.174Zm9.803.762c-.652 0-1.204-.146-1.656-.438a2.791 2.791 0 0 1-1.032-1.206c-.232-.516-.352-1.108-.36-1.776.008-.68.132-1.276.372-1.788.24-.516.586-.916 1.038-1.2.452-.288 1-.432 1.644-.432.656 0 1.226.16 1.71.48.488.32.822.758 1.002 1.314l-.864.276a1.825 1.825 0 0 0-.726-.9 2.004 2.004 0 0 0-1.128-.324c-.476 0-.87.11-1.182.33a1.92 1.92 0 0 0-.696.906c-.152.388-.23.834-.234 1.338.008.776.188 1.4.54 1.872.352.468.876.702 1.572.702.44 0 .814-.1 1.122-.3.312-.204.548-.5.708-.888l.888.264c-.24.576-.592 1.016-1.056 1.32-.464.3-1.018.45-1.662.45Zm4.646 2.7 1.254-3.402.018 1.008-2.838-6.966h.936l2.328 5.826h-.384l2.148-5.826h.9l-3.48 9.36h-.882Zm5.398-2.88v-6.48h.786l2.526 5.304 2.532-5.304h.78V108h-.852v-4.596L188.831 108h-.558l-2.178-4.596V108h-.858Zm8.297 0v-6.48h.786l2.526 5.304 2.532-5.304h.78V108h-.852v-4.596L197.128 108h-.558l-2.178-4.596V108h-.858Zm9.227 2.88 1.254-3.402.018 1.008-2.838-6.966h.936l2.328 5.826h-.384l2.148-5.826h.9l-3.48 9.36h-.882Zm11.61-2.88v-1.674h-4.044v-.84l2.892-6.126h.99l-2.892 6.126h3.054v-2.52h.888v2.52h.942v.84h-.942V108h-.888Zm4.78 0v-7.656l-1.626.978v-.99l1.626-.972h.894V108h-.894Zm5.99.18a2.82 2.82 0 0 1-1.44-.372 2.768 2.768 0 0 1-1.008-1.008 2.82 2.82 0 0 1-.372-1.44V102a2.787 2.787 0 0 1 1.38-2.448 2.82 2.82 0 0 1 1.44-.372c.532 0 1.01.124 1.434.372a2.74 2.74 0 0 1 1.014 1.014c.248.424.372.902.372 1.434v3.36a2.82 2.82 0 0 1-.372 1.44 2.787 2.787 0 0 1-2.448 1.38Zm0-.852c.356 0 .68-.086.972-.258.292-.176.524-.41.696-.702.172-.292.258-.614.258-.966v-3.444c0-.356-.086-.68-.258-.972a1.935 1.935 0 0 0-.696-.696 1.847 1.847 0 0 0-.972-.264c-.356 0-.68.088-.972.264a1.935 1.935 0 0 0-.696.696 1.88 1.88 0 0 0-.258.972v3.444c0 .352.086.674.258.966.172.292.404.526.696.702.292.172.616.258.972.258Zm6.901.672v-6.48h.786l2.526 5.304 2.532-5.304h.78V108h-.852v-4.596L235.636 108h-.558l-2.178-4.596V108h-.858Zm7.703 0v-.774c.24.044.422.034.546-.03a.61.61 0 0 0 .282-.336c.06-.16.11-.358.15-.594.064-.392.122-.824.174-1.296.052-.472.098-.992.138-1.56.044-.572.088-1.202.132-1.89h4.404V108h-.876v-5.634h-2.712a64.899 64.899 0 0 1-.21 2.478c-.036.384-.076.738-.12 1.062-.044.324-.09.604-.138.84-.072.356-.168.64-.288.852a.844.844 0 0 1-.522.42c-.232.068-.552.062-.96-.018Zm7.496 0v-6.48h.882v2.814h3.654v-2.814h.882V108h-.882v-2.82h-3.654V108h-.882Zm7.264 0v-1.026h1.026V108h-1.026Zm8.257 0h-1.08v-5.76h-2.532v-.936h6.144v.936h-2.532V108Zm-3.612-8.568h6.144v.936h-6.144v-.936Z"/><path fill="#4D8C8F" d="M318.357 76.3c-.954 0-1.8-.193-2.54-.58a4.363 4.363 0 0 1-1.74-1.61c-.42-.687-.63-1.473-.63-2.36 0-.793.183-1.53.55-2.21a4.106 4.106 0 0 1 1.61-1.63l-.05.77a4.706 4.706 0 0 1-1.29-1.45 3.838 3.838 0 0 1-.45-1.86c0-.827.193-1.543.58-2.15a3.94 3.94 0 0 1 1.61-1.41c.68-.34 1.463-.51 2.35-.51.886 0 1.67.17 2.35.51a3.866 3.866 0 0 1 1.61 1.41c.393.607.59 1.323.59 2.15 0 .687-.147 1.303-.44 1.85-.287.547-.724 1.04-1.31 1.48l-.01-.78a4.002 4.002 0 0 1 1.59 1.62c.373.68.56 1.417.56 2.21 0 .887-.214 1.673-.64 2.36a4.351 4.351 0 0 1-1.75 1.61c-.74.387-1.59.58-2.55.58Zm0-2.27c.706 0 1.28-.193 1.72-.58.446-.387.67-.953.67-1.7s-.22-1.313-.66-1.7c-.44-.393-1.017-.59-1.73-.59-.707 0-1.277.197-1.71.59-.434.387-.65.953-.65 1.7s.216 1.313.65 1.7c.433.387 1.003.58 1.71.58Zm0-6.86c.593 0 1.073-.147 1.44-.44.373-.3.56-.753.56-1.36 0-.607-.187-1.057-.56-1.35-.367-.3-.847-.45-1.44-.45-.587 0-1.067.15-1.44.45-.367.293-.55.743-.55 1.35 0 .607.183 1.06.55 1.36.373.293.853.44 1.44.44Zm12.516 9.13c-.94 0-1.787-.22-2.54-.66a4.893 4.893 0 0 1-1.78-1.85c-.44-.787-.66-1.69-.66-2.71V66.7c0-1.093.217-2.043.65-2.85a4.642 4.642 0 0 1 1.84-1.87c.793-.44 1.713-.66 2.76-.66.727 0 1.417.123 2.07.37.653.24 1.233.627 1.74 1.16l-1.74 1.69a2.718 2.718 0 0 0-.93-.71c-.36-.173-.74-.26-1.14-.26-.56 0-1.05.133-1.47.4-.42.26-.747.603-.98 1.03-.227.427-.34.883-.34 1.37v2.39l-.44-.48c.413-.48.91-.853 1.49-1.12a4.221 4.221 0 0 1 1.82-.41c.907 0 1.707.207 2.4.62.693.407 1.24.967 1.64 1.68.4.707.6 1.513.6 2.42 0 .9-.23 1.717-.69 2.45a5.088 5.088 0 0 1-1.81 1.74 4.963 4.963 0 0 1-2.49.64Zm0-2.31c.467 0 .893-.11 1.28-.33.387-.227.693-.53.92-.91.233-.387.35-.813.35-1.28 0-.467-.113-.893-.34-1.28a2.536 2.536 0 0 0-.92-.92 2.378 2.378 0 0 0-1.27-.35 2.43 2.43 0 0 0-1.28.35 2.536 2.536 0 0 0-.92.92c-.227.387-.34.813-.34 1.28 0 .453.11.873.33 1.26.227.38.53.687.91.92.387.227.813.34 1.28.34Zm7.242 4.56.14-1.04c.306.027.55-.027.73-.16.18-.127.3-.31.36-.55.066-.233.083-.5.05-.8h-1.28v-2.57h2.47v2.67c0 .873-.207 1.533-.62 1.98-.414.447-1.03.603-1.85.47Zm10.924-17.23c.94 0 1.787.223 2.54.67a4.726 4.726 0 0 1 1.78 1.84c.44.78.66 1.68.66 2.7v4.39c0 1.087-.22 2.037-.66 2.85a4.574 4.574 0 0 1-1.83 1.87c-.787.44-1.707.66-2.76.66a5.73 5.73 0 0 1-2.06-.37 4.976 4.976 0 0 1-1.74-1.16l1.73-1.69c.26.3.57.537.93.71.367.167.747.25 1.14.25.56 0 1.05-.13 1.47-.39.42-.267.747-.61.98-1.03.233-.427.35-.883.35-1.37v-2.39l.43.48c-.407.48-.9.857-1.48 1.13-.58.267-1.19.4-1.83.4-.9 0-1.7-.207-2.4-.62a4.51 4.51 0 0 1-1.64-1.68c-.393-.713-.59-1.52-.59-2.42 0-.9.227-1.713.68-2.44a4.98 4.98 0 0 1 1.81-1.74 4.94 4.94 0 0 1 2.49-.65Zm0 2.3c-.467 0-.893.113-1.28.34a2.536 2.536 0 0 0-.92.92c-.227.38-.34.803-.34 1.27 0 .467.11.893.33 1.28.227.387.53.693.91.92.387.227.813.34 1.28.34.467 0 .893-.113 1.28-.34.387-.227.693-.533.92-.92.233-.387.35-.813.35-1.28 0-.453-.113-.87-.34-1.25a2.615 2.615 0 0 0-.92-.93 2.378 2.378 0 0 0-1.27-.35ZM358.811 76l-1.6-1.6 12.81-12.8 1.6 1.61L358.811 76Zm9.81.3c-.66 0-1.264-.16-1.81-.48a3.786 3.786 0 0 1-1.3-1.3 3.478 3.478 0 0 1-.49-1.82c0-.653.166-1.253.5-1.8a3.814 3.814 0 0 1 1.32-1.31 3.406 3.406 0 0 1 1.78-.49c.66 0 1.263.163 1.81.49.546.32.98.753 1.3 1.3.326.54.49 1.143.49 1.81s-.164 1.273-.49 1.82c-.32.54-.754.973-1.3 1.3-.547.32-1.15.48-1.81.48Zm0-2.06c.273 0 .526-.07.76-.21.24-.14.43-.327.57-.56.14-.233.21-.49.21-.77s-.07-.537-.21-.77c-.14-.233-.33-.42-.57-.56a1.453 1.453 0 0 0-.76-.21c-.28 0-.537.07-.77.21-.234.14-.424.327-.57.56-.14.233-.21.49-.21.77s.07.537.21.77c.146.233.336.42.57.56.233.14.49.21.77.21Zm-8.41-5.74c-.66 0-1.264-.16-1.81-.48a3.755 3.755 0 0 1-1.31-1.3 3.536 3.536 0 0 1-.48-1.82c0-.653.166-1.253.5-1.8a3.814 3.814 0 0 1 1.32-1.31 3.406 3.406 0 0 1 1.78-.49c.66 0 1.26.163 1.8.49.546.32.983.753 1.31 1.3.326.54.49 1.143.49 1.81s-.164 1.273-.49 1.82c-.327.54-.764.973-1.31 1.3-.54.32-1.14.48-1.8.48Zm0-2.06c.28 0 .536-.07.77-.21.233-.14.42-.327.56-.56.14-.233.21-.49.21-.77s-.07-.537-.21-.77a1.612 1.612 0 0 0-.56-.56 1.47 1.47 0 0 0-.77-.21c-.28 0-.537.07-.77.21-.234.14-.42.327-.56.56-.14.233-.21.49-.21.77s.07.537.21.77c.14.233.326.42.56.56.233.14.49.21.77.21Z"/><path fill="#868E96" d="M305.169 92.18c-.652 0-1.204-.146-1.656-.438a2.791 2.791 0 0 1-1.032-1.206c-.232-.516-.352-1.108-.36-1.776.008-.68.132-1.276.372-1.788.24-.516.586-.916 1.038-1.2.452-.288 1-.432 1.644-.432.656 0 1.226.16 1.71.48.488.32.822.758 1.002 1.314l-.864.276a1.825 1.825 0 0 0-.726-.9 2.004 2.004 0 0 0-1.128-.324c-.476 0-.87.11-1.182.33a1.92 1.92 0 0 0-.696.906c-.152.388-.23.834-.234 1.338.008.776.188 1.4.54 1.872.352.468.876.702 1.572.702.44 0 .814-.1 1.122-.3.312-.204.548-.5.708-.888l.888.264c-.24.576-.592 1.016-1.056 1.32-.464.3-1.018.45-1.662.45Zm6.487 0c-.644 0-1.194-.146-1.65-.438a2.85 2.85 0 0 1-1.05-1.212c-.244-.516-.366-1.108-.366-1.776 0-.68.124-1.276.372-1.788s.6-.91 1.056-1.194c.46-.288 1.006-.432 1.638-.432.648 0 1.2.146 1.656.438.46.288.81.69 1.05 1.206.244.512.366 1.102.366 1.77 0 .68-.122 1.278-.366 1.794a2.804 2.804 0 0 1-1.056 1.2c-.46.288-1.01.432-1.65.432Zm0-.846c.72 0 1.256-.238 1.608-.714.352-.48.528-1.102.528-1.866 0-.784-.178-1.408-.534-1.872-.352-.464-.886-.696-1.602-.696-.484 0-.884.11-1.2.33a1.957 1.957 0 0 0-.702.906c-.152.384-.228.828-.228 1.332 0 .78.18 1.406.54 1.878.36.468.89.702 1.59.702Zm7.084.846c-.652 0-1.204-.146-1.656-.438a2.791 2.791 0 0 1-1.032-1.206c-.232-.516-.352-1.108-.36-1.776.008-.68.132-1.276.372-1.788.24-.516.586-.916 1.038-1.2.452-.288 1-.432 1.644-.432.656 0 1.226.16 1.71.48.488.32.822.758 1.002 1.314l-.864.276a1.825 1.825 0 0 0-.726-.9 2.004 2.004 0 0 0-1.128-.324c-.476 0-.87.11-1.182.33a1.92 1.92 0 0 0-.696.906c-.152.388-.23.834-.234 1.338.008.776.188 1.4.54 1.872.352.468.876.702 1.572.702.44 0 .814-.1 1.122-.3.312-.204.548-.5.708-.888l.888.264c-.24.576-.592 1.016-1.056 1.32-.464.3-1.018.45-1.662.45Zm5.562-.18v-5.664h-2.298v-.816h5.478v.816h-2.298V92h-.882Zm6.913.18c-.644 0-1.194-.146-1.65-.438a2.85 2.85 0 0 1-1.05-1.212c-.244-.516-.366-1.108-.366-1.776 0-.68.124-1.276.372-1.788s.6-.91 1.056-1.194c.46-.288 1.006-.432 1.638-.432.648 0 1.2.146 1.656.438.46.288.81.69 1.05 1.206.244.512.366 1.102.366 1.77 0 .68-.122 1.278-.366 1.794a2.804 2.804 0 0 1-1.056 1.2c-.46.288-1.01.432-1.65.432Zm0-.846c.72 0 1.256-.238 1.608-.714.352-.48.528-1.102.528-1.866 0-.784-.178-1.408-.534-1.872-.352-.464-.886-.696-1.602-.696-.484 0-.884.11-1.2.33a1.957 1.957 0 0 0-.702.906c-.152.384-.228.828-.228 1.332 0 .78.18 1.406.54 1.878.36.468.89.702 1.59.702Zm8.457.666v-2.442h-1.512c-.176 0-.358-.006-.546-.018a6.031 6.031 0 0 1-.516-.066 2.235 2.235 0 0 1-1.164-.6c-.316-.316-.474-.752-.474-1.308 0-.544.148-.98.444-1.308a2.046 2.046 0 0 1 1.074-.648 3.18 3.18 0 0 1 .582-.078c.2-.008.372-.012.516-.012h2.478l.006 6.48h-.888Zm-4.422 0 1.806-2.718h.978L336.216 92h-.966Zm2.862-3.198h1.56v-2.526h-1.56c-.096 0-.23.004-.402.012a2.092 2.092 0 0 0-.486.078 1.27 1.27 0 0 0-.396.21 1.167 1.167 0 0 0-.324.39c-.088.16-.132.356-.132.588 0 .324.088.584.264.78.18.192.404.324.672.396.144.032.288.052.432.06.144.008.268.012.372.012ZM342.237 92v-6.48h2.67c.136 0 .3.008.492.024.196.016.378.046.546.09.364.096.656.292.876.588.224.296.336.652.336 1.068 0 .232-.036.44-.108.624-.068.18-.166.336-.294.468a1.202 1.202 0 0 1-.408.3c.128.024.266.08.414.168.232.136.408.32.528.552.12.228.18.506.18.834 0 .444-.106.806-.318 1.086-.212.28-.496.472-.852.576a2.59 2.59 0 0 1-.522.084 8.04 8.04 0 0 1-.522.018h-3.018Zm.888-.75h2.088c.084 0 .19-.006.318-.018.128-.016.242-.036.342-.06.236-.06.408-.18.516-.36.112-.184.168-.384.168-.6 0-.284-.084-.516-.252-.696a1.053 1.053 0 0 0-.66-.336 1.667 1.667 0 0 0-.288-.036c-.1-.004-.19-.006-.27-.006h-1.962v2.112Zm0-2.868h1.812c.104 0 .22-.006.348-.018a1.49 1.49 0 0 0 .342-.078.79.79 0 0 0 .456-.372c.1-.176.15-.368.15-.576 0-.228-.054-.428-.162-.6a.824.824 0 0 0-.474-.36 1.594 1.594 0 0 0-.468-.09 8.808 8.808 0 0 0-.312-.012h-1.692v2.106ZM348.659 92v-6.48h.858v5.664h2.43V85.52h.858v5.664h2.424V85.52h.858V92h-7.428Zm14.259-6.48V92h-.858v-5.046L358.508 92h-.744v-6.48h.858v5.004l3.558-5.004h.738Zm4.426 6.66c-.632 0-1.18-.14-1.644-.42a2.85 2.85 0 0 1-1.074-1.182c-.256-.508-.384-1.104-.384-1.788 0-.708.126-1.32.378-1.836a2.81 2.81 0 0 1 1.062-1.194c.46-.28 1.002-.42 1.626-.42.64 0 1.186.148 1.638.444.452.292.794.712 1.026 1.26.232.548.338 1.202.318 1.962h-.9v-.312c-.016-.84-.198-1.474-.546-1.902-.344-.428-.848-.642-1.512-.642-.696 0-1.23.226-1.602.678-.368.452-.552 1.096-.552 1.932 0 .816.184 1.45.552 1.902.372.448.898.672 1.578.672.464 0 .868-.106 1.212-.318.348-.216.622-.526.822-.93l.822.318a2.94 2.94 0 0 1-1.134 1.314 3.13 3.13 0 0 1-1.686.462Zm-2.478-3.174v-.738h4.95v.738h-4.95Zm9.444 3.174c-.652 0-1.204-.146-1.656-.438a2.791 2.791 0 0 1-1.032-1.206c-.232-.516-.352-1.108-.36-1.776.008-.68.132-1.276.372-1.788.24-.516.586-.916 1.038-1.2.452-.288 1-.432 1.644-.432.656 0 1.226.16 1.71.48.488.32.822.758 1.002 1.314l-.864.276a1.825 1.825 0 0 0-.726-.9 2.004 2.004 0 0 0-1.128-.324c-.476 0-.87.11-1.182.33a1.92 1.92 0 0 0-.696.906c-.152.388-.23.834-.234 1.338.008.776.188 1.4.54 1.872.352.468.876.702 1.572.702.44 0 .814-.1 1.122-.3.312-.204.548-.5.708-.888l.888.264c-.24.576-.592 1.016-1.056 1.32-.464.3-1.018.45-1.662.45Zm7.983-.18v-2.442h-1.512c-.176 0-.358-.006-.546-.018a6.031 6.031 0 0 1-.516-.066 2.235 2.235 0 0 1-1.164-.6c-.316-.316-.474-.752-.474-1.308 0-.544.148-.98.444-1.308a2.046 2.046 0 0 1 1.074-.648 3.18 3.18 0 0 1 .582-.078c.2-.008.372-.012.516-.012h2.478l.006 6.48h-.888Zm-4.422 0 1.806-2.718h.978L378.837 92h-.966Zm2.862-3.198h1.56v-2.526h-1.56c-.096 0-.23.004-.402.012a2.092 2.092 0 0 0-.486.078 1.27 1.27 0 0 0-.396.21 1.167 1.167 0 0 0-.324.39c-.088.16-.132.356-.132.588 0 .324.088.584.264.78.18.192.404.324.672.396.144.032.288.052.432.06.144.008.268.012.372.012Zm-57.051 19.378c-.652 0-1.222-.142-1.71-.426a3.104 3.104 0 0 1-1.146-1.194l.708-.45c.236.4.53.704.882.912.352.208.756.312 1.212.312.476 0 .858-.11 1.146-.33.288-.22.432-.522.432-.906 0-.264-.062-.474-.186-.63-.12-.156-.304-.268-.552-.336a3.483 3.483 0 0 0-.918-.102h-.768v-.756h.756c.448 0 .808-.08 1.08-.24.276-.164.414-.42.414-.768 0-.368-.138-.64-.414-.816-.272-.18-.598-.27-.978-.27-.384 0-.748.08-1.092.24a2.7 2.7 0 0 0-.858.606l-.564-.594a3.231 3.231 0 0 1 1.134-.81 3.614 3.614 0 0 1 1.446-.282c.416 0 .792.074 1.128.222.34.144.608.356.804.636.2.28.3.616.3 1.008 0 .368-.09.686-.27.954-.176.268-.426.49-.75.666l-.048-.33c.28.052.512.164.696.336.184.172.32.378.408.618.088.24.132.484.132.732 0 .412-.108.768-.324 1.068a2.087 2.087 0 0 1-.87.69c-.364.16-.774.24-1.23.24Zm5.602 0c-.488 0-.898-.088-1.23-.264a1.79 1.79 0 0 1-.738-.702 1.915 1.915 0 0 1-.246-.954c0-.352.07-.652.21-.9.144-.252.338-.458.582-.618.248-.16.534-.282.858-.366.328-.08.69-.15 1.086-.21.4-.064.79-.118 1.17-.162.384-.048.72-.094 1.008-.138l-.312.192c.012-.64-.112-1.114-.372-1.422-.26-.308-.712-.462-1.356-.462-.444 0-.82.1-1.128.3-.304.2-.518.516-.642.948l-.858-.252c.148-.58.446-1.03.894-1.35.448-.32 1.03-.48 1.746-.48.592 0 1.094.112 1.506.336.416.22.71.54.882.96.08.188.132.398.156.63.024.232.036.468.036.708V108h-.786v-1.626l.228.096c-.22.556-.562.98-1.026 1.272-.464.292-1.02.438-1.668.438Zm.102-.762c.412 0 .772-.074 1.08-.222.308-.148.556-.35.744-.606.188-.26.31-.552.366-.876.048-.208.074-.436.078-.684.004-.252.006-.44.006-.564l.336.174c-.3.04-.626.08-.978.12-.348.04-.692.086-1.032.138-.336.052-.64.114-.912.186a2.473 2.473 0 0 0-.534.222 1.233 1.233 0 0 0-.426.372.998.998 0 0 0-.162.582c0 .188.046.37.138.546.096.176.248.322.456.438.212.116.492.174.84.174Zm4.706.582.006-6.48h.888v3.12l2.892-3.12h1.176l-3.036 3.24 3.432 3.24h-1.284l-3.18-3.12V108h-.894Zm6.884 2.88 1.254-3.402.018 1.008-2.838-6.966h.936l2.328 5.826h-.384l2.148-5.826h.9l-3.48 9.36h-.882Zm5.398-2.88v-6.48h5.154V108h-.882v-5.634h-3.39V108h-.882Zm6.832 0 .006-6.48h.888v3.12l2.892-3.12h1.176l-3.036 3.24 3.432 3.24h-1.284l-3.18-3.12V108h-.894Zm11.107-6.48V108h-.858v-5.046L359.903 108h-.744v-6.48h.858v5.004l3.558-5.004h.738Z"/></g></svg>