<svg xmlns="http://www.w3.org/2000/svg" width="498" height="263" fill="none"><g><rect width="498" height="262.843" fill="#fff" rx="12" shape-rendering="crispEdges"/><path fill="#343A40" d="M31.49 40.3c-1.44 0-2.673-.313-3.7-.94-1.027-.633-1.817-1.513-2.37-2.64-.547-1.127-.82-2.433-.82-3.92s.273-2.793.82-3.92c.553-1.127 1.343-2.003 2.37-2.63 1.027-.633 2.26-.95 3.7-.95 1.44 0 2.673.317 3.7.95 1.033.627 1.823 1.503 2.37 2.63.553 1.127.83 2.433.83 3.92s-.277 2.793-.83 3.92c-.547 1.127-1.337 2.007-2.37 2.64-1.027.627-2.26.94-3.7.94Zm0-2.27c.967.007 1.77-.207 2.41-.64.647-.433 1.13-1.043 1.45-1.83.327-.787.49-1.707.49-2.76 0-1.053-.163-1.967-.49-2.74-.32-.78-.803-1.387-1.45-1.82-.64-.433-1.443-.657-2.41-.67-.967-.007-1.77.207-2.41.64-.64.433-1.123 1.043-1.45 1.83-.32.787-.48 1.707-.48 2.76 0 1.053.16 1.97.48 2.75.32.773.8 1.377 1.44 1.81.647.433 1.453.657 2.42.67Zm13.38 2.29c-1.026-.013-1.9-.243-2.62-.69-.72-.447-1.283-1.077-1.69-1.89-.406-.813-.653-1.773-.74-2.88-.04-.567-.043-1.2-.01-1.9.034-.7.107-1.383.22-2.05.114-.667.27-1.233.47-1.7a5.31 5.31 0 0 1 .81-1.29 5.407 5.407 0 0 1 2.51-1.71c.52-.167 1.064-.293 1.63-.38.567-.093 1.15-.177 1.75-.25.6-.073 1.194-.167 1.78-.28l.22 2.13a9.72 9.72 0 0 1-1.3.22c-.486.047-.993.1-1.52.16-.52.06-1.016.147-1.49.26-.473.113-.883.28-1.23.5-.48.293-.846.713-1.1 1.26a4.989 4.989 0 0 0-.45 1.73c.414-.613.927-1.043 1.54-1.29a4.933 4.933 0 0 1 1.88-.38c.96 0 1.784.227 2.47.68a4.392 4.392 0 0 1 1.59 1.85c.374.773.56 1.637.56 2.59 0 1.067-.223 2-.67 2.8a4.71 4.71 0 0 1-1.86 1.86c-.793.44-1.71.657-2.75.65Zm.12-2.26c.867 0 1.52-.267 1.96-.8.447-.54.67-1.257.67-2.15 0-.913-.23-1.633-.69-2.16-.453-.527-1.1-.79-1.94-.79-.853 0-1.503.263-1.95.79-.446.527-.67 1.247-.67 2.16 0 .933.227 1.66.68 2.18.454.513 1.1.77 1.94.77ZM52.923 40v-8.91h-1.57V29.2h3.98v3.6h1.93c.307 0 .647.007 1.02.02.373.013.69.043.95.09.607.133 1.123.347 1.55.64.427.293.753.677.98 1.15.233.473.35 1.043.35 1.71 0 .953-.246 1.717-.74 2.29-.493.567-1.183.953-2.07 1.16-.267.06-.593.1-.98.12-.38.013-.72.02-1.02.02h-4.38Zm2.41-1.89h2.18c.14 0 .3-.007.48-.02.18-.013.353-.043.52-.09.3-.08.567-.26.8-.54.233-.287.35-.637.35-1.05 0-.433-.12-.79-.36-1.07a1.617 1.617 0 0 0-.85-.55 3 3 0 0 0-.49-.08 5.45 5.45 0 0 0-.45-.02h-2.18v3.42Zm13.883 2.19c-1.093 0-2.053-.237-2.88-.71a5.055 5.055 0 0 1-1.94-1.97c-.46-.84-.69-1.807-.69-2.9 0-1.18.227-2.203.68-3.07.454-.873 1.084-1.55 1.89-2.03.807-.48 1.74-.72 2.8-.72 1.12 0 2.07.263 2.85.79.787.52 1.37 1.257 1.75 2.21.38.953.524 2.077.43 3.37h-2.39v-.88c-.006-1.173-.213-2.03-.62-2.57-.406-.54-1.046-.81-1.92-.81-.986 0-1.72.307-2.2.92-.48.607-.72 1.497-.72 2.67 0 1.093.24 1.94.72 2.54.48.6 1.18.9 2.1.9.594 0 1.104-.13 1.53-.39.434-.267.767-.65 1-1.15l2.38.72c-.413.973-1.053 1.73-1.92 2.27-.86.54-1.81.81-2.85.81Zm-3.72-5.03v-1.82h7.43v1.82h-7.43ZM76.025 40V29.2h1.98l3.87 7.46 3.88-7.46h1.97V40h-2.3v-5.95L82.355 40h-.95l-3.07-5.95V40h-2.31ZM94.5 40V29.2h9.38V40h-2.41v-8.54h-4.56V40h-2.41Zm11.188 0v-2.02c.393.073.697.067.91-.02.213-.093.373-.267.48-.52.107-.253.2-.59.28-1.01.107-.593.2-1.277.28-2.05.087-.773.16-1.6.22-2.48.067-.88.127-1.78.18-2.7h7.95V40h-2.4v-8.54h-3.43a136.818 136.818 0 0 1-.27 3.08 41.02 41.02 0 0 1-.18 1.56c-.06.487-.123.903-.19 1.25-.153.78-.373 1.397-.66 1.85-.28.453-.673.743-1.18.87-.507.133-1.17.11-1.99-.07Zm16.129.3c-.78 0-1.44-.147-1.98-.44-.54-.3-.95-.697-1.23-1.19a3.31 3.31 0 0 1-.41-1.63c0-.52.087-.987.26-1.4.174-.42.44-.78.8-1.08.36-.307.827-.557 1.4-.75.434-.14.94-.267 1.52-.38a35.55 35.55 0 0 1 1.9-.31c.687-.1 1.404-.207 2.15-.32l-.86.49c.007-.747-.16-1.297-.5-1.65-.34-.353-.913-.53-1.72-.53a3.12 3.12 0 0 0-1.41.34c-.453.227-.77.617-.95 1.17l-2.2-.69a4.093 4.093 0 0 1 1.52-2.2c.754-.553 1.767-.83 3.04-.83.96 0 1.804.157 2.53.47a3.138 3.138 0 0 1 1.63 1.54c.194.38.31.77.35 1.17.04.393.06.823.06 1.29V40h-2.11v-2.34l.35.38c-.486.78-1.056 1.353-1.71 1.72-.646.36-1.456.54-2.43.54Zm.48-1.92c.547 0 1.014-.097 1.4-.29a2.72 2.72 0 0 0 .92-.71c.234-.28.39-.543.47-.79.127-.307.197-.657.21-1.05.02-.4.03-.723.03-.97l.74.22c-.726.113-1.35.213-1.87.3s-.966.17-1.34.25a8.571 8.571 0 0 0-.99.25c-.28.1-.516.217-.71.35a1.558 1.558 0 0 0-.45.46 1.2 1.2 0 0 0-.15.61c0 .267.067.503.2.71.134.2.327.36.58.48.26.12.58.18.96.18Zm8.004 1.62V29.2h2.41v4.26h4.85V29.2h2.41V40h-2.41v-4.28h-4.85V40h-2.41Zm21.821-10.8V40h-2.31v-7.05l-5.14 7.05h-1.93V29.2h2.31v6.87l5.16-6.87h1.91Zm7.998 11.1c-1.053 0-1.936-.25-2.65-.75-.713-.5-1.25-1.18-1.61-2.04-.36-.867-.54-1.837-.54-2.91 0-1.087.18-2.06.54-2.92.36-.86.887-1.537 1.58-2.03.7-.5 1.564-.75 2.59-.75 1.02 0 1.904.25 2.65.75.754.493 1.337 1.17 1.75 2.03.414.853.62 1.827.62 2.92 0 1.08-.203 2.05-.61 2.91-.406.86-.98 1.54-1.72 2.04s-1.606.75-2.6.75Zm-5.21 4.5V29.2h2.13v7.58h.3v8.02h-2.43Zm4.84-6.66c.627 0 1.144-.157 1.55-.47.407-.313.707-.737.9-1.27.2-.54.3-1.14.3-1.8 0-.653-.1-1.247-.3-1.78-.2-.54-.51-.967-.93-1.28-.42-.32-.953-.48-1.6-.48-.613 0-1.113.15-1.5.45-.386.293-.673.707-.86 1.24-.18.527-.27 1.143-.27 1.85 0 .7.09 1.317.27 1.85.187.533.477.95.87 1.25.4.293.924.44 1.57.44Zm8.534 6.66 2.08-5.71.04 1.68-4.71-11.57h2.51l3.34 8.56h-.64l3.25-8.56h2.41l-6.02 15.6h-2.26Zm14.681-4.5c-1.093 0-2.053-.237-2.88-.71a5.062 5.062 0 0 1-1.94-1.97c-.46-.84-.69-1.807-.69-2.9 0-1.18.227-2.203.68-3.07.454-.873 1.084-1.55 1.89-2.03.807-.48 1.74-.72 2.8-.72 1.12 0 2.07.263 2.85.79.787.52 1.37 1.257 1.75 2.21.38.953.524 2.077.43 3.37h-2.39v-.88c-.006-1.173-.213-2.03-.62-2.57-.406-.54-1.046-.81-1.92-.81-.986 0-1.72.307-2.2.92-.48.607-.72 1.497-.72 2.67 0 1.093.24 1.94.72 2.54.48.6 1.18.9 2.1.9.594 0 1.104-.13 1.53-.39.434-.267.767-.65 1-1.15l2.38.72c-.413.973-1.053 1.73-1.92 2.27-.86.54-1.81.81-2.85.81Zm-3.72-5.03v-1.82h7.43v1.82h-7.43ZM189.775 40V29.2h1.98l3.87 7.46 3.88-7.46h1.97V40h-2.3v-5.95l-3.07 5.95h-.95l-3.07-5.95V40h-2.31Zm14.482 0-.01-10.8h2.41v3.6h1.21c.3 0 .637.007 1.01.02.38.013.697.043.95.09.607.133 1.124.347 1.55.64.434.293.764.677.99 1.15.227.473.34 1.043.34 1.71 0 .953-.246 1.717-.74 2.29-.493.567-1.183.953-2.07 1.16-.26.06-.583.1-.97.12-.386.013-.73.02-1.03.02h-3.64Zm2.4-1.89h1.45c.147 0 .31-.007.49-.02.18-.013.35-.043.51-.09.3-.08.567-.26.8-.54.234-.287.35-.637.35-1.05 0-.433-.116-.79-.35-1.07a1.617 1.617 0 0 0-.86-.55 2.995 2.995 0 0 0-.49-.08 5.45 5.45 0 0 0-.45-.02h-1.45v3.42Zm7.18 1.89V29.2h2.41V40h-2.41Zm4.015 0 3.95-5.46-3.87-5.34h2.84l2.43 3.45 2.39-3.45h2.84l-3.87 5.34 3.97 5.46h-2.84l-2.49-3.57-2.51 3.57h-2.84Zm20.118.3c-1.026 0-1.963-.217-2.81-.65-.846-.433-1.513-1.027-2-1.78l1.9-1.27c.387.46.817.817 1.29 1.07.474.247 1 .37 1.58.37.607 0 1.084-.133 1.43-.4a1.28 1.28 0 0 0 .52-1.07c0-.393-.116-.67-.35-.83-.233-.167-.54-.267-.92-.3-.38-.033-.786-.05-1.22-.05h-.8v-1.91h.79c.607 0 1.114-.07 1.52-.21.414-.14.62-.45.62-.93 0-.433-.16-.74-.48-.92a2.181 2.181 0 0 0-1.12-.28c-.52 0-1.033.11-1.54.33-.506.22-.96.487-1.36.8l-1.36-1.64c.6-.533 1.27-.953 2.01-1.26.74-.313 1.53-.47 2.37-.47.694 0 1.34.12 1.94.36.607.24 1.094.6 1.46 1.08.374.48.56 1.073.56 1.78 0 .507-.11.983-.33 1.43-.213.447-.556.87-1.03 1.27l-.03-.78a2.723 2.723 0 0 1 1.52 1.6c.14.367.21.757.21 1.17 0 .753-.2 1.39-.6 1.91-.4.52-.933.913-1.6 1.18-.66.267-1.383.4-2.17.4Zm9.591 0c-.78 0-1.44-.147-1.98-.44-.54-.3-.95-.697-1.23-1.19a3.3 3.3 0 0 1-.41-1.63c0-.52.086-.987.26-1.4.173-.42.44-.78.8-1.08.36-.307.826-.557 1.4-.75.433-.14.94-.267 1.52-.38.586-.113 1.22-.217 1.9-.31.686-.1 1.403-.207 2.15-.32l-.86.49c.006-.747-.16-1.297-.5-1.65-.34-.353-.914-.53-1.72-.53-.487 0-.957.113-1.41.34-.454.227-.77.617-.95 1.17l-2.2-.69a4.082 4.082 0 0 1 1.52-2.2c.753-.553 1.766-.83 3.04-.83.96 0 1.803.157 2.53.47a3.145 3.145 0 0 1 1.63 1.54c.193.38.31.77.35 1.17.04.393.06.823.06 1.29V40h-2.11v-2.34l.35.38c-.487.78-1.057 1.353-1.71 1.72-.647.36-1.457.54-2.43.54Zm.48-1.92c.546 0 1.013-.097 1.4-.29a2.74 2.74 0 0 0 .92-.71c.233-.28.39-.543.47-.79.126-.307.196-.657.21-1.05.02-.4.03-.723.03-.97l.74.22c-.727.113-1.35.213-1.87.3s-.967.17-1.34.25a8.468 8.468 0 0 0-.99.25c-.28.1-.517.217-.71.35a1.534 1.534 0 0 0-.45.46 1.2 1.2 0 0 0-.15.61c0 .267.066.503.2.71.133.2.326.36.58.48.26.12.58.18.96.18Zm8.003 1.62.02-10.8h2.44v5.2l3.95-5.2h3.01l-4.19 5.4 4.55 5.4h-3.19l-4.13-5.2V40h-2.46Zm12.202 4.8 2.08-5.71.04 1.68-4.71-11.57h2.51l3.34 8.56h-.64l3.25-8.56h2.41l-6.02 15.6h-2.26Zm9.751-4.8V29.2h9.38V40h-2.41v-8.54h-4.56V40h-2.41Zm16.958.3c-1.08 0-2.023-.243-2.83-.73a5.015 5.015 0 0 1-1.88-2.01c-.44-.86-.66-1.847-.66-2.96 0-1.133.227-2.127.68-2.98a5.01 5.01 0 0 1 1.89-2c.807-.48 1.74-.72 2.8-.72 1.087 0 2.033.243 2.84.73a4.998 4.998 0 0 1 1.88 2.02c.447.853.67 1.837.67 2.95 0 1.12-.227 2.11-.68 2.97a5.015 5.015 0 0 1-1.88 2.01c-.807.48-1.75.72-2.83.72Zm0-2.26c.96 0 1.673-.32 2.14-.96.467-.64.7-1.467.7-2.48 0-1.047-.237-1.88-.71-2.5-.473-.627-1.183-.94-2.13-.94-.647 0-1.18.147-1.6.44-.413.287-.72.69-.92 1.21-.2.513-.3 1.11-.3 1.79 0 1.047.237 1.883.71 2.51.48.62 1.183.93 2.11.93Zm7.573 1.96.02-10.8h2.44v5.2l3.95-5.2h3.01l-4.19 5.4 4.55 5.4h-3.19l-4.13-5.2V40h-2.46Z"/><path fill="#868E96" d="m27.902 69 3.18-7.782H27.08v-.858h4.945v.858L28.85 69h-.948Zm8.112.18c-.448 0-.862-.092-1.242-.276a2.87 2.87 0 0 1-.972-.762 2.969 2.969 0 0 1-.576-1.116l.846-.228c.076.312.214.582.414.81.2.224.434.398.702.522.272.124.556.186.852.186.384 0 .728-.092 1.032-.276.308-.188.552-.436.732-.744.18-.308.27-.646.27-1.014 0-.38-.094-.722-.282-1.026a2.103 2.103 0 0 0-.744-.732 1.962 1.962 0 0 0-1.008-.27c-.408 0-.76.09-1.056.27a2.138 2.138 0 0 0-.708.666l-.804-.336.264-4.494h4.614v.846h-4.224l.438-.414-.234 3.834-.222-.294c.248-.284.548-.506.9-.666.352-.16.722-.24 1.11-.24.532 0 1.012.128 1.44.384a2.819 2.819 0 0 1 1.398 2.472c0 .528-.134 1.012-.402 1.452a3.085 3.085 0 0 1-1.068 1.05 2.823 2.823 0 0 1-1.47.396Zm7.196 0a2.82 2.82 0 0 1-1.44-.372 2.768 2.768 0 0 1-1.008-1.008 2.82 2.82 0 0 1-.372-1.44V63a2.787 2.787 0 0 1 1.38-2.448 2.82 2.82 0 0 1 1.44-.372c.532 0 1.01.124 1.434.372a2.74 2.74 0 0 1 1.014 1.014c.248.424.372.902.372 1.434v3.36a2.82 2.82 0 0 1-.372 1.44 2.787 2.787 0 0 1-2.448 1.38Zm0-.852c.356 0 .68-.086.972-.258.292-.176.524-.41.696-.702.172-.292.258-.614.258-.966v-3.444c0-.356-.086-.68-.258-.972a1.935 1.935 0 0 0-.696-.696 1.847 1.847 0 0 0-.972-.264c-.356 0-.68.088-.972.264a1.935 1.935 0 0 0-.696.696 1.88 1.88 0 0 0-.258.972v3.444c0 .352.086.674.258.966.172.292.404.526.696.702.292.172.616.258.972.258ZM28.69 113.847c-.448 0-.862-.092-1.242-.276a2.87 2.87 0 0 1-.972-.762 2.969 2.969 0 0 1-.576-1.116l.846-.228c.076.312.214.582.414.81.2.224.434.398.702.522.272.124.556.186.852.186.384 0 .728-.092 1.032-.276.308-.188.552-.436.732-.744.18-.308.27-.646.27-1.014 0-.38-.094-.722-.282-1.026a2.103 2.103 0 0 0-.744-.732 1.962 1.962 0 0 0-1.008-.27c-.408 0-.76.09-1.056.27a2.138 2.138 0 0 0-.708.666l-.804-.336.264-4.494h4.614v.846H26.8l.438-.414-.234 3.834-.222-.294c.248-.284.548-.506.9-.666.352-.16.722-.24 1.11-.24.532 0 1.012.128 1.44.384a2.819 2.819 0 0 1 1.398 2.472c0 .528-.134 1.012-.402 1.452a3.085 3.085 0 0 1-1.068 1.05 2.823 2.823 0 0 1-1.47.396Zm7.196 0a2.82 2.82 0 0 1-1.44-.372 2.768 2.768 0 0 1-1.008-1.008 2.82 2.82 0 0 1-.372-1.44v-3.36a2.787 2.787 0 0 1 1.38-2.448 2.82 2.82 0 0 1 1.44-.372c.532 0 1.01.124 1.434.372a2.74 2.74 0 0 1 1.014 1.014c.248.424.372.902.372 1.434v3.36a2.82 2.82 0 0 1-.372 1.44 2.787 2.787 0 0 1-2.448 1.38Zm0-.852c.356 0 .68-.086.972-.258.292-.176.524-.41.696-.702.172-.292.258-.614.258-.966v-3.444c0-.356-.086-.68-.258-.972a1.935 1.935 0 0 0-.696-.696 1.847 1.847 0 0 0-.972-.264c-.356 0-.68.088-.972.264a1.935 1.935 0 0 0-.696.696 1.88 1.88 0 0 0-.258.972v3.444c0 .352.086.674.258.966.172.292.404.526.696.702.292.172.616.258.972.258Zm7.324.852a2.82 2.82 0 0 1-1.44-.372 2.768 2.768 0 0 1-1.008-1.008 2.82 2.82 0 0 1-.372-1.44v-3.36a2.787 2.787 0 0 1 1.38-2.448 2.82 2.82 0 0 1 1.44-.372c.532 0 1.01.124 1.434.372a2.74 2.74 0 0 1 1.014 1.014c.248.424.372.902.372 1.434v3.36a2.82 2.82 0 0 1-.372 1.44 2.787 2.787 0 0 1-2.448 1.38Zm0-.852c.356 0 .68-.086.972-.258.292-.176.524-.41.696-.702.172-.292.258-.614.258-.966v-3.444c0-.356-.086-.68-.258-.972a1.935 1.935 0 0 0-.696-.696 1.847 1.847 0 0 0-.972-.264c-.356 0-.68.088-.972.264a1.935 1.935 0 0 0-.696.696 1.88 1.88 0 0 0-.258.972v3.444c0 .352.086.674.258.966.172.292.404.526.696.702.292.172.616.258.972.258ZM26.38 158.327l.007-.804 3.906-3.528c.336-.304.558-.592.666-.864.112-.276.168-.564.168-.864a1.882 1.882 0 0 0-.93-1.65 1.805 1.805 0 0 0-.954-.258c-.368 0-.696.088-.984.264a1.965 1.965 0 0 0-.684.696 1.826 1.826 0 0 0-.24.942h-.9a2.7 2.7 0 0 1 .372-1.41 2.659 2.659 0 0 1 1.008-.978c.424-.24.904-.36 1.44-.36a2.7 2.7 0 0 1 1.41.372c.42.244.75.576.99.996a2.7 2.7 0 0 1 .366 1.392c0 .36-.044.678-.132.954a2.37 2.37 0 0 1-.402.762c-.18.232-.41.472-.69.72l-3.468 3.132-.138-.36h4.83v.846h-5.64Zm9.635.186c-.448 0-.862-.092-1.242-.276a2.87 2.87 0 0 1-.972-.762 2.969 2.969 0 0 1-.576-1.116l.846-.228c.076.312.214.582.414.81.2.224.434.398.702.522.272.124.556.186.852.186.384 0 .728-.092 1.032-.276.308-.188.552-.436.732-.744.18-.308.27-.646.27-1.014 0-.38-.094-.722-.282-1.026a2.103 2.103 0 0 0-.744-.732 1.962 1.962 0 0 0-1.008-.27c-.408 0-.76.09-1.056.27a2.138 2.138 0 0 0-.708.666l-.804-.336.264-4.494h4.614v.846h-4.224l.438-.414-.234 3.834-.222-.294c.248-.284.548-.506.9-.666.352-.16.722-.24 1.11-.24.532 0 1.012.128 1.44.384a2.819 2.819 0 0 1 1.398 2.472c0 .528-.134 1.012-.402 1.452a3.085 3.085 0 0 1-1.068 1.05 2.823 2.823 0 0 1-1.47.396Zm7.195 0a2.82 2.82 0 0 1-1.44-.372 2.768 2.768 0 0 1-1.008-1.008 2.82 2.82 0 0 1-.372-1.44v-3.36a2.787 2.787 0 0 1 1.38-2.448 2.82 2.82 0 0 1 1.44-.372c.532 0 1.01.124 1.434.372a2.74 2.74 0 0 1 1.014 1.014c.248.424.372.902.372 1.434v3.36a2.82 2.82 0 0 1-.372 1.44 2.787 2.787 0 0 1-2.448 1.38Zm0-.852c.356 0 .68-.086.972-.258.292-.176.524-.41.696-.702.172-.292.258-.614.258-.966v-3.444c0-.356-.086-.68-.258-.972a1.935 1.935 0 0 0-.696-.696 1.847 1.847 0 0 0-.972-.264c-.356 0-.68.088-.972.264a1.935 1.935 0 0 0-.696.696 1.88 1.88 0 0 0-.258.972v3.444c0 .352.086.674.258.966.172.292.404.526.696.702.292.172.616.258.972.258ZM43.21 203.18a2.82 2.82 0 0 1-1.44-.372 2.768 2.768 0 0 1-1.008-1.008 2.82 2.82 0 0 1-.371-1.44V197a2.787 2.787 0 0 1 1.38-2.448 2.82 2.82 0 0 1 1.44-.372c.532 0 1.01.124 1.434.372a2.74 2.74 0 0 1 1.013 1.014c.248.424.373.902.373 1.434v3.36a2.82 2.82 0 0 1-.373 1.44 2.787 2.787 0 0 1-2.448 1.38Zm0-.852c.356 0 .68-.086.972-.258.292-.176.524-.41.697-.702.172-.292.258-.614.258-.966v-3.444c0-.356-.087-.68-.258-.972a1.935 1.935 0 0 0-.697-.696 1.847 1.847 0 0 0-.971-.264c-.356 0-.68.088-.972.264a1.935 1.935 0 0 0-.697.696 1.88 1.88 0 0 0-.258.972v3.444c0 .352.087.674.258.966.172.292.404.526.697.702.292.172.616.258.972.258Z"/><path stroke="#F1F3F5" d="M51 58.5h439M51 111.833h439M51 165.167h439M51 218.5h439"/><rect width="21.202" height="106" x="56.217" y="112.843" fill="#4DABF7" rx="2"/><path fill="#868E96" d="M62.377 233.843v-1.831h-1.134a4.53 4.53 0 0 1-.796-.063 1.677 1.677 0 0 1-.873-.45c-.237-.237-.355-.564-.355-.981 0-.408.11-.735.332-.981.222-.249.491-.411.806-.486.144-.033.29-.053.437-.059.15-.006.279-.009.387-.009h1.858l.005 4.86h-.666Zm-3.316 0 1.355-2.038h.733l-1.364 2.038h-.724Zm2.147-2.398h1.17v-1.895h-1.17c-.072 0-.173.003-.302.009a1.57 1.57 0 0 0-.364.059.951.951 0 0 0-.297.157.877.877 0 0 0-.243.293.904.904 0 0 0-.1.441c0 .243.066.438.198.585.136.144.303.243.505.297.108.024.216.039.324.045.107.006.2.009.279.009Zm3.093 2.398v-4.86h.662v2.111h2.74v-2.111h.662v4.86h-.662v-2.115h-2.74v2.115H64.3Zm5.317 0v-4.86h2.003c.102 0 .225.006.369.018.147.012.284.035.41.068.272.072.491.219.656.441.169.222.252.489.252.801 0 .174-.027.33-.08.468a1.01 1.01 0 0 1-.221.351.902.902 0 0 1-.306.225c.096.018.2.06.31.126.175.102.306.24.397.414.09.171.135.379.135.625 0 .333-.08.605-.239.815a1.2 1.2 0 0 1-.639.432c-.12.033-.25.054-.392.063a6.016 6.016 0 0 1-.391.013h-2.264Zm.666-.562h1.566a2.364 2.364 0 0 0 .495-.059.6.6 0 0 0 .388-.27.85.85 0 0 0 .126-.45.734.734 0 0 0-.19-.522.79.79 0 0 0-.495-.252 1.25 1.25 0 0 0-.216-.027 5.043 5.043 0 0 0-.202-.004h-1.472v1.584Zm0-2.151h1.36c.078 0 .164-.005.26-.014.1-.012.185-.031.257-.058a.593.593 0 0 0 .342-.279.86.86 0 0 0 .112-.432.828.828 0 0 0-.121-.45.618.618 0 0 0-.356-.27 1.196 1.196 0 0 0-.35-.068 6.606 6.606 0 0 0-.234-.009h-1.27v1.58Z"/><rect width="18" height="66" x="93.016" y="152.843" fill="#4DABF7" rx="2"/><path fill="#868E96" d="M96.67 235.868v-1.93c-.474.075-.906.024-1.296-.153-.39-.18-.7-.471-.932-.873-.23-.402-.346-.9-.346-1.494s.115-1.092.346-1.494c.231-.405.542-.698.932-.878.39-.18.822-.232 1.296-.157v-1.49h.612v1.49c.474-.075.906-.023 1.296.157s.7.473.931.878c.231.402.347.9.347 1.494s-.116 1.092-.347 1.494a2.057 2.057 0 0 1-.931.873c-.39.177-.822.228-1.296.153v1.93h-.612Zm0-2.547v-3.811a1.67 1.67 0 0 0-.702.022 1.401 1.401 0 0 0-.608.32c-.18.156-.322.364-.427.625-.102.258-.153.572-.153.941s.052.684.157.945c.105.258.248.465.428.621.18.156.382.261.607.315.225.054.458.061.698.022Zm.612 0c.24.039.472.032.697-.022a1.45 1.45 0 0 0 .608-.311c.18-.156.322-.363.427-.621.105-.261.158-.577.158-.949s-.053-.687-.158-.945a1.562 1.562 0 0 0-.423-.626 1.424 1.424 0 0 0-.607-.315 1.67 1.67 0 0 0-.702-.022v3.811Zm5.618.657c-.474 0-.885-.105-1.233-.315a2.138 2.138 0 0 1-.806-.886c-.192-.381-.288-.828-.288-1.341 0-.531.095-.99.284-1.377.189-.387.454-.686.796-.896.345-.21.752-.315 1.22-.315.48 0 .889.111 1.228.333.339.219.596.534.77.945.174.411.253.902.238 1.472h-.675v-.234c-.012-.63-.148-1.106-.409-1.427-.258-.321-.636-.481-1.134-.481-.522 0-.923.169-1.202.508-.276.339-.414.822-.414 1.449 0 .612.138 1.088.414 1.427.279.336.674.504 1.184.504.348 0 .651-.08.909-.239.261-.162.466-.394.616-.697l.617.238a2.207 2.207 0 0 1-.851.986 2.345 2.345 0 0 1-1.264.346Zm-1.859-2.38v-.554h3.713v.554h-3.713Zm5.062 2.245v-4.86h2.003c.102 0 .225.006.369.018.147.012.283.035.409.068.273.072.492.219.657.441.168.222.252.489.252.801 0 .174-.027.33-.081.468a1.01 1.01 0 0 1-.22.351.905.905 0 0 1-.306.225c.096.018.199.06.31.126.174.102.306.24.396.414.09.171.135.379.135.625 0 .333-.079.605-.238.815a1.2 1.2 0 0 1-.639.432c-.12.033-.251.054-.392.063a6 6 0 0 1-.391.013h-2.264Zm.666-.562h1.566a2.354 2.354 0 0 0 .495-.059.6.6 0 0 0 .387-.27.85.85 0 0 0 .126-.45.734.734 0 0 0-.189-.522.79.79 0 0 0-.495-.252 1.25 1.25 0 0 0-.216-.027 5.02 5.02 0 0 0-.202-.004h-1.472v1.584Zm0-2.151h1.359c.078 0 .165-.005.261-.014.099-.012.185-.031.257-.058a.593.593 0 0 0 .342-.279.86.86 0 0 0 .112-.432.828.828 0 0 0-.121-.45.62.62 0 0 0-.356-.27 1.196 1.196 0 0 0-.351-.068 6.606 6.606 0 0 0-.234-.009h-1.269v1.58Z"/><rect width="18" height="37" x="128.777" y="181.843" fill="#4DABF7" rx="2"/><path fill="#868E96" d="M130.127 233.843v-4.86h.59l1.894 3.978 1.899-3.978h.585v4.86h-.639v-3.447l-1.633 3.447h-.419l-1.633-3.447v3.447h-.644Zm7.618.135c-.366 0-.674-.066-.923-.198a1.34 1.34 0 0 1-.553-.526 1.439 1.439 0 0 1-.185-.716c0-.264.053-.489.158-.675.108-.189.253-.343.436-.463.186-.12.401-.212.644-.275.246-.06.517-.112.814-.157.3-.048.593-.089.878-.122.288-.036.54-.07.756-.103l-.234.144c.009-.48-.084-.836-.279-1.067-.195-.231-.534-.346-1.017-.346-.333 0-.615.075-.846.225-.228.15-.389.387-.482.711l-.643-.189c.111-.435.334-.773.67-1.013.336-.24.773-.36 1.31-.36.444 0 .82.084 1.129.252.312.165.533.405.662.72.06.141.099.299.117.473.018.174.027.351.027.531v3.019h-.59v-1.219l.171.072a1.925 1.925 0 0 1-.769.954c-.348.219-.765.328-1.251.328Zm.076-.571c.309 0 .579-.056.81-.167a1.464 1.464 0 0 0 .833-1.111 2.46 2.46 0 0 0 .058-.513c.003-.189.005-.33.005-.423l.252.13c-.225.03-.47.06-.734.09-.261.03-.519.065-.774.104-.252.039-.48.085-.684.139a1.853 1.853 0 0 0-.4.167.926.926 0 0 0-.32.279.747.747 0 0 0-.121.436c0 .141.034.278.103.41a.841.841 0 0 0 .342.328c.159.087.369.131.63.131Zm5.717.571c-.447 0-.825-.112-1.134-.337a2.118 2.118 0 0 1-.702-.923 3.437 3.437 0 0 1-.239-1.309c0-.492.08-.93.239-1.314.162-.387.399-.692.711-.914.312-.222.696-.333 1.152-.333.444 0 .825.113 1.143.338.318.225.561.531.729.918.171.387.256.822.256 1.305 0 .486-.085.922-.256 1.309a2.19 2.19 0 0 1-.738.923c-.321.225-.708.337-1.161.337Zm-2.187 2.025v-7.02h.594v3.659h.072v3.361h-.666Zm2.119-2.641c.339 0 .621-.086.846-.257a1.53 1.53 0 0 0 .504-.697 2.77 2.77 0 0 0 .171-.999c0-.366-.055-.696-.166-.99a1.52 1.52 0 0 0-.509-.698c-.225-.171-.511-.256-.859-.256-.339 0-.621.082-.846.247a1.488 1.488 0 0 0-.5.689 2.818 2.818 0 0 0-.166 1.008c0 .375.055.711.166 1.008.111.294.279.525.504.693.225.168.51.252.855.252Z"/><rect width="18" height="60" x="164.537" y="158.843" fill="#4DABF7" rx="2"/><path fill="#868E96" d="M167.831 233.978c-.366 0-.673-.066-.922-.198a1.343 1.343 0 0 1-.554-.526 1.438 1.438 0 0 1-.184-.716c0-.264.052-.489.157-.675.108-.189.254-.343.437-.463.186-.12.4-.212.643-.275.246-.06.518-.112.815-.157.3-.048.592-.089.877-.122.288-.036.54-.07.756-.103l-.234.144c.009-.48-.084-.836-.279-1.067-.195-.231-.534-.346-1.017-.346-.333 0-.615.075-.846.225-.228.15-.388.387-.481.711l-.644-.189c.111-.435.335-.773.671-1.013.336-.24.772-.36 1.309-.36.444 0 .821.084 1.13.252.312.165.532.405.661.72.06.141.099.299.117.473.018.174.027.351.027.531v3.019h-.589v-1.219l.171.072a1.927 1.927 0 0 1-.77.954c-.348.219-.765.328-1.251.328Zm.077-.571c.309 0 .579-.056.81-.167a1.464 1.464 0 0 0 .832-1.111c.036-.156.056-.327.059-.513.003-.189.004-.33.004-.423l.252.13c-.225.03-.469.06-.733.09-.261.03-.519.065-.774.104-.252.039-.48.085-.684.139a1.86 1.86 0 0 0-.401.167.923.923 0 0 0-.319.279.747.747 0 0 0-.122.436c0 .141.035.278.104.41a.841.841 0 0 0 .342.328c.159.087.369.131.63.131Zm3.529.436v-4.86h3.866v4.86h-.662v-4.225h-2.542v4.225h-.662Zm7.311.135c-.447 0-.825-.112-1.134-.337a2.118 2.118 0 0 1-.702-.923 3.437 3.437 0 0 1-.238-1.309c0-.492.079-.93.238-1.314.162-.387.399-.692.711-.914.312-.222.696-.333 1.152-.333.444 0 .825.113 1.143.338.318.225.561.531.729.918.171.387.257.822.257 1.305 0 .486-.086.922-.257 1.309a2.19 2.19 0 0 1-.738.923c-.321.225-.708.337-1.161.337Zm-2.187 2.025v-7.02h.594v3.659h.072v3.361h-.666Zm2.12-2.641c.339 0 .621-.086.846-.257a1.53 1.53 0 0 0 .504-.697 2.77 2.77 0 0 0 .171-.999c0-.366-.056-.696-.167-.99a1.518 1.518 0 0 0-.508-.698c-.225-.171-.512-.256-.86-.256-.339 0-.621.082-.846.247a1.486 1.486 0 0 0-.499.689 2.817 2.817 0 0 0-.167 1.008c0 .375.056.711.167 1.008.111.294.279.525.504.693.225.168.51.252.855.252Z"/><rect width="18" height="90" x="200.297" y="128.843" fill="#4DABF7" rx="2"/><path fill="#868E96" d="M201.748 233.843v-4.86h.589l1.895 3.978 1.899-3.978h.585v4.86h-.639v-3.447l-1.634 3.447h-.418l-1.634-3.447v3.447h-.643Zm7.618.135c-.366 0-.674-.066-.923-.198a1.34 1.34 0 0 1-.553-.526 1.439 1.439 0 0 1-.185-.716c0-.264.053-.489.158-.675.108-.189.253-.343.436-.463.186-.12.401-.212.644-.275.246-.06.517-.112.814-.157.3-.048.593-.089.878-.122.288-.036.54-.07.756-.103l-.234.144c.009-.48-.084-.836-.279-1.067-.195-.231-.534-.346-1.017-.346-.333 0-.615.075-.846.225-.228.15-.389.387-.482.711l-.643-.189c.111-.435.334-.773.67-1.013.336-.24.773-.36 1.31-.36.444 0 .82.084 1.129.252.312.165.533.405.662.72.06.141.099.299.117.473.018.174.027.351.027.531v3.019h-.59v-1.219l.171.072a1.925 1.925 0 0 1-.769.954c-.348.219-.765.328-1.251.328Zm.076-.571c.309 0 .579-.056.81-.167a1.464 1.464 0 0 0 .833-1.111 2.46 2.46 0 0 0 .058-.513c.003-.189.005-.33.005-.423l.252.13c-.225.03-.47.06-.734.09-.261.03-.519.065-.774.104-.252.039-.48.085-.684.139a1.853 1.853 0 0 0-.4.167.926.926 0 0 0-.32.279.747.747 0 0 0-.121.436c0 .141.034.278.103.41a.841.841 0 0 0 .342.328c.159.087.369.131.63.131Zm5.55-5c-.213 0-.408-.052-.585-.157a1.204 1.204 0 0 1-.423-.419 1.15 1.15 0 0 1-.153-.585h.549c0 .168.06.312.18.432s.264.18.432.18a.58.58 0 0 0 .432-.18.59.59 0 0 0 .18-.432h.549c0 .213-.052.408-.157.585a1.169 1.169 0 0 1-.419.419 1.125 1.125 0 0 1-.585.157Zm1.845.576v4.86h-.643v-3.784l-2.664 3.784h-.558v-4.86h.643v3.753l2.669-3.753h.553Z"/><rect width="18" height="27" x="236.059" y="191.843" fill="#4DABF7" rx="2"/><path fill="#868E96" d="M240.769 228.983v4.86h-.644v-3.784l-2.664 3.784h-.558v-4.86h.644v3.753l2.668-3.753h.554Zm5.088 4.995c-.429 0-.803-.091-1.121-.274a2.061 2.061 0 0 1-.76-.779 2.935 2.935 0 0 1-.338-1.183h-.949v2.101h-.662v-4.86h.662v2.102h.945c.039-.459.153-.855.342-1.188.192-.336.447-.594.765-.774a2.222 2.222 0 0 1 1.12-.275c.483 0 .896.11 1.238.329a2.1 2.1 0 0 1 .787.904c.183.384.275.825.275 1.323 0 .51-.093.959-.279 1.346a2.097 2.097 0 0 1-.792.904c-.342.216-.753.324-1.233.324Zm-.014-.634c.546 0 .951-.177 1.215-.531.267-.357.401-.825.401-1.404 0-.591-.135-1.059-.405-1.404-.267-.348-.669-.522-1.206-.522-.513 0-.906.171-1.179.513-.273.339-.41.808-.41 1.408 0 .588.134 1.059.401 1.413.27.351.664.527 1.183.527Zm3.303.499v-4.86h.662v2.111h2.74v-2.111h.662v4.86h-.662v-2.115h-2.74v2.115h-.662Z"/><rect width="18" height="44" x="271.818" y="174.843" fill="#4DABF7" rx="2"/><path fill="#868E96" d="M276.599 228.983v4.86h-.644v-3.784l-2.664 3.784h-.558v-4.86h.644v3.753l2.668-3.753h.554Zm5.088 4.995c-.429 0-.803-.091-1.121-.274a2.061 2.061 0 0 1-.76-.779 2.935 2.935 0 0 1-.338-1.183h-.949v2.101h-.662v-4.86h.662v2.102h.945c.039-.459.153-.855.342-1.188.192-.336.447-.594.765-.774a2.222 2.222 0 0 1 1.12-.275c.483 0 .896.11 1.238.329a2.1 2.1 0 0 1 .787.904c.183.384.275.825.275 1.323 0 .51-.093.959-.279 1.346a2.097 2.097 0 0 1-.792.904c-.342.216-.753.324-1.233.324Zm-.014-.634c.546 0 .951-.177 1.215-.531.267-.357.401-.825.401-1.404 0-.591-.135-1.059-.405-1.404-.267-.348-.669-.522-1.206-.522-.513 0-.906.171-1.179.513-.273.339-.41.808-.41 1.408 0 .588.134 1.059.401 1.413.27.351.664.527 1.183.527Zm2.858.499v-.58c.18.033.316.025.409-.023a.458.458 0 0 0 .212-.252c.045-.12.082-.268.112-.445.048-.294.092-.618.131-.972.039-.354.073-.744.103-1.17.033-.429.066-.902.099-1.418h3.303v4.86h-.657v-4.225h-2.034a48.623 48.623 0 0 1-.157 1.858c-.027.288-.057.554-.09.797a9.859 9.859 0 0 1-.104.63c-.054.267-.126.48-.216.639a.632.632 0 0 1-.391.315c-.174.051-.414.046-.72-.014Z"/><rect width="18" height="19" x="307.578" y="199.843" fill="#4DABF7" rx="2"/><path fill="#868E96" d="M311.598 233.978c-.366 0-.674-.066-.923-.198a1.34 1.34 0 0 1-.553-.526 1.439 1.439 0 0 1-.185-.716c0-.264.053-.489.158-.675.108-.189.253-.343.436-.463.186-.12.401-.212.644-.275.246-.06.517-.112.814-.157.3-.048.593-.089.878-.122.288-.036.54-.07.756-.103l-.234.144c.009-.48-.084-.836-.279-1.067-.195-.231-.534-.346-1.017-.346-.333 0-.615.075-.846.225-.228.15-.389.387-.482.711l-.643-.189c.111-.435.334-.773.67-1.013.336-.24.773-.36 1.31-.36.444 0 .82.084 1.129.252.312.165.533.405.662.72.06.141.099.299.117.473.018.174.027.351.027.531v3.019h-.59v-1.219l.171.072a1.925 1.925 0 0 1-.769.954c-.348.219-.765.328-1.251.328Zm.076-.571c.309 0 .579-.056.81-.167a1.464 1.464 0 0 0 .833-1.111 2.46 2.46 0 0 0 .058-.513c.003-.189.005-.33.005-.423l.252.13c-.225.03-.47.06-.734.09-.261.03-.519.065-.774.104-.252.039-.48.085-.684.139a1.853 1.853 0 0 0-.4.167.926.926 0 0 0-.32.279.747.747 0 0 0-.121.436c0 .141.034.278.103.41a.841.841 0 0 0 .342.328c.159.087.369.131.63.131Zm3.529.436v-4.86h2.003c.102 0 .225.006.369.018.147.012.283.035.409.068.273.072.492.219.657.441.168.222.252.489.252.801 0 .174-.027.33-.081.468a1.01 1.01 0 0 1-.22.351.905.905 0 0 1-.306.225c.096.018.199.06.31.126.174.102.306.24.396.414.09.171.135.379.135.625 0 .333-.079.605-.238.815a1.2 1.2 0 0 1-.639.432c-.12.033-.251.054-.392.063a6 6 0 0 1-.391.013h-2.264Zm.666-.562h1.566a2.354 2.354 0 0 0 .495-.059.6.6 0 0 0 .387-.27.85.85 0 0 0 .126-.45.734.734 0 0 0-.189-.522.79.79 0 0 0-.495-.252 1.25 1.25 0 0 0-.216-.027 5.02 5.02 0 0 0-.202-.004h-1.472v1.584Zm0-2.151h1.359c.078 0 .165-.005.261-.014.099-.012.185-.031.257-.058a.593.593 0 0 0 .342-.279.86.86 0 0 0 .112-.432.828.828 0 0 0-.121-.45.62.62 0 0 0-.356-.27 1.196 1.196 0 0 0-.351-.068 6.606 6.606 0 0 0-.234-.009h-1.269v1.58Zm4.155 2.713v-4.86h3.33v.635h-2.668v4.225h-.662Z"/><rect width="18" height="93" x="343.34" y="125.843" fill="#4DABF7" rx="2"/><path fill="#868E96" d="M347.202 233.978c-.489 0-.903-.109-1.242-.328a2.095 2.095 0 0 1-.774-.905 3.316 3.316 0 0 1-.27-1.332c.006-.51.099-.957.279-1.341.18-.387.44-.687.779-.9.339-.216.75-.324 1.233-.324.492 0 .919.12 1.282.36.366.24.617.569.752.986l-.648.207a1.37 1.37 0 0 0-.545-.675 1.503 1.503 0 0 0-.846-.243c-.357 0-.652.082-.886.247a1.442 1.442 0 0 0-.522.68 2.796 2.796 0 0 0-.176 1.003c.006.582.141 1.05.405 1.404.264.351.657.527 1.179.527.33 0 .611-.075.842-.225.234-.153.411-.375.531-.666l.666.198c-.18.432-.444.762-.792.99-.348.225-.764.337-1.247.337Zm5.024 0c-.474 0-.885-.105-1.233-.315a2.135 2.135 0 0 1-.805-.886c-.192-.381-.288-.828-.288-1.341 0-.531.094-.99.283-1.377a2.11 2.11 0 0 1 .797-.896c.345-.21.751-.315 1.219-.315.48 0 .89.111 1.229.333.339.219.595.534.769.945.174.411.254.902.239 1.472h-.675v-.234c-.012-.63-.149-1.106-.41-1.427-.258-.321-.636-.481-1.134-.481-.522 0-.922.169-1.201.508-.276.339-.414.822-.414 1.449 0 .612.138 1.088.414 1.427.279.336.673.504 1.183.504.348 0 .651-.08.909-.239.261-.162.467-.394.617-.697l.616.238a2.205 2.205 0 0 1-.85.986 2.349 2.349 0 0 1-1.265.346Zm-1.858-2.38v-.554h3.712v.554h-3.712Zm5.062 2.245v-4.86h.662v2.111h2.74v-2.111h.662v4.86h-.662v-2.115h-2.74v2.115h-.662Z"/><rect width="18" height="132" x="379.1" y="86.843" fill="#4DABF7" rx="2"/><path fill="#868E96" d="M383.582 233.978c-.483 0-.895-.109-1.237-.328a2.138 2.138 0 0 1-.788-.909c-.183-.387-.274-.831-.274-1.332 0-.51.093-.957.279-1.341.186-.384.45-.683.792-.896.345-.216.754-.324 1.228-.324.486 0 .9.11 1.242.329.345.216.608.517.788.904.183.384.274.827.274 1.328 0 .51-.091.958-.274 1.345a2.103 2.103 0 0 1-.792.9c-.345.216-.758.324-1.238.324Zm0-.634c.54 0 .942-.179 1.206-.536.264-.36.396-.826.396-1.399 0-.588-.133-1.056-.4-1.404-.264-.348-.665-.522-1.202-.522-.363 0-.663.082-.9.247a1.468 1.468 0 0 0-.526.68 2.701 2.701 0 0 0-.171.999c0 .585.135 1.054.405 1.408.27.351.667.527 1.192.527Zm3.292.499.005-4.86h.666v2.34l2.169-2.34h.882l-2.277 2.43 2.574 2.43h-.963l-2.385-2.34v2.34h-.671Zm5.788 0v-4.248h-1.723v-.612h4.108v.612h-1.723v4.248h-.662Z"/><rect width="18" height="109" x="414.859" y="109.843" fill="#4DABF7" rx="2"/><path fill="#868E96" d="M416.675 233.843v-4.86h.662v2.111h2.74v-2.111h.662v4.86h-.662v-2.115h-2.74v2.115h-.662Zm7.352.135c-.483 0-.896-.109-1.238-.328a2.136 2.136 0 0 1-.787-.909 3.081 3.081 0 0 1-.275-1.332c0-.51.093-.957.279-1.341.186-.384.45-.683.792-.896.345-.216.755-.324 1.229-.324.486 0 .9.11 1.242.329.345.216.607.517.787.904.183.384.275.827.275 1.328 0 .51-.092.958-.275 1.345a2.103 2.103 0 0 1-.792.9c-.345.216-.757.324-1.237.324Zm0-.634c.54 0 .942-.179 1.206-.536.264-.36.396-.826.396-1.399 0-.588-.134-1.056-.401-1.404-.264-.348-.664-.522-1.201-.522-.363 0-.663.082-.9.247a1.47 1.47 0 0 0-.527.68 2.701 2.701 0 0 0-.171.999c0 .585.135 1.054.405 1.408.27.351.668.527 1.193.527Zm6.343.499v-1.831h-1.134a4.53 4.53 0 0 1-.797-.063 1.677 1.677 0 0 1-.873-.45c-.237-.237-.355-.564-.355-.981 0-.408.111-.735.333-.981.222-.249.49-.411.805-.486.144-.033.29-.053.437-.059.15-.006.279-.009.387-.009h1.858l.005 4.86h-.666Zm-3.317 0 1.355-2.038h.733l-1.363 2.038h-.725Zm2.147-2.398h1.17v-1.895h-1.17c-.072 0-.173.003-.302.009-.129.006-.25.026-.364.059a.951.951 0 0 0-.297.157.877.877 0 0 0-.243.293.904.904 0 0 0-.099.441c0 .243.066.438.198.585.135.144.303.243.504.297.108.024.216.039.324.045.108.006.201.009.279.009Z"/><rect width="18" height="34" x="450.621" y="184.843" fill="#4DABF7" rx="2"/><path fill="#868E96" d="M452.332 234.923v-1.647c.276 0 .474-.088.594-.265.12-.18.217-.467.292-.86.051-.255.093-.529.126-.823.033-.294.062-.63.086-1.008.024-.381.046-.827.067-1.337h3.213v4.293h.468v1.647h-.639v-1.08h-3.573v1.08h-.634Zm1.12-1.647h2.601v-3.726h-1.944c-.009.228-.022.47-.04.725-.015.255-.035.51-.059.765a14.43 14.43 0 0 1-.076.72 5.61 5.61 0 0 1-.099.585c-.045.216-.095.4-.149.553a.9.9 0 0 1-.234.378Zm6.684.702c-.474 0-.885-.105-1.233-.315a2.135 2.135 0 0 1-.805-.886c-.192-.381-.288-.828-.288-1.341 0-.531.094-.99.283-1.377a2.11 2.11 0 0 1 .797-.896c.345-.21.751-.315 1.219-.315.48 0 .89.111 1.229.333.339.219.595.534.769.945.174.411.254.902.239 1.472h-.675v-.234c-.012-.63-.149-1.106-.41-1.427-.258-.321-.636-.481-1.134-.481-.522 0-.922.169-1.201.508-.276.339-.414.822-.414 1.449 0 .612.138 1.088.414 1.427.279.336.673.504 1.183.504.348 0 .651-.08.909-.239.261-.162.467-.394.617-.697l.616.238a2.205 2.205 0 0 1-.85.986 2.349 2.349 0 0 1-1.265.346Zm-1.858-2.38v-.554h3.712v.554h-3.712Zm5.062 2.245.004-4.86h.666v2.34l2.169-2.34h.882l-2.277 2.43 2.574 2.43h-.963l-2.385-2.34v2.34h-.67Z"/></g></svg>