<svg xmlns="http://www.w3.org/2000/svg" width="153" height="182" fill="none"><g><rect width="153" height="182" fill="#fff" rx="12" shape-rendering="crispEdges"/><path fill="#343A40" d="M16.494 26.18c-.864 0-1.604-.188-2.22-.564a3.769 3.769 0 0 1-1.422-1.584c-.328-.676-.492-1.46-.492-2.352 0-.892.164-1.676.492-2.352a3.73 3.73 0 0 1 1.422-1.578c.616-.38 1.356-.57 2.22-.57.996 0 1.826.25 2.49.75.664.496 1.13 1.166 1.398 2.01l-1.458.402c-.168-.564-.454-1.004-.858-1.32-.404-.32-.928-.48-1.572-.48-.58 0-1.064.13-1.452.39-.384.26-.674.626-.87 1.098-.192.468-.29 1.018-.294 1.65 0 .632.096 1.184.288 1.656.196.468.488.832.876 1.092.388.26.872.39 1.452.39.644 0 1.168-.16 1.572-.48.404-.32.69-.76.858-1.32l1.458.402c-.268.844-.734 1.516-1.398 2.016-.664.496-1.494.744-2.49.744Zm6.831-.18v-5.196H21.16V19.52h5.778v1.284h-2.166V26h-1.446Zm6.409.18c-.468 0-.864-.088-1.188-.264a1.867 1.867 0 0 1-.738-.714 1.984 1.984 0 0 1-.246-.978c0-.312.052-.592.156-.84.104-.252.264-.468.48-.648.216-.184.496-.334.84-.45.26-.084.564-.16.912-.228.352-.068.732-.13 1.14-.186.412-.06.842-.124 1.29-.192l-.516.294c.004-.448-.096-.778-.3-.99-.204-.212-.548-.318-1.032-.318a1.87 1.87 0 0 0-.846.204c-.272.136-.462.37-.57.702l-1.32-.414c.16-.548.464-.988.912-1.32.452-.332 1.06-.498 1.824-.498.576 0 1.082.094 1.518.282.44.188.766.496.978.924.116.228.186.462.21.702.024.236.036.494.036.774V26h-1.266v-1.404l.21.228c-.292.468-.634.812-1.026 1.032-.388.216-.874.324-1.458.324Zm.288-1.152c.328 0 .608-.058.84-.174.232-.116.416-.258.552-.426.14-.168.234-.326.282-.474a1.8 1.8 0 0 0 .126-.63c.012-.24.018-.434.018-.582l.444.132c-.436.068-.81.128-1.122.18-.312.052-.58.102-.804.15a5.122 5.122 0 0 0-.594.15c-.168.06-.31.13-.426.21a.93.93 0 0 0-.27.276.72.72 0 0 0-.09.366c0 .16.04.302.12.426.08.12.196.216.348.288.156.072.348.108.576.108Zm6.44.972v-5.196h-2.166V19.52h5.778v1.284h-2.166V26h-1.446Zm10.365-6.48V26h-1.386v-4.23L42.357 26H41.2v-6.48h1.386v4.122l3.096-4.122h1.146Zm4.499 6.66c-.668 0-1.238-.148-1.71-.444a2.956 2.956 0 0 1-1.086-1.224c-.248-.516-.374-1.1-.378-1.752.004-.664.134-1.252.39-1.764.26-.516.628-.92 1.104-1.212.476-.296 1.042-.444 1.698-.444.736 0 1.358.186 1.866.558.512.368.846.872 1.002 1.512l-1.44.39a1.57 1.57 0 0 0-.558-.81 1.437 1.437 0 0 0-.888-.294c-.376 0-.686.09-.93.27-.244.176-.424.42-.54.732a3.033 3.033 0 0 0-.174 1.062c0 .616.138 1.114.414 1.494.276.38.686.57 1.23.57.384 0 .686-.088.906-.264.224-.176.392-.43.504-.762l1.476.33c-.2.66-.55 1.168-1.05 1.524-.5.352-1.112.528-1.836.528Zm5.68-.18v-5.196h-2.167V19.52h5.778v1.284h-2.166V26h-1.446Zm10.364-6.48V26h-1.386v-4.23L62.9 26h-1.158v-6.48h1.386v4.122l3.096-4.122h1.146ZM69.043 26l.012-6.48h1.464v3.12l2.37-3.12h1.806l-2.514 3.24L74.91 26h-1.914l-2.478-3.12V26h-1.476Zm8.28.18c-.467 0-.863-.088-1.187-.264a1.867 1.867 0 0 1-.738-.714 1.984 1.984 0 0 1-.246-.978c0-.312.052-.592.156-.84.104-.252.264-.468.48-.648.216-.184.496-.334.84-.45.26-.084.564-.16.912-.228.352-.068.732-.13 1.14-.186.412-.06.842-.124 1.29-.192l-.516.294c.004-.448-.096-.778-.3-.99-.204-.212-.548-.318-1.032-.318a1.87 1.87 0 0 0-.846.204c-.272.136-.462.37-.57.702l-1.32-.414c.16-.548.464-.988.912-1.32.452-.332 1.06-.498 1.824-.498.576 0 1.082.094 1.518.282.44.188.766.496.978.924.116.228.186.462.21.702.024.236.036.494.036.774V26h-1.266v-1.404l.21.228c-.292.468-.634.812-1.026 1.032-.388.216-.874.324-1.458.324Zm.289-1.152c.328 0 .608-.058.84-.174.232-.116.416-.258.552-.426.14-.168.234-.326.282-.474a1.8 1.8 0 0 0 .126-.63c.012-.24.018-.434.018-.582l.444.132c-.436.068-.81.128-1.122.18-.312.052-.58.102-.804.15a5.122 5.122 0 0 0-.594.15c-.168.06-.31.13-.426.21a.93.93 0 0 0-.27.276.72.72 0 0 0-.09.366c0 .16.04.302.12.426.08.12.196.216.348.288.156.072.348.108.576.108Zm10.33 1.152c-.632 0-1.162-.15-1.59-.45-.428-.3-.75-.708-.966-1.224a4.512 4.512 0 0 1-.324-1.746c0-.652.108-1.236.324-1.752.216-.516.532-.922.948-1.218.42-.3.938-.45 1.554-.45.612 0 1.142.15 1.59.45.452.296.802.702 1.05 1.218.248.512.372 1.096.372 1.752 0 .648-.122 1.23-.366 1.746a2.979 2.979 0 0 1-1.032 1.224c-.444.3-.964.45-1.56.45Zm-3.126 2.7v-9.36h1.278v4.548h.18v4.812h-1.458Zm2.904-3.996c.376 0 .686-.094.93-.282.244-.188.424-.442.54-.762.12-.324.18-.684.18-1.08 0-.392-.06-.748-.18-1.068a1.643 1.643 0 0 0-.558-.768c-.252-.192-.572-.288-.96-.288-.368 0-.668.09-.9.27a1.544 1.544 0 0 0-.516.744 3.435 3.435 0 0 0-.162 1.11c0 .42.054.79.162 1.11.112.32.286.57.522.75.24.176.554.264.942.264Zm7.449 1.296c-.656 0-1.232-.142-1.728-.426a3.034 3.034 0 0 1-1.164-1.182c-.276-.504-.414-1.084-.414-1.74 0-.708.136-1.322.408-1.842a2.98 2.98 0 0 1 1.134-1.218c.484-.288 1.044-.432 1.68-.432.672 0 1.242.158 1.71.474.472.312.822.754 1.05 1.326.228.572.314 1.246.258 2.022h-1.434v-.528c-.004-.704-.128-1.218-.372-1.542-.244-.324-.628-.486-1.152-.486-.592 0-1.032.184-1.32.552-.288.364-.432.898-.432 1.602 0 .656.144 1.164.432 1.524.288.36.708.54 1.26.54.356 0 .662-.078.918-.234.26-.16.46-.39.6-.69l1.428.432a2.894 2.894 0 0 1-1.152 1.362 3.151 3.151 0 0 1-1.71.486Zm-2.232-3.018V22.07h4.458v1.092h-4.458ZM99.442 26v-6.48h4.62v1.356h-3.174V26h-1.446Zm11.381-6.48V26h-1.386v-4.23L106.353 26h-1.158v-6.48h1.386v4.122l3.096-4.122h1.146Zm4.547 6.66c-.648 0-1.214-.146-1.698-.438a3.008 3.008 0 0 1-1.128-1.206c-.264-.516-.396-1.108-.396-1.776 0-.68.136-1.276.408-1.788.272-.512.65-.912 1.134-1.2.484-.288 1.044-.432 1.68-.432.652 0 1.22.146 1.704.438.484.292.86.696 1.128 1.212.268.512.402 1.102.402 1.77 0 .672-.136 1.266-.408 1.782a3.008 3.008 0 0 1-1.128 1.206c-.484.288-1.05.432-1.698.432Zm0-1.356c.576 0 1.004-.192 1.284-.576.28-.384.42-.88.42-1.488 0-.628-.142-1.128-.426-1.5-.284-.376-.71-.564-1.278-.564-.388 0-.708.088-.96.264a1.52 1.52 0 0 0-.552.726c-.12.308-.18.666-.18 1.074 0 .628.142 1.13.426 1.506.288.372.71.558 1.266.558ZM119.914 26v-6.48h1.446v2.556h2.91V19.52h1.446V26h-1.446v-2.568h-2.91V26h-1.446Zm10.339.18c-.648 0-1.214-.146-1.698-.438a3.008 3.008 0 0 1-1.128-1.206c-.264-.516-.396-1.108-.396-1.776 0-.68.136-1.276.408-1.788.272-.512.65-.912 1.134-1.2.484-.288 1.044-.432 1.68-.432.652 0 1.22.146 1.704.438.484.292.86.696 1.128 1.212.268.512.402 1.102.402 1.77 0 .672-.136 1.266-.408 1.782a3.008 3.008 0 0 1-1.128 1.206c-.484.288-1.05.432-1.698.432Zm0-1.356c.576 0 1.004-.192 1.284-.576.28-.384.42-.88.42-1.488 0-.628-.142-1.128-.426-1.5-.284-.376-.71-.564-1.278-.564-.388 0-.708.088-.96.264a1.52 1.52 0 0 0-.552.726c-.12.308-.18.666-.18 1.074 0 .628.142 1.13.426 1.506.288.372.71.558 1.266.558ZM134.797 26v-6.48h2.946c.212 0 .41.012.594.036.184.024.342.054.474.09.312.092.588.272.828.54.24.264.36.63.36 1.098 0 .276-.044.504-.132.684a1.364 1.364 0 0 1-.774.684 1.442 1.442 0 0 1 .996.618c.152.212.228.51.228.894 0 .436-.106.804-.318 1.104-.208.296-.514.502-.918.618-.148.04-.318.07-.51.09a7.079 7.079 0 0 1-.588.024h-3.186Zm1.464-1.116h1.62a1.757 1.757 0 0 0 .546-.09.533.533 0 0 0 .312-.276.892.892 0 0 0 .102-.414c0-.196-.05-.352-.15-.468a.689.689 0 0 0-.348-.24.795.795 0 0 0-.264-.054 2.725 2.725 0 0 0-.228-.012h-1.59v1.554Zm0-2.688h1.2c.124 0 .244-.006.36-.018.12-.016.22-.042.3-.078a.52.52 0 0 0 .288-.264.89.89 0 0 0 .096-.414.866.866 0 0 0-.108-.432.514.514 0 0 0-.33-.264c-.1-.04-.222-.062-.366-.066l-.27-.006h-1.17v1.542Z"/><path fill="#E9ECEF" d="M121.5 91c0 24.853-20.147 45-45 45s-45-20.147-45-45 20.147-45 45-45 45 20.147 45 45Zm-78.452 0c0 18.475 14.977 33.452 33.452 33.452 18.475 0 33.452-14.977 33.452-33.452 0-18.475-14.977-33.452-33.452-33.452-18.475 0-33.452 14.977-33.452 33.452Z"/><path fill="#458AC5" d="M76.5 46a45 45 0 1 0 27.533 80.594l-6.883-8.899A33.75 33.75 0 1 1 76.5 57.25V46Z"/><path fill="#343A40" d="m57.224 91 4.96-12.12h-6.29V76.6h8.87v2.28L59.824 91h-2.6Zm15.292.3c-.733 0-1.417-.15-2.05-.45a5.051 5.051 0 0 1-1.64-1.26 4.888 4.888 0 0 1-.98-1.86l2.32-.62c.093.387.263.72.51 1 .253.28.547.497.88.65.34.153.69.23 1.05.23.467 0 .893-.113 1.28-.34.387-.227.693-.53.92-.91.227-.387.34-.813.34-1.28 0-.467-.117-.89-.35-1.27a2.46 2.46 0 0 0-.92-.91 2.466 2.466 0 0 0-1.27-.34c-.553 0-1.013.1-1.38.3-.36.2-.637.413-.83.64l-2.06-.66.44-7.62h7.82v2.26h-6.53l.9-.85-.32 5.3-.44-.54c.373-.34.807-.593 1.3-.76.493-.167.97-.25 1.43-.25.9 0 1.697.207 2.39.62.7.407 1.247.963 1.64 1.67.4.707.6 1.51.6 2.41 0 .9-.233 1.717-.7 2.45a5.207 5.207 0 0 1-1.85 1.74 4.96 4.96 0 0 1-2.5.65Zm9.782-.3-1.6-1.6 12.81-12.8 1.6 1.61L82.298 91Zm9.81.3c-.66 0-1.263-.16-1.81-.48a3.792 3.792 0 0 1-1.3-1.3 3.481 3.481 0 0 1-.49-1.82c0-.653.167-1.253.5-1.8a3.82 3.82 0 0 1 1.32-1.31 3.408 3.408 0 0 1 1.78-.49c.66 0 1.264.163 1.81.49.547.32.98.753 1.3 1.3.327.54.49 1.143.49 1.81a3.48 3.48 0 0 1-.49 1.82 3.68 3.68 0 0 1-1.3 1.3c-.546.32-1.15.48-1.81.48Zm0-2.06c.274 0 .527-.07.76-.21.24-.14.43-.327.57-.56.14-.233.21-.49.21-.77s-.07-.537-.21-.77c-.14-.233-.33-.42-.57-.56a1.45 1.45 0 0 0-.76-.21c-.28 0-.536.07-.77.21-.233.14-.423.327-.57.56-.14.233-.21.49-.21.77s.07.537.21.77c.147.233.337.42.57.56.234.14.49.21.77.21Zm-8.41-5.74c-.66 0-1.263-.16-1.81-.48a3.764 3.764 0 0 1-1.31-1.3 3.536 3.536 0 0 1-.48-1.82c0-.653.167-1.253.5-1.8a3.82 3.82 0 0 1 1.32-1.31 3.408 3.408 0 0 1 1.78-.49c.66 0 1.26.163 1.8.49.547.32.984.753 1.31 1.3.327.54.49 1.143.49 1.81a3.48 3.48 0 0 1-.49 1.82c-.326.54-.763.973-1.31 1.3-.54.32-1.14.48-1.8.48Zm0-2.06c.28 0 .537-.07.77-.21.234-.14.42-.327.56-.56.14-.233.21-.49.21-.77s-.07-.537-.21-.77a1.608 1.608 0 0 0-.56-.56c-.233-.14-.49-.21-.77-.21s-.536.07-.77.21a1.61 1.61 0 0 0-.56.56c-.14.233-.21.49-.21.77s.07.537.21.77c.14.233.327.42.56.56.234.14.49.21.77.21Z"/><path fill="#868E96" d="M53.038 106.795a7.34 7.34 0 0 1-1.015-1.51 8.37 8.37 0 0 1-.65-1.745 7.508 7.508 0 0 1-.22-1.84c-.003-.617.07-1.23.22-1.84a8.35 8.35 0 0 1 .65-1.75 7.405 7.405 0 0 1 1.015-1.505l.54.42c-.387.463-.71.95-.97 1.46a7.037 7.037 0 0 0-.585 1.57 7.38 7.38 0 0 0-.195 1.645c.003.55.07 1.098.2 1.645.133.543.328 1.072.585 1.585.26.51.582.988.965 1.435l-.54.43Zm1.718-1.8.005-.67 3.255-2.94c.28-.253.465-.493.555-.72.093-.23.14-.47.14-.72a1.568 1.568 0 0 0-.775-1.375 1.504 1.504 0 0 0-.795-.215c-.307 0-.58.073-.82.22-.24.147-.43.34-.57.58-.137.24-.204.502-.2.785h-.75c0-.437.103-.828.31-1.175.206-.347.486-.618.84-.815.353-.2.753-.3 1.2-.3.436 0 .828.103 1.175.31.35.203.625.48.825.83.203.347.305.733.305 1.16 0 .3-.037.565-.11.795-.07.227-.182.438-.335.635-.15.193-.342.393-.575.6l-2.89 2.61-.115-.3h4.025v.705h-4.7Zm9.556.005v-1.395h-3.37v-.7l2.41-5.105h.825l-2.41 5.105h2.545v-2.1h.74v2.1h.785v.7h-.785V105h-.74Zm4.798 0v-5.4h.655l2.105 4.42 2.11-4.42h.65v5.4h-.71v-3.83L72.105 105h-.465l-1.815-3.83V105h-.715Zm6.42 0v-.645c.2.037.35.028.454-.025a.51.51 0 0 0 .235-.28c.05-.133.092-.298.125-.495.053-.327.102-.687.145-1.08s.082-.827.115-1.3c.037-.477.073-1.002.11-1.575h3.67v5.4h-.73v-4.695h-2.26a54.02 54.02 0 0 1-.175 2.065c-.03.32-.063.615-.1.885-.037.27-.075.503-.115.7-.06.297-.14.533-.24.71a.703.703 0 0 1-.435.35c-.193.057-.46.052-.8-.015Zm6.246 0v-5.4h.735v2.345h3.045V99.6h.735v5.4h-.735v-2.35h-3.045V105h-.735Zm6.053 0v-.855h.855V105h-.855Zm6.881 0h-.9v-4.8H91.7v-.78h5.12v.78h-2.11v4.8Zm-3.01-7.14h5.12v.78H91.7v-.78Zm6.264 8.935-.54-.43a7.214 7.214 0 0 0 1.545-3.02 7.11 7.11 0 0 0 .205-1.645 7.19 7.19 0 0 0-.78-3.215 7.824 7.824 0 0 0-.97-1.46l.54-.42c.394.45.73.952 1.01 1.505.284.553.5 1.137.65 1.75.154.61.229 1.223.225 1.84a7.358 7.358 0 0 1-.225 1.84 8.009 8.009 0 0 1-.65 1.745 7.187 7.187 0 0 1-1.01 1.51ZM50.34 166v-6.48h4.44v.846h-3.558V166h-.882Zm4.785 0v-1.026h1.026V166h-1.026Zm4.681 0 2.976-8.64h1.17l2.976 8.64h-.918l-2.826-8.148h.348L60.724 166h-.918Zm1.326-2.094v-.828h4.464v.828h-4.464Zm6.28 2.094v-.774c.24.044.422.034.546-.03a.61.61 0 0 0 .282-.336c.06-.16.11-.358.15-.594.064-.392.122-.824.174-1.296.052-.472.098-.992.138-1.56.044-.572.088-1.202.132-1.89h4.404V166h-.876v-5.634H69.65a64.899 64.899 0 0 1-.21 2.478c-.036.384-.076.738-.12 1.062-.044.324-.09.604-.138.84-.072.356-.168.64-.288.852a.844.844 0 0 1-.522.42c-.232.068-.552.062-.96-.018Zm7.496 0v-6.48h.786l2.526 5.304 2.532-5.304h.78V166h-.852v-4.596L78.502 166h-.558l-2.178-4.596V166h-.858Zm10.157.18c-.488 0-.898-.088-1.23-.264a1.79 1.79 0 0 1-.738-.702 1.915 1.915 0 0 1-.246-.954c0-.352.07-.652.21-.9.144-.252.338-.458.582-.618.248-.16.534-.282.858-.366.328-.08.69-.15 1.086-.21.4-.064.79-.118 1.17-.162.384-.048.72-.094 1.008-.138l-.312.192c.012-.64-.112-1.114-.372-1.422-.26-.308-.712-.462-1.356-.462-.444 0-.82.1-1.128.3-.304.2-.518.516-.642.948l-.858-.252c.148-.58.446-1.03.894-1.35.448-.32 1.03-.48 1.746-.48.592 0 1.094.112 1.506.336.416.22.71.54.882.96.08.188.132.398.156.63.024.232.036.468.036.708V166h-.786v-1.626l.228.096c-.22.556-.562.98-1.026 1.272-.464.292-1.02.438-1.668.438Zm.102-.762c.412 0 .772-.074 1.08-.222.308-.148.556-.35.744-.606.188-.26.31-.552.366-.876.048-.208.074-.436.078-.684.004-.252.006-.44.006-.564l.336.174c-.3.04-.626.08-.978.12-.348.04-.692.086-1.032.138-.336.052-.64.114-.912.186a2.473 2.473 0 0 0-.534.222 1.233 1.233 0 0 0-.426.372.998.998 0 0 0-.162.582c0 .188.046.37.138.546.096.176.248.322.456.438.212.116.492.174.84.174Zm6.47.582v-5.664H89.34v-.816h5.478v.816H92.52V166h-.882Zm4.33 0-.012-6.48h.888v2.442h1.128c.188 0 .372.004.552.012.18.008.342.024.486.048.32.064.604.172.852.324.248.152.444.362.588.63.144.264.216.598.216 1.002 0 .556-.144.994-.432 1.314-.288.32-.65.528-1.086.624-.164.036-.342.06-.534.072-.192.008-.38.012-.564.012h-2.082Zm.876-.756h1.17c.132 0 .282-.004.45-.012a2 2 0 0 0 .444-.066c.216-.06.41-.18.582-.36.176-.184.264-.46.264-.828 0-.364-.084-.638-.252-.822a1.213 1.213 0 0 0-.672-.372 2.578 2.578 0 0 0-.408-.054 7.155 7.155 0 0 0-.408-.012h-1.17v2.526Zm4.596.756v-6.48h.882V166h-.882Z"/></g></svg>