<svg xmlns="http://www.w3.org/2000/svg" width="518" height="279" fill="none"><rect width="518" height="279" fill="#fff" rx="12"/><path fill="#343A40" d="M32.988 42.36c-1.728 0-3.208-.376-4.44-1.128-1.232-.76-2.18-1.816-2.844-3.168-.656-1.352-.984-2.92-.984-4.704 0-1.784.328-3.352.984-4.704.664-1.352 1.612-2.404 2.844-3.156 1.232-.76 2.712-1.14 4.44-1.14 1.992 0 3.652.5 4.98 1.5 1.328.992 2.26 2.332 2.796 4.02l-2.916.804c-.336-1.128-.908-2.008-1.716-2.64-.808-.64-1.856-.96-3.144-.96-1.16 0-2.128.26-2.904.78-.768.52-1.348 1.252-1.74 2.196-.384.936-.58 2.036-.588 3.3 0 1.264.192 2.368.576 3.312.392.936.976 1.664 1.752 2.184.776.52 1.744.78 2.904.78 1.288 0 2.336-.32 3.144-.96.808-.64 1.38-1.52 1.716-2.64l2.916.804c-.536 1.688-1.468 3.032-2.796 4.032-1.328.992-2.988 1.488-4.98 1.488Zm16.303 0c-1.312 0-2.464-.284-3.456-.852a6.067 6.067 0 0 1-2.328-2.364c-.552-1.008-.828-2.168-.828-3.48 0-1.416.272-2.644.816-3.684.544-1.048 1.3-1.86 2.268-2.436.968-.576 2.088-.864 3.36-.864 1.344 0 2.484.316 3.42.948.944.624 1.644 1.508 2.1 2.652.456 1.144.628 2.492.516 4.044H52.29v-1.056c-.008-1.408-.256-2.436-.744-3.084-.488-.648-1.256-.972-2.304-.972-1.184 0-2.064.368-2.64 1.104-.576.728-.864 1.796-.864 3.204 0 1.312.288 2.328.864 3.048.576.72 1.416 1.08 2.52 1.08.712 0 1.324-.156 1.836-.468.52-.32.92-.78 1.2-1.38l2.856.864c-.496 1.168-1.264 2.076-2.304 2.724a6.303 6.303 0 0 1-3.42.972Zm-4.464-6.036V34.14h8.916v2.184h-8.916Zm17.148 6.036c-1.232 0-2.355-.26-3.372-.78-1.016-.52-1.816-1.232-2.4-2.136l2.28-1.524c.465.552.98.98 1.549 1.284a4.04 4.04 0 0 0 1.896.444c.728 0 1.3-.16 1.716-.48.416-.32.623-.748.623-1.284 0-.472-.14-.804-.42-.996-.28-.2-.648-.32-1.104-.36-.456-.04-.944-.06-1.464-.06h-.96v-2.292h.948c.728 0 1.336-.084 1.825-.252.495-.168.744-.54.744-1.116 0-.52-.192-.888-.576-1.104-.384-.224-.832-.336-1.344-.336-.624 0-1.24.132-1.848.396a7.43 7.43 0 0 0-1.633.96l-1.632-1.968a8.51 8.51 0 0 1 2.413-1.512 7.218 7.218 0 0 1 2.843-.564 6.21 6.21 0 0 1 2.329.432c.727.288 1.311.72 1.751 1.296.449.576.672 1.288.672 2.136 0 .608-.132 1.18-.396 1.716-.256.536-.668 1.044-1.236 1.524l-.035-.936c.44.184.811.44 1.115.768.313.328.549.712.709 1.152.167.44.251.908.251 1.404 0 .904-.24 1.668-.72 2.292-.48.624-1.12 1.096-1.92 1.416-.791.32-1.66.48-2.603.48Zm13.609 0c-1.296 0-2.428-.292-3.396-.876a6.017 6.017 0 0 1-2.256-2.412c-.528-1.032-.792-2.216-.792-3.552 0-1.36.272-2.552.816-3.576a6.017 6.017 0 0 1 2.268-2.4c.968-.576 2.088-.864 3.36-.864 1.304 0 2.44.292 3.408.876a5.998 5.998 0 0 1 2.256 2.424c.536 1.024.804 2.204.804 3.54 0 1.344-.272 2.532-.816 3.564a6.017 6.017 0 0 1-2.256 2.412c-.968.576-2.1.864-3.396.864Zm0-2.712c1.152 0 2.008-.384 2.568-1.152.56-.768.84-1.76.84-2.976 0-1.256-.284-2.256-.852-3-.568-.752-1.42-1.128-2.556-1.128-.776 0-1.416.176-1.92.528-.496.344-.864.828-1.104 1.452-.24.616-.36 1.332-.36 2.148 0 1.256.284 2.26.852 3.012.576.744 1.42 1.116 2.532 1.116ZM84.672 42V29.04h2.892v5.112h5.82V29.04h2.892V42h-2.892v-5.136h-5.82V42h-2.892Zm14.93 0V29.04h2.891v5.112h5.82V29.04h2.892V42h-2.892v-5.136h-5.82V42h-2.892Zm20.677.36c-1.296 0-2.428-.292-3.396-.876a6.017 6.017 0 0 1-2.256-2.412c-.528-1.032-.792-2.216-.792-3.552 0-1.36.272-2.552.816-3.576a6.017 6.017 0 0 1 2.268-2.4c.968-.576 2.088-.864 3.36-.864 1.304 0 2.44.292 3.408.876a5.998 5.998 0 0 1 2.256 2.424c.536 1.024.804 2.204.804 3.54 0 1.344-.272 2.532-.816 3.564a6.017 6.017 0 0 1-2.256 2.412c-.968.576-2.1.864-3.396.864Zm0-2.712c1.152 0 2.008-.384 2.568-1.152.56-.768.84-1.76.84-2.976 0-1.256-.284-2.256-.852-3-.568-.752-1.42-1.128-2.556-1.128-.776 0-1.416.176-1.92.528-.496.344-.864.828-1.104 1.452-.24.616-.36 1.332-.36 2.148 0 1.256.284 2.26.852 3.012.576.744 1.42 1.116 2.532 1.116Zm14.74 2.712c-1.336 0-2.476-.296-3.42-.888a5.912 5.912 0 0 1-2.172-2.448c-.496-1.032-.748-2.2-.756-3.504.008-1.328.268-2.504.78-3.528a5.886 5.886 0 0 1 2.208-2.424c.952-.592 2.084-.888 3.396-.888 1.472 0 2.716.372 3.732 1.116 1.024.736 1.692 1.744 2.004 3.024l-2.88.78c-.224-.696-.596-1.236-1.116-1.62a2.873 2.873 0 0 0-1.776-.588c-.752 0-1.372.18-1.86.54-.488.352-.848.84-1.08 1.464-.232.624-.348 1.332-.348 2.124 0 1.232.276 2.228.828 2.988.552.76 1.372 1.14 2.46 1.14.768 0 1.372-.176 1.812-.528.448-.352.784-.86 1.008-1.524l2.952.66c-.4 1.32-1.1 2.336-2.1 3.048-1 .704-2.224 1.056-3.672 1.056Zm11.358-.36V31.608h-4.332V29.04h11.556v2.568h-4.332V42h-2.892Zm9.486 0-.012-12.96h2.892v4.32h2.328c.36 0 .764.008 1.212.024.456.016.836.052 1.14.108.728.16 1.348.416 1.86.768.52.352.916.812 1.188 1.38.272.568.408 1.252.408 2.052 0 1.144-.296 2.06-.888 2.748-.584.68-1.408 1.144-2.472 1.392a7.14 7.14 0 0 1-1.176.144c-.456.016-.868.024-1.236.024h-5.244Zm2.88-2.268h2.616c.176 0 .372-.008.588-.024a3.18 3.18 0 0 0 .624-.108c.36-.096.676-.312.948-.648.28-.344.42-.764.42-1.26 0-.52-.14-.948-.42-1.284a1.941 1.941 0 0 0-1.032-.66 3.33 3.33 0 0 0-.576-.096 6.961 6.961 0 0 0-.552-.024h-2.616v4.104Z"/><path fill="#868E96" d="m25.68 77.993.007-.938 4.557-4.116c.392-.355.65-.69.777-1.008.13-.322.196-.658.196-1.008a2.195 2.195 0 0 0-1.085-1.925 2.106 2.106 0 0 0-1.113-.301c-.43 0-.812.103-1.148.308a2.292 2.292 0 0 0-.798.812 2.132 2.132 0 0 0-.28 1.099h-1.05c0-.611.144-1.16.434-1.645.29-.485.681-.866 1.176-1.141.494-.28 1.054-.42 1.68-.42.611 0 1.16.145 1.645.434.49.285.875.672 1.155 1.162a3.15 3.15 0 0 1 .427 1.624c0 .42-.052.791-.154 1.113a2.765 2.765 0 0 1-.47.889c-.21.27-.478.55-.804.84l-4.046 3.654-.161-.42h5.635v.987h-6.58ZM39.058 78v-1.953H34.34v-.98l3.374-7.147h1.155l-3.374 7.147h3.563v-2.94h1.036v2.94h1.1v.98h-1.1V78h-1.036ZM28.92 131v-8.932l-1.896 1.141v-1.155l1.897-1.134h1.043V131H28.92Zm8.738.21c-.63 0-1.204-.152-1.722-.455a3.499 3.499 0 0 1-1.232-1.246 3.5 3.5 0 0 1-.455-1.778v-3.493c0-.677.152-1.279.455-1.806.304-.532.717-.95 1.24-1.253.527-.308 1.124-.462 1.791-.462.574 0 1.106.126 1.596.378.495.252.899.604 1.211 1.057l-.79.651a2.4 2.4 0 0 0-.855-.805 2.316 2.316 0 0 0-1.162-.301c-.471 0-.891.114-1.26.343a2.481 2.481 0 0 0-1.183 2.107v2.198l-.259-.294a3.448 3.448 0 0 1 1.155-1.12 3.019 3.019 0 0 1 1.568-.427 3.22 3.22 0 0 1 1.687.448 3.289 3.289 0 0 1 1.631 2.891c0 .621-.156 1.185-.469 1.694a3.476 3.476 0 0 1-1.239 1.218 3.298 3.298 0 0 1-1.708.455Zm0-1.001c.439 0 .838-.105 1.197-.315.364-.21.651-.495.861-.854.215-.359.322-.758.322-1.197 0-.439-.107-.838-.322-1.197a2.326 2.326 0 0 0-.854-.861 2.287 2.287 0 0 0-1.197-.322c-.438 0-.837.107-1.197.322-.359.21-.646.497-.86.861-.21.359-.316.758-.316 1.197 0 .434.105.831.315 1.19a2.328 2.328 0 0 0 2.051 1.176ZM37.651 184.21c-.63 0-1.187-.126-1.673-.378a2.844 2.844 0 0 1-1.134-1.057c-.27-.457-.406-.992-.406-1.603 0-.625.152-1.181.455-1.666.304-.49.766-.861 1.386-1.113l-.014.406c-.518-.191-.912-.504-1.183-.938a2.671 2.671 0 0 1-.406-1.442c0-.56.129-1.041.385-1.442a2.553 2.553 0 0 1 1.05-.938c.448-.219.962-.329 1.54-.329.579 0 1.092.11 1.54.329.448.219.8.532 1.057.938.257.401.385.882.385 1.442 0 .527-.13 1.006-.392 1.435-.256.429-.65.744-1.183.945l-.035-.406c.621.247 1.085.616 1.393 1.106.313.49.47 1.048.47 1.673 0 .611-.138 1.146-.414 1.603a2.834 2.834 0 0 1-1.14 1.057c-.486.252-1.046.378-1.68.378Zm0-.987c.635 0 1.15-.175 1.547-.525.397-.355.595-.863.595-1.526 0-.672-.196-1.181-.588-1.526-.392-.35-.91-.525-1.554-.525s-1.16.175-1.547.525c-.387.345-.58.854-.58 1.526 0 .663.195 1.171.587 1.526.392.35.906.525 1.54.525Zm0-5.096c.56 0 1.015-.142 1.365-.427.35-.289.525-.716.525-1.281s-.175-.987-.525-1.267c-.35-.285-.805-.427-1.365-.427-.56 0-1.015.142-1.365.427-.345.28-.518.702-.518 1.267s.173.992.518 1.281c.35.285.805.427 1.365.427ZM37.68 237.21a3.268 3.268 0 0 1-1.68-.434 3.224 3.224 0 0 1-1.177-1.176 3.287 3.287 0 0 1-.434-1.68V230a3.251 3.251 0 0 1 1.61-2.856 3.268 3.268 0 0 1 1.68-.434c.621 0 1.179.145 1.673.434.5.289.894.684 1.183 1.183.29.495.434 1.052.434 1.673v3.92c0 .621-.144 1.181-.434 1.68a3.255 3.255 0 0 1-2.856 1.61Zm0-.994c.41 0 .786-.1 1.126-.301a2.31 2.31 0 0 0 .812-.819c.206-.341.308-.716.308-1.127v-4.018c0-.415-.102-.793-.308-1.134a2.258 2.258 0 0 0-.812-.812 2.145 2.145 0 0 0-1.127-.308c-.415 0-.793.103-1.134.308-.34.201-.613.471-.819.812-.2.341-.3.719-.3 1.134v4.018c0 .411.1.786.3 1.127.206.341.479.614.82.819.34.201.718.301 1.133.301Z"/><path stroke="#F1F3F5" d="M52 71.5h444M52 125.5h444M52 179.5h444M52 233.5h444"/><path stroke="#A8C6D7" stroke-width="2" d="m59 221 36.584-19.464 39.584-110.715 39.584 78.608 38.642-60.893 40.526 38.75L294.447 227l38-105 38.341 72.893 36.756-95.214 37.699 52.035L482 72"/><circle cx="57.5" cy="223" r="5" fill="#458AC5"/><path fill="#868E96" d="M51.33 252v-2.442h-1.512c-.176 0-.358-.006-.546-.018a6.031 6.031 0 0 1-.516-.066 2.235 2.235 0 0 1-1.164-.6c-.316-.316-.474-.752-.474-1.308 0-.544.148-.98.444-1.308a2.046 2.046 0 0 1 1.074-.648 3.18 3.18 0 0 1 .582-.078c.2-.008.372-.012.516-.012h2.478l.006 6.48h-.888Zm-4.422 0 1.806-2.718h.978L47.874 252h-.966Zm2.862-3.198h1.56v-2.526h-1.56c-.096 0-.23.004-.402.012a2.092 2.092 0 0 0-.486.078 1.27 1.27 0 0 0-.396.21 1.167 1.167 0 0 0-.324.39c-.088.16-.132.356-.132.588 0 .324.088.584.264.78.18.192.404.324.672.396.144.032.288.052.432.06.144.008.268.012.372.012ZM53.894 252v-6.48h.883v2.814h3.654v-2.814h.882V252h-.883v-2.82h-3.654V252h-.882Zm7.09 0v-6.48h2.67c.136 0 .3.008.492.024.196.016.378.046.546.09.364.096.656.292.876.588.224.296.336.652.336 1.068 0 .232-.036.44-.108.624-.068.18-.166.336-.294.468a1.202 1.202 0 0 1-.408.3c.128.024.266.08.414.168.232.136.408.32.528.552.12.228.18.506.18.834 0 .444-.106.806-.318 1.086-.212.28-.496.472-.852.576a2.59 2.59 0 0 1-.522.084 8.04 8.04 0 0 1-.522.018h-3.018Zm.888-.75h2.088c.084 0 .19-.006.318-.018.128-.016.242-.036.342-.06.236-.06.408-.18.516-.36.112-.184.168-.384.168-.6 0-.284-.084-.516-.252-.696a1.053 1.053 0 0 0-.66-.336 1.667 1.667 0 0 0-.288-.036c-.1-.004-.19-.006-.27-.006h-1.962v2.112Zm0-2.868h1.812c.104 0 .22-.006.348-.018a1.49 1.49 0 0 0 .342-.078.79.79 0 0 0 .456-.372c.1-.176.15-.368.15-.576 0-.228-.054-.428-.162-.6a.824.824 0 0 0-.474-.36 1.594 1.594 0 0 0-.468-.09 8.808 8.808 0 0 0-.312-.012h-1.692v2.106Z"/><circle cx="95.591" cy="203.124" r="5" fill="#458AC5" transform="rotate(165 95.591 203.124)"/><path fill="#868E96" d="M88.465 254.7v-2.574c-.632.1-1.208.032-1.728-.204-.52-.24-.934-.628-1.242-1.164-.308-.536-.462-1.2-.462-1.992s.154-1.456.462-1.992c.308-.54.722-.93 1.242-1.17.52-.24 1.096-.31 1.728-.21v-1.986h.816v1.986c.632-.1 1.208-.03 1.728.21s.934.63 1.242 1.17c.308.536.462 1.2.462 1.992s-.154 1.456-.462 1.992c-.308.536-.722.924-1.242 1.164-.52.236-1.096.304-1.728.204v2.574h-.816Zm0-3.396v-5.082a2.227 2.227 0 0 0-.936.03c-.3.072-.57.214-.81.426-.24.208-.43.486-.57.834-.136.344-.204.762-.204 1.254s.07.912.21 1.26c.14.344.33.62.57.828.24.208.51.348.81.42.3.072.61.082.93.03Zm.816 0c.32.052.63.042.93-.03.3-.072.57-.21.81-.414.24-.208.43-.484.57-.828.14-.348.21-.77.21-1.266s-.07-.916-.21-1.26a2.08 2.08 0 0 0-.564-.834 1.898 1.898 0 0 0-.81-.42 2.227 2.227 0 0 0-.936-.03v5.082Zm7.49.876c-.632 0-1.18-.14-1.644-.42a2.85 2.85 0 0 1-1.073-1.182c-.257-.508-.385-1.104-.385-1.788 0-.708.127-1.32.379-1.836a2.81 2.81 0 0 1 1.061-1.194c.46-.28 1.003-.42 1.627-.42.64 0 1.185.148 1.638.444.452.292.794.712 1.026 1.26.231.548.337 1.202.317 1.962h-.9v-.312c-.015-.84-.197-1.474-.545-1.902-.345-.428-.849-.642-1.513-.642-.695 0-1.23.226-1.602.678-.367.452-.551 1.096-.551 1.932 0 .816.184 1.45.552 1.902.371.448.897.672 1.578.672.463 0 .867-.106 1.212-.318.348-.216.622-.526.822-.93l.822.318a2.94 2.94 0 0 1-1.135 1.314 3.13 3.13 0 0 1-1.685.462Zm-2.478-3.174v-.738h4.95v.738h-4.95Zm6.75 2.994v-6.48h2.67c.136 0 .3.008.492.024.196.016.378.046.546.09.364.096.656.292.876.588.224.296.336.652.336 1.068 0 .232-.036.44-.108.624-.068.18-.166.336-.294.468a1.202 1.202 0 0 1-.408.3c.128.024.266.08.414.168.232.136.408.32.528.552.12.228.18.506.18.834 0 .444-.106.806-.318 1.086-.212.28-.496.472-.852.576a2.59 2.59 0 0 1-.522.084 8.04 8.04 0 0 1-.522.018h-3.018Zm.888-.75h2.088c.084 0 .19-.006.318-.018.128-.016.242-.036.342-.06.236-.06.408-.18.516-.36.112-.184.168-.384.168-.6 0-.284-.084-.516-.252-.696a1.053 1.053 0 0 0-.66-.336 1.667 1.667 0 0 0-.288-.036c-.1-.004-.19-.006-.27-.006h-1.962v2.112Zm0-2.868h1.812c.104 0 .22-.006.348-.018a1.49 1.49 0 0 0 .342-.078.79.79 0 0 0 .456-.372c.1-.176.15-.368.15-.576 0-.228-.054-.428-.162-.6a.824.824 0 0 0-.474-.36 1.594 1.594 0 0 0-.468-.09 8.808 8.808 0 0 0-.312-.012h-1.692v2.106Z"/><circle cx="135.682" cy="93" r="5" fill="#458AC5"/><path fill="#868E96" d="M125.482 252v-6.48h.786l2.526 5.304 2.532-5.304h.78V252h-.852v-4.596L129.076 252h-.558l-2.178-4.596V252h-.858Zm10.157.18c-.488 0-.898-.088-1.23-.264a1.79 1.79 0 0 1-.738-.702 1.915 1.915 0 0 1-.246-.954c0-.352.07-.652.21-.9.144-.252.338-.458.582-.618.248-.16.534-.282.858-.366.328-.08.69-.15 1.086-.21.4-.064.79-.118 1.17-.162.384-.048.72-.094 1.008-.138l-.312.192c.012-.64-.112-1.114-.372-1.422-.26-.308-.712-.462-1.356-.462-.444 0-.82.1-1.128.3-.304.2-.518.516-.642.948l-.858-.252c.148-.58.446-1.03.894-1.35.448-.32 1.03-.48 1.746-.48.592 0 1.094.112 1.506.336.416.22.71.54.882.96.08.188.132.398.156.63.024.232.036.468.036.708V252h-.786v-1.626l.228.096c-.22.556-.562.98-1.026 1.272-.464.292-1.02.438-1.668.438Zm.102-.762c.412 0 .772-.074 1.08-.222.308-.148.556-.35.744-.606.188-.26.31-.552.366-.876.048-.208.074-.436.078-.684.004-.252.006-.44.006-.564l.336.174c-.3.04-.626.08-.978.12-.348.04-.692.086-1.032.138-.336.052-.64.114-.912.186a2.473 2.473 0 0 0-.534.222 1.233 1.233 0 0 0-.426.372.998.998 0 0 0-.162.582c0 .188.046.37.138.546.096.176.248.322.456.438.212.116.492.174.84.174Zm7.622.762c-.596 0-1.1-.15-1.512-.45a2.822 2.822 0 0 1-.936-1.23 4.587 4.587 0 0 1-.318-1.746c0-.656.106-1.24.318-1.752.216-.516.532-.922.948-1.218.416-.296.928-.444 1.536-.444.592 0 1.1.15 1.524.45.424.3.748.708.972 1.224.228.516.342 1.096.342 1.74 0 .648-.114 1.23-.342 1.746a2.919 2.919 0 0 1-.984 1.23c-.428.3-.944.45-1.548.45Zm-2.916 2.7v-9.36h.792v4.878h.096v4.482h-.888Zm2.826-3.522c.452 0 .828-.114 1.128-.342.3-.228.524-.538.672-.93.152-.396.228-.84.228-1.332 0-.488-.074-.928-.222-1.32a2.023 2.023 0 0 0-.678-.93c-.3-.228-.682-.342-1.146-.342-.452 0-.828.11-1.128.33-.296.22-.518.526-.666.918-.148.388-.222.836-.222 1.344 0 .5.074.948.222 1.344.148.392.372.7.672.924.3.224.68.336 1.14.336Z"/><circle cx="174.773" cy="167.124" r="5" fill="#458AC5" transform="rotate(165 174.773 167.124)"/><path fill="#868E96" d="M167.167 252.18c-.488 0-.898-.088-1.23-.264a1.79 1.79 0 0 1-.738-.702 1.915 1.915 0 0 1-.246-.954c0-.352.07-.652.21-.9.144-.252.338-.458.582-.618.248-.16.534-.282.858-.366.328-.08.69-.15 1.086-.21.4-.064.79-.118 1.17-.162.384-.048.72-.094 1.008-.138l-.312.192c.012-.64-.112-1.114-.372-1.422-.26-.308-.712-.462-1.356-.462-.444 0-.82.1-1.128.3-.304.2-.518.516-.642.948l-.858-.252c.148-.58.446-1.03.894-1.35.448-.32 1.03-.48 1.746-.48.592 0 1.094.112 1.506.336.416.22.71.54.882.96.08.188.132.398.156.63.024.232.036.468.036.708V252h-.786v-1.626l.228.096c-.22.556-.562.98-1.026 1.272-.464.292-1.02.438-1.668.438Zm.102-.762c.412 0 .772-.074 1.08-.222.308-.148.556-.35.744-.606.188-.26.31-.552.366-.876.048-.208.074-.436.078-.684.004-.252.006-.44.006-.564l.336.174c-.3.04-.626.08-.978.12-.348.04-.692.086-1.032.138-.336.052-.64.114-.912.186a2.473 2.473 0 0 0-.534.222 1.233 1.233 0 0 0-.426.372.998.998 0 0 0-.162.582c0 .188.046.37.138.546.096.176.248.322.456.438.212.116.492.174.84.174Zm4.706.582v-6.48h5.154V252h-.882v-5.634h-3.39V252h-.882Zm9.748.18c-.596 0-1.1-.15-1.512-.45a2.822 2.822 0 0 1-.936-1.23 4.587 4.587 0 0 1-.318-1.746c0-.656.106-1.24.318-1.752.216-.516.532-.922.948-1.218.416-.296.928-.444 1.536-.444.592 0 1.1.15 1.524.45.424.3.748.708.972 1.224.228.516.342 1.096.342 1.74 0 .648-.114 1.23-.342 1.746a2.919 2.919 0 0 1-.984 1.23c-.428.3-.944.45-1.548.45Zm-2.916 2.7v-9.36h.792v4.878h.096v4.482h-.888Zm2.826-3.522c.452 0 .828-.114 1.128-.342.3-.228.524-.538.672-.93.152-.396.228-.84.228-1.332 0-.488-.074-.928-.222-1.32a2.023 2.023 0 0 0-.678-.93c-.3-.228-.682-.342-1.146-.342-.452 0-.828.11-1.128.33-.296.22-.518.526-.666.918-.148.388-.222.836-.222 1.344 0 .5.074.948.222 1.344.148.392.372.7.672.924.3.224.68.336 1.14.336Z"/><circle cx="213.363" cy="111" r="5" fill="#458AC5"/><path fill="#868E96" d="M203.299 252v-6.48h.786l2.526 5.304 2.532-5.304h.78V252h-.852v-4.596L206.893 252h-.558l-2.178-4.596V252h-.858Zm10.157.18c-.488 0-.898-.088-1.23-.264a1.79 1.79 0 0 1-.738-.702 1.915 1.915 0 0 1-.246-.954c0-.352.07-.652.21-.9.144-.252.338-.458.582-.618.248-.16.534-.282.858-.366.328-.08.69-.15 1.086-.21.4-.064.79-.118 1.17-.162.384-.048.72-.094 1.008-.138l-.312.192c.012-.64-.112-1.114-.372-1.422-.26-.308-.712-.462-1.356-.462-.444 0-.82.1-1.128.3-.304.2-.518.516-.642.948l-.858-.252c.148-.58.446-1.03.894-1.35.448-.32 1.03-.48 1.746-.48.592 0 1.094.112 1.506.336.416.22.71.54.882.96.08.188.132.398.156.63.024.232.036.468.036.708V252h-.786v-1.626l.228.096c-.22.556-.562.98-1.026 1.272-.464.292-1.02.438-1.668.438Zm.102-.762c.412 0 .772-.074 1.08-.222.308-.148.556-.35.744-.606.188-.26.31-.552.366-.876.048-.208.074-.436.078-.684.004-.252.006-.44.006-.564l.336.174c-.3.04-.626.08-.978.12-.348.04-.692.086-1.032.138-.336.052-.64.114-.912.186a2.473 2.473 0 0 0-.534.222 1.233 1.233 0 0 0-.426.372.998.998 0 0 0-.162.582c0 .188.046.37.138.546.096.176.248.322.456.438.212.116.492.174.84.174Zm7.4-6.666a1.5 1.5 0 0 1-.78-.21 1.603 1.603 0 0 1-.564-.558 1.534 1.534 0 0 1-.204-.78h.732c0 .224.08.416.24.576.16.16.352.24.576.24.228 0 .42-.08.576-.24.16-.16.24-.352.24-.576h.732a1.554 1.554 0 0 1-1.548 1.548Zm2.46.768V252h-.858v-5.046L219.008 252h-.744v-6.48h.858v5.004l3.558-5.004h.738Z"/><circle cx="253.455" cy="145" r="5" fill="#458AC5"/><path fill="#868E96" d="M247.736 245.52V252h-.858v-5.046L243.326 252h-.744v-6.48h.858v5.004l3.558-5.004h.738Zm6.784 6.66c-.572 0-1.07-.122-1.494-.366a2.748 2.748 0 0 1-1.014-1.038c-.248-.448-.398-.974-.45-1.578h-1.266V252h-.882v-6.48h.882v2.802h1.26c.052-.612.204-1.14.456-1.584a2.69 2.69 0 0 1 1.02-1.032c.428-.244.926-.366 1.494-.366.644 0 1.194.146 1.65.438.46.292.81.694 1.05 1.206.244.512.366 1.1.366 1.764 0 .68-.124 1.278-.372 1.794a2.797 2.797 0 0 1-1.056 1.206c-.456.288-1.004.432-1.644.432Zm-.018-.846c.728 0 1.268-.236 1.62-.708.356-.476.534-1.1.534-1.872 0-.788-.18-1.412-.54-1.872-.356-.464-.892-.696-1.608-.696-.684 0-1.208.228-1.572.684-.364.452-.546 1.078-.546 1.878 0 .784.178 1.412.534 1.884.36.468.886.702 1.578.702Zm4.404.666v-6.48h.882v2.814h3.654v-2.814h.882V252h-.882v-2.82h-3.654V252h-.882Z"/><circle cx="294.544" cy="227.326" r="5" fill="#458AC5" transform="rotate(165 294.544 227.326)"/><path fill="#868E96" d="M288.92 245.52V252h-.858v-5.046L284.51 252h-.744v-6.48h.858v5.004l3.558-5.004h.738Zm6.784 6.66c-.572 0-1.07-.122-1.494-.366a2.748 2.748 0 0 1-1.014-1.038c-.248-.448-.398-.974-.45-1.578h-1.266V252h-.882v-6.48h.882v2.802h1.26c.052-.612.204-1.14.456-1.584a2.69 2.69 0 0 1 1.02-1.032c.428-.244.926-.366 1.494-.366.644 0 1.194.146 1.65.438.46.292.81.694 1.05 1.206.244.512.366 1.1.366 1.764 0 .68-.124 1.278-.372 1.794a2.797 2.797 0 0 1-1.056 1.206c-.456.288-1.004.432-1.644.432Zm-.018-.846c.728 0 1.268-.236 1.62-.708.356-.476.534-1.1.534-1.872 0-.788-.18-1.412-.54-1.872-.356-.464-.892-.696-1.608-.696-.684 0-1.208.228-1.572.684-.364.452-.546 1.078-.546 1.878 0 .784.178 1.412.534 1.884.36.468.886.702 1.578.702Zm3.81.666v-.774c.24.044.422.034.546-.03a.61.61 0 0 0 .282-.336c.06-.16.11-.358.15-.594.064-.392.122-.824.174-1.296.052-.472.098-.992.138-1.56.044-.572.088-1.202.132-1.89h4.404V252h-.876v-5.634h-2.712a64.899 64.899 0 0 1-.21 2.478c-.036.384-.076.738-.12 1.062-.044.324-.09.604-.138.84-.072.356-.168.64-.288.852a.844.844 0 0 1-.522.42c-.232.068-.552.062-.96-.018Z"/><circle cx="333.136" cy="124.124" r="5" fill="#458AC5" transform="rotate(165 333.136 124.124)"/><path fill="#868E96" d="M326.497 252.18c-.488 0-.898-.088-1.23-.264a1.79 1.79 0 0 1-.738-.702 1.915 1.915 0 0 1-.246-.954c0-.352.07-.652.21-.9.144-.252.338-.458.582-.618.248-.16.534-.282.858-.366.328-.08.69-.15 1.086-.21.4-.064.79-.118 1.17-.162.384-.048.72-.094 1.008-.138l-.312.192c.012-.64-.112-1.114-.372-1.422-.26-.308-.712-.462-1.356-.462-.444 0-.82.1-1.128.3-.304.2-.518.516-.642.948l-.858-.252c.148-.58.446-1.03.894-1.35.448-.32 1.03-.48 1.746-.48.592 0 1.094.112 1.506.336.416.22.71.54.882.96.08.188.132.398.156.63.024.232.036.468.036.708V252h-.786v-1.626l.228.096c-.22.556-.562.98-1.026 1.272-.464.292-1.02.438-1.668.438Zm.102-.762c.412 0 .772-.074 1.08-.222.308-.148.556-.35.744-.606.188-.26.31-.552.366-.876.048-.208.074-.436.078-.684.004-.252.006-.44.006-.564l.336.174c-.3.04-.626.08-.978.12-.348.04-.692.086-1.032.138-.336.052-.64.114-.912.186a2.473 2.473 0 0 0-.534.222 1.233 1.233 0 0 0-.426.372.998.998 0 0 0-.162.582c0 .188.046.37.138.546.096.176.248.322.456.438.212.116.492.174.84.174Zm4.706.582v-6.48h2.67c.136 0 .3.008.492.024.196.016.378.046.546.09.364.096.656.292.876.588.224.296.336.652.336 1.068 0 .232-.036.44-.108.624-.068.18-.166.336-.294.468a1.202 1.202 0 0 1-.408.3c.128.024.266.08.414.168.232.136.408.32.528.552.12.228.18.506.18.834 0 .444-.106.806-.318 1.086-.212.28-.496.472-.852.576a2.59 2.59 0 0 1-.522.084 8.04 8.04 0 0 1-.522.018h-3.018Zm.888-.75h2.088c.084 0 .19-.006.318-.018.128-.016.242-.036.342-.06.236-.06.408-.18.516-.36.112-.184.168-.384.168-.6 0-.284-.084-.516-.252-.696a1.053 1.053 0 0 0-.66-.336 1.667 1.667 0 0 0-.288-.036c-.1-.004-.19-.006-.27-.006h-1.962v2.112Zm0-2.868h1.812c.104 0 .22-.006.348-.018a1.49 1.49 0 0 0 .342-.078.79.79 0 0 0 .456-.372c.1-.176.15-.368.15-.576 0-.228-.054-.428-.162-.6a.824.824 0 0 0-.474-.36 1.594 1.594 0 0 0-.468-.09 8.808 8.808 0 0 0-.312-.012h-1.692v2.106Zm5.54 3.618v-6.48h4.44v.846h-3.558V252h-.882Z"/><circle cx="370.227" cy="194" r="5" fill="#458AC5"/><path fill="#868E96" d="M363.378 252.18c-.652 0-1.204-.146-1.656-.438a2.791 2.791 0 0 1-1.032-1.206c-.232-.516-.352-1.108-.36-1.776.008-.68.132-1.276.372-1.788.24-.516.586-.916 1.038-1.2.452-.288 1-.432 1.644-.432.656 0 1.226.16 1.71.48.488.32.822.758 1.002 1.314l-.864.276a1.825 1.825 0 0 0-.726-.9 2.004 2.004 0 0 0-1.128-.324c-.476 0-.87.11-1.182.33a1.92 1.92 0 0 0-.696.906c-.152.388-.23.834-.234 1.338.008.776.188 1.4.54 1.872.352.468.876.702 1.572.702.44 0 .814-.1 1.122-.3.312-.204.548-.5.708-.888l.888.264c-.24.576-.592 1.016-1.056 1.32-.464.3-1.018.45-1.662.45Zm6.698 0c-.632 0-1.18-.14-1.644-.42a2.85 2.85 0 0 1-1.074-1.182c-.256-.508-.384-1.104-.384-1.788 0-.708.126-1.32.378-1.836a2.81 2.81 0 0 1 1.062-1.194c.46-.28 1.002-.42 1.626-.42.64 0 1.186.148 1.638.444.452.292.794.712 1.026 1.26.232.548.338 1.202.318 1.962h-.9v-.312c-.016-.84-.198-1.474-.546-1.902-.344-.428-.848-.642-1.512-.642-.696 0-1.23.226-1.602.678-.368.452-.552 1.096-.552 1.932 0 .816.184 1.45.552 1.902.372.448.898.672 1.578.672.464 0 .868-.106 1.212-.318.348-.216.622-.526.822-.93l.822.318a2.94 2.94 0 0 1-1.134 1.314 3.13 3.13 0 0 1-1.686.462Zm-2.478-3.174v-.738h4.95v.738h-4.95Zm6.75 2.994v-6.48h.882v2.814h3.654v-2.814h.882V252h-.882v-2.82h-3.654V252h-.882Z"/><circle cx="407.818" cy="102.124" r="5" fill="#458AC5" transform="rotate(165 407.818 102.124)"/><path fill="#868E96" d="M401.796 252.18c-.644 0-1.194-.146-1.65-.438a2.85 2.85 0 0 1-1.05-1.212c-.244-.516-.366-1.108-.366-1.776 0-.68.124-1.276.372-1.788s.6-.91 1.056-1.194c.46-.288 1.006-.432 1.638-.432.648 0 1.2.146 1.656.438.46.288.81.69 1.05 1.206.244.512.366 1.102.366 1.77 0 .68-.122 1.278-.366 1.794a2.804 2.804 0 0 1-1.056 1.2c-.46.288-1.01.432-1.65.432Zm0-.846c.72 0 1.256-.238 1.608-.714.352-.48.528-1.102.528-1.866 0-.784-.178-1.408-.534-1.872-.352-.464-.886-.696-1.602-.696-.484 0-.884.11-1.2.33a1.957 1.957 0 0 0-.702.906c-.152.384-.228.828-.228 1.332 0 .78.18 1.406.54 1.878.36.468.89.702 1.59.702Zm4.39.666.006-6.48h.888v3.12l2.892-3.12h1.176l-3.036 3.24 3.432 3.24h-1.284l-3.18-3.12V252h-.894Zm7.717 0v-5.664h-2.298v-.816h5.478v.816h-2.298V252h-.882Z"/><circle cx="445.408" cy="149" r="5" fill="#458AC5"/><path fill="#868E96" d="M435.83 252v-6.48h.882v2.814h3.654v-2.814h.882V252h-.882v-2.82h-3.654V252h-.882Zm9.802.18c-.644 0-1.194-.146-1.65-.438a2.85 2.85 0 0 1-1.05-1.212c-.244-.516-.366-1.108-.366-1.776 0-.68.124-1.276.372-1.788s.6-.91 1.056-1.194c.46-.288 1.006-.432 1.638-.432.648 0 1.2.146 1.656.438.46.288.81.69 1.05 1.206.244.512.366 1.102.366 1.77 0 .68-.122 1.278-.366 1.794a2.804 2.804 0 0 1-1.056 1.2c-.46.288-1.01.432-1.65.432Zm0-.846c.72 0 1.256-.238 1.608-.714.352-.48.528-1.102.528-1.866 0-.784-.178-1.408-.534-1.872-.352-.464-.886-.696-1.602-.696-.484 0-.884.11-1.2.33a1.957 1.957 0 0 0-.702.906c-.152.384-.228.828-.228 1.332 0 .78.18 1.406.54 1.878.36.468.89.702 1.59.702Zm8.458.666v-2.442h-1.513a8.57 8.57 0 0 1-.545-.018 6.031 6.031 0 0 1-.516-.066 2.235 2.235 0 0 1-1.164-.6c-.316-.316-.474-.752-.474-1.308 0-.544.148-.98.444-1.308a2.046 2.046 0 0 1 1.074-.648 3.18 3.18 0 0 1 .582-.078c.2-.008.372-.012.515-.012h2.479l.006 6.48h-.888Zm-4.422 0 1.806-2.718h.978L450.634 252h-.966Zm2.862-3.198h1.56v-2.526h-1.56c-.096 0-.23.004-.402.012a2.092 2.092 0 0 0-.486.078 1.27 1.27 0 0 0-.396.21 1.167 1.167 0 0 0-.324.39c-.088.16-.132.356-.132.588 0 .324.088.584.264.78.18.192.404.324.672.396.144.032.288.052.432.06.144.008.268.012.372.012Z"/><circle cx="483.499" cy="71.124" r="5" fill="#458AC5" transform="rotate(165 483.499 71.124)"/><path fill="#868E96" d="M473.782 253.44v-2.196c.368 0 .632-.118.792-.354.16-.24.29-.622.39-1.146.068-.34.124-.706.168-1.098.044-.392.082-.84.114-1.344a83.32 83.32 0 0 0 .09-1.782h4.284v5.724h.624v2.196h-.852V252h-4.764v1.44h-.846Zm1.494-2.196h3.468v-4.968h-2.592c-.012.304-.03.626-.054.966-.02.34-.046.68-.078 1.02-.028.34-.062.66-.102.96a7.48 7.48 0 0 1-.132.78c-.06.288-.126.534-.198.738a1.2 1.2 0 0 1-.312.504Zm8.911.936c-.632 0-1.18-.14-1.644-.42a2.85 2.85 0 0 1-1.074-1.182c-.256-.508-.384-1.104-.384-1.788 0-.708.126-1.32.378-1.836a2.81 2.81 0 0 1 1.062-1.194c.46-.28 1.002-.42 1.626-.42.64 0 1.186.148 1.638.444.452.292.794.712 1.026 1.26.232.548.338 1.202.318 1.962h-.9v-.312c-.016-.84-.198-1.474-.546-1.902-.344-.428-.848-.642-1.512-.642-.696 0-1.23.226-1.602.678-.368.452-.552 1.096-.552 1.932 0 .816.184 1.45.552 1.902.372.448.898.672 1.578.672.464 0 .868-.106 1.212-.318.348-.216.622-.526.822-.93l.822.318a2.94 2.94 0 0 1-1.134 1.314 3.13 3.13 0 0 1-1.686.462Zm-2.478-3.174v-.738h4.95v.738h-4.95Zm6.75 2.994.006-6.48h.888v3.12l2.892-3.12h1.176l-3.036 3.24 3.432 3.24h-1.284l-3.18-3.12V252h-.894Z"/></svg>