<svg xmlns="http://www.w3.org/2000/svg" width="459" height="239" fill="none"><g><rect width="459" height="239" fill="#fff" rx="12" shape-rendering="crispEdges"/><path fill="#343A40" d="M36.96 45h-2.44V34.85L27.84 45H25.4V30.6h2.44v10.15l6.68-10.15h2.44V45Zm2.776 0V34.2h2.41v4.26h4.85V34.2h2.41V45h-2.41v-4.28h-4.85V45h-2.41Zm17.52 4.5v-4.31c-1.053.167-2.01.053-2.87-.34-.853-.393-1.533-1.033-2.04-1.92-.5-.887-.75-1.997-.75-3.33 0-1.327.25-2.437.75-3.33.508-.893 1.188-1.533 2.04-1.92.86-.393 1.817-.507 2.87-.34v-3.24h2.14v3.24c1.054-.167 2.008-.053 2.86.34.86.387 1.54 1.027 2.04 1.92.507.893.76 2.003.76 3.33 0 1.333-.252 2.443-.76 3.33-.5.887-1.18 1.527-2.04 1.92-.852.393-1.806.507-2.86.34v4.31h-2.14Zm0-6.47v-6.84c-.54-.093-1.013-.077-1.42.05-.4.12-.733.333-1 .64-.26.3-.456.683-.59 1.15-.133.46-.2.983-.2 1.57 0 .593.068 1.12.2 1.58.14.46.347.843.62 1.15.274.307.61.523 1.01.65.4.12.86.137 1.38.05Zm2.14 0c.52.087.98.07 1.38-.05.4-.12.734-.33 1-.63.274-.3.48-.68.62-1.14.14-.467.21-1.003.21-1.61 0-.607-.066-1.14-.2-1.6-.133-.46-.332-.84-.6-1.14a1.97 1.97 0 0 0-1-.63c-.4-.12-.87-.133-1.41-.04v6.84Zm12.63 2.27c-1.08 0-2.024-.243-2.83-.73a5.014 5.014 0 0 1-1.88-2.01c-.44-.86-.66-1.847-.66-2.96 0-1.133.226-2.127.68-2.98a5.014 5.014 0 0 1 1.89-2c.806-.48 1.74-.72 2.8-.72 1.086 0 2.033.243 2.84.73a4.999 4.999 0 0 1 1.88 2.02c.446.853.67 1.837.67 2.95 0 1.12-.227 2.11-.68 2.97a5.015 5.015 0 0 1-1.88 2.01c-.807.48-1.75.72-2.83.72Zm0-2.26c.96 0 1.673-.32 2.14-.96.466-.64.7-1.467.7-2.48 0-1.047-.237-1.88-.71-2.5-.474-.627-1.184-.94-2.13-.94-.647 0-1.18.147-1.6.44-.414.287-.72.69-.92 1.21-.2.513-.3 1.11-.3 1.79 0 1.047.236 1.883.71 2.51.48.62 1.183.93 2.11.93Zm12.783 2.26c-1.054 0-1.937-.25-2.65-.75-.714-.5-1.25-1.18-1.61-2.04-.36-.867-.54-1.837-.54-2.91 0-1.087.18-2.06.54-2.92.36-.86.886-1.537 1.58-2.03.7-.5 1.563-.75 2.59-.75 1.02 0 1.903.25 2.65.75.753.493 1.336 1.17 1.75 2.03.413.853.62 1.827.62 2.92 0 1.08-.204 2.05-.61 2.91-.407.86-.98 1.54-1.72 2.04s-1.607.75-2.6.75Zm-5.21 4.5V34.2h2.13v7.58h.3v8.02h-2.43Zm4.84-6.66c.626 0 1.143-.157 1.55-.47.406-.313.706-.737.9-1.27.2-.54.3-1.14.3-1.8 0-.653-.1-1.247-.3-1.78-.2-.54-.51-.967-.93-1.28-.42-.32-.954-.48-1.6-.48-.614 0-1.114.15-1.5.45-.387.293-.674.707-.86 1.24-.18.527-.27 1.143-.27 1.85 0 .7.09 1.317.27 1.85.186.533.476.95.87 1.25.4.293.923.44 1.57.44ZM91.923 45V34.2h1.98l3.87 7.46 3.88-7.46h1.97V45h-2.3v-5.95L98.253 45h-.95l-3.07-5.95V45h-2.31Zm17.513.3c-.78 0-1.44-.147-1.98-.44-.54-.3-.95-.697-1.23-1.19a3.3 3.3 0 0 1-.41-1.63c0-.52.086-.987.26-1.4.173-.42.44-.78.8-1.08.36-.307.826-.557 1.4-.75.433-.14.94-.267 1.52-.38.586-.113 1.22-.217 1.9-.31.686-.1 1.403-.207 2.15-.32l-.86.49c.006-.747-.16-1.297-.5-1.65-.34-.353-.914-.53-1.72-.53-.487 0-.957.113-1.41.34-.454.227-.77.617-.95 1.17l-2.2-.69a4.082 4.082 0 0 1 1.52-2.2c.753-.553 1.766-.83 3.04-.83.96 0 1.803.157 2.53.47a3.145 3.145 0 0 1 1.63 1.54c.193.38.31.77.35 1.17.04.393.06.823.06 1.29V45h-2.11v-2.34l.35.38c-.487.78-1.057 1.353-1.71 1.72-.647.36-1.457.54-2.43.54Zm.48-1.92c.546 0 1.013-.097 1.4-.29a2.74 2.74 0 0 0 .92-.71c.233-.28.39-.543.47-.79.126-.307.196-.657.21-1.05.02-.4.03-.723.03-.97l.74.22c-.727.113-1.35.213-1.87.3s-.967.17-1.34.25a8.468 8.468 0 0 0-.99.25c-.28.1-.517.217-.71.35a1.534 1.534 0 0 0-.45.46 1.2 1.2 0 0 0-.15.61c0 .267.066.503.2.71.133.2.326.36.58.48.26.12.58.18.96.18Zm17.063 3.89V45h-9.06V34.2h2.41v8.54h4.56V34.2h2.41v8.66h2.09v4.41h-2.41Zm13.367-13.07V45h-2.31v-7.05l-5.14 7.05h-1.93V34.2h2.31v6.87l5.16-6.87h1.91Zm9.268 10.8v-3.6h-1.93c-.247 0-.557-.007-.93-.02a8.049 8.049 0 0 1-1.03-.1c-.833-.153-1.523-.517-2.07-1.09-.547-.58-.82-1.367-.82-2.36 0-.973.26-1.757.78-2.35.52-.593 1.197-.973 2.03-1.14a5.66 5.66 0 0 1 1.07-.12c.373-.013.683-.02.93-.02h4.38V45h-2.41Zm-7.06 0 2.58-4.13h2.51l-2.56 4.13h-2.53Zm4.88-5.49h2.18v-3.42h-2.18c-.127 0-.28.007-.46.02-.18.013-.36.043-.54.09-.193.06-.377.163-.55.31-.173.147-.317.33-.43.55-.113.22-.17.47-.17.75 0 .42.12.77.36 1.05.247.273.533.457.86.55.16.04.323.067.49.08.173.013.32.02.44.02ZM158.798 45V34.2h9.38V45h-2.41v-8.54h-4.56V45h-2.41Zm16.958.3c-1.08 0-2.023-.243-2.83-.73a5.015 5.015 0 0 1-1.88-2.01c-.44-.86-.66-1.847-.66-2.96 0-1.133.227-2.127.68-2.98a5.01 5.01 0 0 1 1.89-2c.807-.48 1.74-.72 2.8-.72 1.087 0 2.033.243 2.84.73a4.998 4.998 0 0 1 1.88 2.02c.447.853.67 1.837.67 2.95 0 1.12-.227 2.11-.68 2.97a5.015 5.015 0 0 1-1.88 2.01c-.807.48-1.75.72-2.83.72Zm0-2.26c.96 0 1.673-.32 2.14-.96.467-.64.7-1.467.7-2.48 0-1.047-.237-1.88-.71-2.5-.473-.627-1.183-.94-2.13-.94-.647 0-1.18.147-1.6.44-.413.287-.72.69-.92 1.21-.2.513-.3 1.11-.3 1.79 0 1.047.237 1.883.71 2.51.48.62 1.183.93 2.11.93ZM187.333 45V34.2h9.38V45h-2.41v-8.54h-4.56V45h-2.41Zm16.958.3c-1.08 0-2.023-.243-2.83-.73a5.015 5.015 0 0 1-1.88-2.01c-.44-.86-.66-1.847-.66-2.96 0-1.133.227-2.127.68-2.98a5.01 5.01 0 0 1 1.89-2c.807-.48 1.74-.72 2.8-.72 1.087 0 2.033.243 2.84.73a4.998 4.998 0 0 1 1.88 2.02c.447.853.67 1.837.67 2.95 0 1.12-.227 2.11-.68 2.97a5.015 5.015 0 0 1-1.88 2.01c-.807.48-1.75.72-2.83.72Zm0-2.26c.96 0 1.673-.32 2.14-.96.467-.64.7-1.467.7-2.48 0-1.047-.237-1.88-.71-2.5-.473-.627-1.183-.94-2.13-.94-.647 0-1.18.147-1.6.44-.413.287-.72.69-.92 1.21-.2.513-.3 1.11-.3 1.79 0 1.047.237 1.883.71 2.51.48.62 1.183.93 2.11.93Zm12.283 2.26c-1.113 0-2.063-.247-2.85-.74a4.932 4.932 0 0 1-1.81-2.04c-.413-.86-.623-1.833-.63-2.92.007-1.107.224-2.087.65-2.94a4.912 4.912 0 0 1 1.84-2.02c.794-.493 1.737-.74 2.83-.74 1.227 0 2.264.31 3.11.93.854.613 1.41 1.453 1.67 2.52l-2.4.65c-.186-.58-.496-1.03-.93-1.35a2.392 2.392 0 0 0-1.48-.49c-.626 0-1.143.15-1.55.45-.406.293-.706.7-.9 1.22-.193.52-.29 1.11-.29 1.77 0 1.027.23 1.857.69 2.49.46.633 1.144.95 2.05.95.64 0 1.144-.147 1.51-.44.374-.293.654-.717.84-1.27l2.46.55c-.333 1.1-.916 1.947-1.75 2.54-.833.587-1.853.88-3.06.88Zm9.466-.3v-8.66h-3.61V34.2h9.63v2.14h-3.61V45h-2.41Zm10.681.3c-.78 0-1.44-.147-1.98-.44-.54-.3-.95-.697-1.23-1.19a3.3 3.3 0 0 1-.41-1.63c0-.52.086-.987.26-1.4.173-.42.44-.78.8-1.08.36-.307.826-.557 1.4-.75.433-.14.94-.267 1.52-.38.586-.113 1.22-.217 1.9-.31.686-.1 1.403-.207 2.15-.32l-.86.49c.006-.747-.16-1.297-.5-1.65-.34-.353-.914-.53-1.72-.53-.487 0-.957.113-1.41.34-.454.227-.77.617-.95 1.17l-2.2-.69a4.082 4.082 0 0 1 1.52-2.2c.753-.553 1.766-.83 3.04-.83.96 0 1.803.157 2.53.47a3.145 3.145 0 0 1 1.63 1.54c.193.38.31.77.35 1.17.04.393.06.823.06 1.29V45h-2.11v-2.34l.35.38c-.487.78-1.057 1.353-1.71 1.72-.647.36-1.457.54-2.43.54Zm.48-1.92c.546 0 1.013-.097 1.4-.29a2.74 2.74 0 0 0 .92-.71c.233-.28.39-.543.47-.79.126-.307.196-.657.21-1.05.02-.4.03-.723.03-.97l.74.22c-.727.113-1.35.213-1.87.3s-.967.17-1.34.25a8.468 8.468 0 0 0-.99.25c-.28.1-.517.217-.71.35a1.534 1.534 0 0 0-.45.46 1.2 1.2 0 0 0-.15.61c0 .267.066.503.2.71.133.2.326.36.58.48.26.12.58.18.96.18Zm8.003 1.62V34.2h4.91c.354 0 .684.02.99.06.307.04.57.09.79.15.52.153.98.453 1.38.9.4.44.6 1.05.6 1.83 0 .46-.073.84-.22 1.14a2.264 2.264 0 0 1-1.29 1.14c.26.04.507.117.74.23.367.18.674.447.92.8.254.353.38.85.38 1.49 0 .727-.176 1.34-.53 1.84-.346.493-.856.837-1.53 1.03-.246.067-.53.117-.85.15-.32.027-.646.04-.98.04h-5.31Zm2.44-1.86h2.7c.14 0 .294-.013.46-.04a2.6 2.6 0 0 0 .45-.11.887.887 0 0 0 .52-.46c.114-.22.17-.45.17-.69 0-.327-.083-.587-.25-.78-.16-.2-.353-.333-.58-.4a1.325 1.325 0 0 0-.44-.09 4.55 4.55 0 0 0-.38-.02h-2.65v2.59Zm0-4.48h2c.207 0 .407-.01.6-.03.2-.027.367-.07.5-.13a.865.865 0 0 0 .48-.44c.107-.207.16-.437.16-.69 0-.267-.06-.507-.18-.72a.854.854 0 0 0-.55-.44 1.778 1.778 0 0 0-.61-.11c-.233-.007-.383-.01-.45-.01h-1.95v2.57Zm20.362 8.61V45h-11.63V34.2h2.31v8.66h3.05V34.2h2.31v8.66h3.05V34.2h2.31v8.66h1.01v4.41h-2.41Zm13.375-13.07V45h-2.31v-7.05l-5.14 7.05h-1.93V34.2h2.31v6.87l5.16-6.87h1.91Zm2.788 10.8.02-10.8h2.44v5.2l3.95-5.2h3.01l-4.19 5.4 4.55 5.4h-3.19l-4.13-5.2V45h-2.46Zm12.202 4.8 2.08-5.71.04 1.68-4.71-11.57h2.51l3.34 8.56h-.64l3.25-8.56h2.41l-6.02 15.6h-2.26ZM36.047 73.224c-.427 0-.816-.099-1.168-.296a2.262 2.262 0 0 1-.84-.808 2.255 2.255 0 0 1-.304-1.16c0-.432.104-.819.312-1.16.208-.347.485-.616.832-.808a2.32 2.32 0 0 1 1.168-.296c.4 0 .768.099 1.104.296a2.228 2.228 0 0 1 1.12 1.968c0 .427-.101.813-.304 1.16-.203.341-.475.61-.816.808a2.141 2.141 0 0 1-1.104.296Z"/><path fill="#4D508F" d="M51.12 76v-9.416l-2.16 1.32v-2.128l2.16-1.296h1.968V76H51.12Zm9.16.24c-.816 0-1.536-.173-2.16-.52a3.787 3.787 0 0 1-1.464-1.464c-.347-.624-.52-1.344-.52-2.16v-3.712c0-.816.173-1.536.52-2.16.352-.624.84-1.11 1.464-1.456.624-.352 1.344-.528 2.16-.528.816 0 1.533.176 2.152.528a3.731 3.731 0 0 1 1.464 1.456c.352.624.528 1.344.528 2.16v3.712c0 .816-.176 1.536-.528 2.16a3.787 3.787 0 0 1-1.464 1.464c-.619.347-1.336.52-2.152.52Zm0-1.832c.405 0 .773-.096 1.104-.288.33-.197.592-.459.784-.784.192-.33.288-.699.288-1.104V68.24c0-.41-.096-.779-.288-1.104a2.126 2.126 0 0 0-.784-.784 2.113 2.113 0 0 0-1.104-.296c-.406 0-.774.099-1.104.296-.331.192-.592.453-.784.784a2.13 2.13 0 0 0-.288 1.104v3.992c0 .405.096.773.288 1.104.192.325.453.587.784.784.33.192.698.288 1.104.288Zm13.734 1.832c-.816 0-1.536-.173-2.16-.52a3.787 3.787 0 0 1-1.464-1.464c-.347-.624-.52-1.344-.52-2.16v-3.712c0-.816.173-1.536.52-2.16.352-.624.84-1.11 1.464-1.456.624-.352 1.344-.528 2.16-.528.816 0 1.533.176 2.152.528a3.731 3.731 0 0 1 1.464 1.456c.352.624.528 1.344.528 2.16v3.712c0 .816-.176 1.536-.528 2.16a3.787 3.787 0 0 1-1.464 1.464c-.619.347-1.336.52-2.152.52Zm0-1.832c.405 0 .773-.096 1.104-.288.33-.197.592-.459.784-.784.192-.33.288-.699.288-1.104V68.24c0-.41-.096-.779-.288-1.104a2.126 2.126 0 0 0-.784-.784 2.114 2.114 0 0 0-1.104-.296c-.405 0-.773.099-1.104.296-.33.192-.592.453-.784.784a2.13 2.13 0 0 0-.288 1.104v3.992c0 .405.096.773.288 1.104.192.325.453.587.784.784.33.192.699.288 1.104.288Zm10.531 1.832c-.816 0-1.536-.173-2.16-.52a3.787 3.787 0 0 1-1.464-1.464c-.346-.624-.52-1.344-.52-2.16v-3.712c0-.816.174-1.536.52-2.16.352-.624.84-1.11 1.464-1.456.624-.352 1.344-.528 2.16-.528.816 0 1.534.176 2.152.528a3.731 3.731 0 0 1 1.464 1.456c.352.624.528 1.344.528 2.16v3.712c0 .816-.176 1.536-.528 2.16a3.787 3.787 0 0 1-1.464 1.464c-.618.347-1.336.52-2.152.52Zm0-1.832c.406 0 .774-.096 1.104-.288.33-.197.592-.459.784-.784.192-.33.288-.699.288-1.104V68.24c0-.41-.096-.779-.288-1.104a2.127 2.127 0 0 0-.784-.784 2.114 2.114 0 0 0-1.104-.296c-.405 0-.773.099-1.104.296-.33.192-.592.453-.784.784a2.13 2.13 0 0 0-.288 1.104v3.992c0 .405.096.773.288 1.104.192.325.454.587.784.784.33.192.699.288 1.104.288Zm10.531 1.832c-.816 0-1.535-.173-2.16-.52a3.787 3.787 0 0 1-1.463-1.464c-.347-.624-.52-1.344-.52-2.16v-3.712c0-.816.173-1.536.52-2.16.352-.624.84-1.11 1.463-1.456.624-.352 1.344-.528 2.16-.528.817 0 1.534.176 2.153.528a3.731 3.731 0 0 1 1.463 1.456c.353.624.529 1.344.529 2.16v3.712c0 .816-.177 1.536-.529 2.16a3.787 3.787 0 0 1-1.463 1.464c-.62.347-1.337.52-2.153.52Zm0-1.832c.406 0 .774-.096 1.105-.288.33-.197.591-.459.784-.784.191-.33.287-.699.287-1.104V68.24c0-.41-.096-.779-.287-1.104a2.126 2.126 0 0 0-.785-.784 2.114 2.114 0 0 0-1.104-.296c-.405 0-.773.099-1.103.296-.331.192-.593.453-.784.784a2.13 2.13 0 0 0-.288 1.104v3.992c0 .405.096.773.288 1.104.192.325.453.587.784.784.33.192.698.288 1.103.288Z"/><path fill="#868E96" d="m105.899 79.84 1.672-4.536.024 1.344-3.784-9.288h1.248l3.104 7.768h-.512l2.864-7.768h1.2l-4.64 12.48h-1.176ZM118.392 76v-3.216c-.288.144-.642.27-1.064.376a5.52 5.52 0 0 1-1.36.16c-.874 0-1.584-.195-2.128-.584-.544-.39-.898-.952-1.064-1.688a4.76 4.76 0 0 1-.112-.696 19.13 19.13 0 0 1-.04-1.088V67.36h1.184v1.904c0 .176.006.376.016.6.011.224.035.443.072.656.107.581.347 1.021.72 1.32.379.299.91.448 1.592.448.427 0 .83-.053 1.208-.16.384-.112.71-.261.976-.448v-4.32h1.176V76h-1.176Zm5.888.24c-.651 0-1.198-.117-1.64-.352-.438-.235-.766-.547-.984-.936a2.55 2.55 0 0 1-.328-1.272c0-.47.093-.87.28-1.2.192-.336.45-.61.776-.824.33-.213.712-.376 1.144-.488.437-.107.92-.2 1.448-.28a36.286 36.286 0 0 1 1.56-.216 50.4 50.4 0 0 0 1.344-.184l-.416.256c.016-.853-.15-1.485-.496-1.896-.347-.41-.95-.616-1.808-.616-.592 0-1.094.133-1.504.4-.406.267-.691.688-.857 1.264l-1.143-.336c.197-.773.594-1.373 1.192-1.8.597-.427 1.373-.64 2.328-.64.789 0 1.458.15 2.008.448.554.293.946.72 1.176 1.28.106.25.176.53.208.84.032.31.048.624.048.944V76h-1.048v-2.168l.304.128c-.294.741-.75 1.307-1.368 1.696-.619.39-1.36.584-2.224.584Zm.136-1.016c.549 0 1.029-.099 1.44-.296.41-.197.741-.467.992-.808.25-.347.413-.736.488-1.168.064-.277.098-.581.104-.912.005-.336.008-.587.008-.752l.448.232c-.4.053-.835.107-1.304.16a37.1 37.1 0 0 0-1.376.184c-.448.07-.854.152-1.216.248-.246.07-.483.168-.712.296-.23.123-.419.288-.568.496-.144.208-.216.467-.216.776 0 .25.061.493.184.728.128.235.33.43.608.584.282.155.656.232 1.12.232Zm9.866 1.016c-.869 0-1.605-.195-2.208-.584a3.721 3.721 0 0 1-1.376-1.608c-.309-.688-.469-1.477-.48-2.368.011-.907.176-1.701.496-2.384.32-.688.781-1.221 1.384-1.6.603-.384 1.333-.576 2.192-.576.875 0 1.635.213 2.28.64a3.223 3.223 0 0 1 1.336 1.752l-1.152.368a2.434 2.434 0 0 0-.968-1.2 2.672 2.672 0 0 0-1.504-.432c-.635 0-1.16.147-1.576.44-.416.288-.725.69-.928 1.208-.203.517-.307 1.112-.312 1.784.011 1.035.251 1.867.72 2.496.469.624 1.168.936 2.096.936.587 0 1.085-.133 1.496-.4.416-.272.731-.667.944-1.184l1.184.352c-.32.768-.789 1.355-1.408 1.76-.619.4-1.357.6-2.216.6Zm7.416-.24v-7.552h-3.064V67.36h7.304v1.088h-3.064V76h-1.176Zm12.63-8.64V76h-1.144v-6.728L148.448 76h-.992v-8.64h1.144v6.672l4.744-6.672h.984Zm5.829-1.024a2 2 0 0 1-1.04-.28 2.139 2.139 0 0 1-.752-.744 2.05 2.05 0 0 1-.272-1.04h.976c0 .299.107.555.32.768.213.213.469.32.768.32.304 0 .56-.107.768-.32.213-.213.32-.47.32-.768h.976a2.068 2.068 0 0 1-2.064 2.064Zm3.28 1.024V76h-1.144v-6.728L157.557 76h-.992v-8.64h1.144v6.672l4.744-6.672h.984Zm5.441 8.64v-8.64h3.56c.181 0 .4.01.656.032.261.021.504.061.728.12.485.128.874.39 1.168.784.298.395.448.87.448 1.424 0 .31-.048.587-.144.832-.091.24-.222.448-.392.624a1.6 1.6 0 0 1-.264.24c-.096.064-.19.117-.28.16.17.032.354.107.552.224a1.8 1.8 0 0 1 .704.736c.16.304.24.675.24 1.112 0 .592-.142 1.075-.424 1.448-.283.373-.662.63-1.136.768a3.466 3.466 0 0 1-.696.112c-.246.016-.478.024-.696.024h-4.024Zm1.184-1h2.784c.112 0 .253-.008.424-.024.17-.021.322-.048.456-.08.314-.08.544-.24.688-.48.149-.245.224-.512.224-.8 0-.379-.112-.688-.336-.928-.219-.245-.512-.395-.88-.448a2.225 2.225 0 0 0-.384-.048 9.211 9.211 0 0 0-.36-.008h-2.616V75Zm0-3.824h2.416c.138 0 .293-.008.464-.024.176-.021.328-.056.456-.104.277-.096.48-.261.608-.496.133-.235.2-.49.2-.768 0-.304-.072-.57-.216-.8-.139-.23-.35-.39-.632-.48-.192-.07-.4-.11-.624-.12-.219-.01-.358-.016-.416-.016h-2.256v2.808ZM52.232 98.24c-.87 0-1.63-.19-2.28-.568a4.14 4.14 0 0 1-1.528-1.592l.944-.6c.315.533.707.939 1.176 1.216.47.277 1.008.416 1.616.416.635 0 1.144-.147 1.528-.44.384-.293.576-.696.576-1.208 0-.352-.083-.632-.248-.84-.16-.208-.405-.357-.736-.448-.325-.09-.733-.136-1.224-.136h-1.024v-1.008h1.008c.597 0 1.077-.107 1.44-.32.368-.219.552-.56.552-1.024 0-.49-.184-.853-.552-1.088-.363-.24-.797-.36-1.304-.36-.512 0-.997.107-1.456.32a3.6 3.6 0 0 0-1.144.808l-.752-.792a4.307 4.307 0 0 1 1.512-1.08 4.819 4.819 0 0 1 1.928-.376c.555 0 1.056.099 1.504.296.453.192.81.475 1.072.848.267.373.4.821.4 1.344 0 .49-.12.915-.36 1.272-.235.357-.568.653-1 .888l-.064-.44c.373.07.683.219.928.448.245.23.427.504.544.824.117.32.176.645.176.976 0 .55-.144 1.024-.432 1.424-.283.395-.67.701-1.16.92-.485.213-1.032.32-1.64.32Zm7.47 0c-.651 0-1.198-.117-1.64-.352a2.387 2.387 0 0 1-.985-.936 2.553 2.553 0 0 1-.328-1.272c0-.47.094-.87.28-1.2.192-.336.451-.61.776-.824.331-.213.712-.376 1.144-.488.438-.107.92-.2 1.448-.28a36.417 36.417 0 0 1 1.56-.216 50.4 50.4 0 0 0 1.344-.184l-.416.256c.016-.853-.149-1.485-.496-1.896-.346-.41-.949-.616-1.808-.616-.592 0-1.093.133-1.504.4-.405.267-.69.688-.856 1.264l-1.144-.336c.198-.773.595-1.373 1.192-1.8.598-.427 1.374-.64 2.328-.64.79 0 1.459.15 2.008.448.555.293.947.72 1.176 1.28.107.25.176.53.208.84.032.31.048.624.048.944V98H62.99v-2.168l.304.128c-.293.741-.749 1.307-1.368 1.696-.618.39-1.36.584-2.224.584Zm.135-1.016c.55 0 1.03-.099 1.44-.296.411-.197.742-.467.992-.808.251-.347.414-.736.488-1.168.064-.277.099-.581.104-.912.006-.336.008-.587.008-.752l.448.232c-.4.053-.834.107-1.304.16-.464.053-.922.115-1.376.184-.448.07-.853.152-1.216.248-.245.07-.482.168-.712.296-.229.123-.418.288-.568.496-.144.208-.216.467-.216.776 0 .25.062.493.184.728.128.235.331.43.608.584.283.155.656.232 1.12.232Zm6.275.776.008-8.64h1.184v4.16l3.856-4.16h1.568l-4.048 4.32L73.256 98h-1.712l-4.24-4.16V98h-1.192Zm9.178 3.84 1.671-4.536.025 1.344L73.2 89.36h1.249l3.103 7.768h-.511l2.864-7.768h1.2l-4.64 12.48H75.29ZM82.487 98v-8.64h6.872V98h-1.176v-7.512h-4.52V98h-1.176Zm9.11 0 .007-8.64h1.184v4.16l3.856-4.16h1.568l-4.048 4.32L98.74 98h-1.712l-4.24-4.16V98h-1.192Zm10.417.24c-.651 0-1.197-.117-1.64-.352a2.386 2.386 0 0 1-.984-.936 2.553 2.553 0 0 1-.328-1.272c0-.47.093-.87.28-1.2.192-.336.45-.61.776-.824a3.904 3.904 0 0 1 1.144-.488c.437-.107.92-.2 1.448-.28a36.286 36.286 0 0 1 1.56-.216 50.4 50.4 0 0 0 1.344-.184l-.416.256c.016-.853-.149-1.485-.496-1.896-.347-.41-.949-.616-1.808-.616-.592 0-1.093.133-1.504.4-.405.267-.691.688-.856 1.264l-1.144-.336c.197-.773.594-1.373 1.192-1.8.597-.427 1.373-.64 2.328-.64.789 0 1.459.15 2.008.448.555.293.947.72 1.176 1.28.107.25.176.53.208.84.032.31.048.624.048.944V98h-1.048v-2.168l.304.128c-.293.741-.749 1.307-1.368 1.696-.619.39-1.36.584-2.224.584Zm.136-1.016c.549 0 1.029-.099 1.44-.296.411-.197.741-.467.992-.808.251-.347.413-.736.488-1.168.064-.277.099-.581.104-.912.005-.336.008-.587.008-.752l.448.232c-.4.053-.835.107-1.304.16a37.1 37.1 0 0 0-1.376.184c-.448.07-.853.152-1.216.248-.245.07-.483.168-.712.296a1.644 1.644 0 0 0-.568.496c-.144.208-.216.467-.216.776 0 .25.061.493.184.728a1.5 1.5 0 0 0 .608.584c.283.155.656.232 1.12.232Zm5.323.776 3.376-4.368-3.304-4.272h1.408l2.583 3.368 2.561-3.368h1.408l-3.304 4.272L115.585 98h-1.416l-2.633-3.464L108.889 98h-1.416Z"/><path fill="#343A40" d="M36.047 125.224a2.35 2.35 0 0 1-1.168-.296 2.262 2.262 0 0 1-.84-.808 2.255 2.255 0 0 1-.304-1.16c0-.432.104-.819.312-1.16.208-.347.485-.616.832-.808a2.322 2.322 0 0 1 1.168-.296c.4 0 .768.099 1.104.296a2.227 2.227 0 0 1 1.12 1.968c0 .427-.101.813-.304 1.16a2.237 2.237 0 0 1-.816.808 2.144 2.144 0 0 1-1.104.296Z"/><path fill="#4D508F" d="M51.12 128v-9.416l-2.16 1.32v-2.128l2.16-1.296h1.968V128H51.12Zm10.219 0v-9.416l-2.16 1.32v-2.128l2.16-1.296h1.968V128h-1.968Zm9.8 0v-1.904h-5.105v-1.8l3.688-7.816h2.2l-3.688 7.816h2.904v-3h1.952v3h1.08v1.8h-1.08V128h-1.952Zm8.246.216c-.576 0-1.12-.112-1.632-.336a3.948 3.948 0 0 1-1.336-.952 3.682 3.682 0 0 1-.808-1.456l1.864-.504c.133.459.376.813.728 1.064.357.245.75.365 1.176.36.378 0 .717-.088 1.016-.264.298-.176.533-.413.704-.712.17-.304.256-.643.256-1.016 0-.571-.184-1.048-.552-1.432-.368-.384-.843-.576-1.424-.576-.176 0-.35.024-.52.072a2.36 2.36 0 0 0-.48.2l-.88-1.52 3.872-3.312.168.464h-5.48v-1.816h7.064v1.824l-3.112 2.992-.016-.568c.698.048 1.293.243 1.784.584a3.35 3.35 0 0 1 1.136 1.32c.266.539.4 1.128.4 1.768 0 .725-.179 1.376-.536 1.952a3.853 3.853 0 0 1-1.424 1.368 3.963 3.963 0 0 1-1.968.496Z"/><path fill="#868E96" d="M88.58 128v-8.64h6.873V128h-1.176v-7.512h-4.52V128H88.58Zm12.726.24c-.859 0-1.592-.195-2.2-.584a3.798 3.798 0 0 1-1.4-1.616c-.325-.688-.488-1.477-.488-2.368 0-.907.165-1.701.496-2.384.33-.683.8-1.213 1.408-1.592.614-.384 1.341-.576 2.184-.576.864 0 1.6.195 2.208.584a3.68 3.68 0 0 1 1.4 1.608c.325.683.488 1.469.488 2.36 0 .907-.163 1.704-.488 2.392a3.737 3.737 0 0 1-1.408 1.6c-.613.384-1.347.576-2.2.576Zm0-1.128c.96 0 1.675-.317 2.144-.952.469-.64.704-1.469.704-2.488 0-1.045-.237-1.877-.712-2.496-.469-.619-1.181-.928-2.136-.928-.645 0-1.179.147-1.6.44-.416.288-.728.691-.936 1.208-.203.512-.304 1.104-.304 1.776 0 1.04.24 1.875.72 2.504.48.624 1.187.936 2.12.936Zm9.325 1.136c-.805-.005-1.496-.181-2.072-.528-.576-.347-1.024-.864-1.344-1.552-.315-.688-.485-1.547-.512-2.576-.016-.453-.005-.947.032-1.48.037-.539.096-1.051.176-1.536.08-.485.176-.88.288-1.184a4.09 4.09 0 0 1 .592-1.104c.261-.347.563-.629.904-.848a4.012 4.012 0 0 1 1.12-.52 9.346 9.346 0 0 1 1.312-.296c.459-.069.912-.131 1.36-.184.453-.053.872-.12 1.256-.2l.128 1.064c-.293.059-.64.112-1.04.16s-.819.107-1.256.176c-.437.064-.856.152-1.256.264-.4.112-.741.259-1.024.44-.432.261-.765.656-1 1.184-.229.528-.371 1.133-.424 1.816a3.153 3.153 0 0 1 1.312-1.168 4.103 4.103 0 0 1 1.784-.392c.779 0 1.448.179 2.008.536.565.357 1 .853 1.304 1.488.304.635.456 1.363.456 2.184 0 .859-.168 1.608-.504 2.248a3.567 3.567 0 0 1-1.416 1.488c-.613.347-1.341.52-2.184.52Zm.088-1.128c.907 0 1.595-.283 2.064-.848.475-.565.712-1.317.712-2.256 0-.96-.245-1.717-.736-2.272-.485-.555-1.171-.832-2.056-.832s-1.565.277-2.04.832c-.475.555-.712 1.312-.712 2.272 0 .96.237 1.717.712 2.272.475.555 1.16.832 2.056.832Zm9.432 1.12c-.843 0-1.573-.187-2.192-.56a3.8 3.8 0 0 1-1.432-1.576c-.341-.677-.512-1.472-.512-2.384 0-.944.168-1.76.504-2.448.336-.688.808-1.219 1.416-1.592.613-.373 1.336-.56 2.168-.56.853 0 1.581.197 2.184.592.603.389 1.059.949 1.368 1.68.309.731.451 1.603.424 2.616h-1.2v-.416c-.021-1.12-.264-1.965-.728-2.536-.459-.571-1.131-.856-2.016-.856-.928 0-1.64.301-2.136.904-.491.603-.736 1.461-.736 2.576 0 1.088.245 1.933.736 2.536.496.597 1.197.896 2.104.896.619 0 1.157-.141 1.616-.424.464-.288.829-.701 1.096-1.24l1.096.424a3.915 3.915 0 0 1-1.512 1.752c-.661.411-1.411.616-2.248.616Zm-3.304-4.232v-.984h6.6v.984h-6.6Zm8.367 5.912v-2.928c.491 0 .843-.157 1.056-.472.214-.32.387-.829.52-1.528.091-.453.166-.941.224-1.464.059-.523.11-1.12.152-1.792.043-.677.083-1.469.12-2.376h5.712v7.632h.832v2.928h-1.136V128h-6.352v1.92h-1.128Zm1.992-2.928h4.624v-6.624h-3.456c-.016.405-.04.835-.072 1.288-.026.453-.061.907-.104 1.36-.037.453-.082.88-.136 1.28a9.8 9.8 0 0 1-.176 1.04c-.08.384-.168.712-.264.984a1.59 1.59 0 0 1-.416.672Z"/><path fill="#343A40" d="M36.047 155.224a2.35 2.35 0 0 1-1.168-.296 2.262 2.262 0 0 1-.84-.808 2.255 2.255 0 0 1-.304-1.16c0-.432.104-.819.312-1.16.208-.347.485-.616.832-.808a2.322 2.322 0 0 1 1.168-.296c.4 0 .768.099 1.104.296a2.227 2.227 0 0 1 1.12 1.968c0 .427-.101.813-.304 1.16a2.237 2.237 0 0 1-.816.808 2.144 2.144 0 0 1-1.104.296Z"/><path fill="#4D508F" d="M52.84 146.256c.752 0 1.43.179 2.032.536a3.783 3.783 0 0 1 1.424 1.472c.352.624.528 1.344.528 2.16v3.512c0 .869-.176 1.629-.528 2.28a3.665 3.665 0 0 1-1.464 1.496c-.63.352-1.365.528-2.208.528-.581 0-1.13-.099-1.648-.296a3.99 3.99 0 0 1-1.392-.928l1.384-1.352c.208.24.456.429.744.568.293.133.597.2.912.2.448 0 .84-.104 1.176-.312a2.249 2.249 0 0 0 1.064-1.92v-1.912l.344.384c-.325.384-.72.685-1.184.904a3.47 3.47 0 0 1-1.464.32c-.72 0-1.36-.165-1.92-.496a3.61 3.61 0 0 1-1.312-1.344c-.315-.571-.472-1.216-.472-1.936s.181-1.371.544-1.952a3.977 3.977 0 0 1 1.448-1.392 3.949 3.949 0 0 1 1.992-.52Zm0 1.84a2.029 2.029 0 0 0-2.032 2.024c0 .373.088.715.264 1.024a1.991 1.991 0 0 0 1.752 1.008 2.029 2.029 0 0 0 1.76-1.008c.187-.309.28-.651.28-1.024 0-.363-.09-.696-.272-1a2.098 2.098 0 0 0-.736-.744 1.9 1.9 0 0 0-1.016-.28Zm9.633 10.144c-.586 0-1.133-.12-1.64-.36a4.03 4.03 0 0 1-1.311-1.008 3.915 3.915 0 0 1-.785-1.488l1.856-.496c.075.309.211.576.408.8.203.224.438.397.705.52.271.123.551.184.84.184.373 0 .714-.091 1.023-.272a1.988 1.988 0 0 0 1.008-1.752c0-.373-.093-.712-.28-1.016a1.97 1.97 0 0 0-.735-.728 1.976 1.976 0 0 0-1.017-.272c-.442 0-.81.08-1.104.24-.288.16-.509.331-.663.512l-1.648-.528.351-6.096h6.256v1.808h-5.223l.72-.68-.257 4.24-.351-.432a2.903 2.903 0 0 1 1.04-.608c.394-.133.776-.2 1.144-.2.72 0 1.357.165 1.912.496.56.325.997.771 1.312 1.336.32.565.48 1.208.48 1.928s-.187 1.373-.56 1.96a4.172 4.172 0 0 1-1.48 1.392 3.964 3.964 0 0 1-2 .52Zm5.8 1.8.112-.832c.245.021.44-.021.584-.128a.732.732 0 0 0 .288-.44c.053-.187.066-.4.04-.64h-1.025v-2.056h1.977v2.136c0 .699-.166 1.227-.496 1.584-.331.357-.825.483-1.48.376Zm8.739-13.784c.752 0 1.43.179 2.032.536a3.784 3.784 0 0 1 1.424 1.472c.352.624.528 1.344.528 2.16v3.512c0 .869-.176 1.629-.528 2.28a3.665 3.665 0 0 1-1.464 1.496c-.63.352-1.366.528-2.208.528-.582 0-1.13-.099-1.648-.296a3.989 3.989 0 0 1-1.392-.928l1.384-1.352c.208.24.456.429.744.568.293.133.597.2.912.2.448 0 .84-.104 1.176-.312a2.25 2.25 0 0 0 1.064-1.92v-1.912l.344.384c-.325.384-.72.685-1.184.904a3.47 3.47 0 0 1-1.464.32c-.72 0-1.36-.165-1.92-.496a3.61 3.61 0 0 1-1.312-1.344c-.315-.571-.472-1.216-.472-1.936s.181-1.371.544-1.952a3.977 3.977 0 0 1 1.448-1.392 3.949 3.949 0 0 1 1.992-.52Zm0 1.84a2.028 2.028 0 0 0-2.032 2.024c0 .373.088.715.264 1.024a1.99 1.99 0 0 0 1.752 1.008 2.03 2.03 0 0 0 1.76-1.008c.186-.309.28-.651.28-1.024 0-.363-.09-.696-.272-1a2.099 2.099 0 0 0-.736-.744 1.9 1.9 0 0 0-1.016-.28ZM84.829 158l-1.28-1.28 10.248-10.24 1.28 1.288L84.83 158Zm7.848.24c-.528 0-1.01-.128-1.448-.384a3.03 3.03 0 0 1-1.04-1.04 2.784 2.784 0 0 1-.392-1.456c0-.523.134-1.003.4-1.44a3.055 3.055 0 0 1 1.056-1.048 2.73 2.73 0 0 1 1.424-.392c.528 0 1.011.131 1.448.392.438.256.784.603 1.04 1.04.262.432.392.915.392 1.448 0 .533-.13 1.019-.392 1.456a2.941 2.941 0 0 1-1.04 1.04c-.437.256-.92.384-1.448.384Zm0-1.648c.219 0 .422-.056.608-.168.192-.112.344-.261.456-.448.112-.187.168-.392.168-.616 0-.224-.056-.429-.168-.616a1.264 1.264 0 0 0-.456-.448 1.16 1.16 0 0 0-.608-.168c-.224 0-.429.056-.616.168a1.353 1.353 0 0 0-.456.448 1.176 1.176 0 0 0-.168.616c0 .224.056.429.168.616.118.187.27.336.456.448.187.112.392.168.616.168ZM85.95 152c-.528 0-1.01-.128-1.448-.384a3.007 3.007 0 0 1-1.048-1.04 2.829 2.829 0 0 1-.384-1.456c0-.523.134-1.003.4-1.44a3.055 3.055 0 0 1 1.056-1.048 2.73 2.73 0 0 1 1.424-.392c.528 0 1.008.131 1.44.392.438.256.787.603 1.048 1.04.262.432.392.915.392 1.448 0 .533-.13 1.019-.392 1.456-.261.432-.61.779-1.048 1.04a2.772 2.772 0 0 1-1.44.384Zm0-1.648c.224 0 .43-.056.616-.168.187-.112.336-.261.448-.448.112-.187.168-.392.168-.616 0-.224-.056-.429-.168-.616a1.285 1.285 0 0 0-.448-.448 1.175 1.175 0 0 0-.616-.168c-.224 0-.429.056-.616.168a1.284 1.284 0 0 0-.448.448 1.176 1.176 0 0 0-.168.616c0 .224.056.429.168.616.112.187.262.336.448.448.187.112.392.168.616.168Z"/><path fill="#868E96" d="M103.402 159.92v-2.928c.491 0 .843-.157 1.056-.472.213-.32.387-.829.52-1.528.091-.453.165-.941.224-1.464s.109-1.12.152-1.792c.043-.677.083-1.469.12-2.376h5.712v7.632h.832v2.928h-1.136V158h-6.352v1.92h-1.128Zm1.992-2.928h4.624v-6.624h-3.456c-.016.405-.04.835-.072 1.288-.027.453-.061.907-.104 1.36-.037.453-.083.88-.136 1.28-.048.395-.107.741-.176 1.04-.08.384-.168.712-.264.984a1.599 1.599 0 0 1-.416.672Zm11.834 1.248c-.859 0-1.592-.195-2.2-.584a3.796 3.796 0 0 1-1.4-1.616c-.325-.688-.488-1.477-.488-2.368 0-.907.165-1.701.496-2.384.331-.683.8-1.213 1.408-1.592.613-.384 1.341-.576 2.184-.576.864 0 1.6.195 2.208.584a3.68 3.68 0 0 1 1.4 1.608c.325.683.488 1.469.488 2.36 0 .907-.163 1.704-.488 2.392a3.737 3.737 0 0 1-1.408 1.6c-.613.384-1.347.576-2.2.576Zm0-1.128c.96 0 1.675-.317 2.144-.952.469-.64.704-1.469.704-2.488 0-1.045-.237-1.877-.712-2.496-.469-.619-1.181-.928-2.136-.928-.645 0-1.179.147-1.6.44-.416.288-.728.691-.936 1.208-.203.512-.304 1.104-.304 1.776 0 1.04.24 1.875.72 2.504.48.624 1.187.936 2.12.936Zm5.853.888v-8.64h6.872V158h-1.176v-7.512h-4.52V158h-1.176Zm10.349 3.84 1.672-4.536.024 1.344-3.784-9.288h1.248l3.104 7.768h-.512l2.864-7.768h1.2l-4.64 12.48h-1.176Zm10.477-3.6c-.869 0-1.605-.195-2.208-.584a3.718 3.718 0 0 1-1.376-1.608c-.309-.688-.469-1.477-.48-2.368.011-.907.176-1.701.496-2.384.32-.688.781-1.221 1.384-1.6.603-.384 1.333-.576 2.192-.576.875 0 1.635.213 2.28.64a3.225 3.225 0 0 1 1.336 1.752l-1.152.368a2.436 2.436 0 0 0-.968-1.2 2.672 2.672 0 0 0-1.504-.432c-.635 0-1.16.147-1.576.44-.416.288-.725.691-.928 1.208-.203.517-.307 1.112-.312 1.784.011 1.035.251 1.867.72 2.496.469.624 1.168.936 2.096.936.587 0 1.085-.133 1.496-.4.416-.272.731-.667.944-1.184l1.184.352c-.32.768-.789 1.355-1.408 1.76-.619.4-1.357.6-2.216.6Zm5.268-.24.008-8.64h1.184v4.16l3.856-4.16h1.568l-4.048 4.32 4.576 4.32h-1.712l-4.24-4.16V158h-1.192Zm11.397.24c-.859 0-1.592-.195-2.2-.584a3.796 3.796 0 0 1-1.4-1.616c-.326-.688-.488-1.477-.488-2.368 0-.907.165-1.701.496-2.384.33-.683.8-1.213 1.408-1.592.613-.384 1.341-.576 2.184-.576.864 0 1.6.195 2.208.584a3.68 3.68 0 0 1 1.4 1.608c.325.683.488 1.469.488 2.36 0 .907-.163 1.704-.488 2.392a3.743 3.743 0 0 1-1.408 1.6c-.614.384-1.347.576-2.2.576Zm0-1.128c.96 0 1.674-.317 2.144-.952.469-.64.704-1.469.704-2.488 0-1.045-.238-1.877-.712-2.496-.47-.619-1.182-.928-2.136-.928-.646 0-1.179.147-1.6.44-.416.288-.728.691-.936 1.208-.203.512-.304 1.104-.304 1.776 0 1.04.24 1.875.72 2.504.48.624 1.186.936 2.12.936Zm5.853.888v-8.64h3.56c.181 0 .4.011.656.032.261.021.504.061.728.12.485.128.874.389 1.168.784.298.395.448.869.448 1.424 0 .309-.048.587-.144.832-.091.24-.222.448-.392.624-.08.091-.168.171-.264.24-.096.064-.19.117-.28.16.17.032.354.107.552.224a1.8 1.8 0 0 1 .704.736c.16.304.24.675.24 1.112 0 .592-.142 1.075-.424 1.448a2.14 2.14 0 0 1-1.136.768 3.445 3.445 0 0 1-.696.112c-.246.016-.478.024-.696.024h-4.024Zm1.184-1h2.784c.112 0 .253-.008.424-.024a4.18 4.18 0 0 0 .456-.08c.314-.08.544-.24.688-.48.149-.245.224-.512.224-.8 0-.379-.112-.688-.336-.928-.219-.245-.512-.395-.88-.448a2.168 2.168 0 0 0-.384-.048 9.842 9.842 0 0 0-.36-.008h-2.616V157Zm0-3.824h2.416c.138 0 .293-.008.464-.024a1.97 1.97 0 0 0 .456-.104c.277-.096.48-.261.608-.496.133-.235.2-.491.2-.768 0-.304-.072-.571-.216-.8a1.105 1.105 0 0 0-.632-.48 2.147 2.147 0 0 0-.624-.12 11.01 11.01 0 0 0-.416-.016h-2.256v2.808Z"/><path fill="#343A40" d="M36.047 185.224a2.35 2.35 0 0 1-1.168-.296 2.262 2.262 0 0 1-.84-.808 2.255 2.255 0 0 1-.304-1.16c0-.432.104-.819.312-1.16.208-.347.485-.616.832-.808a2.322 2.322 0 0 1 1.168-.296c.4 0 .768.099 1.104.296a2.227 2.227 0 0 1 1.12 1.968c0 .427-.101.813-.304 1.16a2.237 2.237 0 0 1-.816.808 2.144 2.144 0 0 1-1.104.296Z"/><path fill="#4D508F" d="M52.536 188.24c-.587 0-1.133-.12-1.64-.36a4.03 4.03 0 0 1-1.312-1.008 3.915 3.915 0 0 1-.784-1.488l1.856-.496c.075.309.21.576.408.8.203.224.437.397.704.52.272.123.552.184.84.184.373 0 .715-.091 1.024-.272a1.988 1.988 0 0 0 1.008-1.752c0-.373-.093-.712-.28-1.016a1.97 1.97 0 0 0-.736-.728 1.976 1.976 0 0 0-1.016-.272c-.443 0-.81.08-1.104.24-.288.16-.51.331-.664.512l-1.648-.528.352-6.096H55.8v1.808h-5.224l.72-.68-.256 4.24-.352-.432a2.903 2.903 0 0 1 1.04-.608c.395-.133.776-.2 1.144-.2.72 0 1.357.165 1.912.496.56.325.997.771 1.312 1.336.32.565.48 1.208.48 1.928s-.187 1.373-.56 1.96a4.172 4.172 0 0 1-1.48 1.392 3.964 3.964 0 0 1-2 .52Zm9.943 0c-.752 0-1.43-.176-2.032-.528a3.917 3.917 0 0 1-1.424-1.48c-.352-.629-.528-1.352-.528-2.168v-3.504c0-.875.173-1.635.52-2.28a3.717 3.717 0 0 1 1.472-1.496c.635-.352 1.37-.528 2.208-.528.581 0 1.133.099 1.656.296.523.192.987.501 1.392.928l-1.392 1.352a2.184 2.184 0 0 0-.744-.568 2.072 2.072 0 0 0-.912-.208c-.448 0-.84.107-1.176.32a2.195 2.195 0 0 0-.784.824 2.302 2.302 0 0 0-.272 1.096v1.912l-.352-.384a3.46 3.46 0 0 1 1.192-.896c.464-.219.95-.328 1.456-.328.725 0 1.365.165 1.92.496.555.325.992.773 1.312 1.344.32.565.48 1.211.48 1.936 0 .72-.184 1.373-.552 1.96a4.077 4.077 0 0 1-1.448 1.392 3.975 3.975 0 0 1-1.992.512Zm0-1.848c.373 0 .715-.088 1.024-.264.31-.181.555-.424.736-.728.187-.309.28-.651.28-1.024s-.09-.715-.272-1.024a2.029 2.029 0 0 0-.736-.736 1.9 1.9 0 0 0-1.016-.28c-.373 0-.715.093-1.024.28a2.029 2.029 0 0 0-1.008 1.76c0 .363.088.699.264 1.008.181.304.424.549.728.736.31.181.65.272 1.024.272Zm9.37 1.848c-.587 0-1.134-.12-1.64-.36a4.03 4.03 0 0 1-1.313-1.008 3.915 3.915 0 0 1-.784-1.488l1.857-.496c.074.309.21.576.407.8.203.224.438.397.704.52.273.123.552.184.84.184.374 0 .715-.091 1.025-.272a1.988 1.988 0 0 0 1.008-1.752c0-.373-.094-.712-.28-1.016a1.97 1.97 0 0 0-.737-.728 1.976 1.976 0 0 0-1.016-.272c-.442 0-.81.08-1.103.24-.288.16-.51.331-.664.512l-1.649-.528.352-6.096h6.257v1.808h-5.225l.72-.68-.255 4.24-.352-.432a2.903 2.903 0 0 1 1.04-.608c.394-.133.776-.2 1.144-.2.72 0 1.357.165 1.912.496.56.325.997.771 1.312 1.336.32.565.48 1.208.48 1.928s-.187 1.373-.56 1.96a4.172 4.172 0 0 1-1.48 1.392 3.964 3.964 0 0 1-2 .52Z"/><path fill="#868E96" d="M80.37 189.92v-2.928c.491 0 .843-.157 1.057-.472.213-.32.386-.829.52-1.528.09-.453.165-.941.224-1.464.058-.523.109-1.12.152-1.792.042-.677.082-1.469.12-2.376h5.712v7.632h.832v2.928H87.85V188h-6.352v1.92H80.37Zm1.993-2.928h4.624v-6.624H83.53c-.016.405-.04.835-.072 1.288-.027.453-.062.907-.104 1.36-.038.453-.083.88-.136 1.28a9.956 9.956 0 0 1-.176 1.04c-.08.384-.168.712-.264.984-.091.272-.23.496-.416.672Zm11.834 1.248c-.859 0-1.592-.195-2.2-.584a3.798 3.798 0 0 1-1.4-1.616c-.326-.688-.488-1.477-.488-2.368 0-.907.165-1.701.496-2.384.33-.683.8-1.213 1.408-1.592.613-.384 1.341-.576 2.184-.576.864 0 1.6.195 2.208.584.613.384 1.08.92 1.4 1.608.325.683.488 1.469.488 2.36 0 .907-.163 1.704-.488 2.392a3.737 3.737 0 0 1-1.408 1.6c-.614.384-1.347.576-2.2.576Zm0-1.128c.96 0 1.674-.317 2.144-.952.47-.64.704-1.469.704-2.488 0-1.045-.238-1.877-.712-2.496-.47-.619-1.182-.928-2.136-.928-.646 0-1.179.147-1.6.44-.416.288-.728.691-.936 1.208-.203.512-.304 1.104-.304 1.776 0 1.04.24 1.875.72 2.504.48.624 1.186.936 2.12.936Zm5.861.888v-8.64h5.92v1.128h-4.744V188h-1.176Zm10.889.24c-.859 0-1.592-.195-2.2-.584a3.796 3.796 0 0 1-1.4-1.616c-.326-.688-.488-1.477-.488-2.368 0-.907.165-1.701.496-2.384.33-.683.8-1.213 1.408-1.592.613-.384 1.341-.576 2.184-.576.864 0 1.6.195 2.208.584a3.68 3.68 0 0 1 1.4 1.608c.325.683.488 1.469.488 2.36 0 .907-.163 1.704-.488 2.392a3.743 3.743 0 0 1-1.408 1.6c-.614.384-1.347.576-2.2.576Zm0-1.128c.96 0 1.674-.317 2.144-.952.469-.64.704-1.469.704-2.488 0-1.045-.238-1.877-.712-2.496-.47-.619-1.182-.928-2.136-.928-.646 0-1.179.147-1.6.44-.416.288-.728.691-.936 1.208-.203.512-.304 1.104-.304 1.776 0 1.04.24 1.875.72 2.504.48.624 1.186.936 2.12.936Zm5.853.888v-8.64h3.56c.181 0 .4.011.656.032.261.021.504.061.728.12.485.128.874.389 1.168.784.298.395.448.869.448 1.424 0 .309-.048.587-.144.832-.091.24-.222.448-.392.624-.08.091-.168.171-.264.24-.096.064-.19.117-.28.16.17.032.354.107.552.224a1.8 1.8 0 0 1 .704.736c.16.304.24.675.24 1.112 0 .592-.142 1.075-.424 1.448a2.14 2.14 0 0 1-1.136.768 3.445 3.445 0 0 1-.696.112c-.246.016-.478.024-.696.024H116.8Zm1.184-1h2.784c.112 0 .253-.008.424-.024a4.18 4.18 0 0 0 .456-.08c.314-.08.544-.24.688-.48.149-.245.224-.512.224-.8 0-.379-.112-.688-.336-.928-.219-.245-.512-.395-.88-.448a2.168 2.168 0 0 0-.384-.048 9.842 9.842 0 0 0-.36-.008h-2.616V187Zm0-3.824h2.416c.138 0 .293-.008.464-.024a1.97 1.97 0 0 0 .456-.104c.277-.096.48-.261.608-.496.133-.235.2-.491.2-.768 0-.304-.072-.571-.216-.8a1.105 1.105 0 0 0-.632-.48 2.147 2.147 0 0 0-.624-.12 11.01 11.01 0 0 0-.416-.016h-2.256v2.808Zm10.994 5.064c-.859 0-1.592-.195-2.2-.584a3.796 3.796 0 0 1-1.4-1.616c-.325-.688-.488-1.477-.488-2.368 0-.907.165-1.701.496-2.384.331-.683.8-1.213 1.408-1.592.613-.384 1.341-.576 2.184-.576.864 0 1.6.195 2.208.584a3.68 3.68 0 0 1 1.4 1.608c.325.683.488 1.469.488 2.36 0 .907-.163 1.704-.488 2.392a3.737 3.737 0 0 1-1.408 1.6c-.613.384-1.347.576-2.2.576Zm0-1.128c.96 0 1.675-.317 2.144-.952.469-.64.704-1.469.704-2.488 0-1.045-.237-1.877-.712-2.496-.469-.619-1.181-.928-2.136-.928-.645 0-1.179.147-1.6.44-.416.288-.728.691-.936 1.208-.203.512-.304 1.104-.304 1.776 0 1.04.24 1.875.72 2.504.48.624 1.187.936 2.12.936Zm9.741 1.128c-.795 0-1.467-.2-2.016-.6-.55-.405-.966-.952-1.248-1.64-.283-.693-.424-1.469-.424-2.328 0-.875.141-1.653.424-2.336.288-.688.709-1.229 1.264-1.624.554-.395 1.237-.592 2.048-.592.789 0 1.466.2 2.032.6.565.4.997.944 1.296 1.632.304.688.456 1.461.456 2.32 0 .864-.152 1.64-.456 2.328-.304.688-.742 1.235-1.312 1.64-.571.4-1.259.6-2.064.6Zm-3.888 3.6v-12.48h1.056v6.504h.128v5.976h-1.184Zm3.768-4.696c.602 0 1.104-.152 1.504-.456.4-.304.698-.717.896-1.24.202-.528.304-1.12.304-1.776a4.96 4.96 0 0 0-.296-1.76c-.198-.523-.499-.936-.904-1.24-.4-.304-.91-.456-1.528-.456-.603 0-1.104.147-1.504.44-.395.293-.691.701-.888 1.224-.198.517-.296 1.115-.296 1.792 0 .667.098 1.264.296 1.792.197.523.496.933.896 1.232.4.299.906.448 1.52.448Zm9.317 1.096c-.859 0-1.592-.195-2.2-.584a3.796 3.796 0 0 1-1.4-1.616c-.326-.688-.488-1.477-.488-2.368 0-.907.165-1.701.496-2.384.33-.683.8-1.213 1.408-1.592.613-.384 1.341-.576 2.184-.576.864 0 1.6.195 2.208.584a3.68 3.68 0 0 1 1.4 1.608c.325.683.488 1.469.488 2.36 0 .907-.163 1.704-.488 2.392a3.743 3.743 0 0 1-1.408 1.6c-.614.384-1.347.576-2.2.576Zm0-1.128c.96 0 1.674-.317 2.144-.952.469-.64.704-1.469.704-2.488 0-1.045-.238-1.877-.712-2.496-.47-.619-1.182-.928-2.136-.928-.646 0-1.179.147-1.6.44-.416.288-.728.691-.936 1.208-.203.512-.304 1.104-.304 1.776 0 1.04.24 1.875.72 2.504.48.624 1.186.936 2.12.936Zm5.852.888v-8.64h3.56c.182 0 .4.011.656.032.262.021.504.061.728.12.486.128.875.389 1.168.784.299.395.448.869.448 1.424 0 .309-.048.587-.144.832-.09.24-.221.448-.392.624-.08.091-.168.171-.264.24a2.201 2.201 0 0 1-.28.16c.171.032.355.107.552.224.31.181.544.427.704.736.16.304.24.675.24 1.112 0 .592-.141 1.075-.424 1.448a2.132 2.132 0 0 1-1.136.768 3.422 3.422 0 0 1-.696.112c-.245.016-.477.024-.696.024h-4.024Zm1.184-1h2.784c.112 0 .254-.008.424-.024.171-.021.323-.048.456-.08.315-.08.544-.24.688-.48.15-.245.224-.512.224-.8 0-.379-.112-.688-.336-.928-.218-.245-.512-.395-.88-.448a2.144 2.144 0 0 0-.384-.048 9.748 9.748 0 0 0-.36-.008h-2.616V187Zm0-3.824h2.416c.139 0 .294-.008.464-.024a1.97 1.97 0 0 0 .456-.104 1.05 1.05 0 0 0 .608-.496c.134-.235.2-.491.2-.768 0-.304-.072-.571-.216-.8a1.099 1.099 0 0 0-.632-.48 2.147 2.147 0 0 0-.624-.12 10.862 10.862 0 0 0-.416-.016h-2.256v2.808Zm17.454-3.816V188h-1.144v-6.728L166.526 188h-.992v-8.64h1.144v6.672l4.744-6.672h.984Zm5.357 8.88c-.869 0-1.629-.189-2.28-.568a4.148 4.148 0 0 1-1.528-1.592l.944-.6c.315.533.707.939 1.176 1.216.47.277 1.008.416 1.616.416.635 0 1.144-.147 1.528-.44.384-.293.576-.696.576-1.208 0-.352-.082-.632-.248-.84-.16-.208-.405-.357-.736-.448-.325-.091-.733-.136-1.224-.136h-1.024v-1.008h1.008c.598 0 1.078-.107 1.44-.32.368-.219.552-.56.552-1.024 0-.491-.184-.853-.552-1.088-.362-.24-.797-.36-1.304-.36-.512 0-.997.107-1.456.32a3.606 3.606 0 0 0-1.144.808l-.752-.792a4.3 4.3 0 0 1 1.512-1.08 4.816 4.816 0 0 1 1.928-.376c.555 0 1.056.099 1.504.296.454.192.811.475 1.072.848.267.373.4.821.4 1.344 0 .491-.12.915-.36 1.272-.234.357-.568.653-1 .888l-.064-.44c.374.069.683.219.928.448.246.229.427.504.544.824.118.32.176.645.176.976 0 .549-.144 1.024-.432 1.424a2.777 2.777 0 0 1-1.16.92 4.04 4.04 0 0 1-1.64.32Zm-125.035 22c-.859 0-1.592-.195-2.2-.584a3.798 3.798 0 0 1-1.4-1.616c-.325-.688-.488-1.477-.488-2.368 0-.907.165-1.701.496-2.384.33-.683.8-1.213 1.408-1.592.613-.384 1.341-.576 2.184-.576.864 0 1.6.195 2.208.584.613.384 1.08.92 1.4 1.608.325.683.488 1.469.488 2.36 0 .907-.163 1.704-.488 2.392a3.737 3.737 0 0 1-1.408 1.6c-.613.384-1.347.576-2.2.576Zm0-1.128c.96 0 1.675-.317 2.144-.952.47-.64.704-1.469.704-2.488 0-1.045-.237-1.877-.712-2.496-.47-.619-1.181-.928-2.136-.928-.645 0-1.179.147-1.6.44-.416.288-.728.691-.936 1.208-.203.512-.304 1.104-.304 1.776 0 1.04.24 1.875.72 2.504.48.624 1.187.936 2.12.936Zm5.22 2.808v-2.928c.491 0 .843-.157 1.057-.472.213-.32.386-.829.52-1.528.09-.453.165-.941.224-1.464.058-.523.11-1.12.152-1.792.042-.677.082-1.469.12-2.376h5.712v7.632h.832v2.928h-1.136V210h-6.352v1.92h-1.128Zm1.993-2.928h4.624v-6.624h-3.456c-.016.405-.04.835-.072 1.288a39.12 39.12 0 0 1-.104 1.36c-.038.453-.083.88-.136 1.28a9.983 9.983 0 0 1-.176 1.04c-.08.384-.168.712-.264.984a1.6 1.6 0 0 1-.416.672ZM68.159 210v-8.64h1.176v3.752h4.872v-3.752h1.176V210h-1.176v-3.76h-4.872V210h-1.176Zm13.069.24c-.859 0-1.592-.195-2.2-.584a3.798 3.798 0 0 1-1.4-1.616c-.325-.688-.488-1.477-.488-2.368 0-.907.165-1.701.496-2.384.33-.683.8-1.213 1.408-1.592.613-.384 1.341-.576 2.184-.576.864 0 1.6.195 2.208.584.613.384 1.08.92 1.4 1.608.325.683.488 1.469.488 2.36 0 .907-.163 1.704-.488 2.392a3.737 3.737 0 0 1-1.408 1.6c-.613.384-1.347.576-2.2.576Zm0-1.128c.96 0 1.675-.317 2.144-.952.47-.64.704-1.469.704-2.488 0-1.045-.237-1.877-.712-2.496-.47-.619-1.181-.928-2.136-.928-.645 0-1.179.147-1.6.44-.416.288-.728.691-.936 1.208-.203.512-.304 1.104-.304 1.776 0 1.04.24 1.875.72 2.504.48.624 1.187.936 2.12.936Zm5.86.888v-8.64h5.92v1.128h-4.743V210h-1.176Zm10.89.24c-.859 0-1.592-.195-2.2-.584a3.798 3.798 0 0 1-1.4-1.616c-.325-.688-.488-1.477-.488-2.368 0-.907.165-1.701.496-2.384.33-.683.8-1.213 1.408-1.592.613-.384 1.341-.576 2.184-.576.864 0 1.6.195 2.208.584a3.68 3.68 0 0 1 1.4 1.608c.325.683.488 1.469.488 2.36 0 .907-.163 1.704-.488 2.392a3.737 3.737 0 0 1-1.408 1.6c-.613.384-1.347.576-2.2.576Zm0-1.128c.96 0 1.675-.317 2.144-.952.469-.64.704-1.469.704-2.488 0-1.045-.237-1.877-.712-2.496-.47-.619-1.181-.928-2.136-.928-.645 0-1.179.147-1.6.44-.416.288-.728.691-.936 1.208-.203.512-.304 1.104-.304 1.776 0 1.04.24 1.875.72 2.504.48.624 1.187.936 2.12.936Zm15.928-7.752V210h-1.144v-6.728L108.026 210h-.992v-8.64h1.144v6.672l4.744-6.672h.984Zm5.829 8.88c-.869 0-1.605-.195-2.208-.584a3.725 3.725 0 0 1-1.376-1.608c-.309-.688-.469-1.477-.48-2.368.011-.907.176-1.701.496-2.384.32-.688.782-1.221 1.384-1.6.603-.384 1.334-.576 2.192-.576.875 0 1.635.213 2.28.64a3.225 3.225 0 0 1 1.336 1.752l-1.152.368a2.431 2.431 0 0 0-.968-1.2 2.67 2.67 0 0 0-1.504-.432c-.634 0-1.16.147-1.576.44-.416.288-.725.691-.928 1.208-.202.517-.306 1.112-.312 1.784.011 1.035.251 1.867.72 2.496.47.624 1.168.936 2.096.936.587 0 1.086-.133 1.496-.4.416-.272.731-.667.944-1.184l1.184.352c-.32.768-.789 1.355-1.408 1.76-.618.4-1.357.6-2.216.6Zm7.417-.24v-7.552h-3.064v-1.088h7.304v1.088h-3.064V210h-1.176Zm9.217.24c-.859 0-1.592-.195-2.2-.584a3.796 3.796 0 0 1-1.4-1.616c-.326-.688-.488-1.477-.488-2.368 0-.907.165-1.701.496-2.384.33-.683.8-1.213 1.408-1.592.613-.384 1.341-.576 2.184-.576.864 0 1.6.195 2.208.584a3.68 3.68 0 0 1 1.4 1.608c.325.683.488 1.469.488 2.36 0 .907-.163 1.704-.488 2.392a3.743 3.743 0 0 1-1.408 1.6c-.614.384-1.347.576-2.2.576Zm0-1.128c.96 0 1.674-.317 2.144-.952.469-.64.704-1.469.704-2.488 0-1.045-.238-1.877-.712-2.496-.47-.619-1.182-.928-2.136-.928-.646 0-1.179.147-1.6.44-.416.288-.728.691-.936 1.208-.203.512-.304 1.104-.304 1.776 0 1.04.24 1.875.72 2.504.48.624 1.186.936 2.12.936Zm11.148.888v-3.216a5.322 5.322 0 0 1-1.064.376c-.421.107-.874.16-1.36.16-.874 0-1.584-.195-2.128-.584-.544-.389-.898-.952-1.064-1.688a4.773 4.773 0 0 1-.112-.696 19.13 19.13 0 0 1-.04-1.088v-1.904h1.184v1.904c0 .176.006.376.016.6.011.224.035.443.072.656.107.581.347 1.021.72 1.32.379.299.91.448 1.592.448.427 0 .83-.053 1.208-.16.384-.112.71-.261.976-.448v-4.32h1.176V210h-1.176Zm3.408 0v-8.64h1.176v3.752h4.872v-3.752h1.176V210h-1.176v-3.76h-4.872V210h-1.176Zm16.325-8.64V210h-1.144v-6.728L161.37 210h-.992v-8.64h1.144v6.672l4.744-6.672h.984Zm2.237 8.64.008-8.64h1.184v4.16l3.856-4.16h1.568l-4.048 4.32 4.576 4.32h-1.712l-4.24-4.16V210h-1.192Zm10.418.24c-.651 0-1.198-.117-1.64-.352-.438-.235-.766-.547-.984-.936a2.549 2.549 0 0 1-.328-1.272c0-.469.093-.869.28-1.2.192-.336.45-.611.776-.824a3.9 3.9 0 0 1 1.144-.488c.437-.107.92-.2 1.448-.28a37.258 37.258 0 0 1 1.56-.216c.512-.064.96-.125 1.344-.184l-.416.256c.016-.853-.15-1.485-.496-1.896-.347-.411-.95-.616-1.808-.616-.592 0-1.094.133-1.504.4-.406.267-.691.688-.857 1.264l-1.143-.336c.197-.773.594-1.373 1.192-1.8.597-.427 1.373-.64 2.328-.64.789 0 1.458.149 2.008.448.554.293.946.72 1.176 1.28.106.251.176.531.208.84.032.309.048.624.048.944V210h-1.048v-2.168l.304.128c-.294.741-.75 1.307-1.368 1.696-.619.389-1.36.584-2.224.584Zm.136-1.016c.549 0 1.029-.099 1.44-.296.41-.197.741-.467.992-.808.25-.347.413-.736.488-1.168.064-.277.098-.581.104-.912.005-.336.008-.587.008-.752l.448.232c-.4.053-.835.107-1.304.16a37.1 37.1 0 0 0-1.376.184c-.448.069-.854.152-1.216.248a3.26 3.26 0 0 0-.712.296c-.23.123-.419.288-.568.496-.144.208-.216.467-.216.776 0 .251.061.493.183.728.129.235.331.429.609.584.282.155.656.232 1.12.232Z"/><path fill="#343A40" d="M241.547 73.224c-.427 0-.816-.099-1.168-.296a2.262 2.262 0 0 1-.84-.808 2.253 2.253 0 0 1-.304-1.16c0-.432.104-.819.312-1.16.208-.347.485-.616.832-.808a2.32 2.32 0 0 1 1.168-.296c.4 0 .768.099 1.104.296a2.225 2.225 0 0 1 1.12 1.968c0 .427-.101.813-.304 1.16-.203.341-.475.61-.816.808a2.141 2.141 0 0 1-1.104.296Z"/><path fill="#4D508F" d="M258.34 64.256a3.91 3.91 0 0 1 2.032.536 3.781 3.781 0 0 1 1.424 1.472c.352.624.528 1.344.528 2.16v3.512c0 .87-.176 1.63-.528 2.28a3.667 3.667 0 0 1-1.464 1.496c-.629.352-1.365.528-2.208.528a4.585 4.585 0 0 1-1.648-.296 3.992 3.992 0 0 1-1.392-.928l1.384-1.352c.208.24.456.43.744.568.293.133.597.2.912.2.448 0 .84-.104 1.176-.312a2.246 2.246 0 0 0 1.064-1.92v-1.912l.344.384a3.47 3.47 0 0 1-1.184.904c-.464.213-.952.32-1.464.32-.72 0-1.36-.165-1.92-.496a3.604 3.604 0 0 1-1.312-1.344c-.315-.57-.472-1.216-.472-1.936s.181-1.37.544-1.952a3.982 3.982 0 0 1 1.448-1.392 3.952 3.952 0 0 1 1.992-.52Zm0 1.84a2.029 2.029 0 0 0-2.032 2.024c0 .373.088.715.264 1.024a1.988 1.988 0 0 0 1.752 1.008 2.029 2.029 0 0 0 1.76-1.008c.187-.31.28-.65.28-1.024a1.92 1.92 0 0 0-.272-1 2.093 2.093 0 0 0-.736-.744 1.904 1.904 0 0 0-1.016-.28Zm13.405 10.144c-.752 0-1.43-.176-2.032-.528a3.911 3.911 0 0 1-1.424-1.48c-.352-.63-.528-1.352-.528-2.168V68.56c0-.875.173-1.635.52-2.28a3.711 3.711 0 0 1 1.472-1.496c.634-.352 1.37-.528 2.208-.528.581 0 1.133.099 1.656.296.522.192.986.501 1.392.928l-1.392 1.352a2.186 2.186 0 0 0-.744-.568 2.076 2.076 0 0 0-.912-.208c-.448 0-.84.107-1.176.32a2.188 2.188 0 0 0-.784.824 2.294 2.294 0 0 0-.272 1.096v1.912l-.352-.384c.33-.384.728-.683 1.192-.896a3.374 3.374 0 0 1 1.456-.328c.725 0 1.365.165 1.92.496.554.325.992.773 1.312 1.344.32.565.48 1.21.48 1.936 0 .72-.184 1.373-.552 1.96a4.08 4.08 0 0 1-1.448 1.392 3.974 3.974 0 0 1-1.992.512Zm0-1.848c.373 0 .714-.088 1.024-.264.309-.181.554-.424.736-.728.186-.31.28-.65.28-1.024 0-.373-.091-.715-.272-1.024a2.037 2.037 0 0 0-.736-.736 1.904 1.904 0 0 0-1.016-.28c-.374 0-.715.093-1.024.28a2.021 2.021 0 0 0-1.008 1.76c0 .363.088.699.264 1.008.181.304.424.55.728.736.309.181.65.272 1.024.272Zm9.369 1.848c-.587 0-1.133-.12-1.64-.36a4.036 4.036 0 0 1-1.312-1.008 3.906 3.906 0 0 1-.784-1.488l1.856-.496c.075.31.211.576.408.8.203.224.437.397.704.52.272.123.552.184.84.184.373 0 .715-.09 1.024-.272a1.991 1.991 0 0 0 1.008-1.752 1.9 1.9 0 0 0-.28-1.016 1.968 1.968 0 0 0-.736-.728 1.972 1.972 0 0 0-1.016-.272c-.443 0-.811.08-1.104.24-.288.16-.509.33-.664.512l-1.648-.528.352-6.096h6.256v1.808h-5.224l.72-.68-.256 4.24-.352-.432a2.908 2.908 0 0 1 1.04-.608 3.57 3.57 0 0 1 1.144-.2c.72 0 1.357.165 1.912.496.56.325.997.77 1.312 1.336.32.565.48 1.208.48 1.928s-.187 1.373-.56 1.96a4.166 4.166 0 0 1-1.48 1.392 3.968 3.968 0 0 1-2 .52Zm6.543-.24 3.968-9.696h-5.032V64.48h7.096v1.824L289.737 76h-2.08Z"/><path fill="#868E96" d="M301.92 76.24c-.87 0-1.63-.19-2.28-.568a4.132 4.132 0 0 1-1.528-1.592l.944-.6c.314.533.706.939 1.176 1.216.469.277 1.008.416 1.616.416.634 0 1.144-.147 1.528-.44.384-.293.576-.696.576-1.208 0-.352-.083-.632-.248-.84-.16-.208-.406-.357-.736-.448-.326-.09-.734-.136-1.224-.136h-1.024v-1.008h1.007c.598 0 1.078-.107 1.441-.32.368-.219.552-.56.552-1.024 0-.49-.184-.853-.552-1.088-.363-.24-.798-.36-1.304-.36a3.41 3.41 0 0 0-1.456.32 3.588 3.588 0 0 0-1.144.808l-.752-.792a4.307 4.307 0 0 1 1.512-1.08 4.818 4.818 0 0 1 1.928-.376c.554 0 1.056.099 1.504.296.453.192.81.475 1.072.848.266.373.4.821.4 1.344 0 .49-.12.915-.36 1.272-.235.357-.568.653-1 .888l-.064-.44c.373.07.682.219.928.448.245.23.426.504.544.824.117.32.176.645.176.976 0 .55-.144 1.024-.432 1.424a2.79 2.79 0 0 1-1.16.92 4.038 4.038 0 0 1-1.64.32Zm7.469 0c-.651 0-1.197-.117-1.64-.352a2.391 2.391 0 0 1-.984-.936 2.55 2.55 0 0 1-.328-1.272c0-.47.093-.87.28-1.2.192-.336.451-.61.776-.824a3.904 3.904 0 0 1 1.144-.488c.437-.107.92-.2 1.448-.28a36.286 36.286 0 0 1 1.56-.216 50.4 50.4 0 0 0 1.344-.184l-.416.256c.016-.853-.149-1.485-.496-1.896-.347-.41-.949-.616-1.808-.616-.592 0-1.093.133-1.504.4-.405.267-.691.688-.856 1.264l-1.144-.336c.197-.773.595-1.373 1.192-1.8.597-.427 1.373-.64 2.328-.64.789 0 1.459.15 2.008.448.555.293.947.72 1.176 1.28.107.25.176.53.208.84.032.31.048.624.048.944V76h-1.048v-2.168l.304.128c-.293.741-.749 1.307-1.368 1.696-.619.39-1.36.584-2.224.584Zm.136-1.016c.549 0 1.029-.099 1.44-.296.411-.197.741-.467.992-.808.251-.347.413-.736.488-1.168.064-.277.099-.581.104-.912.005-.336.008-.587.008-.752l.448.232c-.4.053-.835.107-1.304.16a37.1 37.1 0 0 0-1.376.184c-.448.07-.853.152-1.216.248-.245.07-.483.168-.712.296a1.644 1.644 0 0 0-.568.496c-.144.208-.216.467-.216.776 0 .25.061.493.184.728a1.5 1.5 0 0 0 .608.584c.283.155.656.232 1.12.232ZM315.8 76v-8.64h3.56c.181 0 .4.01.656.032.261.021.504.061.728.12.485.128.874.39 1.168.784.298.395.448.87.448 1.424 0 .31-.048.587-.144.832-.091.24-.222.448-.392.624a1.6 1.6 0 0 1-.264.24c-.096.064-.19.117-.28.16.17.032.354.107.552.224a1.8 1.8 0 0 1 .704.736c.16.304.24.675.24 1.112 0 .592-.142 1.075-.424 1.448-.283.373-.662.63-1.136.768a3.466 3.466 0 0 1-.696.112c-.246.016-.478.024-.696.024H315.8Zm1.184-1h2.784c.112 0 .253-.008.424-.024.17-.021.322-.048.456-.08.314-.08.544-.24.688-.48.149-.245.224-.512.224-.8 0-.379-.112-.688-.336-.928-.219-.245-.512-.395-.88-.448a2.225 2.225 0 0 0-.384-.048 9.211 9.211 0 0 0-.36-.008h-2.616V75Zm0-3.824h2.416c.138 0 .293-.008.464-.024.176-.021.328-.056.456-.104.277-.096.48-.261.608-.496.133-.235.2-.49.2-.768 0-.304-.072-.57-.216-.8-.139-.23-.35-.39-.632-.48-.192-.07-.4-.11-.624-.12-.219-.01-.358-.016-.416-.016h-2.256v2.808Zm11.042 5.064c-.843 0-1.573-.187-2.192-.56a3.8 3.8 0 0 1-1.432-1.576c-.341-.677-.512-1.472-.512-2.384 0-.944.168-1.76.504-2.448.336-.688.808-1.219 1.416-1.592.613-.373 1.336-.56 2.168-.56.853 0 1.581.197 2.184.592.603.39 1.059.95 1.368 1.68.309.73.451 1.603.424 2.616h-1.2v-.416c-.021-1.12-.264-1.965-.728-2.536-.459-.57-1.131-.856-2.016-.856-.928 0-1.64.301-2.136.904-.491.603-.736 1.461-.736 2.576 0 1.088.245 1.933.736 2.536.496.597 1.197.896 2.104.896.619 0 1.157-.141 1.616-.424.464-.288.829-.701 1.096-1.24l1.096.424a3.915 3.915 0 0 1-1.512 1.752c-.661.41-1.411.616-2.248.616Zm-3.304-4.232v-.984h6.6v.984h-6.6Zm12.887 4.232c-.794 0-1.466-.2-2.016-.6-.549-.405-.965-.952-1.248-1.64-.282-.693-.424-1.47-.424-2.328 0-.875.142-1.653.424-2.336.288-.688.71-1.23 1.264-1.624.555-.395 1.238-.592 2.048-.592.79 0 1.467.2 2.032.6.566.4.998.944 1.296 1.632.304.688.456 1.461.456 2.32 0 .864-.152 1.64-.456 2.328-.304.688-.741 1.235-1.312 1.64-.57.4-1.258.6-2.064.6Zm-3.888 3.6V67.36h1.056v6.504h.128v5.976h-1.184Zm3.768-4.696c.603 0 1.104-.152 1.504-.456.4-.304.699-.717.896-1.24.203-.528.304-1.12.304-1.776 0-.65-.098-1.237-.296-1.76-.197-.523-.498-.936-.904-1.24-.4-.304-.909-.456-1.528-.456-.602 0-1.104.147-1.504.44-.394.293-.69.701-.888 1.224-.197.517-.296 1.115-.296 1.792 0 .667.099 1.264.296 1.792.198.523.496.933.896 1.232.4.299.907.448 1.52.448Zm5.701.856v-8.64h1.144v7.552h3.24V67.36h1.144v7.552h3.232V67.36h1.144V76h-9.904Zm15.805.24c-.843 0-1.574-.187-2.192-.56a3.794 3.794 0 0 1-1.432-1.576c-.342-.677-.512-1.472-.512-2.384 0-.944.168-1.76.504-2.448.336-.688.808-1.219 1.416-1.592.613-.373 1.336-.56 2.168-.56.853 0 1.581.197 2.184.592.602.39 1.058.95 1.368 1.68.309.73.45 1.603.424 2.616h-1.2v-.416c-.022-1.12-.264-1.965-.728-2.536-.459-.57-1.131-.856-2.016-.856-.928 0-1.64.301-2.136.904-.491.603-.736 1.461-.736 2.576 0 1.088.245 1.933.736 2.536.496.597 1.197.896 2.104.896.618 0 1.157-.141 1.616-.424.464-.288.829-.701 1.096-1.24l1.096.424c-.342.752-.846 1.336-1.512 1.752-.662.41-1.411.616-2.248.616Zm-3.304-4.232v-.984h6.6v.984h-6.6ZM364.69 76v-8.64h1.176v3.752h4.872V67.36h1.176V76h-1.176v-3.76h-4.872V76h-1.176Zm13.069.24c-.858 0-1.592-.195-2.2-.584a3.804 3.804 0 0 1-1.4-1.616c-.325-.688-.488-1.477-.488-2.368 0-.907.166-1.701.496-2.384.331-.683.8-1.213 1.408-1.592.614-.384 1.342-.576 2.184-.576.864 0 1.6.195 2.208.584.614.384 1.08.92 1.4 1.608.326.683.488 1.47.488 2.36 0 .907-.162 1.704-.488 2.392a3.732 3.732 0 0 1-1.408 1.6c-.613.384-1.346.576-2.2.576Zm0-1.128c.96 0 1.675-.317 2.144-.952.47-.64.704-1.47.704-2.488 0-1.045-.237-1.877-.712-2.496-.469-.619-1.181-.928-2.136-.928-.645 0-1.178.147-1.6.44-.416.288-.728.69-.936 1.208-.202.512-.304 1.104-.304 1.776 0 1.04.24 1.875.72 2.504.48.624 1.187.936 2.12.936ZM256.964 98v-7.552H253.9V89.36h7.304v1.088h-3.064V98h-1.176Zm9.421.24c-.842 0-1.573-.187-2.192-.56a3.807 3.807 0 0 1-1.432-1.576c-.341-.677-.512-1.472-.512-2.384 0-.944.168-1.76.504-2.448.336-.688.808-1.219 1.416-1.592.614-.373 1.336-.56 2.168-.56.854 0 1.582.197 2.184.592.603.39 1.059.95 1.368 1.68.31.73.451 1.603.424 2.616h-1.2v-.416c-.021-1.12-.264-1.965-.728-2.536-.458-.57-1.13-.856-2.016-.856-.928 0-1.64.301-2.136.904-.49.603-.736 1.461-.736 2.576 0 1.088.246 1.933.736 2.536.496.597 1.198.896 2.104.896.619 0 1.158-.141 1.616-.424.464-.288.83-.701 1.096-1.24l1.096.424a3.915 3.915 0 0 1-1.512 1.752c-.661.41-1.41.616-2.248.616Zm-3.304-4.232v-.984h6.6v.984h-6.6Zm9 3.992v-8.64h1.176v3.752h4.872V89.36h1.176V98h-1.176v-3.76h-4.872V98h-1.176Zm8.821 1.92v-2.928c.491 0 .843-.157 1.056-.472.213-.32.387-.83.52-1.528.091-.453.165-.941.224-1.464s.109-1.12.152-1.792c.043-.677.083-1.47.12-2.376h5.712v7.632h.832v2.928h-1.136V98h-6.352v1.92h-1.128Zm1.992-2.928h4.624v-6.624h-3.456c-.016.405-.04.835-.072 1.288-.027.453-.061.907-.104 1.36-.037.453-.083.88-.136 1.28-.048.395-.107.741-.176 1.04-.08.384-.168.712-.264.984a1.599 1.599 0 0 1-.416.672Zm11.882 1.248c-.843 0-1.573-.187-2.192-.56a3.8 3.8 0 0 1-1.432-1.576c-.341-.677-.512-1.472-.512-2.384 0-.944.168-1.76.504-2.448.336-.688.808-1.219 1.416-1.592.613-.373 1.336-.56 2.168-.56.853 0 1.581.197 2.184.592.603.39 1.059.95 1.368 1.68.309.73.451 1.603.424 2.616h-1.2v-.416c-.021-1.12-.264-1.965-.728-2.536-.459-.57-1.131-.856-2.016-.856-.928 0-1.64.301-2.136.904-.491.603-.736 1.461-.736 2.576 0 1.088.245 1.933.736 2.536.496.597 1.197.896 2.104.896.619 0 1.157-.141 1.616-.424.464-.288.829-.701 1.096-1.24l1.096.424a3.915 3.915 0 0 1-1.512 1.752c-.661.41-1.411.616-2.248.616Zm-3.304-4.232v-.984h6.6v.984h-6.6Zm12.887 4.232c-.794 0-1.466-.2-2.016-.6-.549-.405-.965-.952-1.248-1.64-.282-.693-.424-1.47-.424-2.328 0-.875.142-1.653.424-2.336.288-.688.71-1.23 1.264-1.624.555-.395 1.238-.592 2.048-.592.79 0 1.467.2 2.032.6.566.4.998.944 1.296 1.632.304.688.456 1.461.456 2.32 0 .864-.152 1.64-.456 2.328-.304.688-.741 1.235-1.312 1.64-.57.4-1.258.6-2.064.6Zm-3.888 3.6V89.36h1.056v6.504h.128v5.976h-1.184Zm3.768-4.696c.603 0 1.104-.152 1.504-.456.4-.304.699-.717.896-1.24.203-.528.304-1.12.304-1.776 0-.65-.098-1.237-.296-1.76-.197-.523-.498-.936-.904-1.24-.4-.304-.909-.456-1.528-.456-.602 0-1.104.147-1.504.44-.394.293-.69.701-.888 1.224-.197.517-.296 1.115-.296 1.792 0 .667.099 1.264.296 1.792.198.523.496.933.896 1.232.4.299.907.448 1.52.448Zm9.317 1.096c-.859 0-1.592-.195-2.2-.584a3.797 3.797 0 0 1-1.4-1.616c-.325-.688-.488-1.477-.488-2.368 0-.907.165-1.701.496-2.384.331-.683.8-1.213 1.408-1.592.613-.384 1.341-.576 2.184-.576.864 0 1.6.195 2.208.584a3.68 3.68 0 0 1 1.4 1.608c.325.683.488 1.47.488 2.36 0 .907-.163 1.704-.488 2.392a3.739 3.739 0 0 1-1.408 1.6c-.613.384-1.347.576-2.2.576Zm0-1.128c.96 0 1.675-.317 2.144-.952.469-.64.704-1.47.704-2.488 0-1.045-.237-1.877-.712-2.496-.469-.619-1.181-.928-2.136-.928-.645 0-1.179.147-1.6.44-.416.288-.728.69-.936 1.208-.203.512-.304 1.104-.304 1.776 0 1.04.24 1.875.72 2.504.48.624 1.187.936 2.12.936Zm5.853.888v-8.64h3.56c.181 0 .4.01.656.032.261.021.504.061.728.12.485.128.875.39 1.168.784.299.395.448.87.448 1.424 0 .31-.048.587-.144.832-.091.24-.221.448-.392.624a1.6 1.6 0 0 1-.264.24 2.165 2.165 0 0 1-.28.16c.171.032.355.107.552.224a1.8 1.8 0 0 1 .704.736c.16.304.24.675.24 1.112 0 .592-.141 1.075-.424 1.448-.283.373-.661.63-1.136.768a3.443 3.443 0 0 1-.696.112c-.245.016-.477.024-.696.024h-4.024Zm1.184-1h2.784c.112 0 .253-.008.424-.024.171-.021.323-.048.456-.08.315-.08.544-.24.688-.48.149-.245.224-.512.224-.8 0-.379-.112-.688-.336-.928-.219-.245-.512-.395-.88-.448a2.225 2.225 0 0 0-.384-.048 9.129 9.129 0 0 0-.36-.008h-2.616V97Zm0-3.824h2.416c.139 0 .293-.008.464-.024.176-.021.328-.056.456-.104.277-.096.48-.261.608-.496.133-.235.2-.49.2-.768 0-.304-.072-.57-.216-.8a1.1 1.1 0 0 0-.632-.48c-.192-.07-.4-.11-.624-.12-.219-.01-.357-.016-.416-.016h-2.256v2.808Z"/><path fill="#343A40" d="M241.547 125.224a2.35 2.35 0 0 1-1.168-.296 2.262 2.262 0 0 1-.84-.808 2.253 2.253 0 0 1-.304-1.16c0-.432.104-.819.312-1.16.208-.347.485-.616.832-.808a2.323 2.323 0 0 1 1.168-.296c.4 0 .768.099 1.104.296a2.224 2.224 0 0 1 1.12 1.968c0 .427-.101.813-.304 1.16a2.242 2.242 0 0 1-.816.808 2.144 2.144 0 0 1-1.104.296Z"/><path fill="#4D508F" d="M256.62 128v-9.416l-2.16 1.32v-2.128l2.16-1.296h1.968V128h-1.968Zm10.219 0v-9.416l-2.16 1.32v-2.128l2.16-1.296h1.968V128h-1.968Zm7.015 0v-9.416l-2.16 1.32v-2.128l2.16-1.296h1.968V128h-1.968Zm9.8 0v-1.904h-5.104v-1.8l3.688-7.816h2.2l-3.688 7.816h2.904v-3h1.952v3h1.08v1.8h-1.08V128h-1.952Z"/><path fill="#868E96" d="M291.168 129.92v-2.928c.49 0 .842-.157 1.056-.472.213-.32.386-.829.519-1.528.091-.453.166-.941.225-1.464.058-.523.109-1.12.152-1.792.042-.677.082-1.469.12-2.376h5.711v7.632h.833v2.928h-1.136V128h-6.352v1.92h-1.128Zm1.992-2.928h4.624v-6.624h-3.456c-.016.405-.04.835-.072 1.288-.027.453-.062.907-.104 1.36a26.9 26.9 0 0 1-.136 1.28c-.048.395-.107.741-.176 1.04-.08.384-.168.712-.264.984-.091.272-.23.496-.416.672Zm11.834 1.248c-.859 0-1.592-.195-2.2-.584a3.796 3.796 0 0 1-1.4-1.616c-.326-.688-.488-1.477-.488-2.368 0-.907.165-1.701.496-2.384.33-.683.8-1.213 1.408-1.592.613-.384 1.341-.576 2.184-.576.864 0 1.6.195 2.208.584a3.68 3.68 0 0 1 1.4 1.608c.325.683.488 1.469.488 2.36 0 .907-.163 1.704-.488 2.392a3.743 3.743 0 0 1-1.408 1.6c-.614.384-1.347.576-2.2.576Zm0-1.128c.96 0 1.674-.317 2.144-.952.469-.64.704-1.469.704-2.488 0-1.045-.238-1.877-.712-2.496-.47-.619-1.182-.928-2.136-.928-.646 0-1.179.147-1.6.44-.416.288-.728.691-.936 1.208-.203.512-.304 1.104-.304 1.776 0 1.04.24 1.875.72 2.504.48.624 1.186.936 2.12.936Zm5.86.888v-8.64h5.92v1.128h-4.744V128h-1.176Zm10.89.24c-.859 0-1.592-.195-2.2-.584a3.796 3.796 0 0 1-1.4-1.616c-.326-.688-.488-1.477-.488-2.368 0-.907.165-1.701.496-2.384.33-.683.8-1.213 1.408-1.592.613-.384 1.341-.576 2.184-.576.864 0 1.6.195 2.208.584a3.68 3.68 0 0 1 1.4 1.608c.325.683.488 1.469.488 2.36 0 .907-.163 1.704-.488 2.392a3.743 3.743 0 0 1-1.408 1.6c-.614.384-1.347.576-2.2.576Zm0-1.128c.96 0 1.674-.317 2.144-.952.469-.64.704-1.469.704-2.488 0-1.045-.238-1.877-.712-2.496-.47-.619-1.182-.928-2.136-.928-.646 0-1.179.147-1.6.44-.416.288-.728.691-.936 1.208-.203.512-.304 1.104-.304 1.776 0 1.04.24 1.875.72 2.504.48.624 1.186.936 2.12.936Zm5.852.888v-8.64h3.56c.182 0 .4.011.656.032.262.021.504.061.728.12.486.128.875.389 1.168.784.299.395.448.869.448 1.424 0 .309-.048.587-.144.832-.09.24-.221.448-.392.624-.08.091-.168.171-.264.24a2.201 2.201 0 0 1-.28.16c.171.032.355.107.552.224.31.181.544.427.704.736.16.304.24.675.24 1.112 0 .592-.141 1.075-.424 1.448a2.132 2.132 0 0 1-1.136.768 3.422 3.422 0 0 1-.696.112c-.245.016-.477.024-.696.024h-4.024Zm1.184-1h2.784c.112 0 .254-.008.424-.024.171-.021.323-.048.456-.08.315-.08.544-.24.688-.48.15-.245.224-.512.224-.8 0-.379-.112-.688-.336-.928-.218-.245-.512-.395-.88-.448a2.144 2.144 0 0 0-.384-.048 9.748 9.748 0 0 0-.36-.008h-2.616V127Zm0-3.824h2.416c.139 0 .294-.008.464-.024a1.97 1.97 0 0 0 .456-.104 1.05 1.05 0 0 0 .608-.496c.134-.235.2-.491.2-.768 0-.304-.072-.571-.216-.8a1.099 1.099 0 0 0-.632-.48 2.147 2.147 0 0 0-.624-.12 10.862 10.862 0 0 0-.416-.016h-2.256v2.808Zm10.995 5.064c-.859 0-1.592-.195-2.2-.584a3.796 3.796 0 0 1-1.4-1.616c-.325-.688-.488-1.477-.488-2.368 0-.907.165-1.701.496-2.384.331-.683.8-1.213 1.408-1.592.613-.384 1.341-.576 2.184-.576.864 0 1.6.195 2.208.584a3.68 3.68 0 0 1 1.4 1.608c.325.683.488 1.469.488 2.36 0 .907-.163 1.704-.488 2.392a3.737 3.737 0 0 1-1.408 1.6c-.613.384-1.347.576-2.2.576Zm0-1.128c.96 0 1.675-.317 2.144-.952.469-.64.704-1.469.704-2.488 0-1.045-.237-1.877-.712-2.496-.469-.619-1.181-.928-2.136-.928-.645 0-1.179.147-1.6.44-.416.288-.728.691-.936 1.208-.203.512-.304 1.104-.304 1.776 0 1.04.24 1.875.72 2.504.48.624 1.187.936 2.12.936Zm9.741 1.128c-.795 0-1.467-.2-2.016-.6-.55-.405-.966-.952-1.248-1.64-.283-.693-.424-1.469-.424-2.328 0-.875.141-1.653.424-2.336.288-.688.709-1.229 1.264-1.624.554-.395 1.237-.592 2.048-.592.789 0 1.466.2 2.032.6.565.4.997.944 1.296 1.632.304.688.456 1.461.456 2.32 0 .864-.152 1.64-.456 2.328-.304.688-.742 1.235-1.312 1.64-.571.4-1.259.6-2.064.6Zm-3.888 3.6v-12.48h1.056v6.504h.128v5.976h-1.184Zm3.768-4.696c.602 0 1.104-.152 1.504-.456.4-.304.698-.717.896-1.24.202-.528.304-1.12.304-1.776a4.96 4.96 0 0 0-.296-1.76c-.198-.523-.499-.936-.904-1.24-.4-.304-.91-.456-1.528-.456-.603 0-1.104.147-1.504.44-.395.293-.691.701-.888 1.224-.198.517-.296 1.115-.296 1.792 0 .667.098 1.264.296 1.792.197.523.496.933.896 1.232.4.299.906.448 1.52.448Zm9.316 1.096c-.858 0-1.592-.195-2.2-.584a3.802 3.802 0 0 1-1.4-1.616c-.325-.688-.488-1.477-.488-2.368 0-.907.166-1.701.496-2.384.331-.683.8-1.213 1.408-1.592.614-.384 1.342-.576 2.184-.576.864 0 1.6.195 2.208.584.614.384 1.08.92 1.4 1.608.326.683.488 1.469.488 2.36 0 .907-.162 1.704-.488 2.392a3.73 3.73 0 0 1-1.408 1.6c-.613.384-1.346.576-2.2.576Zm0-1.128c.96 0 1.675-.317 2.144-.952.47-.64.704-1.469.704-2.488 0-1.045-.237-1.877-.712-2.496-.469-.619-1.181-.928-2.136-.928-.645 0-1.178.147-1.6.44-.416.288-.728.691-.936 1.208-.202.512-.304 1.104-.304 1.776 0 1.04.24 1.875.72 2.504.48.624 1.187.936 2.12.936Zm5.853.888v-8.64h3.56c.181 0 .4.011.656.032.261.021.504.061.728.12.485.128.875.389 1.168.784.299.395.448.869.448 1.424 0 .309-.048.587-.144.832-.091.24-.221.448-.392.624-.08.091-.168.171-.264.24a2.201 2.201 0 0 1-.28.16c.171.032.355.107.552.224a1.8 1.8 0 0 1 .704.736c.16.304.24.675.24 1.112 0 .592-.141 1.075-.424 1.448a2.136 2.136 0 0 1-1.136.768 3.422 3.422 0 0 1-.696.112c-.245.016-.477.024-.696.024h-4.024Zm1.184-1h2.784c.112 0 .253-.008.424-.024.171-.021.323-.048.456-.08.315-.08.544-.24.688-.48.149-.245.224-.512.224-.8 0-.379-.112-.688-.336-.928-.219-.245-.512-.395-.88-.448a2.168 2.168 0 0 0-.384-.048 9.748 9.748 0 0 0-.36-.008h-2.616V127Zm0-3.824h2.416c.139 0 .293-.008.464-.024a1.97 1.97 0 0 0 .456-.104c.277-.096.48-.261.608-.496.133-.235.2-.491.2-.768 0-.304-.072-.571-.216-.8a1.102 1.102 0 0 0-.632-.48 2.147 2.147 0 0 0-.624-.12 10.936 10.936 0 0 0-.416-.016h-2.256v2.808Zm14.054 5.072c-.806-.005-1.496-.181-2.072-.528-.576-.347-1.024-.864-1.344-1.552-.315-.688-.486-1.547-.512-2.576-.016-.453-.006-.947.032-1.48.037-.539.096-1.051.176-1.536.08-.485.176-.88.288-1.184.138-.395.336-.763.592-1.104a3.47 3.47 0 0 1 .904-.848c.33-.224.704-.397 1.12-.52a9.314 9.314 0 0 1 1.312-.296c.458-.069.912-.131 1.36-.184.453-.053.872-.12 1.256-.2l.128 1.064c-.294.059-.64.112-1.04.16s-.819.107-1.256.176a10.03 10.03 0 0 0-1.256.264c-.4.112-.742.259-1.024.44-.432.261-.766.656-1 1.184-.23.528-.371 1.133-.424 1.816.33-.517.768-.907 1.312-1.168a4.103 4.103 0 0 1 1.784-.392c.778 0 1.448.179 2.008.536.565.357 1 .853 1.304 1.488.304.635.456 1.363.456 2.184 0 .859-.168 1.608-.504 2.248a3.567 3.567 0 0 1-1.416 1.488c-.614.347-1.342.52-2.184.52Zm.088-1.128c.906 0 1.594-.283 2.064-.848.474-.565.712-1.317.712-2.256 0-.96-.246-1.717-.736-2.272-.486-.555-1.171-.832-2.056-.832-.886 0-1.566.277-2.04.832-.475.555-.712 1.312-.712 2.272 0 .96.237 1.717.712 2.272.474.555 1.16.832 2.056.832Zm9.432 1.12c-.843 0-1.573-.187-2.192-.56a3.8 3.8 0 0 1-1.432-1.576c-.341-.677-.512-1.472-.512-2.384 0-.944.168-1.76.504-2.448.336-.688.808-1.219 1.416-1.592.613-.373 1.336-.56 2.168-.56.853 0 1.581.197 2.184.592.603.389 1.059.949 1.368 1.68.309.731.451 1.603.424 2.616h-1.2v-.416c-.021-1.12-.264-1.965-.728-2.536-.459-.571-1.131-.856-2.016-.856-.928 0-1.64.301-2.136.904-.491.603-.736 1.461-.736 2.576 0 1.088.245 1.933.736 2.536.496.597 1.197.896 2.104.896.619 0 1.157-.141 1.616-.424.464-.288.829-.701 1.096-1.24l1.096.424a3.915 3.915 0 0 1-1.512 1.752c-.661.411-1.411.616-2.248.616Zm-3.304-4.232v-.984h6.6v.984h-6.6Zm11.807 4.232c-.87 0-1.63-.189-2.28-.568a4.134 4.134 0 0 1-1.528-1.592l.944-.6c.314.533.706.939 1.176 1.216.469.277 1.008.416 1.616.416.634 0 1.144-.147 1.528-.44.384-.293.576-.696.576-1.208 0-.352-.083-.632-.248-.84-.16-.208-.406-.357-.736-.448-.326-.091-.734-.136-1.224-.136h-1.024v-1.008h1.008c.597 0 1.077-.107 1.44-.32.368-.219.552-.56.552-1.024 0-.491-.184-.853-.552-1.088-.363-.24-.798-.36-1.304-.36-.512 0-.998.107-1.456.32a3.584 3.584 0 0 0-1.144.808l-.752-.792a4.3 4.3 0 0 1 1.512-1.08 4.812 4.812 0 0 1 1.928-.376 3.7 3.7 0 0 1 1.504.296c.453.192.81.475 1.072.848.266.373.4.821.4 1.344 0 .491-.12.915-.36 1.272-.235.357-.568.653-1 .888l-.064-.44c.373.069.682.219.928.448.245.229.426.504.544.824.117.32.176.645.176.976 0 .549-.144 1.024-.432 1.424a2.79 2.79 0 0 1-1.16.92 4.043 4.043 0 0 1-1.64.32Zm-139.622 22c-.869 0-1.605-.195-2.208-.584a3.718 3.718 0 0 1-1.376-1.608c-.309-.688-.469-1.477-.48-2.368.011-.907.176-1.701.496-2.384.32-.688.781-1.221 1.384-1.6.603-.384 1.333-.576 2.192-.576.875 0 1.635.213 2.28.64a3.225 3.225 0 0 1 1.336 1.752l-1.152.368a2.436 2.436 0 0 0-.968-1.2 2.672 2.672 0 0 0-1.504-.432c-.635 0-1.16.147-1.576.44-.416.288-.725.691-.928 1.208-.203.517-.307 1.112-.312 1.784.011 1.035.251 1.867.72 2.496.469.624 1.168.936 2.096.936.587 0 1.085-.133 1.496-.4.416-.272.731-.667.944-1.184l1.184.352c-.32.768-.789 1.355-1.408 1.76-.619.4-1.357.6-2.216.6Zm5.267-.24v-8.64h1.176v3.752h4.872v-3.752h1.176V150h-1.176v-3.76h-4.872V150h-1.176Zm16.326-8.64V150h-1.144v-6.728L273.917 150h-.992v-8.64h1.144v6.672l4.744-6.672h.984Zm1.285 8.64 3.648-4.32-3.496-4.32h1.328l3.408 4.264v-4.264h1.088v4.264l3.408-4.264h1.32l-3.496 4.32 3.648 4.32h-1.368l-3.512-4.264V150h-1.088v-4.264L282.45 150h-1.368Zm15.475.24c-.842 0-1.573-.187-2.192-.56a3.807 3.807 0 0 1-1.432-1.576c-.341-.677-.512-1.472-.512-2.384 0-.944.168-1.76.504-2.448.336-.688.808-1.219 1.416-1.592.614-.373 1.336-.56 2.168-.56.854 0 1.582.197 2.184.592.603.389 1.059.949 1.368 1.68.31.731.451 1.603.424 2.616h-1.2v-.416c-.021-1.12-.264-1.965-.728-2.536-.458-.571-1.13-.856-2.016-.856-.928 0-1.64.301-2.136.904-.49.603-.736 1.461-.736 2.576 0 1.088.246 1.933.736 2.536.496.597 1.198.896 2.104.896.619 0 1.158-.141 1.616-.424.464-.288.83-.701 1.096-1.24l1.096.424a3.915 3.915 0 0 1-1.512 1.752c-.661.411-1.41.616-2.248.616Zm-3.304-4.232v-.984h6.6v.984h-6.6Zm9 3.992v-8.64h1.176v3.752h4.872v-3.752h1.176V150h-1.176v-3.76h-4.872V150h-1.176Zm16.325-8.64V150h-1.144v-6.728L312.698 150h-.992v-8.64h1.144v6.672l4.744-6.672h.984Zm7.661 8.64v-3.256h-2.016c-.235 0-.477-.008-.728-.024a8.041 8.041 0 0 1-.688-.088 2.98 2.98 0 0 1-1.552-.8c-.421-.421-.632-1.003-.632-1.744 0-.725.197-1.307.592-1.744a2.724 2.724 0 0 1 1.432-.864c.256-.059.515-.093.776-.104.267-.011.496-.016.688-.016h3.304l.008 8.64h-1.184Zm-5.896 0 2.408-3.624h1.304L321.631 150h-1.288Zm3.816-4.264h2.08v-3.368h-2.08c-.128 0-.307.005-.536.016a2.796 2.796 0 0 0-.648.104 1.694 1.694 0 0 0-.528.28 1.545 1.545 0 0 0-.432.52c-.117.213-.176.475-.176.784 0 .432.117.779.352 1.04.24.256.539.432.896.528.192.043.384.069.576.08.192.011.357.016.496.016Zm12.295 4.504c-.869 0-1.605-.195-2.208-.584a3.718 3.718 0 0 1-1.376-1.608c-.309-.688-.469-1.477-.48-2.368.011-.907.176-1.701.496-2.384.32-.688.781-1.221 1.384-1.6.603-.384 1.333-.576 2.192-.576.875 0 1.635.213 2.28.64a3.225 3.225 0 0 1 1.336 1.752l-1.152.368a2.436 2.436 0 0 0-.968-1.2 2.672 2.672 0 0 0-1.504-.432c-.635 0-1.16.147-1.576.44-.416.288-.725.691-.928 1.208-.203.517-.307 1.112-.312 1.784.011 1.035.251 1.867.72 2.496.469.624 1.168.936 2.096.936.587 0 1.085-.133 1.496-.4.416-.272.731-.667.944-1.184l1.184.352c-.32.768-.789 1.355-1.408 1.76-.619.4-1.357.6-2.216.6Zm6.195 3.6 1.672-4.536.024 1.344-3.784-9.288h1.248l3.104 7.768h-.512l2.864-7.768h1.2l-4.64 12.48h-1.176Zm7.197-3.84v-8.64h1.048l3.368 7.072 3.376-7.072h1.04V150h-1.136v-6.128L354.638 150h-.744l-2.904-6.128V150h-1.144Zm11.063 0v-8.64h1.048l3.368 7.072 3.376-7.072h1.04V150h-1.136v-6.128L365.701 150h-.744l-2.904-6.128V150h-1.144Zm11.078 0-.016-8.64h1.184v3.256h1.504c.251 0 .496.005.736.016s.456.032.648.064c.427.085.806.229 1.136.432.331.203.592.483.784.84.192.352.288.797.288 1.336 0 .741-.192 1.325-.576 1.752a2.664 2.664 0 0 1-1.448.832c-.218.048-.456.08-.712.096-.256.011-.506.016-.752.016h-2.776Zm1.168-1.008h1.56c.176 0 .376-.005.6-.016a2.68 2.68 0 0 0 .592-.088c.288-.08.547-.24.776-.48.235-.245.352-.613.352-1.104 0-.485-.112-.851-.336-1.096-.224-.251-.522-.416-.896-.496a3.505 3.505 0 0 0-.544-.072 9.226 9.226 0 0 0-.544-.016h-1.56v3.368Zm6.128 1.008v-8.64h1.176V150h-1.176Z"/><path fill="#343A40" d="M241.547 177.224a2.35 2.35 0 0 1-1.168-.296 2.262 2.262 0 0 1-.84-.808 2.253 2.253 0 0 1-.304-1.16c0-.432.104-.819.312-1.16.208-.347.485-.616.832-.808a2.323 2.323 0 0 1 1.168-.296c.4 0 .768.099 1.104.296a2.224 2.224 0 0 1 1.12 1.968c0 .427-.101.813-.304 1.16a2.242 2.242 0 0 1-.816.808 2.144 2.144 0 0 1-1.104.296Z"/><path fill="#4D508F" d="M256.62 180v-9.416l-2.16 1.32v-2.128l2.16-1.296h1.968V180h-1.968Zm8.784.24c-.763 0-1.44-.155-2.032-.464a3.49 3.49 0 0 1-1.392-1.288c-.336-.549-.504-1.179-.504-1.888 0-.635.146-1.224.44-1.768a3.281 3.281 0 0 1 1.288-1.304l-.04.616a3.774 3.774 0 0 1-1.032-1.16 3.073 3.073 0 0 1-.36-1.488c0-.661.154-1.235.464-1.72a3.155 3.155 0 0 1 1.288-1.128c.544-.272 1.17-.408 1.88-.408.709 0 1.336.136 1.88.408a3.1 3.1 0 0 1 1.288 1.128c.314.485.472 1.059.472 1.72 0 .549-.118 1.043-.352 1.48-.23.437-.579.832-1.048 1.184l-.008-.624a3.21 3.21 0 0 1 1.272 1.296c.298.544.448 1.133.448 1.768 0 .709-.171 1.339-.512 1.888a3.48 3.48 0 0 1-1.4 1.288c-.592.309-1.272.464-2.04.464Zm0-1.816c.565 0 1.024-.155 1.376-.464.357-.309.536-.763.536-1.36 0-.597-.176-1.051-.528-1.36-.352-.315-.814-.472-1.384-.472-.566 0-1.022.157-1.368.472-.347.309-.52.763-.52 1.36 0 .597.173 1.051.52 1.36.346.309.802.464 1.368.464Zm0-5.488c.474 0 .858-.117 1.152-.352.298-.24.448-.603.448-1.088 0-.485-.15-.845-.448-1.08-.294-.24-.678-.36-1.152-.36-.47 0-.854.12-1.152.36-.294.235-.44.595-.44 1.08 0 .485.146.848.44 1.088.298.235.682.352 1.152.352Zm5.869 9.104.112-.832c.245.021.44-.021.584-.128a.732.732 0 0 0 .288-.44c.053-.187.066-.4.04-.64h-1.024v-2.056h1.976v2.136c0 .699-.166 1.227-.496 1.584-.331.357-.824.483-1.48.376Zm5.603-2.04 3.968-9.696h-5.032v-1.824h7.096v1.824L278.956 180h-2.08Zm11.134 0v-8.64h1.584l3.096 5.968 3.104-5.968h1.576V180h-1.84v-4.76l-2.456 4.76h-.76l-2.456-4.76V180h-1.848Zm10.794 0v-1.616c.315.059.558.053.728-.016a.739.739 0 0 0 .384-.416c.086-.203.16-.472.224-.808.086-.475.16-1.021.224-1.64.07-.619.128-1.28.176-1.984.054-.704.102-1.424.144-2.16h6.36V180h-1.92v-6.832h-2.744a111.759 111.759 0 0 1-.216 2.464c-.042.437-.09.853-.144 1.248-.048.389-.098.723-.152 1-.122.624-.298 1.117-.528 1.48a1.498 1.498 0 0 1-.944.696c-.405.107-.936.088-1.592-.056Zm10.472 0v-8.64h1.928v3.408h3.88v-3.408h1.928V180h-1.928v-3.424h-3.88V180h-1.928Zm10.289 0v-1.976h1.976V180h-1.976Zm12.463 0h-2.416v-6.272h-3.104v-2.016h8.624v2.016h-3.104V180Zm-5.52-11.424h8.624v2.016h-8.624v-2.016Z"/><path fill="#868E96" d="M343.36 180.24c-.869 0-1.605-.195-2.208-.584a3.725 3.725 0 0 1-1.376-1.608c-.309-.688-.469-1.477-.48-2.368.011-.907.176-1.701.496-2.384.32-.688.782-1.221 1.384-1.6.603-.384 1.334-.576 2.192-.576.875 0 1.635.213 2.28.64a3.225 3.225 0 0 1 1.336 1.752l-1.152.368a2.431 2.431 0 0 0-.968-1.2 2.67 2.67 0 0 0-1.504-.432c-.634 0-1.16.147-1.576.44-.416.288-.725.691-.928 1.208-.202.517-.306 1.112-.312 1.784.011 1.035.251 1.867.72 2.496.47.624 1.168.936 2.096.936.587 0 1.086-.133 1.496-.4.416-.272.731-.667.944-1.184l1.184.352c-.32.768-.789 1.355-1.408 1.76-.618.4-1.357.6-2.216.6Zm9.156 0c-.795 0-1.467-.2-2.016-.6-.55-.405-.966-.952-1.248-1.64-.283-.693-.424-1.469-.424-2.328 0-.875.141-1.653.424-2.336.288-.688.709-1.229 1.264-1.624.554-.395 1.237-.592 2.048-.592.789 0 1.466.2 2.032.6.565.4.997.944 1.296 1.632.304.688.456 1.461.456 2.32 0 .864-.152 1.64-.456 2.328-.304.688-.742 1.235-1.312 1.64-.571.4-1.259.6-2.064.6Zm-3.888 3.6v-12.48h1.056v6.504h.128v5.976h-1.184Zm3.768-4.696c.602 0 1.104-.152 1.504-.456.4-.304.698-.717.896-1.24.202-.528.304-1.12.304-1.776a4.96 4.96 0 0 0-.296-1.76c-.198-.523-.499-.936-.904-1.24-.4-.304-.91-.456-1.528-.456-.603 0-1.104.147-1.504.44-.395.293-.691.701-.888 1.224-.198.517-.296 1.115-.296 1.792 0 .667.098 1.264.296 1.792.197.523.496.933.896 1.232.4.299.906.448 1.52.448Zm5.932.856v-1.368h1.368V180h-1.368Zm14.466 1.496V180h-7.432v-8.64h1.176v7.512h4.52v-7.512h1.176v7.552h1.736v2.584h-1.176Zm6.107-1.256c-.843 0-1.573-.187-2.192-.56a3.8 3.8 0 0 1-1.432-1.576c-.341-.677-.512-1.472-.512-2.384 0-.944.168-1.76.504-2.448.336-.688.808-1.219 1.416-1.592.613-.373 1.336-.56 2.168-.56.853 0 1.581.197 2.184.592.603.389 1.059.949 1.368 1.68.309.731.451 1.603.424 2.616h-1.2v-.416c-.021-1.12-.264-1.965-.728-2.536-.459-.571-1.131-.856-2.016-.856-.928 0-1.64.301-2.136.904-.491.603-.736 1.461-.736 2.576 0 1.088.245 1.933.736 2.536.496.597 1.197.896 2.104.896.619 0 1.157-.141 1.616-.424.464-.288.829-.701 1.096-1.24l1.096.424a3.915 3.915 0 0 1-1.512 1.752c-.661.411-1.411.616-2.248.616Zm-3.304-4.232v-.984h6.6v.984h-6.6Zm8.999 3.992v-8.64h1.176v3.752h4.872v-3.752h1.176V180h-1.176v-3.76h-4.872V180h-1.176Zm11.934.24c-.651 0-1.198-.117-1.64-.352-.438-.235-.766-.547-.984-.936a2.549 2.549 0 0 1-.328-1.272c0-.469.093-.869.28-1.2.192-.336.45-.611.776-.824a3.9 3.9 0 0 1 1.144-.488c.437-.107.92-.2 1.448-.28a37.258 37.258 0 0 1 1.56-.216c.512-.064.96-.125 1.344-.184l-.416.256c.016-.853-.15-1.485-.496-1.896-.347-.411-.95-.616-1.808-.616-.592 0-1.094.133-1.504.4-.406.267-.691.688-.857 1.264l-1.143-.336c.197-.773.594-1.373 1.192-1.8.597-.427 1.373-.64 2.328-.64.789 0 1.458.149 2.008.448.554.293.946.72 1.176 1.28.106.251.176.531.208.84.032.309.048.624.048.944V180h-1.048v-2.168l.304.128c-.294.741-.75 1.307-1.368 1.696-.619.389-1.36.584-2.224.584Zm.136-1.016c.549 0 1.029-.099 1.44-.296.41-.197.741-.467.992-.808.25-.347.413-.736.488-1.168.064-.277.098-.581.104-.912.005-.336.008-.587.008-.752l.448.232c-.4.053-.835.107-1.304.16a37.1 37.1 0 0 0-1.376.184c-.448.069-.854.152-1.216.248a3.26 3.26 0 0 0-.712.296c-.23.123-.419.288-.568.496-.144.208-.216.467-.216.776 0 .251.061.493.184.728.128.235.33.429.608.584.282.155.656.232 1.12.232ZM254.612 202l.008-8.64h1.184v4.16l3.856-4.16h1.568l-4.048 4.32 4.576 4.32h-1.712l-4.24-4.16V202h-1.192Zm11.397.24c-.858 0-1.592-.195-2.2-.584a3.802 3.802 0 0 1-1.4-1.616c-.325-.688-.488-1.477-.488-2.368 0-.907.166-1.701.496-2.384.331-.683.8-1.213 1.408-1.592.614-.384 1.342-.576 2.184-.576.864 0 1.6.195 2.208.584.614.384 1.08.92 1.4 1.608.326.683.488 1.469.488 2.36 0 .907-.162 1.704-.488 2.392a3.73 3.73 0 0 1-1.408 1.6c-.613.384-1.346.576-2.2.576Zm0-1.128c.96 0 1.675-.317 2.144-.952.47-.64.704-1.469.704-2.488 0-1.045-.237-1.877-.712-2.496-.469-.619-1.181-.928-2.136-.928-.645 0-1.178.147-1.6.44-.416.288-.728.691-.936 1.208-.202.512-.304 1.104-.304 1.776 0 1.04.24 1.875.72 2.504.48.624 1.187.936 2.12.936Zm5.853.888v-8.64h1.176v3.752h4.872v-3.752h1.176V202h-1.176v-3.76h-4.872V202h-1.176Zm11.805 0v-7.552h-3.064v-1.088h7.304v1.088h-3.064V202h-1.176Zm9.645.24c-.794 0-1.466-.2-2.015-.6-.55-.405-.966-.952-1.248-1.64-.283-.693-.424-1.469-.424-2.328 0-.875.141-1.653.424-2.336.288-.688.709-1.229 1.264-1.624.554-.395 1.237-.592 2.048-.592.789 0 1.466.2 2.032.6.565.4.997.944 1.296 1.632.304.688.456 1.461.456 2.32 0 .864-.152 1.64-.456 2.328-.304.688-.742 1.235-1.312 1.64-.571.4-1.259.6-2.065.6Zm-3.887 3.6v-12.48h1.056v6.504h.128v5.976h-1.184Zm3.768-4.696c.602 0 1.104-.152 1.504-.456.4-.304.698-.717.896-1.24.202-.528.304-1.12.304-1.776a4.96 4.96 0 0 0-.296-1.76c-.198-.523-.499-.936-.904-1.24-.4-.304-.91-.456-1.528-.456-.603 0-1.104.147-1.504.44-.395.293-.691.701-.888 1.224-.198.517-.296 1.115-.296 1.792 0 .667.098 1.264.296 1.792.197.523.496.933.896 1.232.4.299.906.448 1.52.448Zm8.18 1.096c-.65 0-1.197-.117-1.64-.352a2.395 2.395 0 0 1-.984-.936 2.56 2.56 0 0 1-.328-1.272c0-.469.094-.869.28-1.2.192-.336.451-.611.776-.824a3.912 3.912 0 0 1 1.144-.488c.438-.107.92-.2 1.448-.28a37.723 37.723 0 0 1 1.56-.216c.512-.064.96-.125 1.344-.184l-.416.256c.016-.853-.149-1.485-.496-1.896-.346-.411-.949-.616-1.808-.616-.592 0-1.093.133-1.504.4-.405.267-.69.688-.856 1.264l-1.144-.336c.198-.773.595-1.373 1.192-1.8.598-.427 1.374-.64 2.328-.64.79 0 1.459.149 2.008.448.555.293.947.72 1.176 1.28.107.251.176.531.208.84.032.309.048.624.048.944V202h-1.048v-2.168l.304.128c-.293.741-.749 1.307-1.368 1.696-.618.389-1.36.584-2.224.584Zm.136-1.016c.55 0 1.03-.099 1.44-.296.411-.197.742-.467.992-.808a2.76 2.76 0 0 0 .488-1.168c.064-.277.099-.581.104-.912.006-.336.008-.587.008-.752l.448.232c-.4.053-.834.107-1.304.16-.464.053-.922.115-1.376.184a11.8 11.8 0 0 0-1.216.248 3.301 3.301 0 0 0-.712.296 1.656 1.656 0 0 0-.568.496c-.144.208-.216.467-.216.776 0 .251.062.493.184.728a1.5 1.5 0 0 0 .608.584c.283.155.656.232 1.12.232Zm6.275.776.008-8.64h1.184v4.16l3.856-4.16h1.568l-4.048 4.32 4.576 4.32h-1.712l-4.24-4.16V202h-1.192Zm10.289 0v-7.552h-3.064v-1.088h7.304v1.088h-3.064V202h-1.176Zm7.91.24c-.651 0-1.198-.117-1.64-.352-.438-.235-.766-.547-.984-.936a2.549 2.549 0 0 1-.328-1.272c0-.469.093-.869.28-1.2.192-.336.45-.611.776-.824a3.9 3.9 0 0 1 1.144-.488c.437-.107.92-.2 1.448-.28a37.258 37.258 0 0 1 1.56-.216c.512-.064.96-.125 1.344-.184l-.416.256c.016-.853-.15-1.485-.496-1.896-.347-.411-.95-.616-1.808-.616-.592 0-1.094.133-1.504.4-.406.267-.691.688-.856 1.264l-1.144-.336c.197-.773.594-1.373 1.192-1.8.597-.427 1.373-.64 2.328-.64.789 0 1.458.149 2.008.448.554.293.946.72 1.176 1.28.106.251.176.531.208.84.032.309.048.624.048.944V202h-1.048v-2.168l.304.128c-.294.741-.75 1.307-1.368 1.696-.619.389-1.36.584-2.224.584Zm.136-1.016c.549 0 1.029-.099 1.44-.296.41-.197.741-.467.992-.808.25-.347.413-.736.488-1.168.064-.277.098-.581.104-.912.005-.336.008-.587.008-.752l.448.232c-.4.053-.835.107-1.304.16a37.1 37.1 0 0 0-1.376.184c-.448.069-.854.152-1.216.248a3.26 3.26 0 0 0-.712.296c-.23.123-.419.288-.568.496-.144.208-.216.467-.216.776 0 .251.061.493.184.728.128.235.33.429.608.584.282.155.656.232 1.12.232Z"/></g></svg>