 <svg
                            _ngcontent-serverApp-c223=""
                            xmlns="http://www.w3.org/2000/svg"
                            viewBox="0 0 28 28"
                          >
                            <linearGradient
                              _ngcontent-serverApp-c223=""
                              x1="0"
                              y1="0"
                              x2="100%"
                              y2="100%"
                              id="file-search"
                            >
                              <stop
                                _ngcontent-serverApp-c223=""
                                stop-color="#A54BFF"
                                offset="0"
                              ></stop>
                              <stop
                                _ngcontent-serverApp-c223=""
                                stop-color="#CD8EFF"
                                offset="100%"
                              ></stop>
                            </linearGradient>
                            <path
                              _ngcontent-serverApp-c223=""
                              d="M2 20.225V4.768A2.769 2.769 0 0 1 4.769 2h11.537c1.53 0 2.7 1.24 2.7 2.768v6.749c-.138-.008-.207-.012-.346-.012a7.152 7.152 0 0 0-7.153 7.151c0 1.631.497 3.134 1.416 4.337H4.77A2.769 2.769 0 0 1 2 20.225Zm22.336 5.537-1.384-1.384-1.293-1.283c-.847.573-1.761.913-2.861.913-1.222 0-2.333-.367-3.23-1.06-1.255-.971-2.077-2.445-2.077-4.153a5.307 5.307 0 0 1 5.584-5.3c2.802.145 4.942 2.462 4.942 5.3 0 1.1-.336 2.013-.909 2.86l1.274 1.293 1.43 1.43c.114.202.172.397.185.578v.16a.944.944 0 0 1-.837.876h-.253a1.24 1.24 0 0 1-.571-.23Zm-5.584-3.784a3.23 3.23 0 1 0 0-6.46 3.23 3.23 0 0 0 0 6.46ZM5.969 13.996h4.984a.969.969 0 1 1 0 1.938H5.969a.969.969 0 1 1 0-1.938Zm0-3.968h9.09a.969.969 0 1 1 0 1.938H5.97a.969.969 0 1 1 0-1.938Zm4.06-3.968H5.97a.969.969 0 1 0 0 1.938h4.06a.969.969 0 1 0 0-1.938Z"
                              fill-rule="evenodd"
                            ></path>
                          </svg>