 <svg

                            xmlns="http://www.w3.org/2000/svg"
                            viewBox="0 0 28 28"
                          >
                            <linearGradient

                              x1="0"
                              y1="0"
                              x2="100%"
                              y2="100%"
                              id="first"
                            >
                              <stop

                                stop-color="#F3980F"
                                offset="0"
                              ></stop>
                              <stop

                                stop-color="#FFDE6A"
                                offset="100%"
                              ></stop>
                            </linearGradient>
                            <path

                              d="M5.634 10.166C7.187 6.683 6.877 5.1 3.149 3.2c-1.864 2.534-1.864 4.75.932 6.334l-.124.95c-.808-.633-1.119-.507-3.915-.507-.31 3.8 1.087 4.937 4.039 4.94l.31.95c-1.555.027-1.863.571-3.727 1.521 1.553 3.23 3.417 3.864 6.026 2.28l.684.634c-1.574 1.152-1.43 1.9-2.361 3.167 2.485 2.216 4.97 1.52 6.213-1.014l.017.004c1.942.433 3.096.69 5.574-.004 1.604 2.878 4.038 2.914 6.213 1.014-.802-1.647-1.243-2.534-2.361-3.104l.683-.697c2.75 1.754 4.722.634 5.965-2.28-1.45-.895-2.196-1.516-3.666-1.52l.005-.012c.142-.343.222-.54.306-.938 2.174.317 3.727-.95 4.035-3.167.003-.63.003-.946.003-1.757v-.017h-2.528c-.62 0-.968.257-1.386.507a3.466 3.466 0 0 0-.186-.95c2.857-1.583 2.857-3.8.994-6.334-3.107 1.584-4.35 3.167-2.796 6.017 1.864 4.75-.857 11.51-7.766 11.908-5.902.34-9.94-5.257-8.698-10.957Z"
                            ></path>
                            <path

                              d="M14.021 19.287c3.775 0 6.834-3.12 6.834-6.967 0-3.848-3.06-6.967-6.834-6.967-3.774 0-6.834 3.119-6.834 6.967 0 3.848 3.06 6.967 6.834 6.967Zm-.808-7.094v2.914h1.616V9.533H13.15c0 .897-.683 1.267-1.056 1.267v1.647c.57 0 .665-.044.933-.17l.185-.084Z"
                              fill-rule="evenodd"
                            ></path>
                          </svg>