  <svg
                            xmlns="http://www.w3.org/2000/svg"
                            viewBox="0 0 28 28"
                          >
                            <linearGradient
                              x1="0"
                              y1="0"
                              x2="100%"
                              y2="100%"
                              id="folders"
                            >
                              <stop
                                stop-color="#E8AD3C"
                                offset="0"
                              ></stop>
                              <stop
                                stop-color="#E1B359"
                                offset="100%"
                              ></stop>
                            </linearGradient>
                            <path
                              d="M14.27 2.4H8.291a.81.81 0 0 0-.807.812v1.34h3.096c.538 0 1.144.405 1.346.81l1.279 2.504h10.97c1.078 0 1.684 1.082 1.684 1.69v8.523h1.332a.81.81 0 0 0 .808-.812V6.46c0-.366-.337-.704-.687-.69h-10.27c-.794 0-1.414-.5-1.643-1.042L14.27 2.4Z"
                            ></path>
                            <path
                              d="M10.514 6.161H4.537a.81.81 0 0 0-.808.812v1.339h3.096c.538 0 1.144.406 1.346.812l1.279 2.502h10.971c1.077 0 1.683 1.083 1.683 1.691v8.523h1.333a.81.81 0 0 0 .807-.812V9.678c0-.12-.032-.149-.148-.149h-10.81c-.793 0-1.413-.5-1.642-1.041l-1.13-2.327Z"
                            ></path>
                            <path
                              d="M6.785 9.922H.808a.81.81 0 0 0-.808.811V24.79a.81.81 0 0 0 .808.811h18.9a.81.81 0 0 0 .807-.811v-11.35c0-.12-.032-.149-.148-.149H9.557c-.793 0-1.413-.5-1.642-1.041l-1.13-2.327Zm7.107 12.445c0-.456.368-.825.822-.825.453 0 .82.37.82.825v.541a.823.823 0 0 1-.82.826.823.823 0 0 1-.822-.826v-.54Zm3.527-.825a.823.823 0 0 0-.821.825v.541c0 .456.368.826.821.826.454 0 .821-.37.821-.826v-.54a.823.823 0 0 0-.82-.826Z"
                              fill-rule="evenodd"
                            ></path>
                          </svg>