<svg
                                        xmlns="http://www.w3.org/2000/svg"
                                        viewBox="0 0 32 32"
                                      >
                                        <path
                                          opacity="0.4"
                                          d="M20.96 2.66663H11.04C10.5334 2.66663 10.1067 3.09329 10.1067 3.59996C10.1067 4.10663 10.5334 4.53329 11.04 4.53329H15.3867L17.2534 7.01329C17.6667 7.55996 17.72 7.63996 18.4934 7.63996H23.4534C23.96 7.63996 24.4534 7.70663 24.9334 7.83996C24.9867 8.07996 25.0134 8.31996 25.0134 8.57329V9.03996C25.0134 9.54663 25.44 9.97329 25.9467 9.97329C26.4534 9.97329 26.88 9.54663 26.88 9.03996V8.55996C26.8534 5.30663 24.2134 2.66663 20.96 2.66663Z"
                                          fill="currentColor"
                                        ></path>
                                        <path
                                          d="M26.8534 8.71996C26.2801 8.30663 25.6267 7.99996 24.9201 7.82663C24.4534 7.69329 23.9467 7.62663 23.4401 7.62663H18.4801C17.7067 7.62663 17.6534 7.54663 17.2401 6.99996L15.3734 4.51996C14.5067 3.37329 13.8267 2.66663 11.6534 2.66663H8.56008C5.30675 2.66663 2.66675 5.30663 2.66675 8.55996V23.44C2.66675 26.6933 5.30675 29.3333 8.56008 29.3333H23.4401C26.6934 29.3333 29.3334 26.6933 29.3334 23.44V13.52C29.3334 11.5333 28.3601 9.78663 26.8534 8.71996ZM19.1067 21.3333H12.8934C12.3734 21.3333 11.9601 20.92 11.9601 20.4C11.9601 19.8933 12.3734 19.4666 12.8934 19.4666H19.0934C19.6001 19.4666 20.0267 19.8933 20.0267 20.4C20.0267 20.92 19.6134 21.3333 19.1067 21.3333Z"
                                          fill="currentColor"
                                        ></path>
                                      </svg>