<svg xmlns="http://www.w3.org/2000/svg" width="214" height="262" fill="none">
    <path fill="#FF2116" d="M27.059-.001C12.142-.001 0 12.149 0 27.066V234.93c0 14.916 12.142 27.067 27.059 27.067h158.947c14.916 0 27.059-12.15 27.059-27.067V64.008s.425-5.005-1.747-9.875c-2.037-4.566-5.356-7.743-5.356-7.743l-.025-.034-39.436-38.68a2.765 2.765 0 0 0-.065-.066s-3.367-3.206-8.358-5.348C152.201-.26 146.144.006 146.144.006l.09-.008-119.175.001Z"/>
    <path fill="#F5F5F5" d="M27.058 8.89h119.266s4.766.047 8.251 1.543c3.355 1.44 5.734 3.619 5.75 3.633l.017.017 39.337 38.59s2.37 2.503 3.518 5.078c.927 2.078.985 5.88.985 5.88a3.956 3.956 0 0 0-.009.19v171.11c0 10.146-8.022 18.176-18.167 18.176H27.058c-10.145 0-18.167-8.03-18.167-18.176V27.067C8.89 16.92 16.913 8.89 27.058 8.89Z"/>
    <path fill="#FF2116" d="M53.2 155.99c-6.117-6.118.501-14.524 18.463-23.45l11.302-5.616 4.402-9.634c2.422-5.298 6.036-13.943 8.032-19.211l3.629-9.579-2.5-7.088c-3.076-8.716-4.172-21.814-2.221-26.523 2.642-6.38 11.298-5.725 14.724 1.113 2.676 5.341 2.403 15.013-.77 27.21l-2.6 10 2.291 3.89c1.26 2.138 4.94 7.217 8.178 11.285l6.086 7.57 7.573-.988c24.059-3.139 32.299 2.196 32.299 9.847 0 9.655-18.891 10.452-34.755-.69-3.569-2.507-6.02-4.997-6.02-4.997s-9.939 2.023-14.832 3.342c-5.05 1.361-7.57 2.214-14.969 4.711 0 0-2.596 3.77-4.287 6.51-6.293 10.196-13.641 18.646-18.889 21.721-5.875 3.443-12.035 3.678-15.136.577Zm9.6-3.43c3.439-2.125 10.399-10.357 15.216-17.997l1.951-3.093-8.882 4.466c-13.717 6.897-19.993 13.397-16.73 17.329 1.834 2.209 4.027 2.026 8.445-.705Zm89.104-25.011c3.364-2.356 2.875-7.103-.927-9.017-2.959-1.489-5.344-1.795-13.031-1.682-4.724.322-12.321 1.274-13.608 1.564 0 0 4.173 2.884 6.026 3.944 2.466 1.409 8.46 4.023 12.835 5.363 4.317 1.321 6.814 1.182 8.705-.172Zm-35.827-14.891c-2.036-2.139-5.497-6.605-7.692-9.924-2.87-3.764-4.309-6.42-4.309-6.42s-2.099 6.748-3.82 10.809l-5.37 13.273-1.557 3.011s8.277-2.714 12.489-3.814c4.46-1.165 13.513-2.945 13.513-2.945l-3.254-3.99Zm-11.546-46.302c.519-4.357.739-8.707-.66-10.901-3.883-4.245-8.57-.705-7.776 9.386.267 3.395 1.11 9.199 2.238 12.776l2.05 6.503 1.443-4.898c.794-2.694 2.011-8.484 2.705-12.866Z"/>
    <path fill="#2C2C2C" d="M63.603 184.318h9.932c3.174 0 5.75.304 7.728.911 1.978.588 3.644 1.91 4.995 3.967 1.352 2.037 2.028 4.496 2.028 7.375 0 2.645-.549 4.917-1.646 6.817-1.097 1.9-2.576 3.272-4.437 4.114-1.841.842-4.681 1.263-8.52 1.263h-3.439v15.662h-6.64v-40.109Zm6.641 5.142v13.987h3.291c2.939 0 4.966-.548 6.083-1.645 1.136-1.097 1.704-2.88 1.704-5.348 0-1.842-.372-3.33-1.117-4.467-.744-1.155-1.567-1.86-2.468-2.115-.881-.275-2.282-.412-4.202-.412h-3.29Zm23.125-5.142h9.021c4.368 0 7.855.774 10.46 2.322 2.625 1.547 4.604 3.849 5.936 6.905 1.352 3.056 2.027 6.445 2.027 10.166 0 3.918-.607 7.415-1.821 10.49-1.195 3.056-3.037 5.524-5.525 7.405-2.468 1.881-5.994 2.821-10.578 2.821h-9.52v-40.109Zm6.641 5.319v29.472h2.762c3.859 0 6.66-1.333 8.404-3.997 1.743-2.683 2.615-6.258 2.615-10.725 0-9.833-3.673-14.75-11.019-14.75h-2.762Zm27.18-5.319h22.272v5.319H133.83v11.988h12.518v5.319H133.83v17.483h-6.64v-40.109Z"/>
</svg>