   <svg
                           
                              xmlns="http://www.w3.org/2000/svg"
                              viewBox="0 0 24 24"
                            >
                              <path
                           
                                d="M15 22.75H9c-5.43 0-7.75-2.32-7.75-7.75V9c0-5.43 2.32-7.75 7.75-7.75h6c5.43 0 7.75 2.32 7.75 7.75v6c0 5.43-2.32 7.75-7.75 7.75Zm-6-20C4.39 2.75 2.75 4.39 2.75 9v6c0 4.61 1.64 6.25 6.25 6.25h6c4.61 0 6.25-1.64 6.25-6.25V9c0-4.61-1.64-6.25-6.25-6.25H9Z"
                              ></path>
                              <path
                 
                                d="M12 14.91a.74.74 0 0 1-.53-.22l-3.53-3.53a.75.75 0 0 1 0-1.06.75.75 0 0 1 1.06 0l3 3 3-3a.75.75 0 0 1 1.06 0c.29.29.29.77 0 1.06l-3.53 3.53a.74.74 0 0 1-.53.22Z"
                              ></path>
                            </svg>