        <svg
                                        xmlns="http://www.w3.org/2000/svg"
                                        viewBox="0 0 18 18"
                                      >
                                        <path
                                          d="M15.75 16.5H2.25C1.9425 16.5 1.6875 16.245 1.6875 15.9375C1.6875 15.63 1.9425 15.375 2.25 15.375H15.75C16.0575 15.375 16.3125 15.63 16.3125 15.9375C16.3125 16.245 16.0575 16.5 15.75 16.5Z"
                                        ></path>
                                        <path
                                          d="M14.2649 2.60999C12.8099 1.15499 11.3849 1.11749 9.89243 2.60999L8.98493 3.51749C8.90993 3.59249 8.87993 3.71249 8.90993 3.81749C9.47993 5.80499 11.0699 7.39499 13.0574 7.96499C13.0874 7.97249 13.1174 7.97999 13.1474 7.97999C13.2299 7.97999 13.3049 7.94999 13.3649 7.88999L14.2649 6.98249C15.0074 6.24749 15.3674 5.53499 15.3674 4.81499C15.3749 4.07249 15.0149 3.35249 14.2649 2.60999Z"
                                        ></path>
                                        <path
                                          d="M11.7075 8.64749C11.49 8.54249 11.28 8.43749 11.0775 8.31749C10.9125 8.21999 10.755 8.11499 10.5975 8.00249C10.47 7.91999 10.32 7.79999 10.1775 7.67999C10.1625 7.67249 10.11 7.62749 10.05 7.56749C9.80249 7.35749 9.52499 7.08749 9.27749 6.78749C9.25499 6.77249 9.21749 6.71999 9.16499 6.65249C9.08999 6.56249 8.96249 6.41249 8.84999 6.23999C8.75999 6.12749 8.65499 5.96249 8.55749 5.79749C8.43749 5.59499 8.33249 5.39249 8.22749 5.18249C8.08983 4.88749 7.70263 4.79985 7.47244 5.03005L3.25499 9.24749C3.1575 9.34499 3.06749 9.53249 3.04499 9.65999L2.63999 12.5325C2.56499 13.0425 2.7075 13.5225 3.0225 13.845C3.2925 14.1075 3.66749 14.25 4.07249 14.25C4.16249 14.25 4.25249 14.2425 4.34249 14.2275L7.22249 13.8225C7.35749 13.8 7.54499 13.71 7.63499 13.6125L11.8594 9.38809C12.085 9.16249 12.0002 8.77434 11.7075 8.64749Z"
                                        ></path>
                                      </svg>