 <svg
                        xmlns="http://www.w3.org/2000/svg"
                        viewBox="0 0 24 24"
                      >
                        <path
                          d="M11.16 16.38a2 2 0 0 1-1 .5l-2 .28h-.21a1.18 1.18 0 0 1-.85-.33 1.22 1.22 0 0 1-.31-1.06l.28-2a2 2 0 0 1 .5-1l3.61-3.47c.06.16.13.33.22.52a3.4 3.4 0 0 0 .26.5 2.81 2.81 0 0 0 .24.36 2.79 2.79 0 0 0 .25.33.39.39 0 0 0 .09.11 4.68 4.68 0 0 0 .63.63.43.43 0 0 0 .1.1l.34.26a4.4 4.4 0 0 0 .39.26l.51.27a4.24 4.24 0 0 0 .52.2Zm5.11-5.1-.73.74a.29.29 0 0 1-.18.07h-.07a4.93 4.93 0 0 1-3.36-3.37.22.22 0 0 1 .07-.24l.74-.74a2.2 2.2 0 0 1 3.55 0 2.55 2.55 0 0 1 .9 1.79 2.59 2.59 0 0 1-.92 1.75Zm6.23.72A10.5 10.5 0 1 0 12 22.5 10.5 10.5 0 0 0 22.5 12Z"
                        ></path>
                      </svg>