                  <svg
                    xmlns="http://www.w3.org/2000/svg"
                    viewBox="0 0 56 56"
                    fill="none"
                  >
                    <path
                      d="M42.8492 13.1508C51.0502 21.3518 51.0502 34.6482 42.8492 42.8492C34.6482 51.0502 21.3517 51.0502 13.1508 42.8492C4.94975 34.6482 4.94975 21.3517 13.1508 13.1508C21.3518 4.94975 34.6482 4.94975 42.8492 13.1508"
                      stroke="currentColor"
                      stroke-width="3"
                      stroke-linecap="round"
                      stroke-linejoin="round"
                    ></path>
                    <path
                      d="M40.6302 44.4055C40.2172 43.3648 39.5755 42.4315 38.7542 41.6708C37.3659 40.3828 35.5505 39.6665 33.6559 39.6665C30.4965 39.6665 25.5032 39.6665 22.3439 39.6665C20.4492 39.6665 18.6339 40.3828 17.2432 41.6708C16.4219 42.4315 15.7825 43.3648 15.3672 44.4055"
                      stroke="currentColor"
                      stroke-width="3"
                      stroke-linecap="round"
                      stroke-linejoin="round"
                    ></path>
                    <path
                      d="M31.3 24.7003C33.1224 26.5228 33.1224 29.4776 31.3 31.3C29.4776 33.1225 26.5228 33.1225 24.7003 31.3C22.8779 29.4776 22.8779 26.5228 24.7003 24.7003C26.5228 22.8779 29.4776 22.8779 31.3 24.7003"
                      stroke="currentColor"
                      stroke-width="3"
                      stroke-linecap="round"
                      stroke-linejoin="round"
                    ></path>
                    <path
                      d="M28.0002 7V11.6667"
                      stroke="currentColor"
                      stroke-width="3"
                      stroke-linecap="round"
                      stroke-linejoin="round"
                    ></path>
                    <path
                      d="M38.5 9.82324L36.47 13.3232"
                      stroke="currentColor"
                      stroke-width="3"
                      stroke-linecap="round"
                      stroke-linejoin="round"
                    ></path>
                    <path
                      d="M17.4998 9.82324L19.5298 13.3232"
                      stroke="currentColor"
                      stroke-width="3"
                      stroke-linecap="round"
                      stroke-linejoin="round"
                    ></path>
                    <path
                      d="M9.82324 17.4998L13.3232 19.5298"
                      stroke="currentColor"
                      stroke-width="3"
                      stroke-linecap="round"
                      stroke-linejoin="round"
                    ></path>
                    <path
                      d="M49 28.0002H45.5"
                      stroke="currentColor"
                      stroke-width="3"
                      stroke-linecap="round"
                      stroke-linejoin="round"
                    ></path>
                    <path
                      d="M10.5 28.0002H7"
                      stroke="currentColor"
                      stroke-width="3"
                      stroke-linecap="round"
                      stroke-linejoin="round"
                    ></path>
                    <path
                      d="M32.1768 25.97L46.1768 17.5"
                      stroke="currentColor"
                      stroke-width="3"
                      stroke-linecap="round"
                      stroke-linejoin="round"
                    ></path>
                  </svg>