 <svg
                    id="svg-map"
                    xmlns="http://www.w3.org/2000/svg"
                    viewBox="0 0 661 366"
                    role="group"
                    class="svg-map"
                    width="602"
                    height="333.33"
                  >
                    <g
                      id="abay-region"
                      role="checkbox"
                      class="svg-map__group"
                      aria-checked="true"
                    >
                      <path
                        d="M511.887 119.709C519.903 115.176 524.201 112.251 530.641 104.608C534.898 113.177 537.563 118.392 543.143 128.918C548.39 124.543 550.737 121.567 553.44 114.921L560.059 118.236C559.672 122.972 560.904 124.157 565.207 124.129V128.918C561.923 131.781 560.999 134.017 560.059 138.494C573.921 155.932 579.828 165.96 588.006 184.167C586.445 195.487 587.412 202.502 592.051 216.58L578.445 253.413C573.67 238.603 570.701 235.501 565.207 233.523C552.704 229.024 543.143 221 533.95 223.947C524.757 219.527 513.726 209.951 504.165 216.58C495.223 217.408 490.804 217.502 495.339 209.95C495.296 200.505 497.06 198.424 500.488 195.217C494.85 190.375 493.859 188.097 492.765 184.167C501.591 184.167 505.636 173.486 492.765 175.696C490.978 171.761 492.71 171.296 495.339 170.171C486.845 164.94 482.887 162 497.546 156.542V149.544C501.638 148.252 503.417 146.652 505.636 142.178C508.731 143.149 511.4 144.162 517.403 146.598C524.497 141.413 524.324 137.244 521.08 128.918C516.591 126.222 514.648 124.136 511.887 119.709Z"
                        class="svg-map__region"
                      ></path>
                    </g>
                    <g
                      id="akmola-region"
                      role="checkbox"
                      class="svg-map__group"
                      aria-checked="false"
                    >
                      <path
                        d="M349.984 134.533L348.878 130.859H354.038C363.141 125.636 366.026 126.268 362.147 141.881L368.413 143.35L368.536 143.183C371.688 138.902 373.493 136.45 377.628 141.881C385.297 140.717 388.063 140.828 384.631 145.187L385.368 147.024C391.634 145.922 391.53 138.772 395.689 141.146C396.387 133.857 401.955 133.431 407.484 127.185C411.155 128.019 412.452 129.565 411.907 136.37H417.067C417.786 133.928 423.702 129.757 428.125 124.613C433.328 125.673 433.285 121.674 438.814 119.837C438.445 117.633 434.391 119.837 433.285 115.061L441.394 114.326C442.623 110.812 444.589 109.36 449.503 107.346L442.869 104.407C442.866 100.943 444.131 99.7759 446.554 97.7937L445.817 81.2611L439.92 80.1589C436.97 76.9372 433.627 76.3681 428.125 75.0155C429.062 65.0347 425.292 66.5399 417.067 71.7089C409.552 71.9935 408.128 70.3927 410.064 64.7285C407.852 54.8089 402.692 61.7894 398.269 59.585C392.74 54.8089 392.003 64.7285 383.157 59.585C379.102 44.8894 372.066 55.5437 371.731 54.8089C368.882 48.5633 352.309 53.3897 362.884 64.7285L362.147 75.0155L352.195 81.2611C351.722 90.0812 347.195 87.9509 340.032 85.6698C337.736 92.0396 330.374 89.2569 316.626 83.6492L316.073 90.0785C313.493 94.4872 313.764 98.3505 311.282 100.365C306.952 101.856 305.076 102.727 309.439 104.774C310.714 110.101 309.881 112.112 307.964 115.429L307.989 115.473C310.282 119.655 311.576 122.014 311.282 126.45L316.073 123.511L328.605 131.961C335.422 130.277 336.53 131.537 334.871 136.737L337.82 138.207L349.984 134.533Z"
                        class="svg-map__region"
                      ></path>
                    </g>
                    <g
                      id="aktobe-region"
                      role="checkbox"
                      class="svg-map__group"
                      aria-checked="false"
                    >
                      <path
                        d="M126.363 156.998C117.458 157.285 117.56 161.045 117.124 167.314C118.602 168.051 118.602 170.637 120.45 170.637C123.406 165.84 123.037 179.472 124.515 179.479C126.363 179.479 129.319 183.157 130.797 176.9C132.276 176.156 134.123 177.999 135.971 179.479C136.341 181.683 135.602 183.157 135.602 186.841C135.602 193.097 136.927 193.104 138.558 198.638C139.667 202.4 138.558 207.473 138.558 216.323C143.362 232.527 157.774 231.422 158.883 234.008C160.731 236.948 162.577 241.74 162.577 241.74C162.577 241.74 167.278 262.823 165.799 263.844L196.577 254.265C197.498 248.779 199.299 246.238 205.077 243.58C209.626 236.063 212.654 231.814 220.598 224.053C223.736 222.853 225.041 222.69 226.88 222.948V218.895C229.858 217.915 231.749 218.526 232.793 216.684C235.834 211.316 237.453 208.204 241.292 203.789C243.345 202.301 245.388 202.154 249.792 201.947C251.64 207.105 256.813 207.842 259.4 214.474L265.313 216.684L287.486 199.368L278.247 184.999L269.378 180.209C269.148 174.615 267.455 174.034 262.726 175.788L256.813 167.314L259.4 166.209L256.074 159.945C261.617 149.261 266.791 149.998 266.791 147.787C263.211 140.951 261.393 138.903 259.4 131.576C258.761 129.976 257.897 129.974 256.074 130.471C256.504 128.488 256.893 127.683 257.922 126.786C257.344 125.034 256.926 124.447 256.074 123.839V120.155L254.226 119.049L251.64 120.155L250.161 115.733H244.988C246.835 128.997 230.273 135.504 220.967 126.786C214.759 135.773 211.697 138.84 210.62 131.576C196.456 130.531 196.495 126.752 196.207 120.155L184.012 119.049C182.904 126.05 178.084 127.525 173.295 120.155C170.784 121.073 169.332 121.126 166.644 120.155C166.99 123.505 165.734 123.448 162.209 121.628L157.035 128.26C154.966 130.902 150.753 134.155 149.275 134.524C147.058 134.524 145.944 131.374 143.732 130.471C139.667 129.365 135.602 118.313 130.797 121.628C130.058 122.138 134.123 124.944 133.754 131.576C132.436 136.016 128.251 133.211 129.319 138.208C127.596 143.327 129.412 144.447 132.276 146.682C129.424 150.931 128.064 153.215 126.363 156.998Z"
                        class="svg-map__region"
                      ></path>
                    </g>
                    <g
                      id="almaty-region"
                      role="checkbox"
                      class="svg-map__group"
                      aria-checked="false"
                    >
                      <path
                        d="M468.784 303.152C466.762 306.945 468.116 309.292 473.94 313.794C492.741 311.141 504.949 312.102 529.175 317.464C531.017 323.335 539.854 317.464 546.483 329.207C544.148 317.999 545.913 313.164 553.111 306.455V295.813C544.641 293.611 535.944 298.92 531.017 293.244C520.057 295.27 514.034 296.352 508.922 295.813C499.6 282.525 495.595 275.6 494.193 265.721C489.036 256.156 485.88 252.225 479.832 247.373C478.054 238.572 478.731 234.511 482.409 228.572C466.227 227.119 461.045 234.121 447.058 243.703C445.269 251.052 445.472 254.276 447.058 259.116C440.677 263.79 441.429 264.991 447.058 265.721C458.842 289.941 473.982 282.872 462.156 299.115C467.479 301.027 468.279 301.832 468.784 303.152Z"
                        class="svg-map__region"
                      ></path>
                    </g>
                    <g
                      id="atyrau-region"
                      role="checkbox"
                      class="svg-map__group"
                      aria-checked="false"
                    >
                      <path
                        d="M48.4028 198.592C39.2043 193.62 28.9803 192.907 11.8001 191.203C11.7884 193.897 11.7053 196.025 11.4303 200.801C14.5229 205.115 15.5147 205.334 15.4973 200.432C20.3554 202.12 22.7697 202.166 26.9588 201.91C34.8022 212.305 37.5907 217.282 42.1175 225.924C38.0505 231.466 32.9052 222.194 33.6138 229.987C37.3037 231.339 39.3827 232.225 43.2266 235.536C44.7055 233.681 44.7055 229.987 45.8147 229.987C53.4379 231.73 54.7178 230.948 63.5615 223.337C69.1074 223.337 79.0899 215.209 83.1569 218.904C83.8964 218.904 84.6358 221.859 86.4844 221.859C92.0303 221.859 93.1395 226.662 96.467 221.491C97.8941 219.273 102.752 220.751 104.231 221.491L109.038 226.293C110.147 227.77 108.298 229.987 107.928 232.573C111.256 240.331 107.189 245.133 104.601 249.937C108.298 248.458 113.474 249.937 118.281 246.242L117.541 245.141C120.129 242.548 120.869 241.439 121.239 239.599C137.876 235.159 144.161 237.006 146.75 232.942C148.598 234.058 149.707 235.536 151.556 235.536C153.405 241.07 154.144 238.853 155.623 239.599C158.211 240.331 160.429 241.439 163.017 241.816C163.017 241.816 161.169 237.006 159.32 234.058C158.211 231.465 143.792 232.573 138.985 216.325C138.985 207.451 140.095 202.364 138.985 198.592C137.354 193.043 136.028 193.036 136.028 186.763C136.028 183.068 136.767 181.591 136.397 179.381C134.549 177.896 132.7 176.049 131.221 176.795C129.742 183.068 126.784 179.381 124.936 179.381C123.457 179.374 123.827 165.705 120.869 170.514C119.02 170.514 119.02 167.928 117.541 167.189C115.088 168.902 113.474 170.145 113.474 172.731L105.34 173.1C102.785 174.629 102.505 176.175 102.752 179.381C100.33 181.646 99.7139 183.232 99.4248 186.4L87.5936 184.184V181.598C76.6176 179.115 76.5019 180.859 72.8046 184.922C66.6017 187.4 63.1181 190.554 56.9065 195.636H48.4028V198.592Z"
                        class="svg-map__region"
                      ></path>
                    </g>
                    <g
                      id="east-region"
                      role="checkbox"
                      class="svg-map__group"
                      aria-checked="false"
                    >
                      <path
                        d="M587.95 183.832C586.393 195.136 587.358 202.14 591.987 216.197C611.066 224.657 614.722 213.852 620.973 222.818C627.211 217.669 631.325 218.428 633.449 212.52C627.945 184.2 636.384 187.142 648.859 182.361C652.895 174.27 647.392 166.914 659.5 167.649C653.262 163.236 647.839 157.234 649.96 152.57C645.248 156.035 643.724 158.417 641.521 162.868C638.456 157.731 634.682 158.379 627.211 156.983C623.175 144.846 613.635 143.007 610.699 138.226C606.619 127.769 603.626 123.313 596.756 122.779C593.821 121.676 584.648 130.87 572.907 128.664H565.201C561.925 131.523 561.002 133.756 560.064 138.226C573.897 155.639 579.79 165.651 587.95 183.832Z"
                        class="svg-map__region"
                      ></path>
                    </g>
                    <g
                      id="jambyl-region"
                      role="checkbox"
                      class="svg-map__group"
                      aria-checked="false"
                    >
                      <path
                        d="M379.891 286.902C378.276 270.77 374.69 261.051 368.147 243.678H447.05C445.267 251.014 445.47 254.232 447.05 259.063C440.69 263.729 441.439 264.927 447.05 265.657C458.794 289.833 473.883 282.777 462.097 298.99C467.402 300.898 468.199 301.701 468.703 303.019C466.687 306.805 468.036 309.148 473.841 313.642C467.235 322.067 433.104 289.1 437.508 325.73C417.427 316.131 405.945 310.078 394.203 325.73L386.129 318.404C386.129 306.682 376.955 308.514 373.652 303.019L379.891 286.902Z"
                        class="svg-map__region"
                      ></path>
                    </g>
                    <g
                      id="jetisu-region"
                      role="checkbox"
                      class="svg-map__group"
                      aria-checked="false"
                    >
                      <path
                        d="M504.353 227.749L497.716 231.421C491.796 229.995 488.451 229.244 482.231 228.398C478.548 234.34 477.871 238.403 479.65 247.208C485.706 252.063 488.866 255.996 494.029 265.566C495.433 275.449 499.443 282.378 508.777 295.672C513.895 296.211 519.926 295.128 530.899 293.102C535.832 298.781 544.541 293.469 553.021 295.672C548.518 287.827 547.461 283.065 549.334 273.643C537.358 268.913 537.667 267.188 549.334 265.566C557.851 263.789 562.453 262.648 569.981 260.058C576.938 260.826 580.58 261.594 585.097 265.566V260.058L578.829 253.45C574.041 238.687 571.065 235.594 565.556 233.624C553.021 229.139 543.434 221.141 534.217 224.078C525 219.672 513.939 210.127 504.353 216.735V227.749Z"
                        class="svg-map__region"
                      ></path>
                    </g>
                    <g
                      id="west-region"
                      role="checkbox"
                      class="svg-map__group"
                      aria-checked="false"
                    >
                      <path
                        d="M12.0439 191.074L1 186.26L5.41754 174.039C11.6343 169.554 11.0493 167.041 6.1538 162.559L7.62631 150.338C13.3364 147.443 15.5514 145.593 14.2526 141.08L19.0383 135.896L25.6646 144.784C28.7739 150.526 30.5364 152.549 33.7634 151.449L38.5491 148.487C40.2079 147.168 40.241 145.967 39.2854 143.302C36.5917 138.233 36.4273 135.928 37.0766 132.193C42.9666 126.638 49.9611 127.008 48.4886 119.231C55.8511 120.713 63.5818 114.047 66.895 107.011C70.6799 107.432 70.8733 105.658 70.5763 101.826C73.1532 105.9 84.9333 103.678 76.8345 107.011C77.8836 109.165 78.5833 110.224 83.0926 107.751C83.7841 108.403 83.9256 108.949 83.0926 110.714C86.3617 110.4 87.2039 108.941 87.5102 104.789C89.6651 104.894 91.0056 104.729 94.5046 102.567C98.0608 111.342 100.298 111.547 104.444 108.862C111.474 108.483 113.362 108.958 114.015 110.714C115.928 115.01 118.332 116.395 123.587 118.12C124.576 122.502 125.949 124.029 129.477 125.527C128.164 129.99 128.413 132.725 129.477 137.747C127.761 142.893 129.57 144.019 132.422 146.265C129.581 150.536 128.227 152.832 126.532 156.634C117.661 156.923 117.762 160.701 117.329 167.003C114.885 168.72 113.279 169.966 113.279 172.558L105.18 172.928C102.636 174.46 102.357 176.01 102.603 179.224C100.192 181.494 99.5781 183.084 99.2903 186.26L87.5102 184.038V181.446C76.5816 178.957 76.4663 180.705 72.785 184.778C66.6089 187.262 63.1404 190.424 56.9555 195.518H48.4886V198.48C39.3298 193.496 29.1499 192.782 12.0439 191.074Z"
                        class="svg-map__region"
                      ></path>
                    </g>
                    <g
                      id="north-region"
                      role="checkbox"
                      class="svg-map__group"
                      aria-checked="false"
                    >
                      <path
                        d="M322.621 65.4058C314.523 65.7738 320.413 73.5025 317.1 77.1829L316.547 83.6234C330.278 89.241 337.631 92.0285 339.923 85.6476C347.077 87.9327 351.599 90.0667 352.071 81.2312L362.01 74.9747L362.747 64.6697C352.185 53.3111 368.737 48.4763 371.582 54.7328C371.916 55.4689 378.944 44.7959 382.993 59.5173C391.828 64.6697 392.564 54.7328 398.086 59.5173C402.504 61.7255 407.657 54.7328 409.866 64.6697C407.932 70.3438 409.355 71.9474 416.86 71.6624C425.075 66.4843 428.84 64.9764 427.904 74.9747C433.399 76.3296 436.738 76.8997 439.684 80.1271L445.574 81.2312C448.151 65.4058 438.948 74.9747 437.475 69.0861C446.31 58.7812 433.058 67.982 436.371 56.573C430.113 50.6845 437.475 46.2681 441.156 45.164C440.95 38.6604 440.557 36.2574 437.475 42.5878C433.058 38.9074 422.382 45.164 413.547 30.8107C403.608 43.6919 392.933 36.6992 401.031 23.8181C394.773 20.5058 397.912 10.9026 390.724 4.68033C382.993 14.6172 376.367 3.2082 363.115 1C358.764 7.13896 356.119 8.77552 350.967 8.36066C356.985 13.1544 340.291 16.4574 317.1 25.2902L319.308 32.6509L317.1 34.123L321.885 38.1714L315.995 41.8517L319.308 49.9484C317.848 52.6425 317.49 54.0951 320.781 56.205L322.621 65.4058Z"
                        class="svg-map__region"
                      ></path>
                    </g>
                    <g
                      id="turkistan-region"
                      role="checkbox"
                      class="svg-map__group"
                      aria-checked="false"
                    >
                      <path
                        d="M347.564 308.771C333.873 316.661 326.726 320.715 316.691 326.056V333.411L324.777 335.617L328.452 351.799C346.094 351.799 353.329 349.612 350.872 360.625L356.753 364.67C356.255 360.018 358.166 356.411 364.839 348.489C379.541 341.134 389.832 326.056 389.832 335.617L393.875 326.056L385.789 318.701C385.789 306.932 376.6 308.771 373.292 303.255L379.541 287.074C377.924 270.878 374.332 261.12 367.779 243.678H337.273C336.081 246.48 336.926 248.208 339.478 251.401L337.273 261.331L343.154 265.376V283.396L350.872 292.222C349.77 298.474 344.36 300.277 344.991 305.461L347.564 308.771Z"
                        class="svg-map__region"
                      ></path>
                    </g>
                    <g
                      id="ulytau-region"
                      role="checkbox"
                      class="svg-map__group"
                      aria-checked="false"
                    >
                      <path
                        d="M264.021 216.869L286.211 199.609L281.588 192.447L286.581 189.693V186.755L291.389 184.551L296.936 176.105H310.99L320.236 171.33L332.255 159.762L338.265 153.978L344.275 164.72C353.89 164.72 361.657 184.551 372.752 184.551C378.472 181.551 382.207 180.357 390.134 179.41V168.76C397.161 179.41 402.708 171.33 407.886 176.105C407.886 192.447 405.323 195.898 411.954 207.688C405.667 210.993 400.489 207.688 400.489 214.298L393.832 207.688C390.134 211.728 390.134 221.276 390.134 243.678H367.574H336.878H329.851L306.922 238.17L300.634 232.294L279.924 224.214L270.678 221.276C266.835 218.817 264.751 218.722 261.062 219.073L264.021 216.869Z"
                        class="svg-map__region"
                      ></path>
                    </g>
                    <g
                      id="karaganda-region"
                      role="checkbox"
                      class="svg-map__group"
                      aria-checked="false"
                    >
                      <path
                        d="M349.775 140.579C344.875 141.03 343.76 142.651 344.241 147.601L338.247 153.421L344.241 164.229C353.833 164.229 361.581 184.184 372.648 184.184C378.354 181.165 382.08 179.964 389.987 179.011V168.294C396.997 179.011 402.53 170.881 407.695 175.685C407.695 192.129 405.138 195.601 411.753 207.465C405.482 210.79 400.317 207.465 400.317 214.116L393.676 207.465C389.987 211.529 389.987 221.137 389.987 243.679H400.317H446.8C464.508 231.484 468.129 223.44 497.711 231.484L504.351 227.789V216.703C495.38 217.533 490.947 217.627 495.497 210.051C495.454 200.575 497.224 198.487 500.662 195.27C495.006 190.413 494.012 188.126 492.915 184.184C501.769 184.184 505.827 173.468 492.915 175.685C491.122 171.738 492.86 171.271 495.497 170.142C486.975 164.895 483.004 161.945 497.711 156.469V149.448C501.816 148.152 503.601 146.547 505.827 142.058C504.72 133.559 493.387 123.726 489.595 139.841C476.289 140.896 470.199 142.287 462.295 146.492C458.902 145.947 459.433 144.61 463.401 140.949C461.743 136.885 460.02 134.768 453.441 131.711C444.592 133.207 443.455 131.484 446.431 125.059C448.251 118.304 447.173 115.922 441.266 114.343L433.15 115.082C434.257 119.886 438.315 117.669 438.684 119.886C433.15 121.733 433.193 125.756 427.985 124.69C423.558 129.863 417.637 134.058 416.918 136.515H411.753C412.299 129.67 411.001 128.115 407.326 127.276C401.792 133.558 396.219 133.987 395.521 141.319C391.358 138.931 391.463 146.122 385.191 147.231L384.453 145.383C387.888 140.998 385.12 140.887 377.444 142.058C373.305 136.595 371.499 139.061 368.344 143.367L368.344 143.367L368.221 143.536L361.949 142.058C365.831 126.354 362.944 125.718 353.833 130.972H348.668L349.775 134.667L352.358 136.884L349.775 140.579Z"
                        class="svg-map__region"
                      ></path>
                    </g>
                    <g
                      id="kostanay-region"
                      role="checkbox"
                      class="svg-map__group"
                      aria-checked="false"
                    >
                      <path
                        d="M250.893 120.036L249.426 115.605L245.023 113.389C243.722 109.018 241.059 108.329 235.484 107.851C235.852 105.804 233.541 104.851 225.945 103.42C229.55 101.565 226.088 99.9955 219.341 97.1426C225.945 91.9733 227.639 94.1992 235.484 86.4346L231.081 77.2036L238.052 69.4495C257.13 71.665 257.13 65.3879 242.455 63.1724L238.052 59.48C246.124 54.3106 245.023 50.9875 235.484 52.0952C237.967 48.2716 238.225 46.2255 235.484 42.8642C237.073 41.9458 237.961 41.2472 239.52 39.541L251.627 41.3872L268.871 36.9563L283.179 32.5254L292.351 30.31H298.221C301.742 33.7503 302.852 33.1227 303.358 27.7253L307.761 25.1406L314.364 22.5559L316.933 25.1406L319.134 32.5254L316.933 34.0024L321.702 38.064L315.832 41.7564L319.134 49.8798C317.678 52.5827 317.321 54.04 320.602 56.1569L322.436 65.3879C314.364 65.7571 320.235 73.5112 316.933 77.2036L315.832 90.127C313.264 94.5579 313.534 98.4407 311.062 100.466C306.753 101.963 304.885 102.839 309.228 104.897C310.497 110.25 309.669 112.271 307.761 115.605L307.785 115.65C310.068 119.853 311.356 122.223 311.062 126.682L315.832 123.728L328.306 132.221C335.091 130.528 336.194 131.795 334.543 137.021L337.478 138.498L349.585 134.805L352.154 137.021L349.585 140.713C344.712 141.163 343.603 142.783 344.082 147.729L320.235 170.991L311.062 175.791H297.121L291.618 184.284L286.848 186.499V189.453L281.895 192.222L277.309 185.022L268.504 180.222C268.276 174.616 266.595 174.033 261.9 175.791L256.03 167.298L258.598 166.191L255.296 159.914C260.799 149.206 265.936 149.944 265.936 147.729C262.381 140.877 260.576 138.825 258.598 131.482C257.963 129.879 257.106 129.877 255.296 130.374C255.722 128.387 256.109 127.581 257.13 126.682C256.557 124.926 256.142 124.337 255.296 123.728V120.036L253.461 118.928L250.893 120.036Z"
                        class="svg-map__region"
                      ></path>
                    </g>
                    <g
                      id="kyzylorda-region"
                      role="checkbox"
                      class="svg-map__group"
                      aria-checked="false"
                    >
                      <path
                        d="M258.877 214.445L264.758 216.648L261.817 218.852C265.483 218.501 267.554 218.596 271.373 221.056L280.562 223.994L301.144 232.074L307.393 237.951L330.18 243.46H337.164C335.971 246.257 336.817 247.983 339.369 251.173L337.164 261.089L343.045 265.129V283.126L350.763 291.941C349.66 298.184 344.251 299.985 344.882 305.163L347.455 308.468C333.764 316.347 326.617 320.396 316.581 325.73L318.787 312.508L313.641 314.345L309.23 306.264L297.469 295.246L290.853 300.388L272.476 297.082L249.321 300.388C233.09 274.613 219.909 267.244 196.394 254.111C197.31 248.643 198.734 246.11 204.48 243.46C209.005 235.966 212.017 231.731 219.917 223.994C223.038 222.798 224.337 222.635 226.165 222.892V218.852C229.127 217.875 231.008 218.485 232.046 216.648C235.071 211.297 236.681 208.194 240.5 203.794C242.542 202.31 244.94 202.163 249.321 201.957C251.158 207.099 256.304 207.834 258.877 214.445Z"
                        class="svg-map__region"
                      ></path>
                    </g>
                    <g
                      id="mangystau-region"
                      role="checkbox"
                      class="svg-map__group"
                      aria-checked="false"
                    >
                      <path
                        d="M83.3151 277.817C84.054 277.081 75.9389 271.194 73.7245 269.354C74.0946 267.514 75.57 264.938 76.6754 265.67C79.7608 269.966 78.1521 259.787 79.9952 259.419C82.5786 259.419 82.4567 257.466 86.6361 257.211C99.5477 257.947 109.689 260.891 110.243 259.787C111.35 257.579 105.445 257.211 102.128 253.899C100.284 252.06 100.875 246.182 104.71 249.479C108.399 248.006 113.563 249.479 118.358 245.8L117.62 244.703C120.202 242.12 120.94 241.016 121.309 239.183C137.908 234.761 144.178 236.6 146.761 232.553C148.605 233.664 149.711 235.136 151.556 235.136C153.4 240.648 154.138 238.44 155.613 239.183C158.195 239.912 160.409 241.016 162.991 241.391C162.991 241.391 168.156 264.57 165.943 263.466C164.467 262.73 155.613 266.41 154.138 267.51V348.094C154.138 349.203 148.975 350.306 146.761 348.094C145.233 346.568 139.026 341.317 139.014 337.423C139.003 333.53 126.474 325.434 124.997 325.28C117.99 324.549 100.414 333.527 98.4387 337.423C96.9632 337.416 97.3333 334.852 97.7022 331.54C98.4387 328.964 105.209 320.189 101.759 317.557C99.2999 316.453 95.8578 316.759 95.1201 316.086C91.9914 313.232 91.3355 314.022 89.5858 314.983C86.6361 313.51 86.2672 309.83 85.1594 307.256C82.6389 307.614 79.4137 305.794 78.9194 309.209C78.9093 309.293 78.8991 309.378 78.8886 309.464C78.8973 309.376 78.9076 309.291 78.9194 309.209C79.8878 301.115 79.1882 298.873 76.6754 297.321C73.9554 292.641 73.0371 290.665 72.6191 288.488C72.6191 284.44 69.2993 282.233 62.2908 282.233C60.4464 281.129 62.2895 275.609 63.0286 275.609L71.8814 276.345C75.4342 279.008 77.8862 279.449 83.3151 277.817Z"
                        class="svg-map__region"
                      ></path>
                    </g>
                    <g
                      id="pavlodar-region"
                      role="checkbox"
                      class="svg-map__group"
                      aria-checked="false"
                    >
                      <path
                        d="M449.69 107.423C444.793 109.435 442.834 110.886 441.61 114.397C447.49 115.965 448.563 118.331 446.752 125.041C443.788 131.423 444.921 133.134 453.73 131.648C460.28 134.684 461.995 136.786 463.647 140.823C459.696 144.46 459.167 145.788 462.545 146.329C470.414 142.152 476.477 140.771 489.724 139.722C493.499 123.717 504.782 133.483 505.884 141.925C508.976 142.893 511.642 143.902 517.637 146.329C524.723 141.163 524.551 137.009 521.31 128.711C516.826 126.025 514.886 123.947 512.128 119.535C520.135 115.018 524.427 112.103 530.86 104.487C517.784 74.697 509.378 58.8224 484.582 38.0532C497.069 33.2814 494.498 29.4525 480.542 35.117C471.095 38.9509 466.692 41.4758 461.81 47.2292C456.338 48.1998 453.693 49.3091 452.261 55.671C444.778 49.3535 441.838 51.6202 436.835 56.7721C433.529 68.1502 446.752 58.9743 437.937 69.2514C439.406 75.1239 448.588 65.581 446.017 81.3635L446.752 97.8801C444.337 99.8604 443.076 101.026 443.079 104.487L449.69 107.423Z"
                        class="svg-map__region"
                      ></path>
                    </g>
                    <g
                      id="almaty-city"
                      role="checkbox"
                      class="svg-map__group"
                      aria-checked="false"
                    >
                      <g class="svg-map__city">
                        <circle
                          cx="496.092"
                          cy="301.045"
                          r="9"
                          class="svg-map__city-path"
                        ></circle>
                        <text
                          x="501.935"
                          y="306.09"
                          font-size="14"
                          class="svg-map__text"
                        >
                          Алматы
                        </text>
                        <circle
                          cx="496.092"
                          cy="301.045"
                          r="2.78141"
                          class="svg-map__circle"
                        ></circle>
                      </g>
                    </g>
                    <g
                      id="astana-city"
                      role="checkbox"
                      class="svg-map__group"
                      aria-checked="false"
                    >
                      <g class="svg-map__city">
                        <circle
                          cx="391.789"
                          cy="128.597"
                          r="9"
                          class="svg-map__city-path"
                        ></circle>
                        <text
                          x="374.685"
                          y="119.343"
                          font-size="14"
                          class="svg-map__text"
                        >
                          Астана
                        </text>
                        <circle
                          cx="391.789"
                          cy="128.597"
                          r="2.78141"
                          class="svg-map__circle"
                        ></circle>
                      </g>
                    </g>
                    <g
                      id="shymkent-city"
                      role="checkbox"
                      class="svg-map__group"
                      aria-checked="false"
                    >
                      <g class="svg-map__city">
                        <circle
                          cx="370.928"
                          cy="333.379"
                          r="9"
                          class="svg-map__city-path"
                        ></circle>
                        <text
                          x="348.962"
                          y="348.16"
                          font-size="14"
                          class="svg-map__text"
                        >
                          Шымкент
                        </text>
                        <circle
                          cx="370.928"
                          cy="333.379"
                          r="2.78141"
                          class="svg-map__circle"
                        ></circle>
                      </g>
                    </g>
                  </svg>