<svg xmlns="http://www.w3.org/2000/svg" width="142" height="142" fill="none">
    <rect width="142" height="142" fill="#ffffff" rx="20" />
    <path fill="#5168A3"
        d="M32.12 117v-11.52h4.568c.779 0 1.416.157 1.912.472.501.309.872.707 1.112 1.192.245.485.368.987.368 1.504 0 .635-.152 1.173-.456 1.616a2.19 2.19 0 0 1-1.224.896v-.4c.725.165 1.275.509 1.648 1.032.379.523.568 1.117.568 1.784 0 .683-.13 1.28-.392 1.792-.261.512-.65.912-1.168 1.2-.512.288-1.147.432-1.904.432H32.12Zm1.952-1.816h2.84c.336 0 .637-.067.904-.2.267-.139.475-.331.624-.576.155-.251.232-.547.232-.888 0-.309-.067-.587-.2-.832a1.467 1.467 0 0 0-.584-.584c-.256-.149-.563-.224-.92-.224h-2.896v3.304Zm0-5.104h2.592c.277 0 .525-.053.744-.16.219-.107.392-.264.52-.472.128-.208.192-.464.192-.768 0-.4-.128-.733-.384-1s-.613-.4-1.072-.4h-2.592v2.8Zm10.558 7.16c-.624 0-1.152-.117-1.584-.352a2.487 2.487 0 0 1-.984-.952 2.645 2.645 0 0 1-.328-1.304c0-.416.07-.789.208-1.12.138-.336.352-.624.64-.864.288-.245.661-.445 1.12-.6.346-.112.752-.213 1.216-.304.47-.091.976-.173 1.52-.248.55-.08 1.122-.165 1.72-.256l-.688.392c.005-.597-.128-1.037-.4-1.32-.272-.283-.73-.424-1.376-.424-.39 0-.766.091-1.128.272-.363.181-.616.493-.76.936l-1.76-.552a3.27 3.27 0 0 1 1.216-1.76c.602-.443 1.413-.664 2.432-.664.768 0 1.442.125 2.024.376a2.514 2.514 0 0 1 1.304 1.232c.154.304.248.616.28.936.032.315.048.659.048 1.032V117h-1.688v-1.872l.28.304c-.39.624-.846 1.083-1.368 1.376-.518.288-1.166.432-1.944.432Zm.384-1.536c.437 0 .81-.077 1.12-.232a2.19 2.19 0 0 0 .736-.568c.186-.224.312-.435.376-.632a2.4 2.4 0 0 0 .168-.84c.016-.32.024-.579.024-.776l.592.176c-.582.091-1.08.171-1.496.24-.416.069-.774.136-1.072.2a6.826 6.826 0 0 0-.792.2c-.224.08-.414.173-.568.28a1.239 1.239 0 0 0-.36.368.96.96 0 0 0-.12.488c0 .213.053.403.16.568.106.16.261.288.464.384.208.096.464.144.768.144ZM51.416 117v-8.64h1.849v6.928h2.44v-6.928h1.848v6.928h2.44v-6.928h1.847V117H51.416Zm15.073.24c-.624 0-1.152-.117-1.584-.352a2.487 2.487 0 0 1-.984-.952 2.646 2.646 0 0 1-.328-1.304c0-.416.07-.789.208-1.12.139-.336.352-.624.64-.864.288-.245.662-.445 1.12-.6a10.69 10.69 0 0 1 1.216-.304c.47-.091.976-.173 1.52-.248.55-.08 1.123-.165 1.72-.256l-.688.392c.006-.597-.128-1.037-.4-1.32-.272-.283-.73-.424-1.376-.424-.39 0-.765.091-1.128.272-.362.181-.616.493-.76.936l-1.76-.552a3.27 3.27 0 0 1 1.216-1.76c.603-.443 1.413-.664 2.432-.664.768 0 1.443.125 2.024.376a2.513 2.513 0 0 1 1.304 1.232c.155.304.248.616.28.936.032.315.048.659.048 1.032V117h-1.688v-1.872l.28.304c-.39.624-.845 1.083-1.368 1.376-.517.288-1.165.432-1.944.432Zm.384-1.536c.438 0 .81-.077 1.12-.232.31-.155.555-.344.736-.568a1.97 1.97 0 0 0 .376-.632c.102-.245.157-.525.168-.84.016-.32.024-.579.024-.776l.592.176c-.581.091-1.08.171-1.496.24-.416.069-.773.136-1.072.2a6.836 6.836 0 0 0-.792.2c-.224.08-.413.173-.568.28a1.241 1.241 0 0 0-.36.368.96.96 0 0 0-.12.488c0 .213.053.403.16.568.107.16.261.288.464.384.208.096.464.144.768.144Zm14.494 1.536c-1.152 0-2.139-.251-2.96-.752a5.03 5.03 0 0 1-1.896-2.112c-.437-.901-.656-1.947-.656-3.136s.219-2.235.656-3.136c.443-.901 1.075-1.603 1.896-2.104.821-.507 1.808-.76 2.96-.76 1.328 0 2.435.333 3.32 1 .885.661 1.507 1.555 1.864 2.68l-1.944.536c-.224-.752-.605-1.339-1.144-1.76-.539-.427-1.237-.64-2.096-.64-.773 0-1.419.173-1.936.52-.512.347-.899.835-1.16 1.464-.256.624-.387 1.357-.392 2.2 0 .843.128 1.579.384 2.208.261.624.65 1.109 1.168 1.456.517.347 1.163.52 1.936.52.859 0 1.557-.213 2.096-.64.539-.427.92-1.013 1.144-1.76l1.944.536c-.357 1.125-.979 2.021-1.864 2.688-.885.661-1.992.992-3.32.992Zm6.94-.24v-11.52h4.76c.113 0 .257.005.433.016.175.005.338.021.487.048.667.101 1.217.323 1.648.664.438.341.76.773.968 1.296a4.49 4.49 0 0 1 .32 1.728c0 .939-.237 1.747-.712 2.424-.474.672-1.202 1.088-2.183 1.248l-.825.072h-2.968V117h-1.927Zm6.617 0-2.273-4.688 1.96-.432 2.496 5.12h-2.183Zm-4.689-5.824h2.752c.107 0 .227-.005.36-.016.134-.011.257-.032.369-.064.32-.08.57-.221.752-.424.186-.203.317-.432.391-.688.08-.256.12-.507.12-.752s-.04-.496-.12-.752a1.711 1.711 0 0 0-.391-.696c-.182-.203-.433-.344-.752-.424a1.549 1.549 0 0 0-.368-.056 4.401 4.401 0 0 0-.36-.016h-2.752v3.888ZM98.87 117v-11.52h1.736l3.984 8.16 3.984-8.16h1.736V117h-1.8v-7.384L104.974 117h-.768l-3.528-7.384V117H98.87Z" />
    <path fill="#5168A2"
        d="M55.989 68.694h-8.952c-.3 0-.576.163-.722.425l-4.412 7.96a.826.826 0 0 0 .002.803l4.41 7.896a.825.825 0 0 0 .72.423h8.956c.298 0 .572-.16.719-.42l4.454-7.896a.826.826 0 0 0 .002-.81l-4.457-7.959a.825.825 0 0 0-.72-.422ZM94.918 27.8h-8.952c-.3 0-.577.164-.722.426l-4.412 7.96a.826.826 0 0 0 .001.803l4.41 7.896a.825.825 0 0 0 .72.423h8.957c.297 0 .572-.16.718-.42l4.455-7.896a.827.827 0 0 0 .002-.81l-4.457-7.959a.825.825 0 0 0-.72-.422Z" />
    <path fill="#5168A2" fill-rule="evenodd"
        d="M85.562 57.017c0 .35-.012.697-.036 1.04-.51 7.261-6.321 13.058-13.585 13.544a14.872 14.872 0 0 1-1.964 0c-7.26-.477-13.071-6.26-13.598-13.51a14.846 14.846 0 0 1-.005-2.065c.51-7.61 6.841-13.625 14.577-13.625.328 0 .653.01.975.032 7.276.479 13.098 6.287 13.6 13.56.024.339.036.68.036 1.024Zm-10.732.876.001.082v6.854h-7.76v-6.854l.002-.082a3.882 3.882 0 0 1 2.125-3.38 2.972 2.972 0 1 1 3.508 0 3.881 3.881 0 0 1 2.124 3.38Z"
        clip-rule="evenodd" />
    <path fill="#5168A2"
        d="M81.159 35.596H70.803a.826.826 0 0 0-.826.826v6.01a14.82 14.82 0 0 1 1.948 0h.017v-4.854h9.22l-.329-.59a.826.826 0 0 1 0-.803l.326-.589ZM60.843 78.455h10.273c.456 0 .826-.37.826-.826v-6.028h-.001a14.872 14.872 0 0 1-1.964 0v4.872h-9.149l.338.602c.14.252.14.559-.002.81l-.321.57ZM50.496 45.308v11.957c0 .456.37.826.826.826h5.057a14.846 14.846 0 0 1-.005-2.065h-3.896V45.308h3.513c.298 0 .572-.16.719-.42l4.454-7.896a.826.826 0 0 0 .002-.81l-4.457-7.959a.825.825 0 0 0-.72-.422h-8.952c-.3 0-.576.163-.722.425l-4.412 7.96a.826.826 0 0 0 .002.803l4.41 7.896a.825.825 0 0 0 .72.423h3.462ZM91.423 68.694V56.819a.826.826 0 0 0-.826-.826h-5.07a14.836 14.836 0 0 1-.001 2.065h3.916v10.636h-3.476c-.3 0-.577.163-.722.425l-4.412 7.96a.826.826 0 0 0 .001.803l4.41 7.896a.825.825 0 0 0 .72.423h8.957c.297 0 .572-.16.718-.42l4.455-7.896a.827.827 0 0 0 .002-.81l-4.457-7.959a.825.825 0 0 0-.72-.422h-3.495Z" />
</svg>