 <svg
                            xmlns="http://www.w3.org/2000/svg"
                            viewBox="0 0 306 226"
                            width="306"
                            height="226"
                            fill="none"
                          >
                            <g
                              stroke="#ffffff"
                              stroke-width="6"
                            >
                              <path
                                d="M133 3H23C11.954 3 3 11.954 3 23v70c0 11.046 8.954 20 20 20h110c11.046 0 20-8.954 20-20V23c0-11.046-8.954-20-20-20Z"
                                stroke-dasharray="9"
                                opacity=".4"
                              ></path>
                              <path
                                d="M133 3H23C11.954 3 3 11.954 3 23v70c0 11.046 8.954 20 20 20h110c11.046 0 20-8.954 20-20V23c0-11.046-8.954-20-20-20Z"
                                stroke-dasharray="14 96"
                                stroke-dashoffset="34"
                                pathLength="110"
                                mask="url(#mask-top)"
                                class="api__dashed-line api__dashed-line--top"
                              ></path>
                              <mask id="mask-top">
                                <path
                                  d="M133 3H23C11.954 3 3 11.954 3 23v70c0 11.046 8.954 20 20 20h110c11.046 0 20-8.954 20-20V23c0-11.046-8.954-20-20-20Z"
                                  stroke-dasharray="9"
                                ></path>
                              </mask>
                            </g>
                            <g
                              stroke="#ffffff"
                              stroke-width="6"
                            >
                              <path
                                d="M283 113H173c-11.046 0-20 8.954-20 20v70c0 11.046 8.954 20 20 20h110c11.046 0 20-8.954 20-20v-70c0-11.046-8.954-20-20-20Z"
                                stroke-dasharray="9"
                                opacity=".4"
                              ></path>
                              <path
                                d="M283 113H173c-11.046 0-20 8.954-20 20v70c0 11.046 8.954 20 20 20h110c11.046 0 20-8.954 20-20v-70c0-11.046-8.954-20-20-20Z"
                                stroke-dasharray="14 96"
                                stroke-dashoffset="88"
                                pathLength="110"
                                mask="url(#mask-bottom)"
                                class="api__dashed-line api__dashed-line--bottom"
                              ></path>
                              <mask
                                id="mask-bottom"
                              >
                                <path
                                  d="M283 113H173c-11.046 0-20 8.954-20 20v70c0 11.046 8.954 20 20 20h110c11.046 0 20-8.954 20-20v-70c0-11.046-8.954-20-20-20Z"
                                  stroke-dasharray="9"
                                ></path>
                              </mask>
                            </g>
                          </svg>