<svg xmlns="http://www.w3.org/2000/svg" width="142" height="142" fill="none">
    <rect width="142" height="142" fill="#ffffff" rx="20" />
    <path fill="#63B4B8"
        d="M30.356 114.313h4.81v2.023H27v-1.528l4.63-5.844h-4.493v-2.023h7.884v1.479l-4.665 5.893ZM40.34 114.591c.388 0 .746-.083 1.074-.248.327-.164.57-.386.727-.664v-1.615h-.982c-1.316 0-2.016.434-2.1 1.303l-.01.147c0 .313.115.57.346.773.23.203.545.304.945.304Zm2.174 1.745a2.69 2.69 0 0 1-.264-.842c-.636.677-1.464 1.016-2.482 1.016-.964 0-1.763-.266-2.397-.799-.633-.532-.95-1.204-.95-2.014 0-.996.386-1.76 1.16-2.293.773-.532 1.89-.801 3.35-.807h1.21v-.539c0-.434-.117-.781-.35-1.042-.233-.26-.602-.39-1.105-.39-.442 0-.79.101-1.041.304-.252.202-.377.48-.377.833h-2.629c0-.544.176-1.047.528-1.511.351-.463.849-.826 1.491-1.089.643-.264 1.364-.395 2.165-.395 1.212 0 2.175.291 2.887.872.712.582 1.069 1.4 1.069 2.453v4.073c.006.891.136 1.565.39 2.023v.147h-2.655ZM50.371 112.569l-.946.903v2.865h-2.628V103h2.628v7.389l.51-.625 2.519-2.822h3.155l-3.556 3.916 3.866 5.479h-3.02l-2.528-3.768ZM62.64 115.381c-.649.753-1.546 1.129-2.692 1.129-1.055 0-1.86-.289-2.414-.868-.555-.579-.838-1.427-.85-2.544v-6.157h2.628v6.077c0 .98.466 1.469 1.4 1.469.891 0 1.504-.296 1.837-.887v-6.659h2.638v9.395h-2.474l-.073-.955ZM73.4 111.543c0-.874-.163-1.548-.487-2.023-.324-.474-.795-.712-1.414-.712-.825 0-1.391.301-1.7.903v3.847c.32.619.893.929 1.718.929 1.255 0 1.883-.981 1.883-2.944Zm2.627.183c0 1.447-.343 2.606-1.031 3.477s-1.618 1.307-2.788 1.307c-.994 0-1.797-.33-2.41-.99v4.428H67.17v-13.007h2.437l.091.921c.637-.73 1.467-1.094 2.492-1.094 1.213 0 2.156.428 2.828 1.285.673.856 1.01 2.037 1.01 3.542v.131ZM81.228 112.569l-.946.903v2.865h-2.629V103h2.629v7.389l.509-.625 2.52-2.822h3.155l-3.556 3.916 3.865 5.479h-3.02l-2.527-3.768ZM90.38 116.337h-2.637v-9.395h2.637v9.395Zm-2.792-11.827c0-.376.132-.685.395-.929.264-.243.623-.364 1.078-.364.449 0 .807.121 1.073.364.267.244.4.553.4.929 0 .382-.135.695-.404.938-.27.243-.626.365-1.069.365-.442 0-.799-.122-1.069-.365a1.206 1.206 0 0 1-.404-.938ZM92.678 115.104c0-.4.14-.724.422-.973s.636-.373 1.06-.373c.43 0 .787.124 1.069.373.282.249.422.573.422.973 0 .393-.14.713-.418.959-.279.246-.636.369-1.073.369-.43 0-.785-.123-1.064-.369a1.22 1.22 0 0 1-.418-.959ZM101.525 112.569l-.945.903v2.865h-2.629V103h2.629v7.389l.509-.625 2.519-2.822h3.156l-3.556 3.916 3.865 5.479h-3.02l-2.528-3.768ZM110.921 114.313h4.811v2.023h-8.167v-1.528l4.63-5.844h-4.493v-2.023h7.885v1.479l-4.666 5.893Z" />
    <path fill="#376466"
        d="m72.314 73.055 3.84 3.898 5.793 9.48.948 2.347-10.661-7.665s-1.034-4.208-1.04-8.693c-.005-4.486 1.12.633 1.12.633Z" />
    <path fill="#376466" fill-rule="evenodd"
        d="M54.468 54.775s-6.35 9.261-6.408 10.702c1.033-.502 8.16-5.855 12.872-2.996l-6.464-7.706Z"
        clip-rule="evenodd" />
    <path fill="#63B4B8" fill-rule="evenodd"
        d="M99.561 24.916S72.744 39.94 72.378 69.326c0 0 7.72 9.608 10.516 19.455-.024-.08-.076-.07-.152-.227-.119-.244-.295-.71-.512-1.153-1.72-3.511-6.883-12.488-16.056-20.39-11.069-9.533-7.771-6.836-7.771-6.836s-3.914-2.698-4.904-8.91c0 0-2.563-10.425-4.666-13.135-.096-.123-6.582-8.438-6.676-8.525.967.77 7.938 10.858 13.193 9.777.683-.037 6.057-.416 7.267 7.652 1.335-2.213 15.959-15.083 36.944-22.118Z"
        clip-rule="evenodd" />
    <path fill="#A8D5D7"
        d="m72.314 73.057 4.744 5.378.803.927.575.824.712 1.099.453.823 1.483 2.914 1.81 3.76-8.489-6.104-1.23-4.594-.861-5.027Z" />
    <path fill="#63B4B8" fill-rule="evenodd"
        d="m82.873 88.736-.593-1.23c.106.224.201.449.284.643.068.162.128.303.178.406a.51.51 0 0 0 .102.148c.01.011.02.021.029.033Zm-.647-1.342-1.142-2.372-1.483-2.915-.453-.823-.712-1.1-.575-.823-.803-.926-3.497-3.964c4.65 5.475 7.476 10.498 8.665 12.923Z"
        clip-rule="evenodd" />
</svg>