  <svg
                            _ngcontent-serverApp-c218=""
                            xmlns="http://www.w3.org/2000/svg"
                            width="80"
                            height="80"
                            fill="none"
                            class="api__setting"
                          >
                            <path
                              _ngcontent-serverApp-c218=""
                              d="M30.138 5.59a20 20 0 0 1 19.724 0L57.4 9.862l7.47 4.392a20 20 0 0 1 9.861 17.082L74.8 40l-.069 8.664a20 20 0 0 1-9.862 17.082L57.4 70.138l-7.538 4.272a20 20 0 0 1-19.724 0L22.6 70.138l-7.47-4.392A20 20 0 0 1 5.27 48.664L5.2 40l.069-8.664a20 20 0 0 1 9.862-17.082L22.6 9.862l7.538-4.272Z"
                              class="api__setting-back"
                            ></path>
                            <path
                              _ngcontent-serverApp-c218=""
                              stroke="#343A40"
                              stroke-linecap="round"
                              stroke-linejoin="round"
                              stroke-miterlimit="10"
                              stroke-width="3"
                              d="M40 47a7 7 0 1 0 0-14 7 7 0 0 0 0 14Z"
                              class="api__setting-circle"
                            ></path>
                            <path
                              _ngcontent-serverApp-c218=""
                              stroke="#343A40"
                              stroke-linecap="round"
                              stroke-linejoin="round"
                              stroke-miterlimit="10"
                              stroke-width="3"
                              d="M16.667 42.054v-4.107c0-2.426 1.983-4.433 4.433-4.433 4.224 0 5.95-2.987 3.827-6.65-1.213-2.1-.49-4.83 1.633-6.043l4.037-2.31c1.843-1.097 4.223-.444 5.32 1.4l.257.443c2.1 3.663 5.553 3.663 7.676 0l.257-.443c1.097-1.844 3.477-2.497 5.32-1.4l4.037 2.31c2.123 1.213 2.846 3.943 1.633 6.043-2.123 3.663-.397 6.65 3.827 6.65 2.426 0 4.433 1.983 4.433 4.433v4.107c0 2.427-1.983 4.433-4.433 4.433-4.224 0-5.95 2.987-3.827 6.65 1.213 2.124.49 4.83-1.633 6.044l-4.037 2.31c-1.843 1.096-4.223.443-5.32-1.4l-.257-.444c-2.1-3.663-5.553-3.663-7.676 0l-.257.444c-1.097 1.843-3.477 2.496-5.32 1.4l-4.037-2.31c-2.123-1.214-2.846-3.944-1.633-6.044 2.123-3.663.397-6.65-3.827-6.65-2.45 0-4.433-2.006-4.433-4.433Z"
                              class="api__setting-cog"
                            ></path>
                          </svg>