 <svg xmlns="http://www.w3.org/2000/svg" viewBox="0 0 16 16">
                            <path         
                              d="M8 1.441c2.135 0 2.388.007 3.231.047.78.035 1.205.167 1.486.277.373.145.64.318.919.597.279.28.452.546.597.92.11.28.24.705.277 1.485.037.844.046 1.097.046 3.232 0 2.135-.006 2.388-.046 3.232-.035.78-.167 1.204-.277 1.486-.145.372-.319.64-.597.918a2.484 2.484 0 0 1-.919.598c-.281.11-.705.239-1.486.276-.843.038-1.096.047-3.231.047s-2.388-.007-3.231-.047c-.78-.035-1.205-.166-1.486-.276a2.485 2.485 0 0 1-.919-.598 2.486 2.486 0 0 1-.597-.918c-.11-.282-.24-.706-.277-1.486-.037-.844-.047-1.097-.047-3.232 0-2.135.007-2.388.047-3.232.035-.78.167-1.205.277-1.486.145-.373.319-.64.597-.919.28-.279.546-.452.919-.597.281-.11.705-.24 1.486-.277.843-.04 1.096-.047 3.231-.047ZM8 0C5.828 0 5.556.01 4.703.05c-.85.04-1.432.173-1.943.372a3.86 3.86 0 0 0-1.415.92C.9 1.789.628 2.234.422 2.762.225 3.269.089 3.85.049 4.704.01 5.557 0 5.829 0 8c0 2.173.01 2.445.05 3.298.039.85.173 1.432.372 1.943.204.522.478.97.923 1.413.445.445.89.717 1.418.923.508.197 1.09.333 1.942.373.853.04 1.125.049 3.297.049 2.173 0 2.444-.01 3.297-.05.851-.04 1.432-.173 1.943-.372a3.91 3.91 0 0 0 1.413-.923c.445-.445.717-.89.923-1.418.197-.509.333-1.09.373-1.943.04-.853.049-1.125.049-3.298 0-2.172-.01-2.444-.05-3.297-.039-.85-.173-1.432-.372-1.943a3.91 3.91 0 0 0-.923-1.413A3.938 3.938 0 0 0 13.237.42c-.508-.197-1.09-.333-1.942-.373C10.445.009 10.172 0 8 0Z"
                            ></path>
                            <path       
                              d="M8 4a4 4 0 1 0 0 8 4 4 0 0 0 0-8Zm0 6.597a2.597 2.597 0 1 1 0-5.194 2.597 2.597 0 0 1 0 5.194ZM12.5 5a1 1 0 1 0 0-2 1 1 0 0 0 0 2Z"
                            ></path>
                          </svg>