<svg
                          version="1.1"
                          xmlns="http://www.w3.org/2000/svg"
                          xmlns:xlink="http://www.w3.org/1999/xlink"
                          x="0px"
                          y="0px"
                          viewBox="0 0 512 512"
                        >
                          <path
                            d="M321.555 321.967h-26.111c-7.213 0-13.056 5.842-13.056 13.056v26.111c0 7.213 5.842 13.056 13.056 13.056h26.111c7.213 0 13.056-5.842 13.056-13.056v-26.111c0-7.213-5.842-13.056-13.056-13.056zm-39.166-65.278V282.8c0 7.213 5.842 13.056 13.056 13.056h26.111c7.213 0 13.056-5.842 13.056-13.056v-26.111c0-7.213-5.842-13.056-13.056-13.056h-26.111c-7.214.001-13.056 5.843-13.056 13.056zm91.389 117.5h26.111c7.213 0 13.056-5.842 13.056-13.056v-26.111c0-7.213-5.842-13.056-13.056-13.056h-26.111c-7.213 0-13.056 5.842-13.056 13.056v26.111c0 7.214 5.842 13.056 13.056 13.056zm0-78.333h26.111c7.213 0 13.056-5.842 13.056-13.056v-26.111c0-7.213-5.842-13.056-13.056-13.056h-26.111c-7.213 0-13.056 5.842-13.056 13.056V282.8c0 7.214 5.842 13.056 13.056 13.056zm65.277-221.944H240.823C235.429 58.735 221.085 47.8 204.055 47.8h-65.278c-17.029 0-31.374 10.934-36.768 26.111H73.5c-28.845 0-52.222 23.378-52.222 52.222v287.222c0 28.845 23.378 52.222 52.222 52.222h365.556c28.845 0 52.222-23.378 52.222-52.222V126.134c0-28.845-23.378-52.222-52.223-52.222zM138.778 86.967h65.278v261.111h-65.278V86.967zm313.333 326.389c0 7.197-5.859 13.056-13.056 13.056H73.5c-7.197 0-13.056-5.859-13.056-13.056V126.134c0-7.197 5.859-13.056 13.056-13.056h26.111v235c0 21.631 17.535 39.167 39.167 39.167h65.278c21.631 0 39.167-17.535 39.167-39.167v-235h39.167v58.75c0 18 14.639 32.639 32.639 32.639h137.083v208.889zm0-248.056H321.555v-52.222h117.5c7.197 0 13.056 5.859 13.056 13.056V165.3z"
                          ></path>
                        </svg>