 <svg
                                      xmlns="http://www.w3.org/2000/svg"
                                      viewBox="0 0 24 24"
                                    >
                                      <path
                                        d="M12 22a10 10 0 0 0 0-20 10 10 0 0 0 0 20Zm-3.3-9.09.9 3a.37.37 0 0 0 .46.23.39.39 0 0 0 .14-.14l1.38-1.35 2.35 1.73a.64.64 0 0 0 .89-.13.58.58 0 0 0 .12-.25l1.65-7.78a.49.49 0 0 0-.39-.58.5.5 0 0 0-.27 0L6.1 11.48a.32.32 0 0 0-.19.42.3.3 0 0 0 .21.2Z"
                                      ></path>
                                    </svg>