 <svg
                                _ngcontent-serverApp-c97=""
                                xmlns="http://www.w3.org/2000/svg"
                                viewBox="0 0 24 24"
                              >
                                <path
                                  _ngcontent-serverApp-c97=""
                                  d="M18.42 5.17c-.91.31-15.69 6.04-15.83 6.14-.44.3-.63.93-.45 1.46.09.25.4.59.65.7.1.05 1.02.34 2.03.66l1.83.57.66 2.16c.74 2.41.75 2.46 1.17 2.73.29.2.56.27.9.24.47-.04.65-.16 1.62-1.1l.87-.84 1.67 1.24 1.85 1.34c.41.24 1.03.25 1.52 0 .3-.14.64-.5.76-.8.05-.11.7-3.05 1.43-6.53 1.27-5.95 1.35-6.34 1.33-6.64a1.23 1.23 0 0 0-.13-.55 1.53 1.53 0 0 0-1.88-.78m-.78 7.67c-.73 3.42-1.34 6.24-1.37 6.27a.16.16 0 0 1-.1.05c-.06 0-1.95-1.37-3.8-2.77l-1.06-.78a4.9 4.9 0 0 1-.66-.53c0-.02.91-.85 2.01-1.84 1.1-.99 2.05-1.88 2.11-1.97.13-.2.14-.4.03-.63a1.19 1.19 0 0 0-.51-.47.8.8 0 0 0-.58.12c-.2.16-4 3.58-4.15 3.74-.07.08-.19.27-.26.41-.1.24-.12.3-.12.64 0 .69.17.95.98 1.54l.49.36-.67.65c-.38.36-.68.64-.69.62l-.65-2.14A54.69 54.69 0 0 1 8 13.9c0-.22-.31-.52-.59-.57-.16-.02-3.23-.97-3.32-1.01-.02-.02 3.3-1.32 7.4-2.9 4.1-1.57 7.46-2.85 7.46-2.83l-1.3 6.24"
                                ></path>
                              </svg>