   <svg
                                          xmlns="http://www.w3.org/2000/svg"
                                          viewBox="0 0 16 16"
                                          fill="none"
                                        >
                                          <defs>
                                            <linearGradient
                                              id="a"
                                              x1="8"
                                              x2="8"
                                              y1=".5"
                                              y2="15.389"
                                              gradientUnits="userSpaceOnUse"
                                            >
                                              <stop
                                                stop-color="#2AABEE"
                                              ></stop>
                                              <stop
                                                offset="1"
                                                stop-color="#229ED9"
                                              ></stop>
                                            </linearGradient>
                                          </defs>
                                          <path
                                            fill="url(#a)"
                                            fill-rule="evenodd"
                                            d="M15.5 8a7.5 7.5 0 1 1-15 0 7.5 7.5 0 0 1 15 0ZM8.269 6.037c-.73.303-2.188.931-4.374 1.884-.355.141-.541.28-.558.414-.029.228.257.318.646.44l.164.053c.383.124.899.27 1.166.276.243.005.514-.095.814-.3 2.042-1.38 3.097-2.077 3.163-2.092.047-.01.112-.024.155.015.044.04.04.113.035.133-.028.12-1.15 1.164-1.73 1.704a13.702 13.702 0 0 0-.513.489c-.355.343-.622.6.015 1.02.307.202.552.369.796.535.267.182.533.363.878.59.088.057.172.117.253.175.311.221.59.42.935.389.2-.019.407-.207.513-.77.248-1.328.736-4.205.85-5.391a1.321 1.321 0 0 0-.013-.296.316.316 0 0 0-.107-.203.493.493 0 0 0-.29-.087c-.283.005-.715.156-2.798 1.022Z"
                                            clip-rule="evenodd"
                                          ></path>
                                        </svg>