<svg 
                                xmlns="http://www.w3.org/2000/svg"
                                viewBox="0 0 24 24"
                                fill="none"
                              >
                                <path
                                  d="M18.732 8.52c.01.149.01.298.01.448 0 4.58-3.486 9.86-9.86 9.86v-.002a9.812 9.812 0 0 1-5.313-1.554 6.96 6.96 0 0 0 5.13-1.436 3.47 3.47 0 0 1-3.239-2.407c.52.1 1.055.08 1.565-.06a3.466 3.466 0 0 1-2.78-3.396v-.044a3.443 3.443 0 0 0 1.573.433 3.47 3.47 0 0 1-1.073-4.627 9.837 9.837 0 0 0 7.143 3.62 3.468 3.468 0 0 1 5.906-3.16 6.954 6.954 0 0 0 2.2-.842 3.479 3.479 0 0 1-1.523 1.917 6.894 6.894 0 0 0 1.99-.546 7.04 7.04 0 0 1-1.73 1.796Z"
                                  fill="#1D9BF0"
                                ></path>
                              </svg>