  <svg
                                          xmlns="http://www.w3.org/2000/svg"
                                          viewBox="0 0 16 18"
                                        >
                                          <path
                                            d="M5.59482 5.26454C5.73662 5.27034 5.89349 5.27699 6.04255 5.60831C6.14441 5.8348 6.3158 6.25706 6.45239 6.59357C6.55304 6.84154 6.63479 7.04294 6.65589 7.08515C6.70564 7.18465 6.73878 7.30083 6.67246 7.43369C6.66254 7.45355 6.65335 7.47229 6.64458 7.4902C6.59473 7.59193 6.55811 7.66668 6.4737 7.76547C6.44062 7.80409 6.40642 7.84569 6.37222 7.8873C6.30354 7.97083 6.23486 8.05438 6.17522 8.11389C6.07542 8.21308 5.97176 8.32086 6.08783 8.51985C6.20393 8.71903 6.60324 9.37029 7.19472 9.89762C7.83011 10.4641 8.38209 10.7038 8.66239 10.8255C8.71745 10.8494 8.76202 10.8687 8.79469 10.8851C8.99368 10.9846 9.10974 10.968 9.22581 10.835C9.34191 10.7024 9.72298 10.2543 9.85565 10.0553C9.98828 9.85616 10.121 9.88933 10.3033 9.95565C10.4858 10.022 11.4639 10.5034 11.6629 10.6029C11.7017 10.6223 11.738 10.6398 11.7716 10.656C11.9104 10.723 12.0042 10.7683 12.0443 10.835C12.094 10.9183 12.094 11.3164 11.9282 11.781C11.7624 12.2456 10.9501 12.6936 10.5853 12.7268C10.5501 12.73 10.5152 12.7341 10.4793 12.7383C10.1422 12.7779 9.71669 12.828 8.19772 12.229C6.32867 11.4919 5.0963 9.66537 4.8417 9.28802C4.82082 9.25707 4.80651 9.23587 4.79897 9.22582L4.79676 9.22286C4.68948 9.07948 3.98656 8.1401 3.98656 7.16808C3.98656 6.25181 4.43695 5.77152 4.64417 5.55054C4.65833 5.53544 4.67136 5.52155 4.68302 5.50881C4.86529 5.30971 5.08089 5.25988 5.21352 5.25988C5.22079 5.25988 5.22807 5.25988 5.23533 5.25988C5.3606 5.25987 5.48523 5.25985 5.59482 5.26454Z"
                                            fill="url(#paint0_linear_8119_200821)"
                                          ></path>
                                          <path
                                            fill-rule="evenodd"
                                            clip-rule="evenodd"
                                            d="M1.14056 12.9045C0.433736 11.6997 0.0642572 10.3342 0.0642572 8.92056C0.0642572 4.53502 3.64659 0.96875 8.03213 0.96875C10.1687 0.96875 12.1606 1.80409 13.6707 3.29807C15.1647 4.80811 16 6.80008 16 8.93662C16 13.3222 12.4177 16.8884 8.03213 16.8884C6.6988 16.8884 5.38153 16.5671 4.2249 15.9246L0 17.033L1.14056 12.9045ZM2.4257 12.4547L2.58634 12.6957L1.91165 15.1374L4.41767 14.4788L4.65864 14.6234C5.67068 15.2338 6.84337 15.5551 8.03213 15.5551C11.6787 15.5551 14.6506 12.5832 14.6506 8.93662C14.6506 7.16955 13.9598 5.49887 12.7068 4.24586C11.4699 3.00891 9.7992 2.31815 8.03213 2.31815C4.38554 2.31815 1.41365 5.27397 1.41365 8.93662C1.41365 10.1736 1.76707 11.3945 2.4257 12.4547Z"
                                            fill="url(#paint1_linear_8119_200821)"
                                          ></path>
                                          <defs>
                                            <linearGradient
                                              id="paint0_linear_8119_200821"
                                              x1="0"
                                              y1="9.00176"
                                              x2="16"
                                              y2="9.00176"
                                              gradientUnits="userSpaceOnUse"
                                            >
                                              <stop
                                                stop-color="#20B038"
                                              ></stop>
                                              <stop
                                                offset="1"
                                                stop-color="#60D66A"
                                              ></stop>
                                            </linearGradient>
                                            <linearGradient
                                              id="paint1_linear_8119_200821"
                                              x1="0"
                                              y1="9.00176"
                                              x2="16"
                                              y2="9.00176"
                                              gradientUnits="userSpaceOnUse"
                                            >
                                              <stop
                                                stop-color="#20B038"
                                              ></stop>
                                              <stop
                                                offset="1"
                                                stop-color="#60D66A"
                                              ></stop>
                                            </linearGradient>
                                          </defs>
                                        </svg>