  <svg
                            xmlns="http://www.w3.org/2000/svg"
                            viewBox="0 0 16 16"
                          >
                            <path
                              d="M13.316 2.68A7.449 7.449 0 0 0 8.03.5C3.914.5.56 3.834.56 7.932c0 1.31.344 2.59.998 3.716L.5 15.5l3.96-1.034a7.48 7.48 0 0 0 3.568.905h.003c4.116 0 7.467-3.334 7.469-7.432a7.357 7.357 0 0 0-2.184-5.259ZM8.033 14.116h-.002a6.213 6.213 0 0 1-3.16-.862l-.227-.133-2.35.613.627-2.28-.148-.233a6.152 6.152 0 0 1-.95-3.289c.002-3.406 2.787-6.177 6.212-6.177 1.66 0 3.217.645 4.39 1.812a6.115 6.115 0 0 1 1.816 4.37c0 3.408-2.787 6.179-6.208 6.179Zm3.405-4.628c-.186-.092-1.105-.543-1.275-.604-.17-.06-.296-.092-.42.093-.126.186-.483.604-.592.728-.109.125-.218.14-.404.048-.187-.093-.789-.29-1.5-.923a5.644 5.644 0 0 1-1.04-1.287c-.108-.185-.01-.287.083-.38.084-.084.186-.217.28-.326.092-.108.124-.185.185-.31.062-.124.032-.232-.015-.325-.048-.093-.42-1.007-.576-1.38-.152-.362-.304-.312-.42-.319a8.862 8.862 0 0 0-.357-.006.688.688 0 0 0-.498.232c-.17.186-.652.636-.652 1.55s.668 1.798.761 1.92c.094.124 1.317 2 3.19 2.805.445.192.793.305 1.063.39a2.56 2.56 0 0 0 1.176.075c.359-.054 1.104-.45 1.259-.881.154-.435.154-.806.109-.883-.046-.077-.17-.122-.357-.217Z"
                            ></path>
                          </svg>