<svg
                                _ngcontent-serverApp-c96=""
                                xmlns="http://www.w3.org/2000/svg"
                                viewBox="0 0 24 24"
                              >
                                <path
                                  _ngcontent-serverApp-c96=""
                                  d="M10.98 2.58a9.31 9.31 0 0 0-3.103.921A9.352 9.352 0 0 0 3.6 7.78c-.676 1.372-.974 2.653-.974 4.18 0 1.478.279 2.777.857 3.996l.197.415-.6 2.185c-.33 1.201-.6 2.243-.6 2.315 0 .346.271.608.663.641.185.015.546-.067 2.416-.552l2.198-.571.471.201c1.122.478 2.02.693 3.209.767 2.723.171 5.329-.823 7.31-2.787 1.216-1.204 2.158-2.956 2.527-4.699.153-.723.186-1.076.184-1.971-.001-.955-.048-1.355-.258-2.24-.823-3.459-3.546-6.132-7.043-6.915-.96-.216-2.24-.282-3.177-.165m1.96 1.478c2.75.329 5.016 1.903 6.236 4.334.591 1.179.903 2.818.789 4.14-.215 2.466-1.501 4.66-3.521 6.003-1.299.865-2.583 1.279-4.127 1.332-1.389.048-2.512-.18-3.714-.752-.274-.13-.563-.247-.642-.26-.109-.017-.578.089-1.875.426-.952.246-1.739.439-1.75.428-.011-.011.181-.747.427-1.634.246-.888.449-1.696.452-1.795.004-.147-.048-.29-.283-.78-.585-1.216-.813-2.201-.817-3.532a7.92 7.92 0 0 1 2.722-5.987c1.699-1.471 3.949-2.18 6.103-1.923M8.754 6.816c-.313.084-.624.305-1.028.729-.406.425-.59.693-.753 1.096-.54 1.337-.035 3.087 1.418 4.919.388.489 1.56 1.661 2.049 2.049.745.591 1.479 1.031 2.155 1.291.582.225.932.302 1.485.327.425.019.553.009.855-.063a2.859 2.859 0 0 0 1.093-.502c.309-.232.845-.793.982-1.028.381-.652.269-1.615-.25-2.149-.183-.189-1.43-1.066-1.725-1.213-.565-.283-1.421-.182-1.904.225l-.121.101-.295-.253c-.323-.277-.981-.949-1.184-1.21-.129-.164-.129-.164-.049-.237.045-.04.146-.205.226-.366.128-.26.146-.335.163-.685.031-.639-.019-.761-.731-1.79-.615-.889-.851-1.103-1.358-1.235-.283-.074-.768-.077-1.028-.006m.702 1.508c.058.046.295.355.525.687.312.449.419.635.419.727 0 .102-.055.178-.304.423-.308.302-.454.533-.455.722-.001.159.145.414.538.938.632.841 1.532 1.705 2.369 2.272.553.374.712.354 1.249-.157.28-.266.378-.336.472-.336.086 0 .286.118.731.43.682.478.785.583.743.757-.037.151-.593.694-.826.805-.427.206-.926.208-1.525.007-.944-.316-1.782-.879-2.827-1.898-1.382-1.348-2.137-2.548-2.289-3.637-.086-.616.047-.983.543-1.493.352-.363.444-.399.637-.247"
                                ></path>
                              </svg>