<svg xmlns="http://www.w3.org/2000/svg" xmlns:xlink="http://www.w3.org/1999/xlink" version="1.1" width="250" height="250" viewBox="0 0 250 250" xml:space="preserve">
<desc>Created with Fabric.js 5.2.4</desc>
<defs>
</defs>
<rect x="0" y="0" width="100%" height="100%" fill="transparent"/>
<g transform="matrix(1 0 0 1 125 125)" id="9fef8ce1-f2a2-404b-b797-f7e851f6fb29">
<rect style="stroke: none; stroke-width: 1; stroke-dasharray: none; stroke-linecap: butt; stroke-dashoffset: 0; stroke-linejoin: miter; stroke-miterlimit: 4; fill: rgb(39,39,73); fill-rule: nonzero; opacity: 1;" vector-effect="non-scaling-stroke" x="-125" y="-125" rx="0" ry="0" width="250" height="250"/>
</g>
<g transform="matrix(0 0 0 0 0 0)" id="fd5d22ec-c532-4eba-b1fd-ed33ece9e3c5">
</g>
<g transform="matrix(0.62 0 0 0.62 125 125)">
<g style="">
		<g transform="matrix(0.71 0 0 0.71 0.66 7.2)">
<path style="stroke: none; stroke-width: 1; stroke-dasharray: none; stroke-linecap: butt; stroke-dashoffset: 0; stroke-linejoin: miter; stroke-miterlimit: 4; fill: rgb(244,247,247); fill-rule: evenodd; opacity: 1;" vector-effect="non-scaling-stroke" transform=" translate(-196, -235.5)" d="M 5 65 L 196 0 L 387 65 L 196 10 z M 5 391 L 196 471 L 387 386 L 196 461 z" stroke-linecap="round"/>
</g>
		<g transform="matrix(0.12 0 0 0.12 -0.43 -65.9)">
<path style="stroke: none; stroke-width: 1; stroke-dasharray: none; stroke-linecap: butt; stroke-dashoffset: 0; stroke-linejoin: miter; stroke-miterlimit: 4; fill: rgb(244,247,247); fill-rule: nonzero; opacity: 1;" vector-effect="non-scaling-stroke" transform=" translate(-423.33, -423.33)" d="M 272.7 820.6 C 263.34999999999997 820.6 255.76999999999998 813.02 255.76999999999998 803.6700000000001 C 255.76999999999998 794.32 263.34999999999997 786.7400000000001 272.7 786.7400000000001 L 656.76 786.7400000000001 L 656.76 718.3900000000001 C 656.76 704.4700000000001 662.46 691.7800000000001 671.66 682.57 L 671.76 682.47 C 680.97 673.2900000000001 693.66 667.6 707.55 667.6 L 775.9 667.6 L 775.9 76.85000000000002 C 775.9 72.18000000000002 773.99 67.93000000000002 770.9499999999999 64.87000000000002 C 767.89 61.83000000000002 763.64 59.920000000000016 758.9699999999999 59.920000000000016 L 233.00999999999988 59.920000000000016 C 228.37999999999988 59.920000000000016 224.13999999999987 61.84000000000002 221.06999999999988 64.91000000000001 C 217.9999999999999 67.98 216.07999999999987 72.22000000000001 216.07999999999987 76.85000000000001 L 216.07999999999987 481.27000000000004 C 216.07999999999987 490.62000000000006 208.49999999999986 498.20000000000005 199.14999999999986 498.20000000000005 C 189.79999999999987 498.20000000000005 182.21999999999986 490.62000000000006 182.21999999999986 481.27000000000004 L 182.21999999999986 76.85000000000002 C 182.21999999999986 62.87000000000002 187.93999999999986 50.160000000000025 197.12999999999985 40.97000000000002 C 206.31999999999985 31.780000000000022 219.04999999999984 26.06000000000002 233.00999999999985 26.06000000000002 L 758.9699999999999 26.06000000000002 C 772.91 26.06000000000002 785.5999999999999 31.78000000000002 794.79 40.96000000000002 C 804.04 50.22000000000002 809.76 62.910000000000025 809.76 76.85000000000002 L 809.76 684.53 C 809.76 689.48 807.6899999999999 693.61 804.51 696.79 L 685.95 815.3499999999999 C 682.34 818.9599999999999 678.44 820.4899999999999 673.69 820.5999999999999 L 272.70000000000005 820.5999999999999 z M 53.829999999999984 820.5400000000001 L 36.899999999999984 820.5400000000001 L 36.899999999999984 786.6800000000001 L 230.33999999999997 786.6800000000001 L 230.33999999999997 820.5400000000001 L 53.829999999999984 820.5400000000001 z M 74.90999999999998 779.97 L 57.97999999999998 779.97 L 57.97999999999998 746.11 L 209.25 746.11 L 209.25 779.97 L 74.91 779.97 z M 353.41999999999996 686.1 C 358.37999999999994 678.95 368.09999999999997 676.7 375.75999999999993 681.13 C 383.8299999999999 685.8 386.5799999999999 696.15 381.9099999999999 704.22 L 366.4699999999999 730.96 C 361.7999999999999 739.0300000000001 351.44999999999993 741.7800000000001 343.37999999999994 737.11 C 335.72999999999996 732.6800000000001 332.85999999999996 723.16 336.55999999999995 715.3000000000001 L 233.04999999999995 655.5500000000001 L 219.75999999999996 678.5600000000001 C 215.08999999999997 686.6300000000001 204.73999999999995 689.3800000000001 196.66999999999996 684.71 L 140.58999999999997 652.33 C 132.51999999999998 647.6600000000001 129.76999999999998 637.3100000000001 134.43999999999997 629.24 L 177.85999999999996 554.05 C 182.52999999999994 545.9799999999999 192.87999999999997 543.2299999999999 200.94999999999996 547.9 L 257.03 580.28 C 265.09999999999997 584.9499999999999 267.84999999999997 595.3 263.17999999999995 603.37 L 249.90999999999994 626.34 L 353.41999999999996 686.1 z M 120.46999999999997 687.19 C 112.39999999999998 682.5200000000001 109.64999999999998 672.1700000000001 114.31999999999996 664.1 C 118.98999999999997 656.03 129.33999999999997 653.28 137.40999999999997 657.95 L 192.05999999999997 689.51 C 200.12999999999997 694.18 202.87999999999997 704.53 198.20999999999998 712.6 C 193.54 720.6700000000001 183.18999999999997 723.4200000000001 175.11999999999998 718.75 L 120.46999999999997 687.19 z M 204.2 542.2800000000001 C 196.13 537.6500000000001 193.35 527.33 197.98 519.2600000000001 C 202.60999999999999 511.1900000000001 212.92999999999998 508.4100000000001 221 513.0400000000001 L 275.65999999999997 544.59 C 283.72999999999996 549.22 286.51 559.5400000000001 281.88 567.61 C 277.25 575.6800000000001 266.93 578.46 258.86 573.83 L 204.20000000000002 542.2800000000001 z M 225.48 601.08 L 198.66 585.6 L 172.14 631.53 L 198.95999999999998 647.01 L 225.48 601.08 z M 323.5 641.99 C 314.15 641.99 306.57 634.41 306.57 625.0600000000001 C 306.57 615.71 314.15 608.1300000000001 323.5 608.1300000000001 L 662.85 608.1300000000001 C 672.2 608.1300000000001 679.78 615.7100000000002 679.78 625.0600000000001 C 679.78 634.4100000000001 672.1999999999999 641.99 662.85 641.99 L 323.5 641.99 z M 323.5 573.06 C 314.15 573.06 306.57 565.4799999999999 306.57 556.13 C 306.57 546.78 314.15 539.2 323.5 539.2 L 666.73 539.2 C 676.08 539.2 683.66 546.7800000000001 683.66 556.13 C 683.66 565.48 676.0799999999999 573.06 666.73 573.06 L 323.5 573.06 z M 323.5 504.13999999999993 C 314.15 504.13999999999993 306.57 496.55999999999995 306.57 487.2099999999999 C 306.57 477.8599999999999 314.15 470.2799999999999 323.5 470.2799999999999 L 495.61 470.2799999999999 C 504.96000000000004 470.2799999999999 512.54 477.8599999999999 512.54 487.2099999999999 C 512.54 496.55999999999995 504.96 504.13999999999993 495.60999999999996 504.13999999999993 L 323.49999999999994 504.13999999999993 z M 553.8 145.31999999999994 L 553.8 239.32999999999993 C 553.8 248.67999999999992 546.2199999999999 256.25999999999993 536.87 256.25999999999993 C 532.27 256.25999999999993 528.09 254.41999999999993 525.04 251.43999999999994 L 495.11999999999995 226.84999999999994 L 464.06999999999994 252.35999999999993 C 456.87999999999994 258.2699999999999 446.23999999999995 257.2299999999999 440.3299999999999 250.03999999999994 C 437.74999999999994 246.89999999999995 436.48999999999995 243.09999999999994 436.49999999999994 239.32999999999993 L 436.43999999999994 145.31999999999994 L 383.3399999999999 145.31999999999994 L 383.3399999999999 368.87999999999994 L 606.8999999999999 368.87999999999994 L 606.8999999999999 145.31999999999994 L 553.7999999999998 145.31999999999994 z M 470.28999999999996 145.31999999999994 L 470.28999999999996 203.58999999999995 L 484.22999999999996 192.13999999999996 C 490.31999999999994 186.97999999999996 499.43999999999994 186.73999999999995 505.83 191.98999999999995 L 519.9399999999999 203.58999999999995 L 519.9399999999999 145.31999999999994 L 470.28999999999996 145.31999999999994 z M 366.40999999999997 111.45999999999994 C 452.21999999999997 111.45999999999994 538.02 111.45999999999994 623.8299999999999 111.45999999999994 C 633.18 111.45999999999994 640.7599999999999 119.03999999999994 640.7599999999999 128.38999999999993 L 640.7599999999999 385.80999999999995 C 640.7599999999999 395.15999999999997 633.1799999999998 402.73999999999995 623.8299999999999 402.73999999999995 L 366.4099999999999 402.73999999999995 C 357.0599999999999 402.73999999999995 349.4799999999999 395.15999999999997 349.4799999999999 385.80999999999995 L 349.4799999999999 128.38999999999993 C 349.4799999999999 119.03999999999994 357.0599999999999 111.45999999999992 366.4099999999999 111.45999999999992 z M 690.6199999999999 762.8 L 751.9599999999999 701.4599999999999 L 707.55 701.4599999999999 C 702.8599999999999 701.4599999999999 698.62 703.3499999999999 695.5999999999999 706.3699999999999 C 692.5099999999999 709.4599999999999 690.6199999999999 713.6999999999999 690.6199999999999 718.3899999999999 L 690.6199999999999 762.7999999999998 z" stroke-linecap="round"/>
</g>
		<g transform="matrix(2.2 0 0 2.2 0.29 37.12)">
<path style="stroke: none; stroke-width: 1; stroke-dasharray: none; stroke-linecap: butt; stroke-dashoffset: 0; stroke-linejoin: miter; stroke-miterlimit: 4; fill: rgb(244,247,247); fill-rule: nonzero; opacity: 1;" vector-effect="non-scaling-stroke" transform=" translate(-54.24, -25.98)" d="M 4.7059 16.203 L 0.7218999999999998 16.203 L 0.7218999999999998 11.951699999999999 L 12.3799 11.951699999999999 L 12.3799 16.203 L 7.2997 16.203 L 8.395999999999999 17.00514 L 8.395999999999999 39.97314 L 4.706199999999999 39.97314 L 4.706199999999999 16.20314 z M 13.90369946524064 12.861 L 13.23524946524064 12.03212 L 23.743249465240638 12.03212 L 23.743249465240638 16.25672 L 16.497249465240635 16.25672 L 17.593549465240635 17.085600000000003 L 17.593549465240635 23.903800000000004 L 21.925149465240636 23.903800000000004 L 21.925149465240636 28.155100000000004 L 16.497349465240635 28.155100000000004 L 17.593649465240635 28.957240000000006 L 17.593649465240635 35.80214000000001 L 23.743349465240634 35.80214000000001 L 23.743349465240634 40.02674000000001 L 13.903749465240633 40.02674000000001 L 13.903749465240633 35.80214000000001 L 13.903749465240633 28.155040000000007 L 13.903749465240633 23.903740000000006 L 13.903749465240633 12.860740000000007 z M 24.598932085561493 12.004999999999999 L 29.839532085561494 12.004999999999999 L 33.26203208556149 27.272 L 33.26203208556149 12.030999999999999 L 36.92513208556149 12.030999999999999 L 36.92513208556149 39.998999999999995 L 32.35293208556149 39.998999999999995 L 28.95723208556149 24.811999999999998 L 28.95723208556149 40.025999999999996 L 25.267432085561488 40.025999999999996 L 25.267432085561488 12.832999999999995 z M 42.72728556149732 35.8021 L 47.03208556149732 35.8021 L 47.03208556149732 16.2571 L 41.63098556149732 16.2571 L 42.72728556149732 17.085980000000003 L 42.72728556149732 35.802980000000005 z M 50.722085561497316 14.678999999999998 L 50.722085561497316 37.379999999999995 C 50.722085561497316 38.8773 49.54558556149732 40.0271 48.048285561497316 40.0271 L 39.037585561497316 40.0271 L 39.037585561497316 35.802499999999995 L 39.037585561497316 12.861499999999996 L 38.369135561497316 12.032619999999996 L 48.048235561497314 12.032619999999996 C 49.51883556149731 12.032619999999996 50.722035561497314 13.262519999999997 50.722035561497314 14.679719999999996 z M 52.32615935828876 12.861 L 51.65770935828876 12.03212 L 62.165709358288765 12.03212 L 62.165709358288765 16.25672 L 54.91970935828876 16.25672 L 56.01600935828876 17.085600000000003 L 56.01600935828876 23.903800000000004 L 60.347609358288764 23.903800000000004 L 60.347609358288764 28.155100000000004 L 54.91980935828877 28.155100000000004 L 56.016109358288766 28.957240000000006 L 56.016109358288766 35.80214000000001 L 62.16580935828877 35.80214000000001 L 62.16580935828877 40.02674000000001 L 52.326209358288764 40.02674000000001 L 52.326209358288764 35.80214000000001 L 52.326209358288764 28.155040000000007 L 52.326209358288764 23.903740000000006 L 52.326209358288764 12.860740000000007 z M 67.3796679144385 23.824 L 71.6844679144385 23.824 L 71.6844679144385 16.1502 L 66.2833679144385 16.1502 L 67.3796679144385 16.979080000000003 L 67.3796679144385 23.823980000000002 z M 75.3479679144385 14.599 L 75.3479679144385 25.401 C 75.3479679144385 26.8983 74.1982679144385 28.048099999999998 72.7008679144385 28.048099999999998 L 72.1928479144385 28.048099999999998 L 75.3479479144385 39.9461 L 71.5511479144385 39.9461 L 68.3960479144385 28.0481 L 66.2837479144385 28.0481 L 67.38004791443849 28.876980000000003 L 67.38004791443849 39.94698 L 63.690247914438494 39.94698 L 63.690247914438494 16.149980000000003 L 63.690247914438494 12.754280000000003 L 63.021797914438494 11.925400000000003 L 72.7008979144385 11.952138000000003 C 74.1981979144385 11.952138000000003 75.3479979144385 13.101838000000003 75.3479979144385 14.599238000000003 z M 80.53475187165775 23.048 L 85.77535187165775 12.004999999999999 L 89.89295187165774 12.004999999999999 L 83.20845187165774 26.016 L 89.89295187165774 40.027 L 85.77535187165775 40.027 L 80.53475187165775 28.984 L 80.53475187165775 40 L 76.84495187165774 40 L 76.84495187165774 13.075 L 75.98934187165774 12.0055 L 80.53484187165775 12.0055 L 80.53484187165775 23.048499999999997 z M 95.13366470588235 39.946524 L 91.44386470588235 39.946524 L 91.44386470588235 12.780523999999996 L 90.77541470588235 11.951643999999996 L 95.13371470588235 11.951643999999996 L 95.13371470588235 39.946644 z M 100.08023155080214 16.203 L 96.09623155080214 16.203 L 96.09623155080214 11.951699999999999 L 107.75423155080215 11.951699999999999 L 107.75423155080215 16.203 L 102.67403155080214 16.203 L 103.77033155080214 17.00514 L 103.77033155080214 39.97314 L 100.08053155080214 39.97314 L 100.08053155080214 16.20314 z" stroke-linecap="round"/>
</g>
		<g transform="matrix(0.64 0 0 0.64 0.35 86.54)">
<path style="stroke: none; stroke-width: 1; stroke-dasharray: none; stroke-linecap: butt; stroke-dashoffset: 0; stroke-linejoin: miter; stroke-miterlimit: 4; fill: rgb(244,247,247); fill-rule: nonzero; opacity: 1;" vector-effect="non-scaling-stroke" transform=" translate(-206.58, -15.43)" d="M 0.42 7.76 L 10.62 7.76 L 10.62 10.54 L 7.02 10.54 L 7.02 20 L 4.02 20 L 4.02 10.54 L 0.4199999999999995 10.54 L 0.4199999999999995 7.76 z M 14.969500000000002 7.76 L 24.0695 7.76 L 24.0695 10.54 L 17.969500000000004 10.54 L 17.969500000000004 12.5 L 22.869500000000002 12.5 L 22.869500000000002 15.28 L 17.969500000000004 15.28 L 17.969500000000004 17.22 L 24.069500000000005 17.22 L 24.069500000000005 20 L 14.969500000000005 20 L 14.969500000000005 7.76 z M 35.959 7.76 L 38.959 7.76 L 38.959 20 L 35.959 20 L 35.959 15.280000000000001 L 31.559000000000005 15.280000000000001 L 31.559000000000005 20 L 28.559000000000005 20 L 28.559000000000005 7.76 L 31.559000000000005 7.76 L 31.559000000000005 12.5 L 35.959 12.5 L 35.959 7.76 z M 47.648500000000006 17.22 L 51.60850000000001 17.22 L 51.60850000000001 10.479999999999999 L 48.688500000000005 10.479999999999999 C 48.648500000000006 12.779999999999998 48.38850000000001 15.02 47.648500000000006 17.22 z M 46.008500000000005 20 L 46.008500000000005 23.2 L 43.008500000000005 23.2 L 43.008500000000005 17.22 L 44.688500000000005 17.22 C 45.688500000000005 14.2 45.70850000000001 10.919999999999998 45.70850000000001 7.759999999999998 L 54.60850000000001 7.759999999999998 L 54.60850000000001 17.22 L 56.408500000000004 17.22 L 56.408500000000004 23.2 L 53.408500000000004 23.2 L 53.408500000000004 20 L 46.008500000000005 20 z M 60.638000000000005 7.76 L 69.738 7.76 L 69.738 10.54 L 63.638 10.54 L 63.638 12.5 L 68.538 12.5 L 68.538 15.28 L 63.638 15.28 L 63.638 17.22 L 69.738 17.22 L 69.738 20 L 60.638 20 L 60.638 7.76 z M 74.2275 20 L 74.2275 7.76 L 80.0275 7.76 C 82.3075 7.76 84.2475 9.48 84.2475 11.78 C 84.2475 14.1 82.2475 15.799999999999999 80.0275 15.799999999999999 L 77.2275 15.799999999999999 L 77.2275 20 L 74.2275 20 z M 80.0275 10.54 L 77.2275 10.54 L 77.2275 13.02 L 80.0275 13.02 C 80.7275 13.02 81.2475 12.48 81.2475 11.78 C 81.2475 11.079999999999998 80.7275 10.54 80.0275 10.54 z M 94.277 14.74 L 91.477 14.74 L 91.477 17.22 L 94.277 17.22 C 94.977 17.22 95.497 16.68 95.497 15.979999999999999 C 95.497 15.279999999999998 94.977 14.739999999999998 94.277 14.739999999999998 z M 94.277 20 L 88.477 20 L 88.477 7.76 L 91.477 7.76 L 91.477 11.96 L 94.277 11.96 C 96.557 11.96 98.497 13.680000000000001 98.497 15.98 C 98.497 18.3 96.497 20 94.277 20 z M 99.65700000000001 7.76 L 102.65700000000001 7.76 L 102.65700000000001 20 L 99.65700000000001 20 L 99.65700000000001 7.76 z M 117.616 7.76 L 117.616 14.92 L 122.416 7.76 L 125.416 7.76 L 125.416 20 L 122.416 20 L 122.416 12.84 L 117.616 20 L 114.616 20 L 114.616 7.76 L 117.616 7.76 z M 143.935 13.9 C 145.215 14.3 146.195 15.280000000000001 146.195 16.68 C 146.195 19.38 142.875 20.14 140.715 20.14 C 139.455 20.14 138.175 20 136.955 19.7 L 136.955 16.619999999999997 C 138.01500000000001 17.099999999999998 139.63500000000002 17.24 140.81500000000003 17.24 C 141.27500000000003 17.24 141.67500000000004 17.22 141.97500000000002 17.16 C 142.37500000000003 17.1 142.85500000000002 17 143.09500000000003 16.64 C 143.15500000000003 16.52 143.19500000000002 16.38 143.19500000000002 16.240000000000002 C 143.19500000000002 15.380000000000003 142.09500000000003 15.280000000000001 141.455 15.280000000000001 L 138.07500000000002 15.280000000000001 L 138.07500000000002 12.500000000000002 L 141.455 12.500000000000002 C 142.115 12.500000000000002 143.19500000000002 12.380000000000003 143.19500000000002 11.500000000000002 C 143.19500000000002 11.180000000000001 143.03500000000003 10.940000000000001 142.735 10.820000000000002 C 142.555 10.740000000000002 142.29500000000002 10.680000000000001 141.995 10.620000000000003 C 141.695 10.580000000000004 141.29500000000002 10.560000000000002 140.835 10.560000000000002 C 139.675 10.560000000000002 138.035 10.700000000000003 136.955 11.200000000000003 L 136.955 8.100000000000003 C 138.175 7.800000000000003 139.455 7.660000000000003 140.715 7.660000000000003 C 142.875 7.660000000000003 146.195 8.440000000000003 146.195 11.140000000000002 C 146.195 12.540000000000003 145.195 13.460000000000003 143.935 13.900000000000002 z M 158.2645 17.52 L 153.7645 17.52 L 152.8845 20 L 149.6245 20 L 154.52450000000002 7.76 L 157.52450000000002 7.76 L 162.42450000000002 20 L 159.14450000000002 20 z M 154.7445 14.74 L 157.28449999999998 14.74 L 156.0245 11.18 z M 166.434 7.76 L 169.434 7.76 L 169.434 13.5 L 173.374 7.76 L 177.094 7.76 L 172.814 13.879999999999999 L 177.254 20 L 173.57399999999998 20 L 169.434 14.24 L 169.434 20 L 166.434 20 L 166.434 7.76 z M 188.0235 12.440000000000001 L 188.0235 7.760000000000002 L 191.0235 7.760000000000002 L 191.0235 15.820000000000002 C 191.0235 19.1 188.4635 20.12 185.6835 20.12 C 184.2235 20.12 182.7835 19.94 181.3435 19.68 L 181.3435 16.86 C 182.0435 17.02 182.7835 17.099999999999998 183.5035 17.14 C 184.2435 17.2 184.9835 17.26 185.7235 17.26 C 186.58350000000002 17.26 187.1835 17.16 187.5235 16.98 C 187.86350000000002 16.8 188.0235 16.46 188.0235 15.96 L 188.0235 15.4 C 187.1835 15.48 186.32350000000002 15.540000000000001 185.48350000000002 15.540000000000001 C 182.64350000000002 15.540000000000001 180.58350000000002 14.16 180.58350000000002 11.240000000000002 L 180.58350000000002 7.760000000000002 L 183.58350000000002 7.760000000000002 L 183.58350000000002 11.220000000000002 C 183.58350000000002 12.480000000000002 184.54350000000002 12.640000000000002 185.60350000000003 12.640000000000002 C 186.40350000000004 12.640000000000002 187.22350000000003 12.540000000000003 188.0235 12.440000000000003 z M 195.793 7.76 L 206.193 7.76 L 206.193 20 L 203.193 20 L 203.193 10.48 L 198.793 10.48 L 198.793 20 L 195.793 20 L 195.793 7.76 z M 211.2825 7.76 L 214.2825 7.76 L 214.2825 13.5 L 218.2225 7.76 L 221.9425 7.76 L 217.6625 13.879999999999999 L 222.1025 20 L 218.42249999999999 20 L 214.2825 14.24 L 214.2825 20 L 211.2825 20 L 211.2825 7.76 z M 228.732 7.76 L 228.732 14.92 L 233.532 7.76 L 236.532 7.76 L 236.532 20 L 233.532 20 L 233.532 12.84 L 228.732 20 L 225.732 20 L 225.732 7.76 L 228.732 7.76 z M 257.831 13.719999999999999 C 258.711 14.339999999999998 259.231 15.259999999999998 259.231 16.34 C 259.231 18.42 257.311 20 255.311 20 L 248.811 20 L 248.811 7.76 L 254.911 7.76 C 256.511 7.76 257.831 8.62 258.531 10.04 C 258.731 10.5 258.831 10.959999999999999 258.831 11.44 C 258.831 12.34 258.471 13.08 257.831 13.719999999999999 z M 251.811 10.54 L 251.811 12.5 L 254.911 12.5 C 255.431 12.5 255.831 12 255.831 11.5 C 255.831 10.98 255.451 10.54 254.911 10.54 L 251.811 10.54 z M 251.811 15.280000000000001 L 251.811 17.220000000000002 L 255.311 17.220000000000002 C 255.851 17.220000000000002 256.231 16.78 256.231 16.26 C 256.231 16 256.131 15.760000000000002 255.951 15.560000000000002 C 255.771 15.380000000000003 255.551 15.280000000000003 255.311 15.280000000000003 L 251.811 15.280000000000003 z M 270.91 7.76 L 273.91 7.76 L 273.91 13.5 L 277.85 7.76 L 281.57000000000005 7.76 L 277.2900000000001 13.879999999999999 L 281.7300000000001 20 L 278.05000000000007 20 L 273.9100000000001 14.24 L 273.9100000000001 20 L 270.9100000000001 20 L 270.9100000000001 7.76 z M 292.93950000000007 17.52 L 288.43950000000007 17.52 L 287.55950000000007 20 L 284.2995000000001 20 L 289.19950000000006 7.76 L 292.19950000000006 7.76 L 297.09950000000003 20 L 293.81950000000006 20 z M 289.4195 14.74 L 291.95950000000005 14.74 L 290.69950000000006 11.18 z M 307.34900000000005 13.9 C 308.629 14.3 309.60900000000004 15.280000000000001 309.60900000000004 16.68 C 309.60900000000004 19.38 306.28900000000004 20.14 304.129 20.14 C 302.869 20.14 301.589 20 300.369 19.7 L 300.369 16.619999999999997 C 301.42900000000003 17.099999999999998 303.04900000000004 17.24 304.22900000000004 17.24 C 304.689 17.24 305.08900000000006 17.22 305.38900000000007 17.16 C 305.78900000000004 17.1 306.26900000000006 17 306.50900000000007 16.64 C 306.5690000000001 16.52 306.6090000000001 16.38 306.6090000000001 16.240000000000002 C 306.6090000000001 15.380000000000003 305.50900000000007 15.280000000000001 304.8690000000001 15.280000000000001 L 301.4890000000001 15.280000000000001 L 301.4890000000001 12.500000000000002 L 304.8690000000001 12.500000000000002 C 305.5290000000001 12.500000000000002 306.6090000000001 12.380000000000003 306.6090000000001 11.500000000000002 C 306.6090000000001 11.180000000000001 306.44900000000007 10.940000000000001 306.1490000000001 10.820000000000002 C 305.9690000000001 10.740000000000002 305.7090000000001 10.680000000000001 305.4090000000001 10.620000000000003 C 305.1090000000001 10.580000000000004 304.7090000000001 10.560000000000002 304.2490000000001 10.560000000000002 C 303.08900000000006 10.560000000000002 301.44900000000007 10.700000000000003 300.3690000000001 11.200000000000003 L 300.3690000000001 8.100000000000003 C 301.5890000000001 7.800000000000003 302.8690000000001 7.660000000000003 304.1290000000001 7.660000000000003 C 306.2890000000001 7.660000000000003 309.6090000000001 8.440000000000003 309.6090000000001 11.140000000000002 C 309.6090000000001 12.540000000000003 308.6090000000001 13.460000000000003 307.3490000000001 13.900000000000002 z M 321.6785000000001 17.52 L 317.1785000000001 17.52 L 316.2985000000001 20 L 313.0385000000001 20 L 317.9385000000001 7.76 L 320.9385000000001 7.76 L 325.83850000000007 20 L 322.5585000000001 20 z M 318.15850000000006 14.74 L 320.6985000000001 14.74 L 319.4385000000001 11.18 z M 334.60800000000006 16.32 L 332.10800000000006 20 L 328.60800000000006 20 L 332.86800000000005 13.74 L 328.80800000000005 7.76 L 332.30800000000005 7.76 L 334.60800000000006 11.16 L 336.9080000000001 7.76 L 340.4080000000001 7.76 L 336.36800000000005 13.74 L 340.60800000000006 20 L 337.10800000000006 20 z M 354.05750000000006 16.58 L 354.05750000000006 19.659999999999997 C 352.81750000000005 19.999999999999996 351.57750000000004 20.139999999999997 350.29750000000007 20.139999999999997 C 346.5375000000001 20.139999999999997 344.0175000000001 17.559999999999995 344.0175000000001 13.899999999999997 C 344.0175000000001 10.139999999999997 346.6375000000001 7.659999999999997 350.2775000000001 7.659999999999997 C 351.5375000000001 7.659999999999997 352.8575000000001 7.759999999999996 354.05750000000006 8.139999999999997 L 354.05750000000006 11.219999999999997 C 353.07750000000004 10.739999999999997 351.5375000000001 10.559999999999997 350.45750000000004 10.559999999999997 C 348.01750000000004 10.559999999999997 347.01750000000004 11.559999999999997 347.01750000000004 13.879999999999997 C 347.01750000000004 16.339999999999996 348.19750000000005 17.24 350.4775 17.24 C 351.4975 17.24 353.1575 17.08 354.0575 16.58 z M 357.8670000000001 7.76 L 368.06700000000006 7.76 L 368.06700000000006 10.54 L 364.46700000000004 10.54 L 364.46700000000004 20 L 361.46700000000004 20 L 361.46700000000004 10.54 L 357.867 10.54 L 357.867 7.76 z M 379.9965000000001 17.52 L 375.4965000000001 17.52 L 374.6165000000001 20 L 371.3565000000001 20 L 376.2565000000001 7.76 L 379.2565000000001 7.76 L 384.15650000000005 20 L 380.8765000000001 20 z M 376.47650000000004 14.74 L 379.01650000000006 14.74 L 377.7565000000001 11.18 z M 395.5660000000001 7.76 L 398.5660000000001 7.76 L 398.5660000000001 20 L 395.5660000000001 20 L 395.5660000000001 15.280000000000001 L 391.1660000000001 15.280000000000001 L 391.1660000000001 20 L 388.1660000000001 20 L 388.1660000000001 7.76 L 391.1660000000001 7.76 L 391.1660000000001 12.5 L 395.5660000000001 12.5 L 395.5660000000001 7.76 z M 403.63550000000004 7.76 L 412.73550000000006 7.76 L 412.73550000000006 10.54 L 406.63550000000004 10.54 L 406.63550000000004 12.5 L 411.5355 12.5 L 411.5355 15.28 L 406.63550000000004 15.28 L 406.63550000000004 17.22 L 412.73550000000006 17.22 L 412.73550000000006 20 L 403.63550000000004 20 L 403.63550000000004 7.76 z" stroke-linecap="round"/>
</g>
</g>
</g>
<g transform="matrix(0 0 0 0 -20.78 0)">
<g style="">
</g>
</g>
</svg>