<svg xmlns="http://www.w3.org/2000/svg" width="489" height="337" fill="none">
    <g stroke="#ffffff" stroke-width="3" opacity=".08">
        <path stroke-linecap="round" d="M47 187h85.5M47 219h85.5M47 251h85.5"/>
        <rect width="163" height="127" x="2" y="160" rx="10"/>
        <rect width="23" height="23" x="15" y="175" rx="11.5"/>
        <rect width="23" height="23" x="15" y="207" rx="11.5"/>
        <rect width="23" height="23" x="15" y="239" rx="11.5"/>
        <path stroke-linecap="round" d="m22 186 4 4 5.5-7M22 218l4 4 5.5-7M22 250l4 4 5.5-7"/>
    </g>
    <g fill="#ffffff" opacity=".08">
        <path d="M186 24h59v12h-59zM152 66a66 66 0 1 1-19.331-46.67l-14.151 14.152A45.986 45.986 0 1 0 131.987 66H152Z"/>
        <path d="M124.569 52.092a41.007 41.007 0 0 1-11.945 45.088 41.008 41.008 0 0 1-30.718 9.615 41.002 41.002 0 0 1-35.521-30.23l12.012-3.204a28.566 28.566 0 0 0 46.154 14.364 28.58 28.58 0 0 0 9.97-20.09c.221-3.847-.34-7.7-1.647-11.326l11.695-4.217Z"/>
        <path d="M100.974 48.542a22.997 22.997 0 0 1 5.07 28.738 23.002 23.002 0 0 1-39.44 1.08 23 23 0 0 1 17.64-35.293l.532 6.954a16.026 16.026 0 1 0 11.657 3.815l4.541-5.294Z"/>
        <path d="M186 39h26v12h-26zM214 39h26v12h-26zM198 54h86v12h-86zM198 69h47v12h-47zM205 83h18v12h-18zM205 128h18v12h-18zM205 233h18v12h-18zM219 263h18v12h-18zM219 293h18v12h-18zM205 158h27v12h-27zM205 188h27v12h-27z"/>
        <path d="M189 95h6v227h-6z"/>
        <path d="M226 83h87v12h-87zM226 128h87v12h-87zM226 233h87v12h-87zM240 263h87v12h-87zM240 293h202v12H240zM236 158h129v12H236zM236 188h129v12H236zM205 98h171v12H205zM205 143h171v12H205zM205 248h171v12H205zM219 278h171v12H219zM219 308h45v14h-45zM189 325h45v12h-45zM205 173h253v12H205zM205 203h253v12H205zM205 218h253v12H205zM205 113h111v12H205zM325 113h143v12H325zM316 83h17v12h-17zM316 128h17v12h-17zM316 233h17v12h-17zM330 263h17v12h-17zM445 293h17v12h-17zM369 158h25v12h-25zM369 188h120v12H369z"/>
        <path d="m186 69 6 6-6 6V69Z"/>
        <path d="m198 85-6 6-6-6h12Z"/>
        <path d="m186 54 6 6-6 6V54Z"/>
        <path d="M242 39h64v12h-64z"/>
    </g>
</svg>