<svg
                            version="1.1"
                            xmlns="http://www.w3.org/2000/svg"
                            xmlns:xlink="http://www.w3.org/1999/xlink"
                            x="0px"
                            y="0px"
                            viewBox="0 0 512 512"
                            class="icon__svg"
                          >
                            <path d="M300.93 86.66c-5.73 0-10.37-4.64-10.37-10.37 0-30.49 24.81-55.3 55.29-55.3 5.73 0 10.37 4.64 10.37 10.37s-4.64 10.37-10.37 10.37c-19.05 0-34.56 15.51-34.56 34.56.01 5.73-4.63 10.37-10.36 10.37zM480.63 86.66c-5.73 0-10.37-4.64-10.37-10.37 0-19.05-15.5-34.56-34.56-34.56-5.73 0-10.37-4.64-10.37-10.37S429.98 21 435.71 21C466.19 21 491 45.81 491 76.3c0 5.72-4.64 10.36-10.37 10.36zM435.71 221.44c-5.73 0-10.37-4.64-10.37-10.37 0-5.73 4.64-10.37 10.37-10.37 19.05 0 34.56-15.51 34.56-34.56 0-5.73 4.64-10.37 10.37-10.37S491 160.42 491 166.15c0 30.49-24.81 55.29-55.29 55.29zM345.85 221.44c-30.49 0-55.29-24.81-55.29-55.3 0-5.73 4.64-10.37 10.37-10.37 5.73 0 10.37 4.64 10.37 10.37 0 19.05 15.5 34.56 34.56 34.56 5.73 0 10.37 4.64 10.37 10.37-.01 5.73-4.65 10.37-10.38 10.37zM121.23 221.44c-2.65 0-5.31-1.01-7.33-3.04l-67.39-67.39c-4.05-4.05-4.05-10.61 0-14.66s10.61-4.05 14.66 0l60.06 60.06 60.06-60.06a10.363 10.363 0 0 1 14.66 0 10.363 10.363 0 0 1 0 14.66l-67.39 67.39a10.328 10.328 0 0 1-7.33 3.04z"></path>
                            <path d="M121.23 221.44c-5.73 0-10.37-4.64-10.37-10.37V98.76c0-43.6 34.16-77.76 77.76-77.76h22.46c5.73 0 10.37 4.64 10.37 10.37s-4.64 10.37-10.37 10.37h-22.46c-32.51 0-57.02 24.51-57.02 57.02v112.32c-.01 5.72-4.65 10.36-10.37 10.36zM166.15 491H76.3C45.81 491 21 466.19 21 435.71v-89.86c0-30.49 24.81-55.29 55.3-55.29h89.85c30.49 0 55.3 24.81 55.3 55.29v89.86c-.01 30.48-24.81 55.29-55.3 55.29zM76.3 311.3c-19.05 0-34.56 15.5-34.56 34.56v89.86c0 19.05 15.51 34.56 34.56 34.56h89.85c19.05 0 34.56-15.5 34.56-34.56v-89.86c0-19.05-15.51-34.56-34.56-34.56H76.3zM300.93 491c-5.73 0-10.37-4.64-10.37-10.37s4.64-10.37 10.37-10.37c19.05 0 34.56-15.5 34.56-34.56v-89.86c0-19.05-15.5-34.56-34.56-34.56-5.73 0-10.37-4.64-10.37-10.37 0-5.73 4.64-10.37 10.37-10.37 30.49 0 55.29 24.81 55.29 55.29v89.86c0 30.5-24.81 55.31-55.29 55.31zM435.71 491c-5.73 0-10.37-4.64-10.37-10.37s4.64-10.37 10.37-10.37c19.05 0 34.56-15.5 34.56-34.56v-89.86c0-19.05-15.5-34.56-34.56-34.56-5.73 0-10.37-4.64-10.37-10.37 0-5.73 4.64-10.37 10.37-10.37 30.49 0 55.29 24.81 55.29 55.29v89.86c0 30.5-24.81 55.31-55.29 55.31z"></path>
                          </svg>