<svg
                            version="1.1"
                            xmlns="http://www.w3.org/2000/svg"
                            xmlns:xlink="http://www.w3.org/1999/xlink"
                            x="0px"
                            y="0px"
                            viewBox="0 0 512 512"
                            class="icon__svg"
                          >
                            <path d="M345.84 468.54c-5.73 0-10.37-4.64-10.37-10.37v-44.93c0-21.23-8.26-41.19-23.28-56.2-14.79-14.79-35.28-23.28-56.21-23.28H121.22c-21.23 0-41.19 8.26-56.2 23.28-15.01 15.01-23.28 34.97-23.28 56.2v44.93c0 5.73-4.64 10.37-10.37 10.37S21 463.9 21 458.17v-44.93c0-26.77 10.42-51.94 29.36-70.86 18.93-18.92 44.09-29.35 70.86-29.35H256c26.77 0 51.94 10.43 70.87 29.35 18.92 18.92 29.35 44.09 29.35 70.86v44.93c-.01 5.73-4.64 10.37-10.38 10.37zM188.61 243.9c-55.26 0-100.22-44.96-100.22-100.22S133.35 43.46 188.61 43.46s100.22 44.96 100.22 100.22c-.01 55.27-44.96 100.22-100.22 100.22zm0-179.7c-43.83 0-79.48 35.65-79.48 79.48s35.65 79.49 79.48 79.49 79.48-35.66 79.48-79.49-35.65-79.48-79.48-79.48zM480.63 468.54c-5.73 0-10.37-4.64-10.37-10.37v-44.93c-.02-17.52-5.93-34.79-16.66-48.63-10.73-13.84-25.98-23.87-42.95-28.27-5.55-1.43-8.88-7.09-7.44-12.63 1.43-5.55 7.09-8.94 12.63-7.44 21.39 5.53 40.63 18.18 54.15 35.64 13.54 17.44 21 39.22 21.02 61.31v44.94c-.01 5.74-4.65 10.38-10.38 10.38zM345.84 241.21c-4.62 0-8.84-3.11-10.03-7.8-1.42-5.55 1.92-11.2 7.47-12.62 17.01-4.35 32.31-14.39 43.07-28.26 10.76-13.86 16.7-31.17 16.7-48.73 0-17.57-5.93-34.88-16.7-48.74-10.76-13.87-26.06-23.9-43.07-28.26-5.55-1.42-8.89-7.07-7.47-12.62 1.43-5.54 7.1-8.92 12.62-7.47 21.45 5.49 40.74 18.15 54.31 35.63 13.58 17.47 21.05 39.3 21.05 61.46s-7.47 43.98-21.05 61.45c-13.58 17.49-32.86 30.15-54.31 35.63-.86.22-1.73.33-2.59.33z"></path>
                          </svg>