 <svg
                                version="1.1"
                                xmlns="http://www.w3.org/2000/svg"
                                xmlns:xlink="http://www.w3.org/1999/xlink"
                                x="0px"
                                y="0px"
                                viewBox="0 0 512 512"
                                class="icon__svg"
                              >
                                <path d="M224.33 491H57.72V21h167.99c47.28 0 87.97 9.41 122.09 28.23 34.12 18.67 60.36 45.52 78.72 80.55 18.51 35.04 27.77 76.96 27.77 125.76 0 48.96-9.26 91.03-27.77 126.22-18.36 35.19-44.75 62.19-79.18 81.01C313.07 481.59 272.06 491 224.33 491zm-67.24-85.14h63.11c29.37 0 54.08-5.2 74.13-15.61 20.2-10.56 35.34-26.85 45.44-48.88 10.25-22.18 15.38-50.79 15.38-85.83 0-34.73-5.13-63.11-15.38-85.14-10.1-22.03-25.17-38.25-45.21-48.65s-44.75-15.61-74.13-15.61h-63.34v299.72z"></path>
                              </svg>