   <svg
                                width="18"
                                height="19"
                                viewBox="0 0 18 19"
                                fill="none"
                                xmlns="http://www.w3.org/2000/svg"
                              >
                                <g clip-path="url(#clip0_1287_14558)">
                                  <path
                                    d="M9.49927 14.0961L10.5814 15.1945L12.214 17.8664L12.4813 18.5278L9.47658 16.3674C9.47658 16.3674 9.18557 15.1817 9.1836 13.9176C9.18212 12.6529 9.49927 14.0961 9.49927 14.0961Z"
                                    fill="#2592A4"
                                  ></path>
                                  <path
                                    d="M4.46783 8.94385C4.46783 8.94385 2.67839 11.554 2.66211 11.96C2.95312 11.8189 4.96205 10.3096 6.28983 11.1155L4.46783 8.94385Z"
                                    fill="#2592A4"
                                  ></path>
                                  <path
                                    d="M17.1785 0.52832C17.1785 0.52832 9.6207 4.76272 9.51762 13.0451C9.51762 13.0451 11.6928 15.7529 12.4814 18.5283C12.4745 18.5056 12.4597 18.5086 12.4385 18.4642C12.405 18.3951 12.3552 18.2639 12.294 18.1392C11.8092 17.1497 10.3541 14.6195 7.76862 12.393C4.64893 9.70539 5.57867 10.4655 5.57867 10.4655C5.57867 10.4655 4.47531 9.70539 4.19664 7.95442C4.19664 7.95442 3.47405 5.01624 2.88119 4.25222C2.85455 4.21769 1.02614 1.87435 1 1.85018C1.27226 2.06671 3.23681 4.91019 4.71798 4.60537C4.91034 4.59502 6.42506 4.48799 6.76637 6.76178C7.14271 6.13834 11.2646 2.51111 17.1785 0.52832Z"
                                    fill="#2592A4"
                                  ></path>
                                  <path
                                    d="M9.49805 14.0959L10.8352 15.6116L11.0616 15.8731L11.2239 16.1049L11.4241 16.4151L11.5524 16.6469L11.9696 17.4682L12.4801 18.5276L10.088 16.8077L9.74072 15.5125L9.49805 14.0959Z"
                                    fill="#2592A4"
                                  ></path>
                                  <path
                                    d="M12.4746 18.5155L12.3069 18.1682C12.3365 18.2314 12.3641 18.295 12.3873 18.3502C12.4065 18.3956 12.4233 18.4356 12.4371 18.4642C12.4489 18.4883 12.4588 18.4982 12.4662 18.5061C12.4692 18.5092 12.472 18.5125 12.4746 18.5159V18.5155ZM12.2926 18.1381L11.97 17.4683L11.5522 16.6471L11.424 16.4153L11.2238 16.1055L11.0615 15.8732L10.8356 15.6118L9.84961 14.4946C11.1611 16.0384 11.9577 17.4545 12.2926 18.1381Z"
                                    fill="#2592A4"
                                  ></path>
                                </g>
                                <defs>
                                  <clipPath id="clip0_1287_14558">
                                    <rect
                                      width="18"
                                      height="18"
                                      fill="white"
                                      transform="translate(0 0.52832)"
                                    ></rect>
                                  </clipPath>
                                </defs>
                              </svg>