<svg
                        version="1.1"
                        xmlns="http://www.w3.org/2000/svg"
                        xmlns:xlink="http://www.w3.org/1999/xlink"
                        x="0px"
                        y="0px"
                        viewBox="0 0 512 512"
                        class="icon__svg"
                      >
                        <path d="M63.7 21h42.7c23.6 0 42.7 19.1 42.7 42.7v42.7c0 23.6-19.1 42.7-42.7 42.7H63.7C40.1 149.1 21 130 21 106.4V63.7C21 40.1 40.1 21 63.7 21zM234.6 21h42.7c23.6 0 42.7 19.1 42.7 42.7v42.7c0 23.6-19.1 42.7-42.7 42.7h-42.7c-23.6 0-42.7-19.1-42.7-42.7V63.7c0-23.6 19.1-42.7 42.7-42.7zM405.5 21h42.7c23.6 0 42.7 19.1 42.7 42.7v42.7c0 23.6-19.1 42.7-42.7 42.7h-42.7c-23.6 0-42.7-19.1-42.7-42.7V63.7c0-23.6 19.1-42.7 42.7-42.7zM63.7 191.9h42.7c23.6 0 42.7 19.1 42.7 42.7v42.7c0 23.6-19.1 42.7-42.7 42.7H63.7c-23.6.1-42.7-19-42.7-42.6v-42.7c0-23.7 19.1-42.8 42.7-42.8zM234.6 191.9h42.7c23.6 0 42.7 19.1 42.7 42.7v42.7c0 23.6-19.1 42.7-42.7 42.7h-42.7c-23.6 0-42.7-19.1-42.7-42.7v-42.7c0-23.6 19.1-42.7 42.7-42.7zM405.5 191.9h42.7c23.6 0 42.7 19.1 42.7 42.7v42.7c0 23.6-19.1 42.7-42.7 42.7h-42.7c-23.6 0-42.7-19.1-42.7-42.7v-42.7c0-23.6 19.1-42.7 42.7-42.7zM63.7 362.8h42.7c23.6 0 42.7 19.1 42.7 42.7v42.7c0 23.6-19.1 42.7-42.7 42.7H63.7c-23.6.1-42.7-19-42.7-42.6v-42.7c0-23.7 19.1-42.8 42.7-42.8zM234.6 362.8h42.7c23.6 0 42.7 19.1 42.7 42.7v42.7c0 23.6-19.1 42.7-42.7 42.7h-42.7c-23.6 0-42.7-19.1-42.7-42.7v-42.7c0-23.6 19.1-42.7 42.7-42.7zM405.5 362.8h42.7c23.6 0 42.7 19.1 42.7 42.7v42.7c0 23.6-19.1 42.7-42.7 42.7h-42.7c-23.6 0-42.7-19.1-42.7-42.7v-42.7c0-23.6 19.1-42.7 42.7-42.7z"></path>
                      </svg>