 <svg
                                          xmlns="http://www.w3.org/2000/svg"
                                          viewBox="0 0 32 32"
                                        >
                                          <path
                                            d="M23.547 30.226c-.707 0-1.614-.226-2.747-.893l-3.987-2.36c-.413-.24-1.213-.24-1.613 0l-4 2.36c-2.36 1.4-3.747.84-4.373.387-.614-.454-1.574-1.614-.947-4.28l.947-4.094c.106-.426-.107-1.16-.427-1.48L3.093 16.56C1.44 14.906 1.573 13.493 1.8 12.8c.227-.694.947-1.92 3.24-2.307l4.253-.707c.4-.066.974-.493 1.147-.853l2.36-4.707C13.867 2.08 15.267 1.76 16 1.76c.733 0 2.133.32 3.2 2.466l2.347 4.694c.186.36.76.786 1.16.853l4.253.707c2.307.386 3.027 1.613 3.24 2.306.213.694.347 2.107-1.293 3.76l-3.307 3.32c-.32.32-.52 1.04-.427 1.48l.947 4.094c.613 2.666-.333 3.826-.947 4.28-.333.24-.866.506-1.626.506ZM16 24.786c.653 0 1.307.16 1.827.467l3.986 2.36c1.16.693 1.894.693 2.174.493.28-.2.48-.906.186-2.213l-.946-4.093c-.254-1.107.16-2.534.96-3.347l3.306-3.307c.654-.653.947-1.293.814-1.733-.147-.44-.76-.8-1.667-.947l-4.253-.706c-1.027-.174-2.147-1-2.614-1.934l-2.346-4.693C17 4.28 16.467 3.773 16 3.773c-.467 0-1 .507-1.413 1.36l-2.36 4.693c-.467.934-1.587 1.76-2.614 1.934l-4.24.706c-.906.147-1.52.507-1.666.947-.147.44.16 1.093.813 1.733l3.307 3.307c.8.8 1.213 2.24.96 3.347l-.947 4.093c-.307 1.32-.093 2.013.187 2.213.28.2 1 .187 2.173-.493l3.987-2.36c.506-.307 1.16-.467 1.813-.467Z"
                                          ></path>
                                        </svg>