<svg xmlns="http://www.w3.org/2000/svg" viewBox="0 0 32 32" 
class="ng-star-inserted">
<path d="M16.027 27.374a28.9 28.9 0 0 1-9.16-1.48c-1.12-.387-1.974-1.174-2.347-2.2-.387-1.027-.253-2.16.36-3.174l1.533-2.546c.32-.534.614-1.6.614-2.227v-3.853c0-4.96 4.04-9 9-9s9 4.04 9 9v3.853c0 .613.293 1.693.613 2.24l1.52 2.533c.573.96.68 2.12.293 3.174a3.626 3.626 0 0 1-2.28 2.2 28.759 28.759 0 0 1-9.146 1.48Zm0-22.48c-3.854 0-7 3.133-7 7v3.853c0 .973-.4 2.413-.894 3.253L6.6 21.547c-.293.493-.373 1.013-.2 1.453.16.454.56.8 1.107.987a26.665 26.665 0 0 0 17.053 0c.48-.16.853-.52 1.027-1 .173-.48.133-1-.134-1.44L23.92 19c-.507-.866-.893-2.293-.893-3.266v-3.84a7 7 0 0 0-7-7Z"></path>
<path  d="M18.507 5.253c-.094 0-.187-.013-.28-.04a9.4 9.4 0 0 0-1.12-.24 7.797 7.797 0 0 0-3.254.24.982.982 0 0 1-1.026-.28.989.989 0 0 1-.187-1.04 3.632 3.632 0 0 1 3.4-2.32c1.52 0 2.853.907 3.4 2.32.133.36.067.76-.187 1.04-.2.214-.48.32-.746.32ZM16.027 30.414c-1.32 0-2.6-.534-3.534-1.467a5.018 5.018 0 0 1-1.466-3.533h2c0 .786.32 1.56.88 2.12s1.333.88 2.12.88c1.653 0 3-1.347 3-3h2c0 2.76-2.24 5-5 5Z"></path>
</svg>