<svg xmlns="http://www.w3.org/2000/svg" width="216" height="241" fill="none" opacity="0.06"><path fill="#376466" d="m113.472 181.14 14.447 14.665 21.801 35.673 3.566 8.832-40.115-28.844s-3.892-15.832-3.911-32.711c-.019-16.878 4.212 2.385 4.212 2.385Z"/><path fill="#305759" fill-rule="evenodd" d="M46.323 112.354S22.43 147.2 22.21 152.622c3.89-1.886 30.707-22.031 48.436-11.273-24.02-28.631 0 0-24.324-28.995Z" clip-rule="evenodd"/><path fill="#fff" fill-rule="evenodd" d="M216 0S115.09 56.534 113.716 167.109c0 0 29.045 36.15 39.57 73.201-.091-.302-.289-.265-.574-.851-.447-.92-1.111-2.677-1.926-4.341-6.472-13.212-25.9-46.99-60.417-76.72-41.65-35.873-29.24-25.727-29.24-25.727S46.4 122.521 42.677 99.143c0 0-9.643-39.223-17.558-49.421C24.76 49.257.352 17.972 0 17.645c3.636 2.894 29.866 40.857 49.642 36.788 2.57-.14 22.79-1.565 27.345 28.792C82.01 74.898 137.035 26.472 216 0Z" clip-rule="evenodd"/><path fill="#A8D5D7" d="m113.473 181.14 17.853 20.239 3.02 3.485 2.165 3.101 2.678 4.137 1.706 3.097 5.578 10.966 6.813 14.145-31.943-22.968-4.631-17.286-3.239-18.916Z"/><path fill="#63B4B8" fill-rule="evenodd" d="m118.163 186.458 13.163 14.922 3.02 3.484 2.165 3.102 2.678 4.136 1.706 3.097 5.578 10.966 4.312 8.952c-4.468-9.121-15.108-28.038-32.622-48.659Zm32.802 49.034c.402.848.764 1.703 1.077 2.442.258.61.483 1.141.67 1.525.154.318.283.452.383.557.042.044.079.083.111.127l-2.241-4.651Zm2.321 4.818Z" clip-rule="evenodd"/></svg>