<svg xmlns="http://www.w3.org/2000/svg" width="398" height="468" fill="none"><g clip-path="url(#a)" opacity=".7"><g opacity=".6"><g filter="url(#b)"><path stroke="#94E9FF" stroke-width=".5" d="m212.254 346.706 45.581 57.243m-45.581-57.243 5.514 33.582m-5.514-33.582 7.72-17.172m-7.72 17.172-8.822-9.541m8.822 9.541v-27.095m5.514 60.677 20.034 11.831m-20.034-11.831 9.19 37.4m-9.19-37.4-14.336-43.123m14.336 43.123-11.395-3.815m51.462 27.476 26.465 53.809m-26.465-53.809 20.585 53.809m-20.585-53.809-20.033-11.83m20.033 11.83-15.439 6.869m15.439-6.869-6.249 31.675m6.249-31.675 1.838-10.304m-1.838 10.304-37.861-74.415M284.3 457.758h-5.88m5.88 0-24.627-64.113m18.747 64.113-26.834-22.134m-24.628-17.936 10.844-25.569m-10.844 25.569 15.438-6.87m-15.438 6.87 24.628 17.936m-24.628-17.936-20.585-41.215m20.585 41.215-16.909-13.739-3.676-27.476m45.213 59.151-9.19-24.806M38.754 75.374.525 30.343l48.522 64.112M38.754 75.374l10.293 19.08m-10.293-19.08 20.217 16.791m-9.924 2.29 9.924-2.29m-9.924 2.29 16.908 41.978m-6.984-44.268 16.174 8.396m-16.174-8.396 6.984 44.268m9.19-35.872-9.19 35.872m9.19-35.872 15.806 2.29m-15.806-2.29 15.806 27.859m-24.996 8.013 24.996-8.013m-24.996 8.013 11.396 38.162m-11.396-38.162 23.526 10.686m1.47-44.268h9.925l16.909 5.724m-26.834-5.724 26.834 5.724m-26.834-5.724v25.569m26.834-19.845 8.822 6.488m-8.822-6.488L90.951 128.42m26.834-19.845 4.411 19.272m-31.245.573 31.245-.573m-31.245.573-1.47 18.699m37.126 0v-32.056m0 32.056 16.173 3.052m-16.173-3.052-4.411-19.272m4.411 19.272-30.142 33.963m30.142-33.963H89.481m37.126-32.056 8.823 12.593 7.35 22.515m-16.173-35.108 16.173 35.108m0 0-46.315 30.911m46.315-30.911-10.292 37.018m10.292-37.018 1.471 7.252m-66.9 17.172 12.13-27.476m-12.13 27.476 19.114 6.487m-19.114-6.487 9.557 40.452m2.573-67.928 32.715-19.272m-32.715 19.272 6.984 33.963m0 0 9.19 63.35m-9.19-63.35-9.557 33.965m9.557-33.965 36.023 6.107m0 0 11.763-29.766m-11.763 29.766 38.964-3.817m-38.964 3.817-26.833 57.243m26.833-57.243 45.214 32.056m-45.214-32.056 2.942 52.663m8.821-82.429 27.201-26.714m-27.201 26.714 74.62-29.767m-74.62 29.767 27.201 25.949M395.68 2.484h-11.029l-88.587 42.36m99.616-42.36-67.269 56.099M395.68 2.484l-47.419 20.164m-52.197 22.196 52.197-22.196m-52.197 22.196-32.716 54.572m32.716-54.572-37.861 37.018m37.861-37.018L261.143 65.07m34.921-20.226 32.347 13.739m0 0 19.85-35.935m-19.85 35.935-65.063 40.833m65.063-40.833-32.347 36.635M171.452 130.71l47.419-3.053m-47.419 3.053 35.656-27.858m11.763 24.805-11.763-24.805m11.763 24.805 44.477-28.24m-44.477 28.24 19.114 62.967m-19.114-62.967-47.419 55.716m47.419-55.716L199 215.047m64.348-115.631-56.24 3.435m56.24-3.435-5.145-17.554m5.145 17.554 32.716-4.198m-32.716 4.198-25.363 91.207m25.363-91.207 18.747 9.159m-74.987-5.724 51.095-20.99m-51.095 20.99 54.035-37.78m-2.94 16.79 2.94-16.79m34.921 30.147-13.969 13.357m-44.11 82.048 44.11-82.048m-44.11 82.048-54.035 64.495m54.035-64.495-13.968 39.308m13.968-39.308L199 215.047m-27.548-31.675 6.25 35.873m-6.25-35.873L199 215.047m-15.05 40.071-6.248-35.873m6.248 35.873 40.067-25.187m-40.067 25.187-24.995 39.306m24.995-39.306-51.462 14.501m51.462-14.501 1.655 51.899m-1.655-51.899 31.244 24.041m-31.244-24.041-48.52-15.266m48.52 15.266L199 215.047m-93.345 29.385-18.747-29.385m18.747 29.385-52.933 22.897m52.933-22.897L72.94 273.435m32.715-29.003-1.838 17.173m1.838-17.173 26.833 25.187m-26.833-25.187 29.775-4.58m-48.522-24.805-34.186 52.282m0 0-10.66 25.95 30.878-19.844m-20.218-6.106 20.218 6.106m0 0 30.877-11.83m28.671 8.014-28.671-8.014m28.671 8.014 26.467 24.805m-26.467-24.805 2.942-29.767m-31.613 21.753 31.613-21.753m42.272-20.607-42.272 20.607m88.587-9.921-8.823 49.228m44.479 114.486-39.699-64.111m0 0-7.72-9.923m-8.822 17.554 2.941 39.308m-2.941-39.308-44.477-42.741m44.477 42.741 8.822-17.554m-53.299-25.187 26.65 12.593m26.649 12.594-26.649-12.594m26.649 12.594 2.94-40.452m-29.589 27.858 29.589-27.858"/></g><path stroke="#90E8FF" d="m212.254 346.706 45.581 57.243m-45.581-57.243 5.514 33.582m-5.514-33.582 7.72-17.172m-7.72 17.172-8.822-9.541m8.822 9.541v-27.095m5.514 60.677 20.034 11.831m-20.034-11.831 9.19 37.4m-9.19-37.4-14.336-43.123m14.336 43.123-11.395-3.815m51.462 27.476 26.465 53.809m-26.465-53.809 20.585 53.809m-20.585-53.809-20.033-11.83m20.033 11.83-15.439 6.869m15.439-6.869-6.249 31.675m6.249-31.675 1.838-10.304m-1.838 10.304-37.861-74.415M284.3 457.758h-5.88m5.88 0-24.627-64.113m18.747 64.113-26.834-22.134m-24.628-17.936 10.844-25.569m-10.844 25.569 15.438-6.87m-15.438 6.87 24.628 17.936m-24.628-17.936-20.585-41.215m20.585 41.215-16.909-13.739-3.676-27.476m45.213 59.151-9.19-24.806M38.754 75.374.525 30.343l48.522 64.112M38.754 75.374l10.293 19.08m-10.293-19.08 20.217 16.791m-9.924 2.29 9.924-2.29m-9.924 2.29 16.908 41.978m-6.984-44.268 16.174 8.396m-16.174-8.396 6.984 44.268m9.19-35.872-9.19 35.872m9.19-35.872 15.806 2.29m-15.806-2.29 15.806 27.859m-24.996 8.013 24.996-8.013m-24.996 8.013 11.396 38.162m-11.396-38.162 23.526 10.686m1.47-44.268h9.925l16.909 5.724m-26.834-5.724 26.834 5.724m-26.834-5.724v25.569m26.834-19.845 8.822 6.488m-8.822-6.488L90.951 128.42m26.834-19.845 4.411 19.272m-31.245.573 31.245-.573m-31.245.573-1.47 18.699m37.126 0v-32.056m0 32.056 16.173 3.052m-16.173-3.052-4.411-19.272m4.411 19.272-30.142 33.963m30.142-33.963H89.481m37.126-32.056 8.823 12.593 7.35 22.515m-16.173-35.108 16.173 35.108m0 0-46.315 30.911m46.315-30.911-10.292 37.018m10.292-37.018 1.471 7.252m-66.9 17.172 12.13-27.476m-12.13 27.476 19.114 6.487m-19.114-6.487 9.557 40.452m2.573-67.928 32.715-19.272m-32.715 19.272 6.984 33.963m0 0 9.19 63.35m-9.19-63.35-9.557 33.965m9.557-33.965 36.023 6.107m0 0 11.763-29.766m-11.763 29.766 38.964-3.817m-38.964 3.817-26.833 57.243m26.833-57.243 45.214 32.056m-45.214-32.056 2.942 52.663m8.821-82.429 27.201-26.714m-27.201 26.714 74.62-29.767m-74.62 29.767 27.201 25.949M395.68 2.484h-11.029l-88.587 42.36m99.616-42.36-67.269 56.099M395.68 2.484l-47.419 20.164m-52.197 22.196 52.197-22.196m-52.197 22.196-32.716 54.572m32.716-54.572-37.861 37.018m37.861-37.018L261.143 65.07m34.921-20.226 32.347 13.739m0 0 19.85-35.935m-19.85 35.935-65.063 40.833m65.063-40.833-32.347 36.635M171.452 130.71l47.419-3.053m-47.419 3.053 35.656-27.858m11.763 24.805-11.763-24.805m11.763 24.805 44.477-28.24m-44.477 28.24 19.114 62.967m-19.114-62.967-47.419 55.716m47.419-55.716L199 215.047m64.348-115.631-56.24 3.435m56.24-3.435-5.145-17.554m5.145 17.554 32.716-4.198m-32.716 4.198-25.363 91.207m25.363-91.207 18.747 9.159m-74.987-5.724 51.095-20.99m-51.095 20.99 54.035-37.78m-2.94 16.79 2.94-16.79m34.921 30.147-13.969 13.357m-44.11 82.048 44.11-82.048m-44.11 82.048-54.035 64.495m54.035-64.495-13.968 39.308m13.968-39.308L199 215.047m-27.548-31.675 6.25 35.873m-6.25-35.873L199 215.047m-15.05 40.071-6.248-35.873m6.248 35.873 40.067-25.187m-40.067 25.187-24.995 39.306m24.995-39.306-51.462 14.501m51.462-14.501 1.655 51.899m-1.655-51.899 31.244 24.041m-31.244-24.041-48.52-15.266m48.52 15.266L199 215.047m-93.345 29.385-18.747-29.385m18.747 29.385-52.933 22.897m52.933-22.897L72.94 273.435m32.715-29.003-1.838 17.173m1.838-17.173 26.833 25.187m-26.833-25.187 29.775-4.58m-48.522-24.805-34.186 52.282m0 0-10.66 25.95 30.878-19.844m-20.218-6.106 20.218 6.106m0 0 30.877-11.83m28.671 8.014-28.671-8.014m28.671 8.014 26.467 24.805m-26.467-24.805 2.942-29.767m-31.613 21.753 31.613-21.753m42.272-20.607-42.272 20.607m88.587-9.921-8.823 49.228m44.479 114.486-39.699-64.111m0 0-7.72-9.923m-8.822 17.554 2.941 39.308m-2.941-39.308-44.477-42.741m44.477 42.741 8.822-17.554m-53.299-25.187 26.65 12.593m26.649 12.594-26.649-12.594m26.649 12.594 2.94-40.452m-29.589 27.858 29.589-27.858"/><path stroke="#fff" stroke-width=".5" d="m212.254 346.706 45.581 57.243m-45.581-57.243 5.514 33.582m-5.514-33.582 7.72-17.172m-7.72 17.172-8.822-9.541m8.822 9.541v-27.095m5.514 60.677 20.034 11.831m-20.034-11.831 9.19 37.4m-9.19-37.4-14.336-43.123m14.336 43.123-11.395-3.815m51.462 27.476 26.465 53.809m-26.465-53.809 20.585 53.809m-20.585-53.809-20.033-11.83m20.033 11.83-15.439 6.869m15.439-6.869-6.249 31.675m6.249-31.675 1.838-10.304m-1.838 10.304-37.861-74.415M284.3 457.758h-5.88m5.88 0-24.627-64.113m18.747 64.113-26.834-22.134m-24.628-17.936 10.844-25.569m-10.844 25.569 15.438-6.87m-15.438 6.87 24.628 17.936m-24.628-17.936-20.585-41.215m20.585 41.215-16.909-13.739-3.676-27.476m45.213 59.151-9.19-24.806M38.754 75.374.525 30.343l48.522 64.112M38.754 75.374l10.293 19.08m-10.293-19.08 20.217 16.791m-9.924 2.29 9.924-2.29m-9.924 2.29 16.908 41.978m-6.984-44.268 16.174 8.396m-16.174-8.396 6.984 44.268m9.19-35.872-9.19 35.872m9.19-35.872 15.806 2.29m-15.806-2.29 15.806 27.859m-24.996 8.013 24.996-8.013m-24.996 8.013 11.396 38.162m-11.396-38.162 23.526 10.686m1.47-44.268h9.925l16.909 5.724m-26.834-5.724 26.834 5.724m-26.834-5.724v25.569m26.834-19.845 8.822 6.488m-8.822-6.488L90.951 128.42m26.834-19.845 4.411 19.272m-31.245.573 31.245-.573m-31.245.573-1.47 18.699m37.126 0v-32.056m0 32.056 16.173 3.052m-16.173-3.052-4.411-19.272m4.411 19.272-30.142 33.963m30.142-33.963H89.481m37.126-32.056 8.823 12.593 7.35 22.515m-16.173-35.108 16.173 35.108m0 0-46.315 30.911m46.315-30.911-10.292 37.018m10.292-37.018 1.471 7.252m-66.9 17.172 12.13-27.476m-12.13 27.476 19.114 6.487m-19.114-6.487 9.557 40.452m2.573-67.928 32.715-19.272m-32.715 19.272 6.984 33.963m0 0 9.19 63.35m-9.19-63.35-9.557 33.965m9.557-33.965 36.023 6.107m0 0 11.763-29.766m-11.763 29.766 38.964-3.817m-38.964 3.817-26.833 57.243m26.833-57.243 45.214 32.056m-45.214-32.056 2.942 52.663m8.821-82.429 27.201-26.714m-27.201 26.714 74.62-29.767m-74.62 29.767 27.201 25.949M395.68 2.484h-11.029l-88.587 42.36m99.616-42.36-67.269 56.099M395.68 2.484l-47.419 20.164m-52.197 22.196 52.197-22.196m-52.197 22.196-32.716 54.572m32.716-54.572-37.861 37.018m37.861-37.018L261.143 65.07m34.921-20.226 32.347 13.739m0 0 19.85-35.935m-19.85 35.935-65.063 40.833m65.063-40.833-32.347 36.635M171.452 130.71l47.419-3.053m-47.419 3.053 35.656-27.858m11.763 24.805-11.763-24.805m11.763 24.805 44.477-28.24m-44.477 28.24 19.114 62.967m-19.114-62.967-47.419 55.716m47.419-55.716L199 215.047m64.348-115.631-56.24 3.435m56.24-3.435-5.145-17.554m5.145 17.554 32.716-4.198m-32.716 4.198-25.363 91.207m25.363-91.207 18.747 9.159m-74.987-5.724 51.095-20.99m-51.095 20.99 54.035-37.78m-2.94 16.79 2.94-16.79m34.921 30.147-13.969 13.357m-44.11 82.048 44.11-82.048m-44.11 82.048-54.035 64.495m54.035-64.495-13.968 39.308m13.968-39.308L199 215.047m-27.548-31.675 6.25 35.873m-6.25-35.873L199 215.047m-15.05 40.071-6.248-35.873m6.248 35.873 40.067-25.187m-40.067 25.187-24.995 39.306m24.995-39.306-51.462 14.501m51.462-14.501 1.655 51.899m-1.655-51.899 31.244 24.041m-31.244-24.041-48.52-15.266m48.52 15.266L199 215.047m-93.345 29.385-18.747-29.385m18.747 29.385-52.933 22.897m52.933-22.897L72.94 273.435m32.715-29.003-1.838 17.173m1.838-17.173 26.833 25.187m-26.833-25.187 29.775-4.58m-48.522-24.805-34.186 52.282m0 0-10.66 25.95 30.878-19.844m-20.218-6.106 20.218 6.106m0 0 30.877-11.83m28.671 8.014-28.671-8.014m28.671 8.014 26.467 24.805m-26.467-24.805 2.942-29.767m-31.613 21.753 31.613-21.753m42.272-20.607-42.272 20.607m88.587-9.921-8.823 49.228m44.479 114.486-39.699-64.111m0 0-7.72-9.923m-8.822 17.554 2.941 39.308m-2.941-39.308-44.477-42.741m44.477 42.741 8.822-17.554m-53.299-25.187 26.65 12.593m26.649 12.594-26.649-12.594m26.649 12.594 2.94-40.452m-29.589 27.858 29.589-27.858"/><path fill="#fff" d="m1.125 31.055 47.897 63.353-9.878-18.323-38.019-45.03Z" opacity=".1"/><path fill="#93C5FF" d="m126.555 115.217 16.464 35.093-16.464-3.417v-31.676ZM87.339 215.213l18.56 29.502-53.286 22.671 34.726-52.173Z" opacity=".1"/><path fill="#93C5FF" d="m87.338 215.213 18.561 29.502-52.987 22.361 34.426-51.863Z" opacity=".1"/><path fill="#93C5FF" d="m52.613 267.388 52.688-22.671-32.63 28.571-20.058-5.9ZM104.105 261.487l1.197-16.77-32.63 28.571 31.433-11.801ZM177.745 219.25l-42.209 20.497-2.395-51.241 44.604 30.744ZM237.917 190.681l-19.159-63.044 44.006-28.26-24.847 91.304ZM185.829 306.828l-2.095-52.174 31.433 24.534-29.338 27.64Z" opacity=".1"/><path fill="#93C5FF" d="m42.435 292.852 10.179-25.155 20.057 5.59-30.236 19.565Z" opacity=".1"/><path fill="#93C5FF" d="m42.435 292.852 10.179-25.155 20.057 5.59-30.236 19.565Z" opacity=".1"/><path fill="#93C5FF" d="m42.435 292.852 10.179-25.155 20.057 5.59-30.236 19.565Z" opacity=".1"/><path fill="#93C5FF" d="m42.435 292.852 10.179-25.155 20.057 5.59-30.236 19.565ZM212.471 346.891l5.388 33.23 39.815 23.912-45.203-57.142Z" opacity=".1"/><path fill="#93C5FF" d="m242.408 410.863 8.981 24.845 6.286-31.677-15.267 6.832Z" opacity=".1"/><path fill="#93C5FF" d="m212.471 347.199 5.566 32.92 9.28 37.577 24.548 17.701 26.465 22.36-20.478-53.726-45.381-56.832Z" opacity=".1"/><path fill="#fff" d="M95.123 181.053c0 1.199.925 2.174 2.096 2.174 1.17 0 2.095-.975 2.095-2.174 0-1.199-.925-2.174-2.095-2.174-1.17 0-2.096.975-2.096 2.174ZM87.94 147.514c0 1.199.925 2.174 2.095 2.174 1.17 0 2.096-.975 2.096-2.174 0-1.199-.926-2.174-2.096-2.174s-2.096.975-2.096 2.174ZM89.137 128.258c0 1.199.925 2.174 2.095 2.174 1.17 0 2.096-.975 2.096-2.174 0-1.199-.926-2.174-2.096-2.174s-2.095.975-2.095 2.174ZM89.734 103.105c0 .686.53 1.243 1.198 1.243.669 0 1.197-.557 1.197-1.243 0-.685-.528-1.242-1.197-1.242s-1.198.557-1.198 1.242ZM116.076 109.004c0 1.199.925 2.173 2.096 2.173 1.17 0 2.095-.974 2.095-2.173s-.925-2.174-2.095-2.174c-1.171 0-2.096.975-2.096 2.174ZM125.656 114.906c0 .686.53 1.243 1.198 1.243.668 0 1.198-.557 1.198-1.243 0-.685-.53-1.242-1.198-1.242-.668 0-1.198.557-1.198 1.242ZM134.639 127.326c0 .686.529 1.243 1.198 1.243.668 0 1.197-.557 1.197-1.243 0-.685-.529-1.242-1.197-1.242-.669 0-1.198.557-1.198 1.242ZM99.912 102.482c0 .686.529 1.243 1.198 1.243.668 0 1.197-.557 1.197-1.243 0-.685-.529-1.242-1.197-1.242-.669 0-1.198.557-1.198 1.242ZM120.27 128.258c0 1.199.925 2.174 2.096 2.174 1.169 0 2.095-.975 2.095-2.174 0-1.199-.926-2.174-2.095-2.174-1.171 0-2.096.975-2.096 2.174ZM124.459 147.514c0 1.199.925 2.174 2.096 2.174 1.17 0 2.095-.975 2.095-2.174 0-1.199-.925-2.174-2.095-2.174-1.171 0-2.096.975-2.096 2.174ZM74.768 174.223c0 1.199.925 2.174 2.095 2.174 1.17 0 2.096-.975 2.096-2.174 0-1.199-.926-2.174-2.096-2.174s-2.095.975-2.095 2.174ZM143.02 158.072c0 1.2.925 2.174 2.096 2.174 1.169 0 2.095-.974 2.095-2.174 0-1.199-.926-2.174-2.095-2.174-1.171 0-2.096.975-2.096 2.174ZM140.625 149.998c0 1.199.925 2.174 2.095 2.174 1.171 0 2.096-.975 2.096-2.174 0-1.199-.925-2.174-2.096-2.174-1.17 0-2.095.975-2.095 2.174ZM130.447 187.266c0 1.199.926 2.174 2.096 2.174s2.095-.975 2.095-2.174c0-1.2-.925-2.174-2.095-2.174-1.17 0-2.096.974-2.096 2.174ZM103.504 244.407c0 1.201.925 2.174 2.096 2.174 1.169 0 2.095-.973 2.095-2.174 0-1.199-.926-2.173-2.095-2.173-1.171 0-2.096.974-2.096 2.173ZM175.352 218.94c0 1.199.925 2.174 2.095 2.174 1.169 0 2.096-.975 2.096-2.174 0-1.2-.927-2.174-2.096-2.174-1.17 0-2.095.974-2.095 2.174ZM216.662 128.258c0 1.199.925 2.174 2.095 2.174 1.171 0 2.096-.975 2.096-2.174 0-1.199-.925-2.174-2.096-2.174-1.17 0-2.095.975-2.095 2.174ZM169.363 182.916c0 1.199.925 2.174 2.096 2.174 1.17 0 2.095-.975 2.095-2.174 0-1.199-.925-2.174-2.095-2.174-1.171 0-2.096.975-2.096 2.174ZM170.562 131.052c0 .686.529 1.243 1.198 1.243.669 0 1.197-.557 1.197-1.243 0-.684-.528-1.241-1.197-1.241s-1.198.557-1.198 1.241ZM205.885 102.793c0 1.199.925 2.174 2.095 2.174 1.17 0 2.095-.975 2.095-2.174 0-1.199-.925-2.174-2.095-2.174-1.17 0-2.095.975-2.095 2.174ZM260.969 99.688c0 1.199.925 2.173 2.096 2.173 1.17 0 2.095-.974 2.095-2.174 0-1.199-.925-2.173-2.095-2.173-1.171 0-2.096.974-2.096 2.174ZM256.178 81.676c0 1.2.925 2.174 2.095 2.174 1.171 0 2.096-.975 2.096-2.174 0-1.2-.925-2.174-2.096-2.174-1.17 0-2.095.974-2.095 2.174ZM259.172 65.525c0 1.2.925 2.174 2.095 2.174 1.17 0 2.096-.974 2.096-2.174 0-1.199-.926-2.173-2.096-2.173s-2.095.974-2.095 2.173ZM293.898 45.031c0 1.2.926 2.174 2.095 2.174 1.17 0 2.095-.974 2.095-2.174s-.925-2.174-2.095-2.174c-1.169 0-2.095.975-2.095 2.174ZM327.426 58.385c0 .685.529 1.242 1.197 1.242.669 0 1.198-.557 1.198-1.242 0-.686-.529-1.242-1.198-1.242-.668 0-1.197.556-1.197 1.242ZM293.898 95.34c0 1.2.926 2.174 2.095 2.174 1.17 0 2.095-.975 2.095-2.174 0-1.2-.925-2.174-2.095-2.174-1.169 0-2.095.975-2.095 2.174ZM235.82 189.75c0 1.199.925 2.174 2.096 2.174 1.17 0 2.095-.975 2.095-2.174 0-1.199-.925-2.174-2.095-2.174-1.171 0-2.096.975-2.096 2.174ZM196.904 215.213c0 1.199.927 2.174 2.096 2.174 1.17 0 2.095-.975 2.095-2.174 0-1.199-.925-2.174-2.095-2.174-1.169 0-2.096.975-2.096 2.174ZM222.648 230.432c0 .685.53 1.242 1.199 1.242.668 0 1.197-.557 1.197-1.242 0-.685-.529-1.243-1.197-1.243-.669 0-1.199.558-1.199 1.243ZM213.07 278.569c0 1.199.925 2.173 2.096 2.173 1.17 0 2.095-.974 2.095-2.173 0-1.2-.925-2.174-2.095-2.174-1.171 0-2.096.974-2.096 2.174ZM183.732 306.516c0 1.199.927 2.174 2.096 2.174 1.17 0 2.095-.975 2.095-2.174 0-1.2-.925-2.174-2.095-2.174-1.169 0-2.096.974-2.096 2.174ZM210.076 319.561c0 1.199.926 2.174 2.096 2.174s2.095-.975 2.095-2.174c0-1.2-.925-2.174-2.095-2.174-1.17 0-2.096.974-2.096 2.174ZM219.057 329.809c0 .685.528 1.242 1.197 1.242s1.197-.557 1.197-1.242c0-.685-.528-1.243-1.197-1.243s-1.197.558-1.197 1.243ZM210.076 346.267c0 1.2.926 2.174 2.096 2.174s2.095-.974 2.095-2.174-.925-2.173-2.095-2.173c-1.17 0-2.096.973-2.096 2.173ZM216.062 380.428c0 1.199.926 2.174 2.096 2.174s2.096-.975 2.096-2.174c0-1.199-.926-2.174-2.096-2.174s-2.096.975-2.096 2.174ZM224.445 417.695c0 1.2.925 2.174 2.095 2.174 1.171 0 2.096-.974 2.096-2.174 0-1.199-.925-2.174-2.096-2.174-1.17 0-2.095.975-2.095 2.174ZM240.609 411.487c0 1.199.926 2.173 2.096 2.173s2.095-.974 2.095-2.173c0-1.2-.925-2.175-2.095-2.175-1.17 0-2.096.975-2.096 2.175ZM235.82 392.231c0 1.201.925 2.174 2.096 2.174 1.17 0 2.095-.973 2.095-2.174 0-1.199-.925-2.172-2.095-2.172-1.171 0-2.096.973-2.096 2.172ZM255.58 404.033c0 1.2.925 2.173 2.095 2.173 1.171 0 2.096-.973 2.096-2.173 0-1.2-.925-2.174-2.096-2.174-1.17 0-2.095.974-2.095 2.174ZM258.572 393.784c0 .685.53 1.242 1.198 1.242.669 0 1.198-.557 1.198-1.242 0-.686-.529-1.243-1.198-1.243-.668 0-1.198.557-1.198 1.243ZM248.992 435.709c0 1.199.925 2.174 2.096 2.174 1.17 0 2.095-.975 2.095-2.174 0-1.199-.925-2.174-2.095-2.174-1.171 0-2.096.975-2.096 2.174ZM283.119 457.759c0 .684.529 1.241 1.197 1.241.669 0 1.198-.557 1.198-1.241 0-.686-.529-1.243-1.198-1.243-.668 0-1.197.557-1.197 1.243ZM208.281 404.033c0 1.2.925 2.173 2.096 2.173 1.17 0 2.095-.973 2.095-2.173 0-1.2-.925-2.174-2.095-2.174-1.171 0-2.096.974-2.096 2.174ZM204.09 376.701c0 1.2.925 2.174 2.096 2.174 1.17 0 2.095-.974 2.095-2.174 0-1.199-.925-2.174-2.095-2.174-1.171 0-2.096.975-2.096 2.174ZM201.094 336.951c0 1.2.926 2.174 2.096 2.174s2.095-.974 2.095-2.174c0-1.199-.925-2.174-2.095-2.174-1.17 0-2.096.975-2.096 2.174ZM156.789 294.096c0 1.199.926 2.173 2.096 2.173s2.095-.974 2.095-2.173c0-1.201-.925-2.174-2.095-2.174-1.17 0-2.096.973-2.096 2.174ZM182.535 254.967c0 .857.662 1.552 1.498 1.552s1.496-.695 1.496-1.552c0-.857-.66-1.553-1.496-1.553s-1.498.696-1.498 1.553ZM280.127 109.004c0 1.199.925 2.173 2.096 2.173 1.17 0 2.095-.974 2.095-2.173s-.925-2.174-2.095-2.174c-1.171 0-2.096.975-2.096 2.174ZM345.986 23.291c0 1.2.925 2.174 2.096 2.174 1.17 0 2.095-.974 2.095-2.174s-.925-2.174-2.095-2.174c-1.171 0-2.096.975-2.096 2.174ZM134.039 239.749c0 .686.529 1.242 1.198 1.242.668 0 1.197-.556 1.197-1.242 0-.686-.529-1.243-1.197-1.243-.669 0-1.198.557-1.198 1.243ZM113.084 253.725c0 1.199.926 2.174 2.096 2.174s2.095-.975 2.095-2.174c0-1.2-.925-2.174-2.095-2.174-1.17 0-2.096.974-2.096 2.174ZM131.045 269.252c0 1.199.925 2.174 2.095 2.174 1.17 0 2.096-.975 2.096-2.174 0-1.199-.926-2.174-2.096-2.174s-2.095.975-2.095 2.174ZM101.709 261.799c0 1.199.925 2.174 2.096 2.174 1.17 0 2.095-.975 2.095-2.174 0-1.199-.925-2.174-2.095-2.174-1.171 0-2.096.975-2.096 2.174ZM71.772 273.287c0 .685.528 1.242 1.197 1.242s1.197-.557 1.197-1.242c0-.686-.528-1.242-1.197-1.242s-1.197.556-1.197 1.242ZM50.816 267.389c0 1.199.926 2.174 2.096 2.174s2.095-.975 2.095-2.174c0-1.199-.925-2.174-2.095-2.174-1.17 0-2.096.975-2.096 2.174ZM84.943 215.213c0 1.199.926 2.174 2.096 2.174s2.095-.975 2.095-2.174c0-1.199-.925-2.174-2.095-2.174-1.17 0-2.096.975-2.096 2.174ZM63.988 136.953c0 1.2.926 2.174 2.096 2.174s2.095-.974 2.095-2.174c0-1.199-.925-2.174-2.095-2.174-1.17 0-2.096.975-2.096 2.174ZM73.568 100.93c0 1.199.926 2.174 2.096 2.174s2.095-.975 2.095-2.174c0-1.2-.925-2.174-2.095-2.174-1.17 0-2.096.974-2.096 2.174ZM57.402 92.236c0 1.2.926 2.174 2.096 2.174s2.095-.974 2.095-2.174c0-1.199-.925-2.174-2.095-2.174-1.17 0-2.096.975-2.096 2.174ZM47.824 94.408c0 .686.529 1.242 1.198 1.242.668 0 1.197-.556 1.197-1.242 0-.685-.529-1.242-1.197-1.242-.669 0-1.198.557-1.198 1.242ZM37.047 75.465c0 1.2.925 2.174 2.095 2.174 1.17 0 2.096-.975 2.096-2.174 0-1.2-.925-2.174-2.096-2.174-1.17 0-2.095.975-2.095 2.174ZM393.285 2.174c0 1.2.925 2.174 2.096 2.174 1.17 0 2.095-.975 2.095-2.174 0-1.2-.925-2.174-2.095-2.174-1.171 0-2.096.974-2.096 2.174ZM277.133 457.759c0 .684.528 1.241 1.197 1.241s1.197-.557 1.197-1.241c0-.686-.528-1.243-1.197-1.243s-1.197.557-1.197 1.243ZM393.285 147.514c0 1.199.925 2.174 2.096 2.174 1.17 0 2.095-.975 2.095-2.174 0-1.199-.925-2.174-2.095-2.174-1.171 0-2.096.975-2.096 2.174ZM350.176 181.053c0 1.199.925 2.174 2.096 2.174 1.17 0 2.095-.975 2.095-2.174 0-1.199-.925-2.174-2.095-2.174-1.171 0-2.096.975-2.096 2.174ZM323.234 130.743c0 1.201.926 2.174 2.096 2.174s2.095-.973 2.095-2.174c0-1.199-.925-2.173-2.095-2.173-1.17 0-2.096.974-2.096 2.173ZM284.316 220.184c0 .514.397.931.899.931.501 0 .898-.417.898-.931s-.397-.932-.898-.932c-.502 0-.899.418-.899.932ZM153.199 78.57c0 .514.396.932.898.932.501 0 .898-.418.898-.932s-.397-.931-.898-.931c-.502 0-.898.417-.898.931ZM92.129 56.83c0 .514.396.932.898.932.501 0 .898-.418.898-.932s-.397-.932-.898-.932c-.502 0-.898.418-.898.932ZM39.441 44.408c0 1.2.926 2.174 2.096 2.174s2.096-.974 2.096-2.174-.926-2.174-2.096-2.174-2.096.975-2.096 2.174ZM121.467 27.639c0 1.2.926 2.174 2.096 2.174s2.095-.975 2.095-2.174c0-1.2-.925-2.174-2.095-2.174-1.17 0-2.096.974-2.096 2.174ZM265.158 2.174c0 1.2.925 2.174 2.095 2.174 1.171 0 2.096-.975 2.096-2.174 0-1.2-.925-2.174-2.096-2.174-1.17 0-2.095.974-2.095 2.174ZM169.363 42.545c0 1.2.925 2.174 2.096 2.174 1.17 0 2.095-.975 2.095-2.174 0-1.2-.925-2.174-2.095-2.174-1.171 0-2.096.975-2.096 2.174ZM226.842 45.652c0 .514.397.932.899.932.501 0 .898-.418.898-.932s-.397-.931-.898-.931c-.502 0-.899.417-.899.931ZM253.783 170.495c0 .513.397.931.899.931.501 0 .898-.418.898-.931 0-.515-.397-.933-.898-.933-.502 0-.899.418-.899.933ZM242.408 258.072c0 1.2.925 2.174 2.095 2.174 1.171 0 2.096-.974 2.096-2.174 0-1.199-.925-2.174-2.096-2.174-1.17 0-2.095.975-2.095 2.174ZM319.043 253.103c0 .515.397.932.898.932.502 0 .899-.417.899-.932 0-.514-.397-.931-.899-.931-.501 0-.898.417-.898.931ZM263.361 362.418c0 1.199.926 2.174 2.095 2.174 1.17 0 2.096-.975 2.096-2.174 0-1.199-.926-2.174-2.096-2.174-1.169 0-2.095.975-2.095 2.174ZM238.814 310.865c0 1.2.926 2.174 2.097 2.174 1.169 0 2.095-.974 2.095-2.174 0-1.199-.926-2.174-2.095-2.174-1.171 0-2.097.975-2.097 2.174ZM236.42 272.976c0 .515.397.932.899.932.501 0 .898-.417.898-.932 0-.514-.397-.931-.898-.931-.502 0-.899.417-.899.931ZM238.217 236.332c0 1.199.925 2.174 2.095 2.174 1.171 0 2.096-.975 2.096-2.174 0-1.199-.925-2.174-2.096-2.174-1.17 0-2.095.975-2.095 2.174ZM341.793 276.703c0 .514.397.932.899.932.501 0 .898-.418.898-.932s-.397-.932-.898-.932c-.502 0-.899.418-.899.932ZM343.59 391.61c0 .513.396.931.898.931s.898-.418.898-.931c0-.515-.396-.932-.898-.932s-.898.417-.898.932ZM158.586 127.637c0 1.199.925 2.174 2.095 2.174 1.171 0 2.096-.975 2.096-2.174 0-1.199-.925-2.174-2.096-2.174-1.17 0-2.095.975-2.095 2.174ZM130.447 96.582c0 1.2.926 2.174 2.096 2.174s2.095-.975 2.095-2.174c0-1.2-.925-2.174-2.095-2.174-1.17 0-2.096.975-2.096 2.174ZM102.309 84.16c0 1.2.925 2.174 2.095 2.174 1.17 0 2.096-.974 2.096-2.174s-.926-2.174-2.096-2.174-2.095.975-2.095 2.174Z"/></g></g><defs><clipPath id="a"><path fill="#fff" d="M0 0h398v468H0z"/></clipPath><filter id="b" width="407.514" height="467.773" x="-5.674" y="-3.766" color-interpolation-filters="sRGB" filterUnits="userSpaceOnUse"><feFlood flood-opacity="0" result="BackgroundImageFix"/><feBlend in="SourceGraphic" in2="BackgroundImageFix" result="shape"/><feGaussianBlur result="effect1_foregroundBlur_1472_58148" stdDeviation="3"/></filter></defs></svg>