<svg xmlns="http://www.w3.org/2000/svg" width="1026" height="455" viewBox="0 0 1026 455" fill="none" opacity="0.15">
<g filter="url(#filter0_f_8339_15922)">
<path d="M644.442 983.808L807.343 1188.2M644.442 983.808L664.149 1103.72M644.442 983.808L672.03 922.491M644.442 983.808L612.912 949.741M644.442 983.808V887.062M664.149 1103.72L735.746 1145.96M664.149 1103.72L696.992 1237.25M664.149 1103.72L612.912 949.741M664.149 1103.72L623.425 1090.09M807.343 1188.2L901.927 1380.33M807.343 1188.2L880.91 1380.33M807.343 1188.2L735.746 1145.96M807.343 1188.2L752.166 1212.72M807.343 1188.2L785.009 1301.29M807.343 1188.2L813.911 1151.41M807.343 1188.2L672.03 922.491M901.927 1380.33H880.91M901.927 1380.33L813.911 1151.41M880.91 1380.33L785.009 1301.29M696.992 1237.25L735.746 1145.96M696.992 1237.25L752.166 1212.72M696.992 1237.25L785.009 1301.29M696.992 1237.25L623.425 1090.09M696.992 1237.25L636.56 1188.2L623.425 1090.09M785.009 1301.29L752.166 1212.72M24.3733 14.9945L-112.252 -145.793L61.1574 83.1246M24.3733 14.9945L61.1574 83.1246M24.3733 14.9945L96.6271 74.9492M61.1574 83.1246L96.6271 74.9492M61.1574 83.1246L121.587 233.011M96.6271 74.9492L154.43 104.927M96.6271 74.9492L121.587 233.011M154.43 104.927L121.587 233.011M154.43 104.927L210.919 113.102M154.43 104.927L210.919 204.398M121.587 233.011L210.919 204.398M121.587 233.011L162.313 369.273M121.587 233.011L205.665 271.165M210.919 113.102H246.39L306.821 133.541M210.919 113.102L306.821 133.541M210.919 113.102V204.398M306.821 133.541L338.351 156.707M306.821 133.541L210.919 204.398M306.821 133.541L322.584 202.354M210.919 204.398L322.584 202.354M210.919 204.398L205.665 271.165M338.351 271.165V156.707M338.351 271.165L396.151 282.065M338.351 271.165L322.584 202.354M338.351 271.165L230.625 392.435M338.351 271.165H205.665M338.351 156.707L369.88 201.673L396.151 282.065M338.351 156.707L396.151 282.065M396.151 282.065L230.625 392.435M396.151 282.065L359.368 414.239M396.151 282.065L401.406 307.956M162.313 369.273L205.665 271.165M162.313 369.273L230.625 392.435M162.313 369.273L196.469 513.709M205.665 271.165L322.584 202.354M205.665 271.165L230.625 392.435M230.625 392.435L263.47 618.63M230.625 392.435L196.469 513.709M230.625 392.435L359.368 414.239M359.368 414.239L401.406 307.956M359.368 414.239L498.621 400.61M359.368 414.239L263.47 618.63M359.368 414.239L520.955 528.697M359.368 414.239L369.88 602.276M401.406 307.956L498.621 212.573M401.406 307.956L668.09 201.673M401.406 307.956L498.621 400.61M1299.98 -245.263H1260.57L943.969 -94.0138M1299.98 -245.263L1059.57 -44.9603M1299.98 -245.263L1130.51 -173.266M943.969 -94.0138L1130.51 -173.266M943.969 -94.0138L827.046 100.839M943.969 -94.0138L808.657 38.1589M943.969 -94.0138L819.165 -21.7958M943.969 -94.0138L1059.57 -44.9603M1059.57 -44.9603L1130.51 -173.266M1059.57 -44.9603L827.046 100.839M1059.57 -44.9603L943.969 85.85M498.621 212.573L668.09 201.673M498.621 212.573L626.052 113.102M668.09 201.673L626.052 113.102M668.09 201.673L827.046 100.839M668.09 201.673L736.403 426.502M668.09 201.673L498.621 400.61M668.09 201.673L597.075 513.709M827.046 100.839L626.052 113.102M827.046 100.839L808.657 38.1589M827.046 100.839L943.969 85.85M827.046 100.839L736.403 426.502M827.046 100.839L894.046 133.541M626.052 113.102L808.657 38.1589M626.052 113.102L819.165 -21.7958M808.657 38.1589L819.165 -21.7958M943.969 85.85L894.046 133.541M736.403 426.502L894.046 133.541M736.403 426.502L543.286 656.784M736.403 426.502L686.48 566.851M736.403 426.502L597.075 513.709M498.621 400.61L520.955 528.697M498.621 400.61L597.075 513.709M543.286 656.784L520.955 528.697M543.286 656.784L686.48 566.851M543.286 656.784L453.956 797.129M543.286 656.784L359.368 708.563M543.286 656.784L549.201 842.096M543.286 656.784L654.95 742.625M543.286 656.784L369.88 602.276M543.286 656.784L597.075 513.709M263.47 618.63L196.469 513.709M263.47 618.63L74.2942 700.384M263.47 618.63L146.548 722.188M263.47 618.63L256.899 679.946M263.47 618.63L359.368 708.563M263.47 618.63L369.88 602.276M196.469 513.709L74.2942 700.384M74.2942 700.384L36.1969 793.042L146.548 722.188M74.2942 700.384L146.548 722.188M146.548 722.188L256.899 679.946M359.368 708.563L256.899 679.946M359.368 708.563L453.956 797.129M359.368 708.563L369.88 602.276M256.899 679.946L369.88 602.276M520.955 528.697L369.88 602.276M686.48 566.851L654.95 742.625M813.911 1151.41L672.03 922.491M672.03 922.491L644.442 887.062M612.912 949.741L623.425 1090.09M612.912 949.741L453.956 797.129M612.912 949.741L644.442 887.062M453.956 797.129L549.201 842.096M644.442 887.062L549.201 842.096M644.442 887.062L654.95 742.625M549.201 842.096L654.95 742.625" stroke="#41AFB5" stroke-width="0.5"/>
</g>
<path d="M644.442 983.808L807.343 1188.2M644.442 983.808L664.149 1103.72M644.442 983.808L672.03 922.491M644.442 983.808L612.912 949.741M644.442 983.808V887.062M664.149 1103.72L735.746 1145.96M664.149 1103.72L696.992 1237.25M664.149 1103.72L612.912 949.741M664.149 1103.72L623.425 1090.09M807.343 1188.2L901.927 1380.33M807.343 1188.2L880.91 1380.33M807.343 1188.2L735.746 1145.96M807.343 1188.2L752.166 1212.72M807.343 1188.2L785.009 1301.29M807.343 1188.2L813.911 1151.41M807.343 1188.2L672.03 922.491M901.927 1380.33H880.91M901.927 1380.33L813.911 1151.41M880.91 1380.33L785.009 1301.29M696.992 1237.25L735.746 1145.96M696.992 1237.25L752.166 1212.72M696.992 1237.25L785.009 1301.29M696.992 1237.25L623.425 1090.09M696.992 1237.25L636.56 1188.2L623.425 1090.09M785.009 1301.29L752.166 1212.72M24.3733 14.9945L-112.252 -145.793L61.1574 83.1246M24.3733 14.9945L61.1574 83.1246M24.3733 14.9945L96.6271 74.9492M61.1574 83.1246L96.6271 74.9492M61.1574 83.1246L121.587 233.011M96.6271 74.9492L154.43 104.927M96.6271 74.9492L121.587 233.011M154.43 104.927L121.587 233.011M154.43 104.927L210.919 113.102M154.43 104.927L210.919 204.398M121.587 233.011L210.919 204.398M121.587 233.011L162.313 369.273M121.587 233.011L205.665 271.165M210.919 113.102H246.39L306.821 133.541M210.919 113.102L306.821 133.541M210.919 113.102V204.398M306.821 133.541L338.351 156.707M306.821 133.541L210.919 204.398M306.821 133.541L322.584 202.354M210.919 204.398L322.584 202.354M210.919 204.398L205.665 271.165M338.351 271.165V156.707M338.351 271.165L396.151 282.065M338.351 271.165L322.584 202.354M338.351 271.165L230.625 392.435M338.351 271.165H205.665M338.351 156.707L369.88 201.673L396.151 282.065M338.351 156.707L396.151 282.065M396.151 282.065L230.625 392.435M396.151 282.065L359.368 414.239M396.151 282.065L401.406 307.956M162.313 369.273L205.665 271.165M162.313 369.273L230.625 392.435M162.313 369.273L196.469 513.709M205.665 271.165L322.584 202.354M205.665 271.165L230.625 392.435M230.625 392.435L263.47 618.63M230.625 392.435L196.469 513.709M230.625 392.435L359.368 414.239M359.368 414.239L401.406 307.956M359.368 414.239L498.621 400.61M359.368 414.239L263.47 618.63M359.368 414.239L520.955 528.697M359.368 414.239L369.88 602.276M401.406 307.956L498.621 212.573M401.406 307.956L668.09 201.673M401.406 307.956L498.621 400.61M1299.98 -245.263H1260.57L943.969 -94.0138M1299.98 -245.263L1059.57 -44.9603M1299.98 -245.263L1130.51 -173.266M943.969 -94.0138L1130.51 -173.266M943.969 -94.0138L827.046 100.839M943.969 -94.0138L808.657 38.1589M943.969 -94.0138L819.165 -21.7958M943.969 -94.0138L1059.57 -44.9603M1059.57 -44.9603L1130.51 -173.266M1059.57 -44.9603L827.046 100.839M1059.57 -44.9603L943.969 85.85M498.621 212.573L668.09 201.673M498.621 212.573L626.052 113.102M668.09 201.673L626.052 113.102M668.09 201.673L827.046 100.839M668.09 201.673L736.403 426.502M668.09 201.673L498.621 400.61M668.09 201.673L597.075 513.709M827.046 100.839L626.052 113.102M827.046 100.839L808.657 38.1589M827.046 100.839L943.969 85.85M827.046 100.839L736.403 426.502M827.046 100.839L894.046 133.541M626.052 113.102L808.657 38.1589M626.052 113.102L819.165 -21.7958M808.657 38.1589L819.165 -21.7958M943.969 85.85L894.046 133.541M736.403 426.502L894.046 133.541M736.403 426.502L543.286 656.784M736.403 426.502L686.48 566.851M736.403 426.502L597.075 513.709M498.621 400.61L520.955 528.697M498.621 400.61L597.075 513.709M543.286 656.784L520.955 528.697M543.286 656.784L686.48 566.851M543.286 656.784L453.956 797.129M543.286 656.784L359.368 708.563M543.286 656.784L549.201 842.096M543.286 656.784L654.95 742.625M543.286 656.784L369.88 602.276M543.286 656.784L597.075 513.709M263.47 618.63L196.469 513.709M263.47 618.63L74.2942 700.384M263.47 618.63L146.548 722.188M263.47 618.63L256.899 679.946M263.47 618.63L359.368 708.563M263.47 618.63L369.88 602.276M196.469 513.709L74.2942 700.384M74.2942 700.384L36.1969 793.042L146.548 722.188M74.2942 700.384L146.548 722.188M146.548 722.188L256.899 679.946M359.368 708.563L256.899 679.946M359.368 708.563L453.956 797.129M359.368 708.563L369.88 602.276M256.899 679.946L369.88 602.276M520.955 528.697L369.88 602.276M686.48 566.851L654.95 742.625M813.911 1151.41L672.03 922.491M672.03 922.491L644.442 887.062M612.912 949.741L623.425 1090.09M612.912 949.741L453.956 797.129M612.912 949.741L644.442 887.062M453.956 797.129L549.201 842.096M644.442 887.062L549.201 842.096M644.442 887.062L654.95 742.625M549.201 842.096L654.95 742.625" stroke="#41AFB5"/>
<path d="M644.442 983.808L807.343 1188.2M644.442 983.808L664.149 1103.72M644.442 983.808L672.03 922.491M644.442 983.808L612.912 949.741M644.442 983.808V887.062M664.149 1103.72L735.746 1145.96M664.149 1103.72L696.992 1237.25M664.149 1103.72L612.912 949.741M664.149 1103.72L623.425 1090.09M807.343 1188.2L901.927 1380.33M807.343 1188.2L880.91 1380.33M807.343 1188.2L735.746 1145.96M807.343 1188.2L752.166 1212.72M807.343 1188.2L785.009 1301.29M807.343 1188.2L813.911 1151.41M807.343 1188.2L672.03 922.491M901.927 1380.33H880.91M901.927 1380.33L813.911 1151.41M880.91 1380.33L785.009 1301.29M696.992 1237.25L735.746 1145.96M696.992 1237.25L752.166 1212.72M696.992 1237.25L785.009 1301.29M696.992 1237.25L623.425 1090.09M696.992 1237.25L636.56 1188.2L623.425 1090.09M785.009 1301.29L752.166 1212.72M24.3733 14.9945L-112.252 -145.793L61.1574 83.1246M24.3733 14.9945L61.1574 83.1246M24.3733 14.9945L96.6271 74.9492M61.1574 83.1246L96.6271 74.9492M61.1574 83.1246L121.587 233.011M96.6271 74.9492L154.43 104.927M96.6271 74.9492L121.587 233.011M154.43 104.927L121.587 233.011M154.43 104.927L210.919 113.102M154.43 104.927L210.919 204.398M121.587 233.011L210.919 204.398M121.587 233.011L162.313 369.273M121.587 233.011L205.665 271.165M210.919 113.102H246.39L306.821 133.541M210.919 113.102L306.821 133.541M210.919 113.102V204.398M306.821 133.541L338.351 156.707M306.821 133.541L210.919 204.398M306.821 133.541L322.584 202.354M210.919 204.398L322.584 202.354M210.919 204.398L205.665 271.165M338.351 271.165V156.707M338.351 271.165L396.151 282.065M338.351 271.165L322.584 202.354M338.351 271.165L230.625 392.435M338.351 271.165H205.665M338.351 156.707L369.88 201.673L396.151 282.065M338.351 156.707L396.151 282.065M396.151 282.065L230.625 392.435M396.151 282.065L359.368 414.239M396.151 282.065L401.406 307.956M162.313 369.273L205.665 271.165M162.313 369.273L230.625 392.435M162.313 369.273L196.469 513.709M205.665 271.165L322.584 202.354M205.665 271.165L230.625 392.435M230.625 392.435L263.47 618.63M230.625 392.435L196.469 513.709M230.625 392.435L359.368 414.239M359.368 414.239L401.406 307.956M359.368 414.239L498.621 400.61M359.368 414.239L263.47 618.63M359.368 414.239L520.955 528.697M359.368 414.239L369.88 602.276M401.406 307.956L498.621 212.573M401.406 307.956L668.09 201.673M401.406 307.956L498.621 400.61M1299.98 -245.263H1260.57L943.969 -94.0138M1299.98 -245.263L1059.57 -44.9603M1299.98 -245.263L1130.51 -173.266M943.969 -94.0138L1130.51 -173.266M943.969 -94.0138L827.046 100.839M943.969 -94.0138L808.657 38.1589M943.969 -94.0138L819.165 -21.7958M943.969 -94.0138L1059.57 -44.9603M1059.57 -44.9603L1130.51 -173.266M1059.57 -44.9603L827.046 100.839M1059.57 -44.9603L943.969 85.85M498.621 212.573L668.09 201.673M498.621 212.573L626.052 113.102M668.09 201.673L626.052 113.102M668.09 201.673L827.046 100.839M668.09 201.673L736.403 426.502M668.09 201.673L498.621 400.61M668.09 201.673L597.075 513.709M827.046 100.839L626.052 113.102M827.046 100.839L808.657 38.1589M827.046 100.839L943.969 85.85M827.046 100.839L736.403 426.502M827.046 100.839L894.046 133.541M626.052 113.102L808.657 38.1589M626.052 113.102L819.165 -21.7958M808.657 38.1589L819.165 -21.7958M943.969 85.85L894.046 133.541M736.403 426.502L894.046 133.541M736.403 426.502L543.286 656.784M736.403 426.502L686.48 566.851M736.403 426.502L597.075 513.709M498.621 400.61L520.955 528.697M498.621 400.61L597.075 513.709M543.286 656.784L520.955 528.697M543.286 656.784L686.48 566.851M543.286 656.784L453.956 797.129M543.286 656.784L359.368 708.563M543.286 656.784L549.201 842.096M543.286 656.784L654.95 742.625M543.286 656.784L369.88 602.276M543.286 656.784L597.075 513.709M263.47 618.63L196.469 513.709M263.47 618.63L74.2942 700.384M263.47 618.63L146.548 722.188M263.47 618.63L256.899 679.946M263.47 618.63L359.368 708.563M263.47 618.63L369.88 602.276M196.469 513.709L74.2942 700.384M74.2942 700.384L36.1969 793.042L146.548 722.188M74.2942 700.384L146.548 722.188M146.548 722.188L256.899 679.946M359.368 708.563L256.899 679.946M359.368 708.563L453.956 797.129M359.368 708.563L369.88 602.276M256.899 679.946L369.88 602.276M520.955 528.697L369.88 602.276M686.48 566.851L654.95 742.625M813.911 1151.41L672.03 922.491M672.03 922.491L644.442 887.062M612.912 949.741L623.425 1090.09M612.912 949.741L453.956 797.129M612.912 949.741L644.442 887.062M453.956 797.129L549.201 842.096M644.442 887.062L549.201 842.096M644.442 887.062L654.95 742.625M549.201 842.096L654.95 742.625" stroke="#F3F3F4" stroke-width="0.5"/>
<path opacity="0.1" d="M-110.107 -143.251L61.0725 82.9562L25.7668 17.5336L-110.107 -143.251Z" fill="#41AFB5" fill-opacity="0.6"/>
<path opacity="0.1" d="M338.162 157.257L397.002 282.56L338.162 270.36V157.257Z" fill="#41AFB5"/>
<path opacity="0.1" d="M521.11 528.716L370.26 601.902L361.699 418.941L521.11 528.716Z" fill="#41AFB5"/>
<path opacity="0.1" d="M736.16 426.706L667.686 201.605L824.957 100.699L736.16 426.706Z" fill="#41AFB5"/>
<path d="M227.83 391.567C227.83 394.326 230.038 396.567 232.83 396.567C235.622 396.567 237.83 394.326 237.83 391.567C237.83 388.809 235.622 386.567 232.83 386.567C230.038 386.567 227.83 388.809 227.83 391.567Z" fill="#41AFB5" fill-opacity="0.6"/>
<path d="M202.156 271.813C202.156 274.572 204.364 276.813 207.156 276.813C209.949 276.813 212.156 274.572 212.156 271.813C212.156 269.055 209.949 266.813 207.156 266.813C204.364 266.813 202.156 269.055 202.156 271.813Z" fill="#41AFB5" fill-opacity="0.6"/>
<path d="M206.434 203.059C206.434 205.817 208.641 208.059 211.433 208.059C214.226 208.059 216.434 205.817 216.434 203.059C216.434 200.3 214.226 198.059 211.433 198.059C208.641 198.059 206.434 200.3 206.434 203.059Z" fill="#41AFB5" fill-opacity="0.6"/>
<path d="M208.572 116.577C208.572 119.336 210.78 121.577 213.572 121.577C216.365 121.577 218.572 119.336 218.572 116.577C218.572 113.818 216.365 111.577 213.572 111.577C210.78 111.577 208.572 113.818 208.572 116.577Z" fill="#41AFB5" fill-opacity="0.6"/>
<path d="M302.713 134.311C302.713 137.069 304.92 139.311 307.714 139.311C310.505 139.311 312.713 137.069 312.713 134.311C312.713 131.553 310.505 129.311 307.714 129.311C304.92 129.311 302.713 131.553 302.713 134.311Z" fill="#41AFB5" fill-opacity="0.6"/>
<path d="M336.953 158.71C336.953 161.47 339.163 163.712 341.955 163.712C344.744 163.712 346.953 161.47 346.953 158.71C346.953 155.955 344.744 153.712 341.955 153.712C339.163 153.712 336.953 155.955 336.953 158.71Z" fill="#41AFB5" fill-opacity="0.6"/>
<path d="M369.051 203.056C369.051 205.816 371.26 208.059 374.053 208.059C376.841 208.059 379.051 205.816 379.051 203.056C379.051 200.301 376.841 198.059 374.053 198.059C371.26 198.059 369.051 200.301 369.051 203.056Z" fill="#41AFB5" fill-opacity="0.6"/>
<path d="M244.945 114.352C244.945 117.111 247.153 119.352 249.945 119.352C252.738 119.352 254.945 117.111 254.945 114.352C254.945 111.593 252.738 109.352 249.945 109.352C247.153 109.352 244.945 111.593 244.945 114.352Z" fill="#41AFB5" fill-opacity="0.6"/>
<path d="M317.699 203.059C317.699 205.817 319.907 208.059 322.7 208.059C325.492 208.059 327.699 205.817 327.699 203.059C327.699 200.3 325.492 198.059 322.7 198.059C319.907 198.059 317.699 200.3 317.699 203.059Z" fill="#41AFB5" fill-opacity="0.6"/>
<path d="M332.674 271.813C332.674 274.572 334.881 276.813 337.675 276.813C340.466 276.813 342.674 274.572 342.674 271.813C342.674 269.055 340.466 266.813 337.675 266.813C334.881 266.813 332.674 269.055 332.674 271.813Z" fill="#41AFB5" fill-opacity="0.6"/>
<path d="M155.08 367.18C155.08 369.938 157.288 372.18 160.08 372.18C162.872 372.18 165.08 369.938 165.08 367.18C165.08 364.421 162.872 362.18 160.08 362.18C157.288 362.18 155.08 364.421 155.08 367.18Z" fill="#41AFB5" fill-opacity="0.6"/>
<path d="M399.008 309.514C399.008 312.272 401.215 314.514 404.009 314.514C406.8 314.514 409.008 312.272 409.008 309.514C409.008 306.755 406.8 304.514 404.009 304.514C401.215 304.514 399.008 306.755 399.008 309.514Z" fill="#41AFB5" fill-opacity="0.6"/>
<path d="M390.445 280.685C390.445 283.443 392.653 285.685 395.444 285.685C398.238 285.685 400.445 283.443 400.445 280.685C400.445 277.926 398.238 275.685 395.444 275.685C392.653 275.685 390.445 277.926 390.445 280.685Z" fill="#41AFB5" fill-opacity="0.6"/>
<path d="M354.072 413.751C354.072 416.509 356.282 418.751 359.073 418.751C361.865 418.751 364.072 416.509 364.072 413.751C364.072 410.993 361.865 408.751 359.073 408.751C356.282 408.751 354.072 410.993 354.072 413.751Z" fill="#41AFB5" fill-opacity="0.6"/>
<path d="M662.195 203.059C662.195 205.817 664.403 208.059 667.194 208.059C669.988 208.059 672.195 205.817 672.195 203.059C672.195 200.3 669.988 198.059 667.194 198.059C664.403 198.059 662.195 200.3 662.195 203.059Z" fill="#41AFB5" fill-opacity="0.6"/>
<path d="M493.156 398.22C493.156 400.978 495.364 403.22 498.158 403.22C500.949 403.22 503.156 400.978 503.156 398.22C503.156 395.461 500.949 393.22 498.158 393.22C495.364 393.22 493.156 395.461 493.156 398.22Z" fill="#41AFB5" fill-opacity="0.6"/>
<path d="M497.439 216.363C497.439 219.123 499.646 221.365 502.439 221.365C505.233 221.365 507.439 219.123 507.439 216.363C507.439 213.607 505.233 211.365 502.439 211.365C499.646 211.365 497.439 213.607 497.439 216.363Z" fill="#41AFB5" fill-opacity="0.6"/>
<path d="M623.68 112.135C623.68 114.893 625.888 117.135 628.68 117.135C631.472 117.135 633.68 114.893 633.68 112.135C633.68 109.376 631.472 107.135 628.68 107.135C625.888 107.135 623.68 109.376 623.68 112.135Z" fill="#41AFB5" fill-opacity="0.6"/>
<path d="M820.541 101.046C820.541 103.805 822.748 106.046 825.542 106.046C828.334 106.046 830.541 103.805 830.541 101.046C830.541 98.2872 828.334 96.0459 825.542 96.0459C822.748 96.0459 820.541 98.2872 820.541 101.046Z" fill="#41AFB5" fill-opacity="0.6"/>
<path d="M803.422 36.7344C803.422 39.493 805.629 41.7344 808.421 41.7344C811.214 41.7344 813.422 39.493 813.422 36.7344C813.422 33.9757 811.214 31.7344 808.421 31.7344C805.629 31.7344 803.422 33.9757 803.422 36.7344Z" fill="#41AFB5" fill-opacity="0.6"/>
<path d="M938.229 85.5225C938.229 88.2811 940.437 90.5225 943.229 90.5225C946.021 90.5225 948.229 88.2811 948.229 85.5225C948.229 82.7638 946.021 80.5225 943.229 80.5225C940.437 80.5225 938.229 82.7638 938.229 85.5225Z" fill="#41AFB5" fill-opacity="0.6"/>
<path d="M730.664 422.622C730.664 425.38 732.872 427.622 735.665 427.622C738.457 427.622 740.664 425.38 740.664 422.622C740.664 419.863 738.457 417.622 735.665 417.622C732.872 417.622 730.664 419.863 730.664 422.622Z" fill="#41AFB5" fill-opacity="0.6"/>
<path d="M889.012 134.311C889.012 137.069 891.219 139.311 894.013 139.311C896.804 139.311 899.012 137.069 899.012 134.311C899.012 131.553 896.804 129.311 894.013 129.311C891.219 129.311 889.012 131.553 889.012 134.311Z" fill="#41AFB5" fill-opacity="0.6"/>
<path d="M116.557 234.105C116.557 236.864 118.764 239.105 121.557 239.105C124.349 239.105 126.557 236.864 126.557 234.105C126.557 231.347 124.349 229.105 121.557 229.105C118.764 229.105 116.557 231.347 116.557 234.105Z" fill="#41AFB5" fill-opacity="0.6"/>
<path d="M150.795 105.482C150.795 108.241 153.003 110.482 155.795 110.482C158.587 110.482 160.795 108.241 160.795 105.482C160.795 102.723 158.587 100.482 155.795 100.482C153.003 100.482 150.795 102.723 150.795 105.482Z" fill="#41AFB5" fill-opacity="0.6"/>
<path d="M93.0195 74.4414C93.0195 77.2001 95.2273 79.4414 98.0195 79.4414C100.812 79.4414 103.02 77.2001 103.02 74.4414C103.02 71.6828 100.812 69.4414 98.0195 69.4414C95.2273 69.4414 93.0195 71.6828 93.0195 74.4414Z" fill="#41AFB5" fill-opacity="0.6"/>
<path d="M58.7891 85.5232C58.7891 88.2822 60.9968 90.5234 63.7891 90.5234C66.5813 90.5234 68.7891 88.2822 68.7891 85.5232C68.7891 82.7646 66.5813 80.5234 63.7891 80.5234C60.9968 80.5234 58.7891 82.7646 58.7891 85.5232Z" fill="#41AFB5" fill-opacity="0.6"/>
<path d="M20.2734 14.5576C20.2734 17.3163 22.4812 19.5576 25.2733 19.5576C28.0657 19.5576 30.2734 17.3163 30.2734 14.5576C30.2734 11.799 28.0657 9.55762 25.2733 9.55762C22.4812 9.55762 20.2734 11.799 20.2734 14.5576Z" fill="#41AFB5" fill-opacity="0.6"/>
<path d="M435.385 30.0811C435.385 32.84 437.589 35.0811 440.385 35.0811C443.174 35.0811 445.385 32.84 445.385 30.0811C445.385 27.3221 443.174 25.0811 440.385 25.0811C437.589 25.0811 435.385 27.3221 435.385 30.0811Z" fill="#41AFB5" fill-opacity="0.6"/>
<path d="M794.861 358.305C794.861 361.061 797.07 363.302 799.864 363.302C802.652 363.302 804.861 361.061 804.861 358.305C804.861 355.543 802.652 353.302 799.864 353.302C797.07 353.302 794.861 355.543 794.861 358.305Z" fill="#41AFB5" fill-opacity="0.6"/>
<path d="M454.639 200.841C454.639 203.599 456.846 205.841 459.637 205.841C462.431 205.841 464.639 203.599 464.639 200.841C464.639 198.083 462.431 195.841 459.637 195.841C456.846 195.841 454.639 198.083 454.639 200.841Z" fill="#41AFB5" fill-opacity="0.6"/>
<path d="M354.072 89.958C354.072 92.7167 356.282 94.958 359.073 94.958C361.865 94.958 364.072 92.7167 364.072 89.958C364.072 87.1994 361.865 84.958 359.073 84.958C356.282 84.958 354.072 87.1994 354.072 89.958Z" fill="#41AFB5" fill-opacity="0.6"/>
<path d="M253.51 45.6045C253.51 48.3632 255.718 50.6045 258.51 50.6045C261.302 50.6045 263.51 48.3632 263.51 45.6045C263.51 42.8458 261.302 40.6045 258.51 40.6045C255.718 40.6045 253.51 42.8458 253.51 45.6045Z" fill="#41AFB5" fill-opacity="0.6"/>
<defs>
<filter id="filter0_f_8339_15922" x="-114.451" y="-247.513" width="1416.59" height="1630.09" filterUnits="userSpaceOnUse" color-interpolation-filters="sRGB">
<feFlood flood-opacity="0" result="BackgroundImageFix"/>
<feBlend mode="normal" in="SourceGraphic" in2="BackgroundImageFix" result="shape"/>
<feGaussianBlur stdDeviation="1" result="effect1_foregroundBlur_8339_15922"/>
</filter>
</defs>
</svg>