 <svg
                    xmlns="http://www.w3.org/2000/svg"
                    viewBox="0 0 24 24"
                  >
                    <rect
                      width="24"
                      height="24"
                      rx="5"
                    ></rect>
                    <path
                      d="M16.668 19.165a.504.504 0 0 1-.5-.5v-7.333c0-.273.227-.5.5-.5s.5.227.5.5v7.333c0 .274-.227.5-.5.5ZM16.668 9.167a.504.504 0 0 1-.5-.5V5.334c0-.273.227-.5.5-.5s.5.227.5.5v3.333c0 .274-.227.5-.5.5ZM12 19.167a.504.504 0 0 1-.5-.5v-3.333c0-.273.227-.5.5-.5s.5.227.5.5v3.333c0 .274-.227.5-.5.5ZM12 13.167a.504.504 0 0 1-.5-.5V5.334c0-.273.227-.5.5-.5s.5.227.5.5v7.333c0 .274-.227.5-.5.5ZM7.332 19.165a.504.504 0 0 1-.5-.5v-7.333c0-.273.227-.5.5-.5s.5.227.5.5v7.333c0 .274-.227.5-.5.5ZM7.332 9.167a.504.504 0 0 1-.5-.5V5.334c0-.273.227-.5.5-.5s.5.227.5.5v3.333c0 .274-.227.5-.5.5Z"
                      fill="#ffffff"
                    ></path>
                    <path
                      d="M8.667 11.832H6a.504.504 0 0 1-.5-.5c0-.273.227-.5.5-.5h2.667c.273 0 .5.227.5.5s-.227.5-.5.5ZM18 11.832h-2.666a.504.504 0 0 1-.5-.5c0-.273.227-.5.5-.5h2.667c.273 0 .5.227.5.5s-.227.5-.5.5ZM13.333 13.168h-2.667a.504.504 0 0 1-.5-.5c0-.273.227-.5.5-.5h2.667c.273 0 .5.227.5.5s-.227.5-.5.5Z"
                      fill="#ffffff"
                    ></path>
                  </svg>