      <svg xmlns="http://www.w3.org/2000/svg"
                            viewBox="0 0 28 28">
                            <linearGradient        
                              x1="0"
                              y1="0"
                              x2="100%"
                              y2="100%"
                              id="settings-bold-alt"
                            >
                              <stop       
                                stop-color="#768BF9"
                                offset="0"
                              ></stop>
                              <stop
                                stop-color="#5695DF"
                                offset="100%"
                              ></stop>
                            </linearGradient>
                            <path
                              d="M14.827 9.446a.827.827 0 1 1-1.653 0 .827.827 0 0 1 1.653 0ZM8.832 18.534a.826.826 0 1 1-1.652 0 .826.826 0 0 1 1.652 0ZM20.842 15.497a.827.827 0 1 1-1.653-.001.827.827 0 0 1 1.653.001Z"
                            ></path>
                            <path
                              d="M2 6.337A4.34 4.34 0 0 1 6.341 2H21.66A4.34 4.34 0 0 1 26 6.337v15.326A4.34 4.34 0 0 1 21.659 26H6.34A4.34 4.34 0 0 1 2 21.663V6.337ZM8.687 16.42V5.707a.713.713 0 0 0-1.426 0v10.734a2.221 2.221 0 0 0 0 4.185v1.646a.713.713 0 0 0 1.426 0v-1.625a2.221 2.221 0 0 0 0-4.227Zm-.682 2.94a.827.827 0 1 1 0-1.654.827.827 0 0 1 0 1.654Zm5.271-12.014a2.221 2.221 0 0 0 0 4.2v10.726a.713.713 0 0 0 1.427 0v-10.72a2.222 2.222 0 0 0 0-4.213V5.707a.713.713 0 0 0-1.426 0v1.639Zm0 2.5a.827.827 0 1 0 1.447-.802.827.827 0 0 0-1.447.802Zm4.517 5.651c0 .981.637 1.814 1.52 2.107v4.668a.713.713 0 0 0 1.426 0v-4.675a2.221 2.221 0 0 0 0-4.2v-7.69a.713.713 0 0 0-1.426 0v7.683a2.221 2.221 0 0 0-1.52 2.107Zm2.946.4a.822.822 0 0 0 0-.8.827.827 0 1 0 0 .8Z"
                            ></path>
                          </svg>