 <svg
                              xmlns="http://www.w3.org/2000/svg"
                              viewBox="0 0 32 32"
                            >
                              <path
                                d="M20.32 29.693h-.173c-5.92 0-8.774-2.333-9.267-7.56a1.002 1.002 0 0 1 .907-1.093 1.02 1.02 0 0 1 1.093.907c.387 4.186 2.36 5.746 7.28 5.746h.173c5.427 0 7.347-1.92 7.347-7.346v-8.694c0-5.426-1.92-7.346-7.347-7.346h-.173c-4.947 0-6.92 1.586-7.28 5.853-.067.547-.533.96-1.093.907-.56-.04-.96-.534-.92-1.08.453-5.307 3.32-7.68 9.28-7.68h.173c6.547 0 9.347 2.8 9.347 9.346v8.694c0 6.546-2.8 9.346-9.347 9.346Z"
                              ></path>
                              <path
                                d="M20 17H4.827c-.547 0-1-.453-1-1 0-.547.453-1 1-1H20c.547 0 1 .453 1 1 0 .547-.453 1-1 1Z"
                              ></path>
                              <path
                                d="M7.8 21.467a.989.989 0 0 1-.707-.294l-4.466-4.466a1.006 1.006 0 0 1 0-1.414l4.466-4.466a1.006 1.006 0 0 1 1.414 0 1.006 1.006 0 0 1 0 1.413L4.747 16l3.76 3.76a1.006 1.006 0 0 1 0 1.413.967.967 0 0 1-.707.294Z"
                              ></path>
                            </svg>