 <svg
                              xmlns="http://www.w3.org/2000/svg"
                              viewBox="0 0 32 32"
                            >
                              <path
                                d="M19.4 29.893c-.44 0-.853-.293-.973-.747a.999.999 0 0 1 .72-1.226 12.342 12.342 0 0 0 9.186-11.934c0-6.8-5.533-12.333-12.333-12.333-5.773 0-9.56 3.374-11.333 5.413h3.92a1.007 1.007 0 0 1 0 2.014H2.68c-.067 0-.187-.014-.28-.04a1.198 1.198 0 0 1-.32-.16.878.878 0 0 1-.28-.307 1.077 1.077 0 0 1-.133-.413V4c0-.547.453-1 1-1 .546 0 1 .453 1 1v3.186C5.84 4.853 9.933 1.667 16 1.667c7.907 0 14.333 6.427 14.333 14.334 0 6.506-4.386 12.213-10.68 13.866-.08.014-.173.027-.253.027ZM15.053 30.307c-.026 0-.053-.014-.066-.014a14.03 14.03 0 0 1-4.187-.933.995.995 0 0 1-.573-1.293c.2-.507.8-.76 1.293-.574 1.16.454 2.373.72 3.6.814.52.026.933.48.933 1.013l-.013.053a.992.992 0 0 1-.987.934ZM7.707 27.44c-.227 0-.44-.08-.627-.213a14.715 14.715 0 0 1-2.907-3.134.973.973 0 0 1 .254-1.386 1.025 1.025 0 0 1 1.386.24v.013c.014.013.027.04.04.053.694 1 1.534 1.894 2.48 2.64.227.187.374.467.374.774 0 .226-.067.453-.214.64-.2.24-.48.373-.786.373Zm-4.454-6.507a.976.976 0 0 1-.946-.693c-.427-1.373-.64-2.8-.64-4.24v-.013a1.005 1.005 0 0 1 1-.987c.546 0 1 .453 1 1 0 1.253.186 2.48.546 3.64.027.107.04.2.04.307 0 .426-.28.813-.706.946-.094.027-.187.04-.294.04Z"
                              ></path>
                            </svg>