  <svg
                              xmlns="http://www.w3.org/2000/svg"
                              viewBox="0 0 24 24"
                            >
                              <path
                                d="M12 12.75c-3.17 0-5.75-2.58-5.75-5.75S8.83 1.25 12 1.25 17.75 3.83 17.75 7s-2.58 5.75-5.75 5.75Zm0-10C9.66 2.75 7.75 4.66 7.75 7s1.91 4.25 4.25 4.25S16.25 9.34 16.25 7 14.34 2.75 12 2.75ZM20.5901 22.75c-.41 0-.75-.34-.75-.75 0-3.45-3.5199-6.25-7.8399-6.25s-7.84 2.8-7.84 6.25c0 .41-.34.75-.75.75s-.75-.34-.75-.75c0-4.27 4.19-7.75 9.34-7.75 5.15 0 9.3399 3.48 9.3399 7.75 0 .41-.34.75-.75.75Z"
                              ></path>
                            </svg>