<svg
                                    version="1.1"
                                    xmlns="http://www.w3.org/2000/svg"
                                    xmlns:xlink="http://www.w3.org/1999/xlink"
                                    x="0px"
                                    y="0px"
                                    viewBox="0 0 512 512"
                                  >
                                    <path
                                      d="M373.125 315.75c-23.5 0-44.889 9.18-60.678 24.234l-90.236-56.455c5.416-17.258 5.416-35.892 0-53.058l90.236-56.455c15.789 15.054 37.178 24.234 60.678 24.234 48.652 0 88.125-39.473 88.125-88.125S421.777 22 373.125 22 285 61.473 285 110.125a89.383 89.383 0 004.039 26.529l-90.236 56.455c-15.789-15.054-37.178-24.234-60.678-24.234C89.473 168.875 50 208.348 50 257s39.473 88.125 88.125 88.125c23.5 0 44.889-9.18 60.678-24.234l90.236 56.455c-2.662 8.629-4.039 17.533-4.039 26.529C285 452.527 324.473 492 373.125 492s88.125-39.473 88.125-88.125-39.473-88.125-88.125-88.125zm0-249.688c24.326 0 44.063 19.737 44.063 44.063 0 24.326-19.737 44.063-44.063 44.063-24.326 0-44.062-19.737-44.062-44.063 0-24.326 19.736-44.063 44.062-44.063zm-235 235.001c-24.326 0-44.063-19.737-44.063-44.063 0-24.326 19.737-44.062 44.063-44.062 24.326 0 44.063 19.736 44.063 44.062 0 24.326-19.737 44.063-44.063 44.063zm235 146.875c-24.326 0-44.062-19.737-44.062-44.063 0-24.326 19.736-44.062 44.062-44.062 24.326 0 44.063 19.736 44.063 44.062 0 24.326-19.737 44.063-44.063 44.063z"
                                    ></path>
                                  </svg>